<?xml version="1.0" encoding="utf-8"?>
<!-- Generator: Adobe Illustrator 21.1.0, SVG Export Plug-In . SVG Version: 6.00 Build 0)  -->
<svg version="1.1" xmlns="http://www.w3.org/2000/svg" xmlns:xlink="http://www.w3.org/1999/xlink" x="0px" y="0px"
	 viewBox="0 0 484 455.3" style="enable-background:new 0 0 484 455.3;" xml:space="preserve">
<style type="text/css">
	.st0{display:none;}
	.st1{fill:#EE365E;}
	.st2{fill:none;stroke:#000000;stroke-width:2;stroke-miterlimit:10;}
	.st3{fill:#DADFE5;}
	.st4{fill:#A7A9AC;}
	.st5{fill:#FFF200;stroke:#F7941D;stroke-width:2;stroke-linecap:round;stroke-miterlimit:10;}
	.st6{fill:none;stroke:#F7941D;stroke-width:2;stroke-linecap:round;stroke-miterlimit:10;}
	.st7{fill:#A7A9AC;stroke:#000000;stroke-width:3;stroke-miterlimit:10;}
	.st8{fill:#5C98D1;stroke:#000000;stroke-width:3;stroke-linecap:round;stroke-miterlimit:10;}
	.st9{fill:none;stroke:#000000;stroke-width:3;stroke-miterlimit:10;}
	.st10{fill:none;stroke:#000000;stroke-width:3;stroke-linecap:round;stroke-miterlimit:10;}
	.st11{fill:#443641;stroke:#000000;stroke-width:3;stroke-linecap:round;stroke-miterlimit:10;}
	.st12{fill:none;stroke:#000000;stroke-width:2;stroke-linecap:round;stroke-miterlimit:10;}
	.st13{fill:#EE365E;stroke:#000000;stroke-width:3;stroke-miterlimit:10;}
	.st14{fill:none;stroke:#000000;stroke-linecap:round;stroke-miterlimit:10;}
	.st15{fill:none;stroke:#000000;stroke-miterlimit:10;}
	.st16{fill:#A7A9AC;stroke:#000000;stroke-width:2;stroke-miterlimit:10;}
	.st17{fill:#FFFFFF;stroke:#000000;stroke-width:2;stroke-miterlimit:10;}
	.st18{fill:#A7A9AC;stroke:#000000;stroke-width:3;stroke-linejoin:round;stroke-miterlimit:10;}
	.st19{opacity:0.4;fill:#55285B;}
	.st20{opacity:0.3;fill:#55285B;}
	.st21{opacity:0.3;fill:#FFFFFF;}
	.st22{fill:#FFFFFF;}
	.st23{opacity:0.31;fill:#3E5A7D;}
</style>
<g id="Layer_1" class="st0">
	
		<image style="display:inline;overflow:visible;opacity:0.24;" width="1291" height="1182" xlink:href="anteater_concept_wheel.png"  transform="matrix(0.395 0 0 0.395 -26 4.2233)">
	</image>
</g>
<g id="Layer_2">
	<path class="st1" d="M410,187.1c-10.2,18.4-28.1,38.9-48,51.1c-14.6,9-43.5,16.3-59,16.3l-42.1-25.1l24.6-44.9l75.6-10.6l46,2
		L410,187.1z"/>
	<path class="st1" d="M186.1,261.5c-7.6,0-41.2,2.4-73.2-17.9c-35.3-22.4-40.2-39.4-50.4-52.8l1.3-21.1l89.5,25.6l45.6,1.9v49.1
		L186.1,261.5z"/>
	<g>
		<path d="M257,430.8c3.9-1.4,7.5-3.6,10.6-6.3c3.1-2.7,5.9-5.8,8.2-9.2c2.3-3.4,4.2-7.1,5.7-11c0.8-1.9,1.4-3.9,1.9-5.9
			c0.5-2,0.9-4.1,1-6.1c0.1,4.2-0.9,8.3-2.2,12.3c-1.4,4-3.3,7.7-5.6,11.3c-1.1,1.8-2.5,3.4-3.9,5c-1.4,1.5-2.9,3-4.6,4.3
			c-1.6,1.3-3.4,2.5-5.3,3.5C261,429.6,259,430.3,257,430.8z"/>
	</g>
	<path class="st2" d="M301.5,254.8c15.5,0,44.4-7.2,59-16.3c19.9-12.2,37.8-32.8,48-51.1"/>
	<g id="Layer_3">
		<g>
			<g>
				<path class="st3" d="M204.2,279.4c1.4-3.6,1.8-7,1.3-10.8c-0.4-3.1-5-3.3-5,0c0,1.9,0,3.9-0.1,5.8c1.4-0.6,2.8-1.2,4.3-1.8
					c-0.5-1.3-1-2.7-1.5-4c-1.2,0.5-2.4,1-3.7,1.5c10.6,5.8,22.1,9,34.2,9.3c0-1.7,0-3.3,0-5c-5.9,0.5-11.9,0.3-17.7-0.9
					c-4.7-1-8.9-3.2-13.8-2.3c-2,0.4-2.5,3.7-0.6,4.6c14.8,6.5,30.6,9.6,46.8,9.1c3-0.1,3.2-3.9,0.7-4.9c-9.1-3.7-18.4-6.6-28-8.7
					c-3.1-0.7-4.4,3.9-1.3,4.8c12.2,3.6,24.7,5.7,37.3,6.2c0-1.7,0-3.3,0-5c-6.7,0.4-13.2-0.3-19.7-2.1c-0.2,1.6-0.4,3.3-0.7,4.9
					c8.2,0.7,16.4,2,24.4,3.9c0.2-1.6,0.4-3.3,0.7-4.9c-6.5,0.4-12.4-0.9-18-4.1c-0.4,1.6-0.8,3.1-1.3,4.7c9-0.4,17.9-0.5,26.9-0.3
					c-0.2-1.6-0.4-3.3-0.7-4.9c-8.1,2.7-16.3,3.9-24.9,3.5c-2.8-0.1-3.5,4.5-0.7,4.9c10.8,1.6,21.5,1.4,32.2-0.7
					c2.5-0.5,2.3-4.2,0-4.8c-3.8-1.1-7.7-2.2-11.4-3.4c-0.2,1.6-0.4,3.3-0.7,4.9c6.5,0.3,13,0.5,19.5,0.8c2.8,0.1,3.4-4.3,0.7-4.9
					c-3.2-0.7-5.7,0-8.1,2.1c1-0.1,2-0.3,3-0.4c-0.2-0.2-0.4-0.5-0.6-0.7c-1.4,0.8-2.8,1.6-4.2,2.4c1.1,1,2.1,2.1,3.2,3.1
					c1.4,1.4,4.5,0.5,4.3-1.8c-0.1-0.9-0.2-1.9-0.3-2.8c-1.3,0.7-2.5,1.4-3.8,2.2c1.5,0.8,2.6,1.7,3.7,3c1.3,1.6,3.6,0.5,4.2-1.1
					c0.4-1.3,0.9-2.6,1.3-4c-1.2,0.5-2.4,1-3.7,1.5c1.3,0.4,2.1,1.3,2.5,2.6c0.9,2,4.1,1.4,4.6-0.6c0.6-2.3,1.3-4.5,2.2-6.7
					c-1.4,0-2.9,0-4.3,0c1.2,1.3,1.5,2.8,0.9,4.4c-0.8,3.2,3.7,4.3,4.8,1.3c1.1-2.9-0.2-6-2.9-7.5c-5-2.8-9.9,2.4-15,0.8
					c-3.1-1-4.4,3.9-1.3,4.8c1.9,0.6,3.5,0.7,5.5,0.4c0.6-0.1,10.2-3.4,9,0.2c1.6,0.4,3.2,0.9,4.8,1.3c0.7-3.1,0.4-5.7-1.4-8.3
					c-0.9-1.4-3.5-1.9-4.3,0c-1.1,2.6-2,5.1-2.7,7.9c1.5-0.2,3-0.4,4.6-0.6c-1-2-2.3-3.4-4.3-4.4c-1.5-0.7-3.1-0.1-3.7,1.5
					c-0.4,1.3-0.9,2.6-1.3,4c1.4-0.4,2.8-0.7,4.2-1.1c-1.4-1.7-2.8-2.8-4.7-3.8c-1.5-0.8-4,0.1-3.8,2.2c0.1,0.9,0.2,1.9,0.3,2.8
					c1.4-0.6,2.8-1.2,4.3-1.8c-1.1-1-2.1-2.1-3.2-3.1c-1.8-1.7-4.9,0-4.2,2.4c0.5,1.7,1.3,2.8,2.9,3.7c1,0.6,2.2,0.4,3-0.4
					c1.1-0.3,2.1-0.6,3.2-0.8c0.2-1.6,0.4-3.3,0.7-4.9c-6.5-0.3-13-0.5-19.5-0.8c-2.9-0.1-3.3,4.1-0.7,4.9c3.8,1.2,7.6,2.3,11.4,3.4
					c0-1.6,0-3.2,0-4.8c-9.8,1.9-19.7,2.2-29.5,0.7c-0.2,1.6-0.4,3.3-0.7,4.9c9,0.4,17.7-0.9,26.2-3.7c2.6-0.9,2.2-4.8-0.7-4.9
					c-9-0.2-17.9-0.1-26.9,0.3c-2.4,0.1-3.5,3.4-1.3,4.7c6.4,3.6,13.3,5.2,20.6,4.8c2.7-0.2,3.5-4.2,0.7-4.9
					c-8.5-2-17.1-3.4-25.8-4.1c-2.9-0.2-3.3,4.2-0.7,4.9c6.9,1.9,13.9,2.7,21,2.3c3.2-0.2,3.2-4.9,0-5c-12.3-0.5-24.3-2.6-36-6
					c-0.4,1.6-0.9,3.2-1.3,4.8c9.6,2.1,18.9,4.9,28,8.7c0.2-1.6,0.4-3.3,0.7-4.9c-15.3,0.6-30.3-2.2-44.2-8.4
					c-0.2,1.5-0.4,3-0.6,4.6c3.1-0.6,6.4,1.1,9.4,1.9c2.4,0.6,4.8,1,7.3,1.3c4.5,0.6,9,0.6,13.6,0.2c3.2-0.3,3.3-4.9,0-5
					c-11.2-0.3-21.9-3.3-31.7-8.7c-1.3-0.7-3.4-0.2-3.7,1.5c-0.5,3.5,0.2,6.3,2.7,8.8c1.5,1.6,4.2,0.4,4.3-1.8c0-1.9,0-3.9,0.1-5.8
					c-1.7,0-3.3,0-5,0c0.4,3.4,0.1,6.3-1.1,9.5C198.2,281.1,203,282.4,204.2,279.4L204.2,279.4z"/>
			</g>
		</g>
	</g>
	<path class="st4" d="M416.5,173.8c0.6-2.2,0.2-4.7-1.6-6.8c-7.7-9.2-19.7-7.9-29.9-4.4c-0.6,0.2-1.1,0.3-1.7,0.5
		c-11.9,0.3-23.6-1.2-35.2-4.6c-1.5-0.4-2.9-0.4-4.1,0c-1.2-0.3-2.4-0.6-3.6-0.9c-6.5-2.3-13.1-4.6-19.6-7c-1.1-0.4-2.2-0.5-3.2-0.4
		c-0.2-0.2-0.5-0.4-0.7-0.7c-2.7-2.7-6-2.7-8.5-1.3l1.8-14l-4.4-35.6H189.5c0,0-3.6,27.5,15.9,59.5l99.9,1c0.3,0.4,0.5,0.7,0.9,1.1
		c3.5,3.6,5.7,6.3,5.7,11.5c0,6-0.3,12-0.5,18c-0.1,5.2,0.2,10.5,5.2,13.5c4.4,2.6,10.7,2.7,15.6,2.9c1.3,0.1,2.5-0.2,3.5-0.8
		c5.4,0.2,10.8,0,16.2-0.5c2.6,0.1,5.1-0.2,7.8-0.9c1.3-0.4,2.4-0.9,3.2-1.7c1.4-0.3,2.8-0.8,4.2-1.4c3.5-0.8,6.9-1.8,10.2-3
		c1.9-0.3,3.8-0.9,5.6-1.7c0.5,0,0.9,0,1.1,0c3.5-0.2,6.6-1.1,9.7-2.8c3.7-2.1,6.9-4.3,10.3-6.1c3.3-1.1,6.5-2.3,9.7-3.8
		C418,181.5,418.3,177.2,416.5,173.8z"/>
	<path class="st4" d="M204.6,138.3c-8.2-4.5-18,3.3-26.7,0.5c-4.2-1.4-7.8-3.5-12.3-3.7c-4.5-0.1-8.9,1.5-11.9,4.9
		c-0.9,1-1.4,2-1.7,3.1c-1.1,0.1-2.2,0.1-3.2,0c-2.6-0.2-5,1.4-6.3,3.6c-0.2,0.1-0.5,0.2-0.7,0.3c-1-0.2-2.1-0.2-3.3,0
		c-9.8,2.1-19.6,4.2-29.5,6.1c-8.7,1.7-17.4,3-26,0c-7.5-2.6-12.2,7.7-7.2,12.6c-0.1,1.1,0.2,2.6,0.5,3.7c0.2,0.8,0.4,1.6,0.7,2.3
		c-7.3-0.4-12.4,10.1-4.6,13.7c24.7,11.4,50.9,18.6,78,21.1c11.6,1.1,26.8,3.5,34.7-7.3c1.3-1.8,2.3-3.8,3-5.8
		c0.5-0.5,1-0.9,1.5-1.5c2.7-3.1,2.6-6.8,0.7-9.5c0.2-1.5,0.3-3,0.5-4.5c2-2.4,1.9-5.2,0.7-7.4c0.1-0.6,0.1-1.3,0.2-1.9
		c6.9-0.4,14.1-1.5,17.6-8C212.5,154.2,211.6,142.2,204.6,138.3z"/>
	<g>
		<g>
			<path class="st4" d="M229.4,304.7c-0.6-3.7-1.2-7.5-1.7-11.2c-0.5-2.9-4.8-2-4.9,0.7c-0.1,2.7-0.3,5.3-0.4,8
				c1.1-0.8,2.1-1.6,3.2-2.4c-1.7-0.5-1.1-3.1-1-4.2c-1.6-0.2-3.3-0.4-4.9-0.7c-0.1,2.2-0.1,4.3-0.2,6.5c1.6-0.4,3.1-0.8,4.7-1.3
				c-1.2-1.8-1.4-3.5-0.7-5.6c-1.5,0.2-3,0.4-4.6,0.6c1.2,2.2,2.2,4.4,2.9,6.8c0.7,2.1,3.4,2.4,4.6,0.6c1.5-2.3,2.2-4.8,2.2-7.5
				c-1.6,0.4-3.1,0.8-4.7,1.3c1.2,1.8,2.2,3.6,2.9,5.7c0.9,2.8,4.6,2.1,4.9-0.7c0.2-2,0.4-4,0.5-6c-1.6,0.4-3.1,0.8-4.7,1.3
				c1.1,1.6,1.8,3.2,1.9,5.2c1.7,0,3.3,0,5,0c-0.2-2.4,0-4.4,0.8-6.7c-1.5,0.2-3,0.4-4.6,0.6c1.1,1.8,1.4,3.6,1.2,5.7
				c1.7,0,3.3,0,5,0c0-0.8-0.3-2.8,0-3.4c-0.5,0.4-1,0.8-1.5,1.1c0.2-0.1,0.3-0.1,0.5-0.2c-0.6-0.1-1.3-0.2-1.9-0.3
				c0.1,0.1,0.3,0.2,0.4,0.2c-0.4-0.5-0.8-1-1.1-1.5c0.5,1.3,0.1,3.6,0.1,5c0,3.2,4.9,3.2,5,0c0.1-2.2,0.1-4.4,0.2-6.5
				c-1.6,0.2-3.3,0.4-4.9,0.7c0.2,1.1,1,4.5,0.3,5.7c0.5-0.4,1-0.8,1.5-1.1c-2.1,0.6-4.7-0.8-6.5-1.9c-2.7-1.8-5.2,2.6-2.5,4.3
				c2.6,1.7,7.9,4.1,10.9,2.1c2.9-1.8,1.5-7.7,1.1-10.4c-0.5-2.9-4.8-2.1-4.9,0.7c-0.1,2.2-0.1,4.4-0.2,6.5c1.7,0,3.3,0,5,0
				c0-2.5,1-7.9-2.8-8.3c-4.1-0.5-3.7,4.8-3.7,7.3c0,3.3,4.7,3.2,5,0c0.3-3-0.4-5.6-1.9-8.2c-1.2-1.9-3.9-1.4-4.6,0.6
				c-0.9,2.6-1.3,5.3-1,8c0.3,3.2,5.2,3.2,5,0c-0.2-2.8-1-5.4-2.6-7.7c-1.4-2-4.5-1.3-4.7,1.3c-0.1,2-0.3,4-0.5,6
				c1.6-0.2,3.3-0.4,4.9-0.7c-0.8-2.5-1.9-4.7-3.4-6.9c-1.4-2-4.6-1.3-4.7,1.3c-0.1,1.9-0.6,3.4-1.6,5c1.5,0.2,3,0.4,4.6,0.6
				c-0.9-2.8-2-5.5-3.4-8c-1.1-2-3.9-1.3-4.6,0.6c-1.2,3.2-0.7,6.6,1.2,9.5c1.4,2,4.6,1.3,4.7-1.3c0.1-2.2,0.1-4.3,0.2-6.5
				c0.1-2.7-4.5-3.5-4.9-0.7c-0.7,4.3-0.4,8.9,4.5,10.4c1.6,0.5,3.1-0.8,3.2-2.4c0.1-2.7,0.3-5.3,0.4-8c-1.6,0.2-3.3,0.4-4.9,0.7
				c0.6,3.7,1.2,7.5,1.7,11.2C225,309.2,229.9,307.8,229.4,304.7L229.4,304.7z"/>
		</g>
	</g>
	<path class="st5" d="M261.2,58.2c0,0-6-6.1-8-11.4s-3.2-17.1,0.4-18.1s13.1,9.5,15.6,15c2.5,5.5,4.8,14.5,4.8,14.5H261.2z"/>
	<polyline class="st6" points="263.6,57.5 261.2,52.4 263.5,53 263.4,49.7 265.7,52.6 267.1,49.2 268.5,54.3 269.2,57.5 	"/>
	<path class="st7" d="M309.8,126.1c0,0,6.1-2.5,18.9-4.1c27.8-3.4,48.4,3.1,52.7,3.3c7.5,0.4,8.4-9,2-19.4
		C378.5,97.8,302,47,238,60.7c-50.4,10.8-56.7,41.3-56.7,41.3"/>
	<path class="st8" d="M187.3,263.2c0,0.1,0.1,0.2,0.2,0.2c2.9,2.8,41.8,11.9,63.2,11.9c21.7,0,42.5-2.4,47.3-6
		c4.3-3.2,4.3-19,6.7-26.7c2.3-7.7,15-35,13.3-52.7s-8.7-37.3-9.3-42.7c-0.5-4.3,3.7-15.4,5.5-19.8c0.3-0.8-0.1-1.5-1-1.4
		c-3.2,0.1-4.2,0.1-5.1,0.6c-0.3,0.2-1.6,1.5-1.8,1.8c-1.3,2.1-7.3,11.1-10.5,12.6c-3.6,1.7-32.1,2.5-34.4,0.8
		c-2.3-1.7-4.2-22-8.6-22.7c-4.4-0.7-70.1-14-71.4-17.3c-0.7-1.8-0.5-3.3-0.1-4.2c0.2-0.6-0.2-1.3-0.9-1.4c-2-0.2-5.4-0.3-7.3,1.1
		c-2.8,2.1,2.3,20.9-3.8,27.6c-2.6,2.8-10.1,5.9-13.8,8.4c-1.1,0.7-2.9,5.4-1.7,5.9c8,3.1,30.6,12.4,29,37.3
		c-2,30.3-17.3,31.8-23.5,31.1c-0.9-0.1-1.5,0.9-1,1.7c3.7,5,12.6,17.3,15.6,25.3C178.1,245.8,186.4,261.6,187.3,263.2z"/>
	<path class="st7" d="M399.3,158.8c0,0,1.6-4.9,4.8-10.8c2.7-5,9-10.2,11.9-11.8c2.3-1.3,3.9,3.9,2.1,7.9c-1.6,3.7-5,6.9-1,9.3
		c2.6,1.6,8.9-4.1,14-6.4c8.1-3.7,16.8-2.2,19,0c2.3,2.2-2.9,5.2-8.5,8c-4.6,2.3-9.3,2.6-7.5,5.5c1.8,3,7,0,10.8-0.8
		s15.3-1.5,17.3,2.1c2,3.7-8.5,9.2-14.5,10.9c-3.1,0.8-9.5,1.3-9.5,3.3s4.7,1.9,9.4,3c4.5,1,10.1,2.5,8.1,4.7
		c-2,2.2-16.9,7.2-31.3,5.7c-5.3-0.6-20.1-2.6-20.1-2.6"/>
	<path class="st9" d="M161.7,214.1c15.6,0,22-9.9,26.6-25.3c7.3-24.3-7.9-50.3-32.1-55.5"/>
	<path class="st9" d="M73,187.5c14.5,5.8,22.3,7.8,37.3,11.8c22.8,6,38.6,7.2,59.7,6.5"/>
	<path class="st9" d="M79.7,153.3c13.3,1.4,23.2,0.4,47-4.5c10.9-2.3,23-5.4,28-8.5"/>
	<line class="st9" x1="199.1" y1="276.8" x2="198.2" y2="267.2"/>
	<line class="st9" x1="293.6" y1="280.3" x2="293.5" y2="271.3"/>
	<path class="st9" d="M308.5,144.8c10.9,5,25.9,10.2,48,15c18.8,4.1,31.5,2.1,42.8-1"/>
	<path class="st9" d="M317,203.8c9.2,2.8,26.5,5.1,48-1c20-5.7,31.2-10.3,39-16"/>
	<path class="st9" d="M169.3,125.1c22.5,13.3,41,25.7,99.3,29.7c17,1.2,28.4-1.9,41-5.5"/>
	<path class="st10" d="M399.3,158.8c3.4,1.2,5.9,3.3,6.8,11.9c0.9,8.3-0.9,12.7-2.1,16.1"/>
	<path class="st10" d="M257,123.6c9-2.1,27-3.5,39.9-4.5c15.3-1.3,44.5,0.4,55,1.9"/>
	<path class="st8" d="M296.8,301.2c7.2,4.9-16,67.4-24.3,75.6c-5.6,5.5-17.6,2.8-18.3-3.6c-0.5-4.8,2.7-19.1,4.9-33
		c2.9-18.4,0.7-32.5,2.9-36.4C264.2,299.9,292,297.8,296.8,301.2z"/>
	<path class="st7" d="M269.2,293.8l0,1.8c0,0,0,0.1,0,0.1c0,0.6,0,4.9,0.3,6.8c0.1,0.6,0.5,1.2,1.1,1.4c2.1,0.7,6.5,0.7,8.8,0.7
		c2.7,0,5.6-0.7,5.6-0.7c1.7-0.7,2.7-1.4,2.7-2.9v-6c0-2.6-2.1-4.6-4.6-4.6h-11C270.4,290.6,269.1,292.1,269.2,293.8z"/>
	<path class="st11" d="M314.3,372c0.3,38.8-17.4,64.3-56,64.3c-45.4,0-59.3-38.3-57.6-71.1c1.8-34.4,14.1-57.5,57.6-57.5
		C306.2,307.7,314.1,345.4,314.3,372z"/>
	<path class="st7" d="M216.8,371.9c0.3-24.6,10-39.6,25.1-39.6c15.1,0,27.4,9.4,27.4,39.5c0,31-13.1,40.9-28.4,38.5
		C226.7,408.1,216.5,392.3,216.8,371.9z"/>
	<path class="st8" d="M210.7,304c-7.4,5.1,16.5,69.5,25.1,78c5.8,5.7,18.2,2.9,18.9-3.7c0.6-4.9-2.8-19.7-5-34.1
		c-3-19-0.7-33.5-3-37.5S215.7,300.5,210.7,304z"/>
	<path class="st12" d="M257.5,129.3c8.7,2,17.5,2,26.8,2c10.5,0,16.5-1.1,20.5-2.5"/>
	<path class="st12" d="M259.8,135.5c7.5,2,15.2,2,23.2,2c8.7,0,14.7-1.2,17.8-2.5"/>
	<path class="st2" d="M273.2,58.4c-13.4-0.3-31.6,11.4-31.6,23.3c0,8.1,18.1,37.2,35.7,39.7"/>
	<circle class="st2" cx="248.1" cy="82.2" r="1.5"/>
	<path class="st2" d="M220.5,65.8c-5.5,2.3-11.8,16.5-11.8,21.9c0,9.8,25.7,27.6,27,28"/>
	<circle class="st2" cx="215" cy="87.9" r="1.5"/>
	<path class="st13" d="M198.6,288.3c-3.1-3.5-4.6-9.2-1.9-11.3c2.3-1.8,21,5.1,53.8,5.7c33.8,0.6,45.7-4.9,47.5-2.3
		c2.4,3.4,0.7,8.9-2.6,11.6c-2.9,2.4-20.3,3.5-44.4,3.6C229,295.7,201.3,291.4,198.6,288.3z"/>
	<path class="st12" d="M330.5,153.5c6.2,1.6,9.9,13.7,9.9,22.3c-0.1,19.6-5.2,26.9-9.9,30.9"/>
	<path class="st12" d="M353.8,159.8c6.2,1.4,9.9,11.9,9.9,19.4c-0.1,17.1-5.2,23.3-9.9,26.8"/>
	<path class="st12" d="M373.5,162c6.2,1.1,9.9,9.9,9.9,16.1c-0.1,14.2-5.2,19.4-9.9,22.3"/>
	<path class="st12" d="M392.7,160.6c4.1,1,6.6,8.4,6.6,13.6c0,12-3.5,16.4-6.6,18.9"/>
	<path class="st12" d="M166,220.5c2.6,1.6,21.2,6.4,29.3,11c11,6.3,18.4,13.9,20,15.6c3.9,4.2,3.6,7.5,8,17.3c2.9,6.5,4,6.9,7.2,8.6
		"/>
	<path class="st12" d="M215.3,247.1c13.7,6.6,31.1,8.4,58.1,7.6c14.4-0.5,26.3-4.5,30.2-12"/>
	<path class="st14" d="M183.5,225.3l4.8-8c0.5-0.7,1.4-0.9,2.1-0.5l21.9,10.7c0.7,0.4,0.9,1.4,0.5,2.1l-5.2,9"/>
	<path class="st12" d="M195.3,80.7c-0.9,2.4-8.8,9.6-3.8,16.6c3.6,5.1,11.1,10.4,13.5,11.8"/>
	<ellipse transform="matrix(0.7606 -0.6492 0.6492 0.7606 -14.0942 149.6936)" class="st2" cx="195.9" cy="94" rx="1.5" ry="1.5"/>
	<path class="st2" d="M140,144.8c2.6,2.3,16.5,4.3,16.5,31.5c0,16.5-6.8,25.1-9.5,29"/>
	<path class="st2" d="M117.2,151c2.1,1.9,13.6,3.6,13.6,26.2c0,13.7-5.6,20.8-7.8,24.1"/>
	<path class="st2" d="M101.4,153.1c1.1,1.8,7.9,3.9,6,23.3c-1.2,11.7-5.1,17.6-6.7,20.2"/>
	<path class="st2" d="M84.8,153c1.1,1.7,8.4,4.1,5.6,21.4c-1.7,10.5-6.2,15.4-8,17.6"/>
	<path class="st7" d="M76.4,185.8c0,0-9.4,3.5-26.8,6.2c-10.3,1.6-20.3,0.7-21.4-2.4c-1.1-3.2,4.5-7.6,7.4-8.1
		c4.8-0.8,12-3.5,11.7-5.4c-0.3-1.9-9.9,0-14.8-1.2c-2.5-0.6-14.4-4-14.4-9.1c0-2,7.5-5.5,10.8-5.3c3.3,0.2,17.7,3.4,18.2,1.6
		c0.5-1.8-10-6.6-12.5-8.5c-6.8-5.1-9.3-11.8-7-13.1c2.3-1.3,9.3-0.7,14.2,2.8c3.2,2.3,9.4,8.4,13.8,7.8c7-0.9,0.1-4.2-1.4-8.3
		c-2.3-6.3-3.2-11.5-1.2-11.7s14.8,8.1,17.8,11c4.4,4.4,10.9,13.3,10.9,13.3"/>
	<line class="st15" x1="205" y1="109.2" x2="205" y2="143.3"/>
	<line class="st15" x1="206.9" y1="109" x2="206.9" y2="143.2"/>
	<ellipse class="st5" cx="63" cy="170.4" rx="5" ry="10.5"/>
	<path class="st12" d="M52.1,191.8c-4.8-10.8-4-17.4-4.1-22.8c-0.2-11.1,0.9-16,3.9-18.8"/>
	<path class="st2" d="M58,149.1c5,2.3,3.1,2,10.8,3.5c6.3,1.2,9.8-1.7,9.8-1.7"/>
	<path class="st2" d="M61.3,189.8c10.2,13.5,15.1,30.5,50.4,52.8c32,20.3,65.6,17.9,73.2,17.9"/>
	<path class="st16" d="M233.6,168.1l43.3,5.1c0.9,0.3,1.9,0.2,2.8-0.2l23.8-5.3c2.5-1.2,5.3,0.4,5.7,3.1l2.5,19
		c0.2,1.3-0.3,2.5-1.2,3.4L294.5,209c-0.6,0.6-1,1.3-1.1,2.1l-4.8,23.6c-0.4,1.8-1.9,3.1-3.8,3.2l-22.1,0.8
		c-1.7,0.1-3.2-0.9-3.9-2.5l-3.4-27.7c-0.3-0.7-0.7-1.2-1.3-1.7L228.3,195c-1.1-0.8-1.7-2.2-1.5-3.6l1.8-19.8
		C228.8,169.2,231.2,167.5,233.6,168.1z"/>
	<circle class="st7" cx="276.4" cy="193.7" r="26.8"/>
	<circle class="st17" cx="277" cy="193.2" r="19.9"/>
	<line class="st10" x1="218.3" y1="302.3" x2="217.2" y2="293.1"/>
	<line class="st10" x1="239.4" y1="295.3" x2="239.4" y2="303.8"/>
	<g>
		<path class="st5" d="M193.4,37.3c-4,3.5,4,15.9,9,21.6c5,5.7,22.6,15.6,24.7,15.8c2,0.2,3.1,0.1,6.5-3.4c3.4-3.5-6.7-14.9-16-24.1
			C211.7,41.4,196.7,34.3,193.4,37.3z"/>
		<polyline class="st6" points="219.8,67.5 212.7,62.5 216.3,61.7 213.7,57.3 218.9,59.6 218.2,54 223.8,59.6 227.2,63.3 		"/>
		<path class="st18" d="M228.5,57.7c-2.3,6-6.9,10.6-12.6,13.3c5.2,3.5,10.1,6.2,11.1,6.3c2.1,0.1,3.2-0.1,6.8-4.3
			C236,70.3,233.1,64.3,228.5,57.7z"/>
	</g>
	<g>
		<path d="M253,312.3c2,0.3,3.9,0.8,5.8,1.4c1.9,0.6,3.7,1.4,5.5,2.4c1.8,0.9,3.4,2,5,3.3c1.6,1.2,3.1,2.6,4.4,4
			c1.4,1.5,2.6,3.1,3.7,4.7c1.1,1.7,2.1,3.4,2.8,5.3c1.6,3.7,2.6,7.6,2.8,11.5c-0.3-1.9-0.8-3.9-1.4-5.7c-0.6-1.9-1.3-3.7-2.1-5.5
			c-1.7-3.5-3.8-6.8-6.5-9.6c-2.6-2.9-5.7-5.3-9.1-7.3C260.5,314.8,256.8,313.3,253,312.3z"/>
	</g>
	<path class="st10" d="M80.6,153.5c1.5,5.4,2.5,9,1.1,17.5c-1.5,9.3-3.5,11.9-6.8,17.1"/>
	<path class="st7" d="M240.4,378.1c-4,1.1-18.5-4.6-18.9-6.3c-0.4-1.8,14.3-4.4,18.9-2.7S244.7,377,240.4,378.1z"/>
	<line class="st14" x1="304.4" y1="330.6" x2="285.5" y2="330.6"/>
	<line class="st14" x1="307.6" y1="339.6" x2="287.7" y2="339.6"/>
	<line class="st14" x1="297.1" y1="322.6" x2="278.2" y2="322.6"/>
	<line class="st14" x1="289.6" y1="316.6" x2="270.7" y2="316.6"/>
	<line class="st14" x1="283.6" y1="311.6" x2="264.7" y2="311.6"/>
	<ellipse transform="matrix(0.992 -0.126 0.126 0.992 -18.1657 54.2735)" class="st5" cx="420.1" cy="170.8" rx="4.7" ry="10.1"/>
	<path class="st2" d="M401.1,154.1c1.7,1.3,4.8,1,7,0.9c4.2-0.1,6-1.8,7-4.3"/>
	<path class="st12" d="M424.1,152c2.6,1.4,5.9,0.7,10.2,12.3c5.8,15.5,1,24,0,25.6"/>
	<path class="st9" d="M276.2,87.6c-1.2-5.1,1.5-10.2,6.8-12.9c8.1-4,17.2,3.4,16.1,8.8"/>
</g>
<g id="Layer_4">
	<path class="st19" d="M250.7,62.4c-3.3,1-15.5,10.4-20.2,29.8c-5.4,22,8.9,25,8.9,25l-54.5-13.4c0,0-3,0.7-3.5-1.8
		c-0.5-2.4,11.1-20.5,17.7-24.8c6.6-4.3,13.7-8.1,13.7-8.1l5,0.9l4.5-3.3c0,0,2.7,1.8,4.4,2.9c1.7,1.1,7.1,3.3,7.1,3.3l0.5-4.5
		l-1.4-3.9c0,0,5.5-2,13.8-2.8C258.2,60.6,254,61.5,250.7,62.4z"/>
	<path class="st19" d="M160.3,142.2c-6.5-2.8-7.3-1.5-7.3-1.5l-4.4,2.4c0,0,19,1,24.4,25c0.8,3.6,1.3,6.9,1.6,9.8
		c-9.8,1.4-26.5,3.4-38.3,3c-17.7-0.6-56.7-8.1-56.7-8.1l-9.7,0.5c0,0-1.4,8.8-5.4,9.4c-4.8,0.8-7.5-2.4-7.9-8.4
		c-0.1-1-2.5-0.1-4.1-1.2c-5.7-3.9-4.6-4.2-4.6-4.2s-6,0.7-12.5,0c-3-0.3-8.9-5.3-8.9-5.3l-8.3,2.1c0,0,8.6,5.9,15.1,6.7
		c7.2,0.9,14.7,0.7,14.7,0.7s2,6.8-5.9,9.7c-1.6,0.6-13,2-13.7,4.6c-0.8,3.2,10.7,2.6,13.3,2.4c12.4-0.9,35.7-7.1,35.7-7.1v2
		c0,0,27.4,9.6,37.1,11.9c8.9,2.1,41.9,6.5,53,6.5c-2.4,2.2-4.5,2.8-4.5,2.8l7-0.2c0,0,1.6-1.2,3.7-3.7c2.5-1.1,3-3.1,4.4-6.6
		c2.4-4.6,4.5-10.8,4.7-18.7C183.5,152.3,167.1,145.1,160.3,142.2z"/>
	<path class="st19" d="M247.8,274.8c0,0-3.7-0.9-5.8-4.7c-3.2-5.8-5.3-15.5-5.4-16.8c-0.3-2.3-30.9-28.4-36-47.9
		c-4.9-18.9,12.9-60.5,12.9-60.5l1.7-27c0.1-0.9-0.6-1.8-1.5-2c-3.1-0.7-10.2-2.2-15-3.2c-6.4-1.4-3.3-5.8-3.3-5.8s0,0-10.5-3
		c-9.4-2.7-1.4-7.9-1.4-7.9L173,97.5c0,0,4.7,32.6-13.2,33.5c-5.2,0.3-7.2,6.1-5.2,9.1c2,3.1,5.8,2.1,5.8,2.1s40.3,10.1,21,54.2
		c-4.9,11.3-29.5,12.4-22.4,13.9c13.2,2.8,13.2,14.5,22.4,32.6c9.2,18.1,8.7,21.8,8.7,21.8l27.7,7.3L247.8,274.8z"/>
	<path class="st20" d="M255.9,282.8l-30.7-1.8l-26.8-4.2V269l26.9,5l39.4,1.5c0,0-4.8,2.3-6.9,4.1
		C255.8,281.3,255.9,282.8,255.9,282.8z"/>
	<path class="st19" d="M254.9,293.8c0,0.8-0.5,1.5-1.2,1.5c-6.7-0.3-38.6-1.6-28.4-0.3c10.7,1.3-21-5.1-24.7-5.8
		c-0.2,0-0.4-0.2-0.6-0.4c-0.8-0.9-3.2-3.9-3.9-6.7c-1.2-5,1.6-5.6,2.3-5.7c0.1,0,0.2,0,0.3,0l26.1,4.4c0.2,0,0.3,0.2,0.5,0.2
		c11.4,1.1,7.5,3.3,14.2,4.4c6.4,1.1,11.2,1.5,14.4,1.4c0.7,0,1.2,0.7,1.2,1.5V293.8z"/>
	<path class="st19" d="M316.1,177.1c-0.1-0.6,0.6-1.1,1.1-0.7c3.2,2.6,11.4,8,23.2,8.9c27.4,2.1,65.9-11.6,65.9-11.6l5.6-1.2
		c0.3-0.1,0.7,0.1,0.8,0.5c0.7,2.3,3.3,10.5,8.2,10.5c6.6,0,7.5-8.5,7.6-10.7c0-0.3,1.1-3.4,1.4-3.5c1.7-0.5,6.6-1.1,11.6-1.8
		c5.1-0.7,11.9-3.9,14.8-5.7c0.4-0.2,4.4-0.9,4.5-0.4c0.3,1.8,2.7,1.1-2.7,4.4c-5.1,3.1-13.1,5.4-20.1,6.5c-0.6,0.1,0.4,4.1,1,4.3
		c5.1,1.6,14.2,4.8,11.9,6.2c-2.9,1.7-2.3,1.2-9.3,2.9c-10,2.3-32.1-1.3-34.7-1.5c0,0-2.9,0.6-3,0.7c-2.5,1.3-29.9,14.1-48.8,17
		c-12.1,1.9-33.7-1.3-37.4-2c-0.3-0.1-0.6-0.4-0.6-0.7c0.2-2.1,0.7-4.9,0.9-8.9C318.2,186.9,316.8,180.4,316.1,177.1z"/>
	<path class="st19" d="M261.3,142c-7.3-3.8-4.3-18.4-4.3-18.4s41.5-5,50.6-5c9.1,0.1,32.8,1.2,32.8,1.2s-23,3.9-27.6,5.3
		c-4.6,1.4-14,15.4-17,16.1C292.7,141.8,261.3,142,261.3,142z"/>
	<path class="st19" d="M284.5,234.8c-3,0-19.8,2.1-22.2,0c-1.4-1.2-2.1-7-2.4-11.8c15.4,6,32.4-6.4,32.4-6.4s-18.8,13.4-34.7-4.6
		c-20.9-23.6,5.2-42.4,5.2-42.4s-23.8,8.4-21.1,28.4c-5-1.1-10.6-3.2-12.2-6c-1.3-4.6,1.8-22.9,3.5-24c1.7-1.1-3-2.2-6.2,1.6
		c-3.2,3.8-4.9,23.6-3.2,25.7c1.2,1.5,12.9,7.1,20.3,10.5c0.6,1.3,1.3,2.7,2.1,4.1c2.7,4.7,5.7,8,8.9,10.3l1.6,15.5
		c0,0-0.4,4.2,3.1,4.8s23.8,1,26.5-1s3-7.2,3-7.2S287.4,234.8,284.5,234.8z"/>
	<polygon class="st19" points="217.7,302.3 217.3,293.7 235.8,295.7 235.8,303.8 	"/>
	<polygon class="st19" points="269.2,294.8 270.7,304 283,304.7 283,294.6 	"/>
	<path class="st19" d="M221.1,302.3c0,0-0.1,0-0.1,0c-0.9-0.2-14.1-4.6-5.6,22.1c2.8,8.9,14.8,40.2,16.3,43.9
		c0.1,0.2,0.3,0.4,0.5,0.4l10.3,0.5c0.5,0-0.2-0.5-0.5-0.9c-1.8-2.9-5.8-12.3-8.2-30.8c-1.7-13.1-0.6-20.7,0.7-24.7
		c0.8-2.4-0.4-5-2.8-6L221.1,302.3z"/>
	<path class="st19" d="M221.5,371.8c0,0,6.7,1.2,12.3,1.9s9.2-0.3,9.2-0.3v4.9l-6.4,1.5L221.5,371.8z"/>
	<path class="st19" d="M244.6,375.8c0,0-0.6,0.7,0.9,4.7c1.5,4,6.4,2.9,6.4,2.9l-9.6,1.8l-7.1-1.6l-1.4-3.8L244.6,375.8z"/>
	<path class="st19" d="M246.6,430.8c-20.1-4-37.4-23.8-39.1-48c-1.2-17.1,2.3-32.6,4.3-39.4l8.6,20c-1.2,5.6-1.7,14.5,2.4,26.4
		c8.3,23.6,30.2,16,30.2,16s-6.3-2-10-8.5c-1.6-2.7-2.4-5.4-2.9-7.6c1,0.4,2.2,0.6,3.6,0.6c9.3,0,11.2-10.6,11.2-10.6
		s-3.1,3.6-7.7,5.3s-13.4-5.3-13.4-5.3l-12.3-7.9l7.2-3.6l-3.6-8.5l-12.6-33.1l-5,6.8c-5,6.8-9.3,37.6-3.5,62.1s30,39.3,47.3,40.8
		c17.3,1.5,38.3-7.8,38.3-7.8S272.1,435.8,246.6,430.8z"/>
	<path class="st19" d="M260.9,307.7l1.1-3.9l7.3-2.8l1.4,3.1l12.3,0.7l-2.8,6.9c0,0-2.6-2.5-10.9-3.3
		C260.9,307.7,260.9,307.7,260.9,307.7z"/>
</g>
<g id="Layer_6">
	<path class="st21" d="M310.2,155.9l2,7.4c0,0,7.1,4.9,28,11.1c28.8,8.4,66.1-4.1,66.1-4.1l-2.1-5.6c0,0-33.7,7.5-50.5,4.5
		S310.2,155.9,310.2,155.9z"/>
	<path class="st21" d="M358,91.9c0,0-25.7-11.7-46.2-18.5c-32.4-10.7-53-3.6-50.6-7.5c4-6.4,41-2.7,78.5,16.7
		C357.4,91.7,358,91.9,358,91.9z"/>
	<path class="st21" d="M86.7,158.8v6.5c0,0,23.6,2.1,39.6,1.4s24.9-4,24.9-4s0-2.8-2.4-7.3c-1.4-2.5-4.9-4.3-4.9-4.3s-7.9,4-24.5,6
		C97.9,159.8,86.7,158.8,86.7,158.8z"/>
	<path class="st21" d="M297.1,171.4l7.3-2.1c1.2-0.3,2.3,0.5,2.6,1.7l1.3,13l-2.8-12.1c-0.2-0.4-0.6-0.7-1-0.9L297.1,171.4z"/>
	<path class="st21" d="M251.8,338.3c-1.8-1.7,7,2.6,11.2,14c6.1,16.3,0.8,37.8,0.8,37.8s2.9-15.6-2.3-34.5
		C258.9,345.8,251.8,338.3,251.8,338.3z"/>
	<ellipse transform="matrix(0.5699 -0.8217 0.8217 0.5699 50.9694 190.0369)" class="st22" cx="207" cy="46.3" rx="2.9" ry="6"/>
</g>
<g id="Layer_5">
	<path class="st23" d="M277.2,175.1c-8.3,0-15.3,5.7-17.3,13.5c3-2.3,6.8-3.7,10.9-3.7c9.9,0,17.9,8,17.9,17.9c0,1.5-0.2,3-0.6,4.5
		c4.3-3.3,7-8.4,7-14.2C295.1,183.1,287.1,175.1,277.2,175.1z M286.9,182c-0.8,1.2-3.2,1-5.3-0.5c-2.2-1.4-3.3-3.5-2.6-4.7
		c0.8-1.2,3.2-1,5.3,0.5C286.5,178.7,287.7,180.8,286.9,182z"/>
</g>
</svg>
