<?xml version="1.0" encoding="utf-8"?>
<!-- Generator: Adobe Illustrator 21.1.0, SVG Export Plug-In . SVG Version: 6.00 Build 0)  -->
<svg version="1.1" id="Layer_1" xmlns="http://www.w3.org/2000/svg" xmlns:xlink="http://www.w3.org/1999/xlink" x="0px" y="0px"
	 viewBox="0 0 515.9 728.5" style="enable-background:new 0 0 515.9 728.5;" xml:space="preserve">
<style type="text/css">
	.st0{fill:#E8E7CA;}
	.st1{fill:#433643;}
	.st2{fill:#82C457;}
	.st3{fill:#3770B7;}
	.st4{fill:#3EAB5F;}
	.st5{fill:#A7A9AC;}
	.st6{fill:#F58862;}
	.st7{fill:#EBF1F4;}
	.st8{opacity:0.3;fill:#FFFFFF;}
	.st9{fill:#E51E25;}
	.st10{fill:none;stroke:#FFFFFF;stroke-width:2;stroke-linecap:round;stroke-linejoin:round;stroke-miterlimit:10;}
	.st11{fill:#010101;}
	.st12{opacity:0.4;fill:#55285B;}
	.st13{opacity:0.31;fill:#3F5C7E;}
</style>
<path class="st0" d="M110.4,406.5c0,0-19.4,4.8-20.7,8.7S85,484.7,85.5,501c0.5,16.3-3.1,53.5,2.3,58.3c5.4,4.7,34.5,22.7,34.5,22.7
	s-21.8,7.9-23.9,18.7c-3.6,18.5,28.5,59,89.1,59c68.3,0,102.3-14.3,109.2-26.5s6.9-12.2,6.9-12.2s72.2-14.5,77.7-20.3
	c5.5-5.9-0.5-37.9-0.5-37.9L369,451.9l-214.4-52.8L110.4,406.5z"/>
<path class="st0" d="M231.8,363.7l142.4-115.5l49.7,41.1c0,0,15,9.7,14.5,17.5c-0.6,7.8-118.9,121-128.8,118.9
	c-9.9-2.1-57-43.3-57-43.3L231.8,363.7z"/>
<path class="st1" d="M209.4,464.4c13.2-15.4,136.8-23.9,136.8-23.9l15.5,136.4c-6.5,6.2-139.6,32.3-139.6,32.3
	C214.1,599.2,209.4,464.4,209.4,464.4z"/>
<path class="st2" d="M159.5,179.5c0,0,5.8-10.3,17-20.7s32.5-20,32.5-20s28.8-14.3,58.3-14.6c47.8-0.5,86.4,29.6,91.7,51.9
	c5.4,22.3,3.9,19.5,3.9,19.5l-18.7-4.7c0,0,1.8,7.6-4.8,9.8s-39.8,9-39.8,9l-4.5,7.8l-1.8,10c0,0-10.7,9.8-25.7,10.4
	c-15.1,0.6-27.6-0.9-27.6-0.9L224,215.1l-24.2-9l-18.2,4.4c0,0-8.6-3.8-16.6-11.5C157,191.3,159.5,179.5,159.5,179.5z"/>
<path class="st2" d="M318.4,275.6c0,0-0.2-19.6,6.5-29.7c6.7-10.1,19.8-18.4,19.8-18.4l69.1,7.5c0,0,2.3-2.2,5.1,4.8
	c2.8,7.1-5.1,11.7-5.1,11.7s12.2-5.2,15.5,0c3.3,5.2-8.1,17.7-8.1,17.7s2.3-3.5,3.8,4.8c1.5,8.3-5.7,11.1-5.7,11.1l-42.8-28.4
	l-4.5,2L324,291.7L318.4,275.6z"/>
<path class="st2" d="M187.4,331.2c0,0,3.4-9.2,25.6-19.9c22.1-10.7,40.8-10.7,40.8-10.7s26,21.6,25.3,36.1c-0.3,6.2-7.8,2.3-7.8,2.3
	s13.2,14.7,9.6,23.9c-3.6,9.2-19.4,8.8-19.4,8.8s-6.5,13.3-19.9,10.2s-26-5.3-36.9-19.5C192.6,346.9,187.4,331.2,187.4,331.2z"/>
<path class="st2" d="M125.3,356c0,0,18.8,7.1,36.7,7.4c18,0.2,48.6-1.4,48.6-1.4l41.8,20.5l52,43.3h4.9l47.8-37.3l39.6-37l28.1,15.9
	c0,0,35.8-2.8,35.8,10.7c0,9.3-28.7,8.3-28.7,8.3s3.4,4.8-0.7,10.9s-29.6,7.1-29.6,7.1s33.8,42.3,38,75.1
	c4,30.8-11.1,74.1-50.8,71.6c-39.8-2.5-49.8-10.5-51.4-14.5s62.5,1,62.7-18c0.2-19-10-40.4-16.2-47.5c-6.2-7.1-15.2-19-15.2-19
	l-7.3-5.7c0,0,5.3,16.6-3.7,21.8c-5.7,3.3-17.1-1.8-17.1-1.8s-5.2,10.5-13.6,10.2c-8.5-0.3-22.8-16.4-22.8-16.4l-34-17.3
	c0,0-55.8,11.3-96.3-19.5S125.3,356,125.3,356z"/>
<path class="st3" d="M240.1,237.1c0,0,15.8,3.3,27.6,0.9c11.8-2.4,25.7-10.4,25.7-10.4l1.8-10l2.5-4.2l47.1,14.3
	c0,0-17.7,10.5-22.5,23.9c-4.6,13.1-3.9,24.1-3.9,24.1l5.6,16l-45.8,38.3c0,0-1-9.2-5.8-12.5c-4.8-3.3-7.2-6.5-12.9-11.7
	c-5.7-5.2-9.6-6.5-9.6-6.5s-24.3,4.9-36.9,12s-25.6,19.9-25.6,19.9l14.1,31.2c0,0-30.3,2.6-47.4,0.3c-17.1-2.3-28.7-6.7-28.7-6.7
	s-12.8-64-2.7-104.8c1.9-7.5,4.6-15.2,7.8-22.7c10.6-24.9,25.7-47.2,25.7-47.2s4.5,14.7,11.8,19.7c7.3,5,13.7,9.6,13.7,9.6
	l-35.1,17.1l-8.9,21.5l19.6,61.7l19.3,4.6c0,0,27.8-15.5,41.4-19.3s32.8-8.6,32.8-8.6l6.8-0.4l4.5-17.5L240.1,237.1z"/>
<path class="st4" d="M162.1,170.2c0,0-6.6-8.9-8.6-20.9c-1.7-9.8-1.5-21.7,5.3-26c2.9-1.8,17.4-0.6,25.8,4.3
	c10.1,6,18.2,12.8,18.2,12.8L162.1,170.2z"/>
<path class="st4" d="M97.4,181.7c0,0,3.6-5.3,23.9-7.1c11.8-1,33.4,8,33.4,8s-13.2,18.5-17.3,26.8c-4.1,8.3-9.8,19-9.8,19
	s-16.9-12.1-21.5-21.1C97.9,191,97.4,181.7,97.4,181.7z"/>
<path class="st5" d="M146.6,227.6l25.2-11.6l28-9.9l24.2,9l37.9,54.5l-4.5,17.5c0,0-36.5,4.6-45.4,9.4c-8.9,4.8-35.5,18.7-35.5,18.7
	l-19.3-4.6L137.6,249L146.6,227.6z"/>
<path class="st4" d="M116.8,300.5c0.8-0.3-22-1.7-35-16.7c-9.4-10.9-20.4-22.4-18.9-27.8c2.2-7.8,15.8-11.5,28.8-15.9
	c12.2-4.1,33.6-2,33.6-2s-5.9,25.8-7.4,34.3C116.3,282.6,116.8,300.5,116.8,300.5z"/>
<path class="st4" d="M115.7,307.8c0,0-11.6-1.5-26.6,6c-13.9,6.9-26.2,17.4-26.2,25.2c0,7.9,13.6,14.1,25.4,21.9
	c13,8.5,41.7,7.9,41.7,7.9s-4.7-16-7.1-27.2C120.5,330.3,115.7,307.8,115.7,307.8z"/>
<path class="st4" d="M134.2,377.1c0,0-3.9-1.1-12.6,5.3S107.8,403,107.8,403s15.8,10.8,26.4,10.4c10.6-0.4,23.3-5.1,23.3-5.1
	s-12.9-13.8-15.6-18.8C139.1,384.5,134.2,377.1,134.2,377.1z"/>
<path class="st4" d="M418.2,423.3l10.3,17.2c0,0,2,0,0.9-7.5c-0.7-4.5-0.7-4.5-0.7-4.5s0.9-3.7-4.8-3.7S418.2,423.3,418.2,423.3z"/>
<path class="st4" d="M438.2,464.7c0,0,5.9-1.7,10.3,3.6c4.4,5.4,9.2,11.7,9.2,11.7s0.2,11.9-8.8,17.3c-9,5.5-10.7,2.9-10.7,2.9
	l1.7-21L438.2,464.7z"/>
<path class="st6" d="M226.6,194.3c-9.1-3.9-16.8-35.4-17.2-44c-0.4-8.6,35.2-16.4,39.8-12.8c4.6,3.6,23.3,41,18.4,47.8
	C262.7,192,236.1,198.3,226.6,194.3z"/>
<path class="st6" d="M215.4,146.4c0,0-6.6-7.1-6-19.2c0.6-12.1,6-21.6,23.7-26.5c13.7-3.8,22.6,2.8,28,8.9
	c5.4,6.1,6.2,14.6,6.2,14.6l-19.9,0c0,0-1.7-1.7-3.4-5.6c-2.1-5-6.4-3.8-6.4-3.8l4.3,21.4L215.4,146.4z"/>
<path class="st6" d="M247.8,195.5c0,0,2.8,4.5,7.1,7.3c4.3,2.8,9.6,1.8,9.6,1.8l-2.5,7.1c0,0-9.6,0.3-14.3-3.8
	c-4.8-4.1-7.8-12.5-7.8-12.5H247.8z"/>
<path class="st1" d="M281.8,218h-11.3c-2.8,0-5-2.3-5-5v-4.3c0-2.8,2.3-5,5-5h11.3c2.8,0,5,2.3,5,5v4.3
	C286.8,215.7,284.5,218,281.8,218z"/>
<ellipse class="st7" cx="193.3" cy="257.2" rx="29.4" ry="27.3"/>
<path class="st7" d="M398.7,503.5c0,0-13.6-4.6-17.1-2.4s0,5.3,0,5.3s4.6-0.5,8.9,4.8c4.3,5.3,9.9,7.2,9.9,7.2L398.7,503.5z"/>
<path class="st7" d="M413.9,545.3l15.5-11.7c0,0,4.4,25.2,0,30.5c-4.4,5.3-29.1,18-29.2,15.1s16.5-12.4,18-18.3
	C419.6,555,413.9,545.3,413.9,545.3z"/>
<path class="st7" d="M388,529.4c0,0-4.6-10.2-13.8-13.5s-23.3-8.3-24.7-4.7c-1.4,3.6,13.9,8.5,18.1,11.8c4.2,3.2,5.3,9.5,5.3,9.5
	L388,529.4z"/>
<path class="st7" d="M371.9,549.2l17.2,1.6c0,0-8.9,14-17.2,16.8c-8.3,2.8-31.1,2.6-30.4-2.7c0.7-5.2,16.3-1.3,21.7-5.7
	C368.5,555,371.9,549.2,371.9,549.2z"/>
<ellipse transform="matrix(0.5 -0.866 0.866 0.5 -16.1383 289.6971)" class="st8" cx="242.8" cy="158.8" rx="3.4" ry="6.6"/>
<polygon class="st8" points="197.9,208 220.5,219 256.4,270.5 255.7,284.8 259.7,270.2 223,216 "/>
<path class="st9" d="M365.5,597.3l-10.3,2.7c-0.9,0.2-1.8-0.3-2.1-1.2l-1-3.6c-0.2-0.9,0.3-1.8,1.2-2.1l10.3-2.7
	c0.9-0.2,1.8,0.3,2.1,1.2l1,3.6C366.9,596.1,366.4,597.1,365.5,597.3z"/>
<polyline class="st10" points="285.6,286.4 271,280.6 278.1,266.1 "/>
<line class="st10" x1="288.2" y1="259.5" x2="292.5" y2="288.6"/>
<polyline class="st10" points="294.4,261.8 305.6,269.4 301.9,282 "/>
<g>
	<path class="st11" d="M462.1,375.5c-2.5-9.9-14.9-10-24.9-10.1c-4.7-0.1-9.1-0.1-11.9-1.1c-6.9-2.4-19.1-9.9-24.2-13.2
		c19.4-18.1,40.8-39,41.5-43.7c0.3-2-0.6-5.3-9.4-13.5c-2.8-2.5-6.4-5.6-10.6-8.9c3.3-1.4,7-4.1,7-9.3c0-3.4-1.4-5.4-2.5-6.4
		c-0.5-0.4-1-0.8-1.5-1.1c3.8-3.1,8.4-8.3,6.8-14.5c-0.7-2.5-2.1-4.4-4.2-5.6c-2-1.1-4.3-1.3-6.4-1.2c1.2-2.3,2.2-5.2,1.4-8.2
		c-1.4-5.3-7.3-5.9-12.9-6.4c-2-0.2-4.1-0.4-6.1-0.8c-2.1-0.4-7.3-0.9-14.5-1.6c-12.9-1.3-30.6-3-44.1-5.6
		c-16.5-3.1-36.2-9.7-43.5-12.3l1.1-1.3c3.3-0.7,18.1-4,29.8-6.5c10.3-2.2,13.9-7.7,15.1-10.9c8.2,2.2,13.5,4.9,13.5,5l2.6,1.4
		l0.5-2.9c0.2-1.2,4.3-29.2-35.8-57.2c-20.6-14.4-43.1-18.1-60.1-18.3c-1.3-3.8-4.7-12.5-10-17.2c-6.5-5.8-13.9-8.9-28.4-5.2
		c-13.3,3.4-20,10.6-22.6,24.1c-0.9,4.9-0.7,9.3,0.1,12.9c-1,0.6-2.4,1.5-4.1,2.5c-2.5-2.2-7.8-6.6-16.2-11.5
		c-13.5-7.9-26.9-6.6-30.2-4.7c-5.8,3.3-7.7,17-4.3,31.2c2.5,10.5,6.1,15.5,7.9,17.5c-2.6,2.9-5.2,6.2-7.9,9.7
		c-3.4-1.5-13.4-5.5-25.1-7c-17.6-2.2-28.6,2.6-30.6,6.6c-3.1,6.3,2.2,23.8,13.3,36c7.6,8.3,13,11.6,15.8,12.9
		c-0.9,2.4-1.7,4.8-2.5,7.3c-4.2-0.3-18.7-1.2-32.4,2.2c-14,3.5-29.1,10.2-30.1,15.3c-1.5,7.4,10.9,26,27.4,37.1
		c11.8,7.9,21.8,10.2,26.5,10.8c0,1,0.1,1.9,0.1,2.9c-5.9,1-17.9,3.4-28.6,8.7c-15.2,7.6-25.7,21-25.6,25.3
		c0.2,8.2,17.5,19.9,34.1,26.5c10.6,4.2,20.2,5,26.5,5c3.3,0,5.6-0.2,6.7-0.4c0.5,1.2,1.1,2.4,1.6,3.5c0.2,0.4,0.4,0.9,0.7,1.4
		c-1.7,0.8-6.4,3.2-12.5,8c-8.8,6.8-11.4,16.1-11,18.9c0.1,0.4,0.2,0.8,0.3,1.1c-4.7,2-15.2,6.9-18,12.3c-2.9,5.4-5.3,32.7-7.6,60.1
		l-0.5,5.6c-1.3,14.8-0.1,69.8,6.1,78.4c2.8,3.9,17.4,13,31.6,21.3c-7.9,3.1-23.3,11.1-23.3,25.9c0,23.3,38.8,52.2,94.5,56.3
		c6.8,0.5,13.3,0.7,19.4,0.7c59.2,0,86-21.6,90.2-28.1c3.1-4.8,4-8.4,4.2-10.5c25.2-5.9,76.2-18.1,79.6-21.2
		c2.9-2.7,0.9-34.5,0.6-44.4c2.8-2.9,4-5.4,4.5-7.1c0.8,0,1.6,0.1,2.4,0.1c0.5,0,1,0,1.5,0c8.1,0,15.2-1.6,21.5-4.7
		c1.1,2.3,2.5,6.6,1.7,10.7c-0.6,2.9-5.6,7.5-9.6,11.2c-5,4.6-8.1,7.4-6.3,9.5c0.5,0.6,1.4,1,2.7,1c0.3,0,0.5,0,0.8,0
		c6.2-0.6,20.6-7.2,25.8-16.2c5.4-9.5,2.4-28.2,1.7-31.8c5.5-8.8,8.5-19.5,9.7-30.3c1.4-0.6,3.8-1.6,6-2.3
		c3.7-1.2,13.5-13.4,12.6-18c-0.8-3.8-3.9-7.7-8.9-13.6c-4-4.7-9.5-4.9-12-4.8c-2-8-5-15.4-8.4-22.2c1-4.5,2.1-12.7-2-15.5
		c-3-2.1-6.8-2.8-9.4-3c-5-7-9.8-12.4-13-15.8c11.9,0.5,17.1-1.7,23.2-4.9c5.2-2.8,6-8.4,5.5-12.5c6.4,0.1,21-0.5,26-6.6
		C462.3,380.6,462.8,378.1,462.1,375.5z M448.5,469.8c4.7,5.6,7.6,9.2,8.2,12.3c0.5,2.5-7.7,13.8-10.7,14.8
		c-1.6,0.5-3.4,1.2-4.8,1.8c0.8-9.9,0.3-19.6-1-27.8c-0.3-1.6-0.6-3.2-0.9-4.8C441.5,465.9,445.5,466.3,448.5,469.8z M438.4,306.8
		c-1,3.5-22.7,25.8-62.4,61.5c-37.6,33.9-63.7,55.2-67,56.1h0c-4.6,0-31.2-21.6-55.5-43.4c5-1.9,8.7-4.4,10.1-5.5c0.2,0,0.3,0,0.5,0
		l30.2,27.1c0.8,0.7,1.8,1.1,2.7,1.1c1,0,1.9-0.3,2.7-1l26.7-23.5c0.9-0.8,1.4-1.9,1.4-3.1c0-1.2-0.5-2.3-1.4-3.1l-4.7-4.2l-0.5-0.5
		l-0.1,0.1l-11.1-9.8l-3.9-4.3l-0.5,0.4l-12.9-11.4c-1.5-1.3-3.7-1.4-5.3-0.1l-7.3,5.8c-1.4-2.4-3.1-4.6-4.6-6.4
		c1.8,0,3.6-0.3,4.8-1.3c1-0.8,2.1-2.4,1.6-5.2c-0.3-1.8-0.7-3.6-1.2-5.2c4.5-3.7,52.4-43.2,58.8-47.6c1.5-1,3.8-2.6,6.5-4.6
		c8.4-6,25.8-18.2,29.7-19.3c2.6,0.4,16.9,8.7,34,21.2C431,296.1,438.5,304.8,438.4,306.8z M259.7,270.2l-4.1,14.6
		c-5.3,0.2-22.3,1.5-45.7,11.2c-17.6,7.3-33.2,15.4-36.7,17.2l-15.1-3.4l-18.5-58l7.5-21c2.3-1.6,11.9-8.2,20.9-12.2
		c9.4-4.2,27.9-9.4,31.6-10.4L223,216L259.7,270.2z M243.8,239c3.4,0.6,8.2,1.2,13.7,1.2c4.5,0,9.4-0.4,14.3-1.5
		c10.1-2.3,16.1-5.5,19.3-7.6c0.1,2.3,0.4,4.7,1,6.8c2,7.4,2.1,12.9,2.1,13l0,1.3l1.2,0.6c0.1,0,9.9,5,18.3,21.8
		c5.4,10.8,7.3,15.4,8,17.3c-15.1,12.2-36.3,29.6-42.3,34.6c-2.7-6.9-7.2-11.9-13.9-16.1c-6.6-4.1-10.8-17.1-12-21.1
		c2.5-0.2,3.9-0.2,3.9-0.2l1.7,0l5.5-19.7L243.8,239z M211.7,299.9c16.2-6.7,29.4-9.3,37.3-10.3c0.4,1.4,1.5,5.2,3.4,9.5
		c-5.6,0-18.4,1.3-39.4,10.7c-15.1,6.7-22.3,14-25.4,18.1c-2.7-7-4.7-12.8-5.3-14.6C189.2,310,200,304.8,211.7,299.9z M214.2,312.5
		c22.5-10.1,35.4-10.6,39.6-10.4c2.3,4.7,5.4,9.4,9.3,11.8c8.5,5.3,12.7,11.9,14.6,22.8c0.1,0.5,0.1,1-0.1,1.2
		c-0.9,0.8-4.8,0.2-7.7-0.9l-10.6-4l8.4,7.6c4.4,4,14.9,15.8,10.3,22.4c-5.9,8.5-14.8,8.3-15.1,8.3l-0.8,0l-0.6,0.5
		c-0.1,0.1-13.7,10.9-27.6,6.1c-18.2-6.4-30.1-15.1-36.2-26.8c-3-5.7-6.1-13.1-8.8-19.9C190.8,328.1,197.4,320,214.2,312.5z
		 M281.5,365.4c0.9-1.3,1.4-2.7,1.7-4.1l14-12.1l7.2,6.4l-30.6,26l-6.9-6.2l0.3-0.3C271.3,374.1,277.1,371.7,281.5,365.4z
		 M280.8,350.2l7.5-6c1-0.8,2.5-0.8,3.4,0.1l4.5,3.9l-12.8,11C283.4,356.2,282.3,353.1,280.8,350.2z M290.1,396.2l-7.5-6.9
		l31.7-25.1l5.8,5.1L290.1,396.2z M321.1,370.2l4.3,3.8c0.6,0.5,0.9,1.2,0.9,2c0,0.8-0.3,1.5-0.9,2l-26.7,23.5c-1,0.9-2.6,0.9-3.6,0
		l-4.4-4L321.1,370.2z M280.9,388.8l-6.5-5.8l31.1-26.5l3.4,3l3.7,4.1L280.9,388.8z M347.2,229.1c9,1.6,19.3,2.8,28.9,3.8
		c8.1,3.1,19.8,9.3,20.8,13.4c-1,2-13.1,2.8-25.4,1.6c-1.2-0.1-2.2,0.7-2.3,1.9c-0.1,1.2,0.7,2.2,1.9,2.3c2.4,0.2,7.1,0.6,12.2,0.6
		c6.9,0,14.3-0.7,16.8-3.6c1-1.1,1.3-2.5,1-3.9c-1-4.1-6.4-8-11.9-11.1c6.8,0.7,12.1,1.2,14.1,1.6c2.2,0.4,4.4,0.6,6.5,0.8
		c5.3,0.5,8.6,0.9,9.2,3.2c0.9,3.3-2.4,7.3-3.7,8.6l-7.2,6.8l9.4-3.2c1.5-0.5,6-1.5,8.7-0.1c1.1,0.6,1.8,1.5,2.1,2.9
		c1.7,6.4-8.9,12.5-9,12.6l-8.6,4.8l9.9-0.9c0.6,0,2.5,0,3.7,1.1c0.8,0.7,1.1,1.7,1.1,3.2c0,3.9-4.5,5.5-6.8,6.1
		c-17-13-39.3-27.7-43.6-26.8c-4,0.9-17.2,10-31.4,20c-2.7,1.9-5,3.5-6.5,4.5c-1.7,1.2-6.2,4.7-12,9.3c-0.9-2.4-2.6-6.1-5.5-12.1
		c-0.6-3.6-1.4-14.3,5.1-28.4C330.8,235.3,342.6,230.5,347.2,229.1z M341.7,228.1c-6,2.7-14.6,8.2-19.7,19.3
		c-4.4,9.6-5.6,17.6-5.8,23.2c-7.2-13.4-15-19.2-17.9-21c-0.1-2.2-0.6-6.9-2.2-12.8c-1.7-6.3-0.4-15.4-0.1-17.7l2.9-3.3
		C304.4,217.6,324.2,224.5,341.7,228.1z M250.6,103.7c1.9,1,3.6,2.2,5.3,3.7c4,3.6,6.9,10.2,8.3,14.1c-6.6,0.2-12.2,0.8-16.2,1.4
		c-0.5-1.3-1.5-3.6-3.2-6.1c-1.6-2.3-4.1-4-5.2-4.7c0.1-0.6,0.1-1.2,0.2-1.8C241.1,104,247.6,103.6,250.6,103.7z M227.2,194.6
		c-5.3-1.6-17-35-15.1-43.1c0.6-2.7,3.6-5.6,8.4-8.1c6.5-3.5,15.2-5.5,21.8-5.5c2.5,0,4.6,0.3,6.2,0.9c5.7,2.2,18.2,33.6,16.4,44.5
		c-0.3,1.8-1.8,3.5-4.4,5.2C251.3,194.1,232.3,196.1,227.2,194.6z M254.9,204.3c3.7,1.7,6.7,2.5,8.6,2.8c-0.5,1.1-0.8,2.2-0.9,3.5
		c-2.7-0.3-7.3-1.2-11.3-3.5c-4.8-2.7-6.8-6.7-7.6-8.8c1.3-0.2,2.6-0.5,3.9-0.7C248.5,199.5,250.5,202.2,254.9,204.3z M240.8,124.4
		c-0.5-2.3-0.9-4.7-1.1-7c0.6,0.5,1.2,1.1,1.6,1.7c1.2,1.8,2,3.4,2.4,4.5c-1.5,0.3-2.3,0.5-2.4,0.5
		C241.2,124.3,241,124.3,240.8,124.4z M211.9,123.9c2.3-12,7.7-17.8,19.5-20.8c5.1-1.3,9.2-1.7,12.5-1.3c-3.2,1.2-5.9,3.6-6.8,8
		c-1.4,7.1,1.3,17.9,3.1,23.8c-6.9,0.3-15.1,2.5-21.7,6c-1.5,0.8-2.8,1.6-4,2.5C212.7,138.7,210.3,132.3,211.9,123.9z M155.8,152.8
		c-3.4-13.9-1.2-25.7,2.9-28c2-1.1,14.5-2.9,27.4,4.7c7.4,4.4,12.4,8.4,15.1,10.6c-6.4,3.9-15.2,9.4-22.3,14.2
		c-4,2.7-9.7,7.7-16,14.6C161.3,167,158.1,162.4,155.8,152.8z M159.5,179.5c9.6-11.9,18.1-19.3,21.8-21.8
		c9.6-6.4,22.2-14.1,27.7-17.5c0.7,1.9,1.5,3.5,2.1,4.6c-1.7,1.8-2.8,3.7-3.2,5.6c-2,8.7,9.3,45.6,18.1,48.2
		c1.4,0.4,3.6,0.6,6.2,0.6c2.5,0,5.5-0.2,8.6-0.6c0.8,2.4,3,7.5,9.1,10.9c4.8,2.7,10.3,3.6,13.1,3.9c1.1,3.6,4.4,6.2,8.3,6.2h7.7
		c4.8,0,8.7-3.9,8.7-8.7c0-4.8-3.9-8.7-8.7-8.7h-7.7c-2.2,0-4.2,0.8-5.7,2.2c-1.2-0.1-4.6-0.5-9.4-2.7c-3.2-1.5-4.8-3.4-5.6-4.8
		c4.6-1.2,8.9-2.8,12.3-4.9c3.7-2.3,5.8-5,6.3-8.1c1.9-11.4-10.3-45.8-19.1-49.2c-1.9-0.7-4.2-1.1-6.8-1.2c-0.4-1.4-0.9-3.2-1.5-5.2
		c0.2,0,0.5,0,0.7-0.1c0.5-0.1,45.8-11.8,84,14.9c30.3,21.2,33.9,42.4,34.1,50.1c-6.1-2.7-20.6-7.9-37.8-6.4
		c-21.7,1.9-33,3.8-33.1,3.8c-1.2,0.2-1.9,1.3-1.7,2.5c0.2,1.2,1.3,2,2.5,1.7c0.1,0,11.2-1.9,32.7-3.8c7.6-0.7,14.7,0.1,20.7,1.4
		c-1,2.3-3.9,6-11.8,7.7c-13.2,2.8-30.3,6.6-30.5,6.7l-0.7,0.2l-8.6,10l-0.1,0.6c-0.1,0.3-0.9,4.7-1,9.9c-2.1,1.7-8,5.6-19.9,8.4
		c-12.4,2.9-25,0.8-29.7-0.2l-15.7-23.2l-25.9-8.8l-0.6,0.2c-0.6,0.2-8.8,2.4-17.6,5.2c-2.8-1.6-10.2-6.1-15.2-11.5
		C159.8,190.5,159.3,182.3,159.5,179.5z M265.4,210.9c0-3.2,2.6-5.8,5.8-5.8h7.7c3.2,0,5.8,2.6,5.8,5.8s-2.6,5.8-5.8,5.8h-7.7
		C268,216.8,265.4,214.2,265.4,210.9z M112.8,214.4c-10.8-11.8-15.2-28-12.9-32.8c0.9-1.8,9.6-7.3,27.7-5c10.6,1.3,20,4.9,23.7,6.5
		c-8.6,11.7-17.2,26.5-23.8,43.5C125.1,225.3,120,222.2,112.8,214.4z M115.4,299.1c-4.6-0.7-14-3-24.8-10.3
		c-16.1-10.8-27.3-28.4-26.2-34.2c0.4-2.2,10.5-8.7,28-13.1c12.4-3.1,26.1-2.5,30.8-2.2c-0.8,2.6-1.5,5.3-2.2,8
		C116.7,264.2,115.1,282,115.4,299.1z M96.6,362.8c-19.2-7.6-32.2-18.4-32.3-23.9c-0.1-2.7,9.3-15.4,24-22.7c10-5,21.5-7.4,27.4-8.4
		c1,18.3,4.1,35.5,8.5,49.7l-0.1,0.2c0,0,0.1,0,0.2,0.1c1.1,3.4,2.2,6.6,3.4,9.6C123.6,367.7,110.8,368.4,96.6,362.8z M128.2,356
		c-8.9-28.7-12.4-70.3-3.1-107.7c6.9-27.8,19.8-49.8,31.6-65.3c0.5,4.5,2.4,10.9,7.6,16.5c4.3,4.6,10.1,8.5,13.7,10.7
		c-4.3,1.4-8.4,3-11.6,4.4c-10.7,4.8-21.7,12.7-22.2,13.1l-0.5,0.4l-8.4,23.6l19.7,61.7l19,4.2l0.7-0.4c0,0,1.4-0.8,3.8-2
		c1.7,5,8.8,25,15.4,37.7c1.5,2.9,3.4,5.6,5.5,8.2c-6,0.5-26.5,1.9-42.7,0.3C143.2,360.2,133,357.5,128.2,356z M129.2,359.3
		c5.4,1.6,14.9,3.9,27.2,5.1c5.6,0.5,11.6,0.7,17.4,0.7c14.4,0,27.3-1.2,27.5-1.2l0-0.5c7.2,7.6,17.5,13.7,31.1,18.5
		c3.1,1.1,6.2,1.5,9.1,1.5c2.5,0,4.9-0.3,7.2-0.9c13.2,11.9,51.9,46.2,60.4,46.2c0.1,0,0.2,0,0.3,0c3.8-0.3,24-17.1,41.7-32.5
		c2.4,2.1,12.4,11.1,19.7,16.7c7,5.4,8.3,26.2,3.6,34.3c-0.9,1.6-2,2.4-3.2,2.5c-2.6,0.3-5.8-2.5-6.8-3.6l-5.4-5.9l1.7,7.8
		c0,0.1,3,14.1-4.6,17.6c-7.9,3.6-15.3-2.3-15.6-2.6l-3.2-2.7l-0.3,4.2c0,0.3-0.7,8.3-9.6,9.4c-7.7,1-17.1-10.3-20-14.8l-0.4-0.6
		l-0.7-0.2c-0.1,0-10-3.6-25.4-12.7c-8.6-5-12-4.7-18.7-4.2c-6.6,0.5-16.6,1.4-39-1.8c-56.2-7.9-82.3-54-88.9-68
		C132.4,368.1,130.8,363.9,129.2,359.3z M369.2,520.6c-3.5-2.8-8.3-4.6-12.1-6.1c-2.6-1-5.7-2.2-6.5-3.1c4.5-0.3,25.3,1.8,32.5,10.5
		c1.8,2.2,3,4.3,3.7,5.7c-3.2,1.2-6.9,2-10.8,2.6C375.5,528,374,524.5,369.2,520.6z M373.2,530.6c-5.1,0.6-10.4,0.8-15.3,0.9
		l-1.4-14.2c3.7,1.4,7.9,3,10.9,5.5C371.4,526.1,372.8,528.9,373.2,530.6z M338.1,540.6c3,3.6,9.2,6.4,18.4,8.3l1.3,11.2
		c-4.5,1.2-9.2,1.3-12.6,1.3c-3.6,0-5.4,0-6.2,1.2c-0.4,0.5-0.5,1.2-0.2,1.8c0.7,2,2.5,3.8,5.4,5c2.6,1.1,6.3,2,10.7,2
		c1.4,0,3-0.1,4.5-0.3l0.2,5.5c-9,3.5-74.1,18.1-136.9,31.4c-0.1,0-0.2,0-0.2-0.1c-4.8-18.5-11.7-136.8-9.7-144.5
		c3.2-3.4,36.1-9.5,66.6-13.7c13.4,7.8,22.4,11.4,24.9,12.4c2.1,3,11.9,16.1,22.2,16.1c0.5,0,1,0,1.5-0.1c7.5-1,11.1-5.9,12.5-10
		c1.7,1,4,2,6.8,2.5l4.5,37.8c-0.8,0-1.5,0-2,0.1c-0.5,0.1-1.5,0.2-1.9,1c-0.4,0.9-0.5,1.8-0.1,2.6c0.6,1.4,2.1,2.4,4.2,3.3l1.6,16
		c-0.7,0-1.3,0-2,0c-10.8,0.1-14.9,0.1-15.3,3.3C336,536.3,336.2,538.3,338.1,540.6z M365.4,452.5c0.3,0.2,0.5,0.3,0.8,0.4l2.9,3.1
		l5.8,57.3l-1.9-0.8c-5.8-2.1-12.2-3.3-17-3.7l-4.5-37.8c2-0.1,4-0.6,6.2-1.5C364.8,466.3,365.7,458,365.4,452.5z M385.2,520.1
		c-1.5-1.8-3.6-3.4-5.9-4.8l0.2,0l-1.2-11.6c1.3,1.8,4.1,3.3,7.1,4.8c1.7,0.9,3.5,1.7,5,2.7c2.4,1.5,4.9,6.3,6.3,9.2
		c-1.5,2.6-4.1,4.7-7.3,6.2C388.6,524.9,387.3,522.6,385.2,520.1z M392,508.8c-1.6-1-3.4-1.9-5.2-2.8c-2.6-1.3-6.6-3.3-6.2-4.4
		c0,0,0.2-0.3,1-0.5c3.3-0.8,10.8,0.6,15.5,3.2c0.9,3.8,1.4,7.5,1.2,10.9c0,0.5-0.1,1-0.2,1.5C396.6,513.8,394.4,510.3,392,508.8z
		 M380.5,498.4c-1.5,0.5-2.1,1.2-2.5,1.9l-3.9-38.5c7.1,9.4,17.5,24.6,22,38.8C390.9,498.4,384.1,497.3,380.5,498.4z M120.2,385.2
		c6-4.7,10.7-7,12.1-7.7c4,7.5,11.2,19.4,22.4,31.1c-4.9,0.7-19.4,2.7-27.2,1.6c-9.6-1.4-16.7-5.7-17.1-8.8
		C110.1,399.9,112.1,391.6,120.2,385.2z M91.3,556.8c-4.8-6.7-6.8-58.4-5.3-75.6l0.5-5.6c1.4-17.3,4.4-53.4,7.1-58.5
		c1.9-3.7,11-8.3,16.9-10.7c3.5,3,9.6,5.5,16.6,6.5c1.8,0.3,4,0.4,6.2,0.4c10.1,0,22.9-2.1,23.5-2.2l-0.1-0.5
		c3.1,3.1,6.6,6.2,10.3,9.2c-5.7,2.3-16.3,7.2-20.8,13.6c-4.1,5.9-2.3,74.8-1.6,95.8c0.2,5.5,1.2,36.8,3,62.2
		C125.7,579.6,94.8,561.8,91.3,556.8z M148,596.6c1,13.3,2.2,24.3,3.6,27.6c-10.3-4.2-23.6-11.5-24.3-21.2
		c-0.5-6.4,6.4-10.9,9.5-12.6C141.9,593.3,146,595.5,148,596.6z M296.6,633.2c-4.1,6.3-35.7,30.6-105.7,25.4
		c-58.3-4.3-90.6-33.5-90.6-52.1c0-14.6,19.6-21.7,23.9-23.1c3.3,1.9,6.5,3.7,9.5,5.4c-3.9,2.4-9.9,7.3-9.4,14.4
		c1,14.4,24.2,23.4,33.9,26.6c14.9,8,48,15.2,48.4,15.3c0.2,0,0.5,0.1,0.8,0.1c9.9,0,80.5-16.2,88.7-18.1c1.1-0.2,2.3-0.5,3.6-0.8
		C299.5,627.7,298.6,630.1,296.6,633.2z M381.2,600.6c-7.2,4.8-164.6,41.3-173.6,40.2c-11.7-2.2-47.8-12-52.1-18.3
		c-5.2-9-10.3-178.1-5.7-186.5c4.5-6.4,17.4-11.6,21.3-13c13.4,9.9,30.4,18,51.6,21c22.8,3.2,33.1,2.4,39.9,1.8
		c4.4-0.4,6.8-0.5,10.1,0.6c-6.4,0.9-16.6,2.5-26.8,4.3c-35,6.2-36.4,9.3-37.1,11.1c-2.8,6.8,5.2,130.7,9.5,147.3
		c0.5,2,2.3,3.4,4.3,3.4c0.3,0,0.6,0,0.9-0.1c136.8-29,139.2-32.1,139.9-33.1l0.5-0.6l-0.3-8.2c2.6-0.6,5.3-1.5,8.1-2.7
		c3.7-1.6,6.6-3.3,8.9-5C382.2,579.6,381.9,599.1,381.2,600.6z M370.6,565.1c-10.1,4.5-20.1,4.1-25.4,1.8c-1.6-0.7-2.8-1.6-3.4-2.5
		c0.9-0.1,2.2-0.1,3.4-0.1c5.2,0,13.8-0.1,20.7-4.6c4.9-3.2,7.3-6.3,8.4-8.2c3.7,0.3,7.7,0.6,11.9,0.7
		C385.1,554.9,381.7,560.2,370.6,565.1z M360.9,549.8c3.1,0.5,6.5,1,10.1,1.4c-1.2,1.6-3.2,3.8-6.8,6.1c-0.8,0.5-1.5,0.9-2.3,1.3
		L360.9,549.8z M427.1,562.4c-5.2,9.1-20.4,15-24.2,14.9c0.9-1.3,3.5-3.7,5.6-5.6c4.5-4.2,9.7-8.9,10.4-12.7c1-5.1-0.8-10-2-12.7
		c3.7-2.2,7.1-5,10.1-8.4c0.7-0.8,1.3-1.6,1.9-2.5C429.8,541.8,431.1,555.3,427.1,562.4z M426.7,427.7c1.8,1.2,1.9,5.2,1.4,9.1
		c-2.2-4-4.6-7.8-6.9-11.2C423,425.9,425,426.6,426.7,427.7z M436,471.4c3.1,19.2,1.8,47.5-12.3,63.7c-7.8,8.9-18.6,13.3-32.2,13
		c-38.3-0.9-47.8-7.5-50.2-10.2c-0.4-0.5-0.7-1-0.9-1.5c1.9-0.4,6.8-0.4,11.1-0.5c18.5-0.2,49.6-0.5,50.9-20.5
		c1.5-21.7-20.8-51.2-29.4-61.8c1.5-0.5,3.3-1.7,4.8-4.3c4.9-8.4,4.9-29.7-3.1-38.3c3.2-1.6,12.8-5.7,24.6-4.9
		C403.6,410.2,430.5,437.5,436,471.4z M457.3,379.9c-3.5,4.3-17.3,5.3-25.2,4.9l-3.1-0.1l0.9,2.9c0,0.1,2.4,7.6-2.8,10.3
		c-6.5,3.4-11.5,5.4-26.6,4c-16.1-1.5-28.5,5.7-29,6l0.3,0.5c-6.7-5.3-15-12.7-17.7-15.1c11.8-10.3,22-19.4,24.5-21.7
		c5-4.5,11.9-10.7,19.2-17.5c4.6,2.9,18.1,11.5,26,14.2c3.4,1.2,8.2,1.2,13.3,1.3c11.2,0.1,19.2,0.7,20.8,6.9
		C458.3,377.9,458.1,379,457.3,379.9z"/>
	<ellipse class="st11" cx="281.2" cy="153.1" rx="3" ry="5.7"/>
	<path class="st11" d="M186.8,221.2c-21.2,4.1-35.4,23.4-31.5,43.1c1.8,9.5,7.6,17.7,16.2,23.1c6.3,3.9,13.6,5.9,21,5.9
		c2.7,0,5.4-0.3,8.1-0.8c10.2-2,19.2-7.5,25.1-15.6c6-8.1,8.3-17.9,6.4-27.4C228.3,229.7,208,217.1,186.8,221.2z M222.3,274.3
		c-5.3,7.2-13.3,12.2-22.5,14c-9.2,1.8-18.4,0.2-26.1-4.6c-7.6-4.7-12.6-11.9-14.3-20.2c-3.4-17.3,9.3-34.4,28.2-38.1
		c2.4-0.5,4.8-0.7,7.2-0.7c16.1,0,30.2,10.4,33.1,25.5C229.5,258.6,227.5,267.1,222.3,274.3z"/>
	<path class="st11" d="M198.6,623c-0.9-3.9-1.5-7.9-2-11.9c-1.1-8-1.9-16-2.5-24.1c-1.3-16.1-2.1-32.3-2.8-48.4l-1-24.3
		c-0.4-8.1-0.8-16.2-1.3-24.3c-0.5-8.1-1.1-16.2-1.5-24.2c-0.2-4-0.3-8.1,0-12.1c0.3-4,1.4-8,3.9-11.2c-1.3,1.5-2.4,3.3-3.2,5.2
		c-0.8,1.9-1.2,3.9-1.5,5.9c-0.6,4.1-0.6,8.1-0.6,12.2c0,8.1,0.3,16.2,0.6,24.3l1.7,48.5c0.7,16.2,1.7,32.4,3.4,48.5
		c0.9,8.1,1.9,16.1,3.4,24.1c0.8,4,1.6,8,2.7,11.9c0.5,2,1.1,3.9,1.9,5.8c0.8,1.9,1.6,3.8,2.9,5.3c-1.2-1.7-1.9-3.6-2.5-5.5
		C199.6,627,199.1,625,198.6,623z"/>
	<path class="st11" d="M187.6,228.2c-16.8,3.3-28,18.6-25,34.1c1.5,7.6,6,14,12.8,18.2c5,3.1,10.7,4.7,16.7,4.7
		c2.1,0,4.3-0.2,6.4-0.6c16.8-3.3,28-18.6,25-34.1C220.5,234.9,204.4,224.9,187.6,228.2z M198,281.8c-7.4,1.4-14.9,0.1-21.1-3.7
		c-6.1-3.8-10.2-9.6-11.5-16.4c-2.7-14,7.5-27.8,22.7-30.8c2-0.4,3.9-0.6,5.8-0.6c13,0,24.4,8.4,26.8,20.6
		C223.4,265,213.2,278.8,198,281.8z"/>
	<path class="st11" d="M361.5,590.1l-6.2,1.6c-1.2,0.3-2.3,1.1-2.9,2.2c-0.6,1.1-0.8,2.4-0.5,3.6c0.6,2.4,2.9,3.8,5.3,3.5
		c0.2,0,0.4-0.1,0.6-0.1l6.2-1.6l0,0c2.6-0.7,4.1-3.3,3.4-5.9C366.7,590.9,364.1,589.4,361.5,590.1z M363.2,596.6l-6.2,1.6
		c-1,0.3-2.1-0.3-2.4-1.4c-0.1-0.5-0.1-1,0.2-1.5c0.3-0.5,0.7-0.8,1.2-0.9l6.2-1.6c0.1,0,0.2,0,0.2,0c0.4-0.1,0.9,0,1.2,0.2
		c0.5,0.3,0.8,0.7,0.9,1.2C364.9,595.3,364.3,596.3,363.2,596.6z"/>
	<path class="st11" d="M365.2,284.3c0-0.5-0.1-1.1-0.5-1.5l-3.6-4c-0.7-0.8-1.8-0.9-2.7-0.3L296,325.2c-0.5,0.4-0.8,0.9-0.8,1.5
		c0,0.6,0.2,1.2,0.7,1.6l5.4,4.6c0.4,0.3,0.8,0.5,1.3,0.5c0.4,0,0.9-0.1,1.2-0.4l60.6-47.3C364.8,285.3,365.1,284.8,365.2,284.3z
		 M363.5,284.5l-60.6,47.3c-0.2,0.2-0.5,0.2-0.7,0l-5.4-4.6c-0.2-0.2-0.2-0.3-0.2-0.4c0-0.1,0-0.3,0.2-0.4l62.4-46.6
		c0.2-0.2,0.6-0.1,0.8,0.1l3.6,4c0.1,0.1,0.2,0.3,0.1,0.4C363.7,284.3,363.7,284.4,363.5,284.5z"/>
	<path class="st11" d="M304.6,407.2l7.6,9.3l117.2-105.2l-9.4-8L305.1,406.7L304.6,407.2z M420,305.2l7.2,6.1L312.3,414.5l-5.8-7.1
		L420,305.2z"/>
	<polygon class="st11" points="122,472.2 126.7,469.6 126,468.3 120.6,471.4 120.6,533.9 125.9,539 126.9,538 122,533.3 	"/>
	<polygon class="st11" points="105.9,469.4 110.7,466.7 110,465.5 104.5,468.5 104.5,531.1 109.8,536.1 110.8,535.1 105.9,530.5 	
		"/>
	<path class="st11" d="M406.6,292.7L406.6,292.7l-18.8-16.3c-1.2-1.1-3-1.1-4.3-0.1l-72.8,60.1c-0.7,0.6-1.2,1.5-1.2,2.4
		c0,0.9,0.3,1.8,1,2.5l17,16.5l2.6,3.1l0.3-0.2l7.3,7.1c0.6,0.6,1.5,1,2.3,1c0.8,0,1.6-0.3,2.2-0.9l70.6-64.8
		c0.7-0.6,1.1-1.5,1.1-2.5c0-0.9-0.4-1.8-1.1-2.4l-5.7-4.9L406.6,292.7z M311.5,340.3c-0.4-0.4-0.6-0.9-0.6-1.4c0-0.5,0.3-1,0.7-1.4
		l72.8-60.1c0.3-0.3,0.8-0.4,1.2-0.4c0.4,0,0.9,0.2,1.2,0.5l4.5,4L315,343.7L311.5,340.3z M316,344.7l76.2-62.1l5.2,5.2l-75.1,63
		L316,344.7z M328.5,356.9l-4.7-5.4l75.3-63.2l6.3,5.5l-75,65L328.5,356.9z M412.5,300.7c0,0.5-0.2,1-0.6,1.4l-70.6,64.8
		c-0.7,0.7-1.9,0.7-2.6-0.1l-7.2-7l75.1-65.1l5.3,4.6C412.2,299.6,412.5,300.1,412.5,300.7z"/>
	<path class="st11" d="M238.3,184.7c-10.1,0-18.3-8.2-18.3-18.3s8.2-18.3,18.3-18.3s18.3,8.2,18.3,18.3S248.5,184.7,238.3,184.7z
		 M238.3,150.8c-8.5,0-15.5,7-15.5,15.5c0,8.5,7,15.5,15.5,15.5c8.5,0,15.5-7,15.5-15.5C253.8,157.8,246.9,150.8,238.3,150.8z"/>
</g>
<path class="st12" d="M371.9,408.4c0,0,11.2-4.8,18.3-4.6c7.1,0.2,13.1,2.3,13.1,2.3l10.6,14.9c0,0-13.7-2.5-21,2.3
	c-7.3,4.8,34.1,62.1,28.6,88.1c-12,56.9-83.4,29.2-83.4,29.2l0.5-8.1c0,0,51.4,3.5,57.6-11.2c6.1-14.7-1.7-31.6-8.1-44.9
	c-18.3-17.7-17.7-22.7-17.7-22.7s8.9-1.8,8.6-7.9C378.7,439.5,371.9,408.4,371.9,408.4z"/>
<path class="st12" d="M378.3,503.7c2.1-5.3,11.8-4,15.3-1.7c3.5,2.3,6.7,1.7,6.7,1.7l-0.1,14.7c0,0-7-8.5-10.9-9.2
	C385.5,508.5,378.3,503.7,378.3,503.7z"/>
<path class="st12" d="M262,377.1l28.6,26.8c10,1.9,20.5-11.2,20.5-11.2s-9.7,4.8-16.9,2.6c-7.1-2.1-25.7-22.6-25.7-22.6L262,377.1z"
	/>
<path class="st12" d="M314.7,333.1c0,0-7.7,1.9-7.4,4.9c0.3,3,25.1,29.2,30.5,29.8c5.4,0.5,9.4-6,9.4-6s-1.6,2.5-9-0.1
	s-23.5-18.4-23.5-23.5C314.7,333.1,314.7,333.1,314.7,333.1z"/>
<path class="st12" d="M300,322.2c0,1.8,3.6,7.3,6.1,7.2c2.5-0.1-2.1,7.8-4.8,6.1c-2.7-1.7-6.8-3.6-8.2-7.3
	C291.6,324.6,300,322.2,300,322.2z"/>
<path class="st12" d="M356.9,242.2c0,0,7.7,2.3,15,2.3c6.5,0,26.7,1.9,26.7-0.7s6.8,3.7-4.1,8C365.2,263.6,356.9,242.2,356.9,242.2z
	"/>
<path class="st12" d="M324,291.7l41.2-28.1c0,0-22.1,0.1-40.9-4c-18.8-4-29.1-17.4-29.1-17.4l-1,9.9c0,0,4.5,2.8,10.4,7.5
	C310.5,264.3,324,291.7,324,291.7z"/>
<path class="st12" d="M163.3,287.2c28.1,22.1,55.9-3.9,55.9-3.9s-31.7,15.6-48.5,2c-26-21.1-5.4-53.1-5.4-53.1
	S137.6,267,163.3,287.2z"/>
<path class="st12" d="M433.2,296.9l2.8,3.1C435.6,297.1,433.2,296.9,433.2,296.9z"/>
<path class="st12" d="M242.8,118.9c2.5,1.2,3.4,5.4,3.6,7l-6.5,0.6l2,8.1c0,0,0-2.9,6.2-6.2c2.4-1.3,4.3-2.1,5.7-2.6l13.4-1.5
	c0,0-0.8-3.9-1.9-7.4c-1.2-3.5-11.6-13.5-11.6-13.5s-6.2-2.8-11.2,2.4s-5,9.1-5,9.1S239.7,117.5,242.8,118.9z"/>
<path class="st12" d="M224.3,181.2c13.2,13.2,28.2-5.1,28.2-5.1s-10.5,10.4-23.3-0.1c-10.1-8.3-0.4-22.8-0.4-22.8
	S212.6,169.5,224.3,181.2z"/>
<path class="st12" d="M397.9,350.5c0,0-12.1,16.3-17.8,30s-4.8,18,0,18.6s37.6,3.9,42-1.8c4.4-5.7,5.1-16.1,5.1-16.1
	s13.1,2.1,20.8,0c7.7-2.1,11.8-7,11.8-7s2.3,10.3-11.8,11.2c-14,0.9-15.8,0.9-15.8,0.9s3.7,8-0.7,10.9s-20.5,9.7-28.1,8.9
	s-31.4,2.3-31.4,2.3l-20.4-15l49.1-42.9H397.9z"/>
<path class="st8" d="M218.4,488.9c0,0,4.4,94.5,6.2,101c2,7.2,10.1,9.2,18.2,9.2c15.2,0,78.7-15.9,78.7-15.9s-67.7,14.8-84,0.1
	C226.1,572.9,218.4,488.9,218.4,488.9z"/>
<path class="st12" d="M442.6,307.4L436,300c0.2,1.6-0.2,4-1.9,7.6c-4.9,10.3-100.1,91.2-110.3,100.7c-14.3,13.4-18.3,9.5-18.3,9.5
	l-50.8-39c-2,2.3-5.9,4.7-13.1,3.6c-12.4-1.9-31.6-11.6-38.9-17.7c-7.4-6.1-25.1-50-25.1-50l6.7-4.2c0,0,12.9,40.6,26.4,51.5
	c25.3,20.4,46,13.6,46,13.6c3.9-1,6.5-1.7,11.8-3c7.6-1.9,12.8-16.1,12.8-16.1s-3.1,4.3-6.7,6.9c-4.6,3.3-16.3,0.7-16.3,0.7
	s-31.1-20.9-39.7-35.2c-6-10-9.1-16-9.2-21.3c0,0,7.7-4.3,7.7-4.4c6.5-3.3,35-11.6,35-11.6l-2.9-4.2l-35.8,11.3
	c14.6-6.6,42.2-14,42.2-14s-26.4,2.1-46.3,9.9c-19.9,7.7-35.7,15.7-35.7,15.7l-14.6-2.7l-16.8-55.9l5.8-24.2l-10.4,21.2l8.9-21.5
	l28.4-13.6l30-8.5l9.3-11.3c0,0,0,0,8.5,7.4c8.5,7.4,15.6,2.2,15.6,2.2s5.6,5,7.9,7.2c2.3,2.1,12.3,5.4,12.3,5.4s0.1,3.3,6.9,4.7
	c7.3,1.6,11.6-1.3,11.6-1.3s-14-5.9-25.6-13c-10.8-6.6,2.7-11.6-9.5-9.4c-2.9,0.5-5.5,0.6-7.9,0.2c11.3-1.2,28-6.3,28-6.3
	s7.8-11.4,3.4-6.2c-4.4,5.2-29.2,11.5-36.1,7.1c-6.1-3.8-15.6-30.3-15.9-36.5c-0.3-6.2,5.8-13.2,5.8-13.2s-6.5-10.1-3.8-23
	c1.6-7.7,11.3-16.6,11.3-16.6s-13,6.2-16.8,20.4c-2.6,9.5,0,16.2,1.9,19.5l-2.8-3.9c0,0-36.5,9.4-70.6,81.6
	c-28.6,60.5-12.4,122.5-5.5,142.6c5.5,16.2,10.7,30.9,23.4,42.7l2.7,4L127,413c0,0-8.9-4-11.5-5.5c-2.6-1.5-4.7-2.7-4.7-2.7
	l-16.8,8.5l-4.8,5.1c0,0-7.9,52.6-7.9,69c-0.1,16.4,4.7,68,4.7,68l6,7.1l33.3,19.5c0,0-25.6,6.7-27,18.7s12.5,38.4,39.3,48.3
	c26.8,9.9,32.9,10.4,36,10.7c20.8,2.3,114.1-32,114.1-32s-70.3,15.3-75.3,13.2c-5-2.1-6.8-4.3-12.7-11.9
	c-5.9-7.5-11.6-120.7-12.4-134.9c-1.2-21.4-1.5-40.6,7-42.9c5.9-1.6,20.4-2,26.5-1.2l46.7,14.5c0,0,45.5,21.7,54.4,24.5
	c8.9,2.9,8.2-6.3,8.2-6.3s5.3,0.9,14.6,0c9.3-0.9,16.9-18.9,16.9-18.9c6.9-6.5-2.8-23.7-2.8-23.7s1.7,7.8-7.3,16.6
	c-9,8.8-21.5-9.6-28.8-16.3c-7.3-6.7-7.6-17.2-7.6-17.2l66.1-57.2L442.6,307.4z"/>
<path class="st12" d="M201.5,136.6c0,0-18.1,2.8-27.3,7.3c-9.3,4.5-19.4,11-19.4,11s-0.9,5.4,2.7,10.8c3.6,5.3,3.6,5.3,3.6,5.3
	s10.9-9.9,17.6-14c6.7-4.1,22.9-15.6,22.9-15.6V136.6z"/>
<path class="st12" d="M154.8,182.6c0,0-5.7-6.2-12.8-5.8c-7.1,0.4-24.3,9.2-30.1,18.8c-2,3.4-3.9,7.5-4.9,9.9
	c-0.5,1.2-0.4,2.5,0.3,3.5c2.3,3.5,7.8,11.5,10.8,12.9c3.9,1.9,9.6,6.5,9.6,6.5s11.1-18.8,14.1-26.6
	C144.9,194,154.8,182.6,154.8,182.6z"/>
<path class="st12" d="M125.3,238.1c0,0-6.4,24.4-7.4,34.3s-1.2,29.5-1.2,29.5s-20.4-5.5-31.4-14.8c-9.1-7.6-14.5-17.4-14.5-17.4
	s1.3-10.1,8.3-17.9c5.1-5.7,17.7-12.4,17.7-12.4s13.3-2.4,17.2-1.8C118,238.1,125.3,238.1,125.3,238.1z"/>
<path class="st12" d="M86,317.4c0,0-9.7,9.2-12.2,15.7c-2.5,6.6,0,20.1,0,20.1s24.7,13.7,38.9,14.6c14.1,0.9,17.3,0.9,17.3,0.9
	s-10.2-28-9.8-33c0.4-5-2.6-30-2.6-30s-18.3,3.8-21.2,4.9C93.6,311.7,86,317.4,86,317.4z"/>
<path class="st12" d="M107.5,401.8c0,0,4-12.1,10.1-15.7s15-12,15-12l26.2,35.2c0,0-12.3,1.1-19,2.1
	C118.8,415,107.5,401.8,107.5,401.8z"/>
<path class="st13" d="M217.7,250.6c-3.1-12.3-16.4-19.6-29.7-16.3c-10.9,2.8-18.4,11.8-19,21.8c2.8-3,6.5-5.3,10.9-6.4
	c12.1-3.1,24.4,4.3,27.4,16.4c0.8,3.1,0.9,6.2,0.4,9.1C215.8,269.7,220.1,260,217.7,250.6z M210.7,248.4c-1.4,1.4-5.1-0.1-8.2-3.2
	c-3.2-3.2-4.6-6.9-3.2-8.2c1.4-1.4,5.1,0.1,8.2,3.2C210.7,243.3,212.1,247,210.7,248.4z"/>
<path class="st12" d="M383,521.9c0,0,0.9,2.6-4.3,2.9c-5.2,0.3-10-1.5-10-1.5l5.5,8.1l14.8-2.3L383,521.9z"/>
<path class="st12" d="M384.9,556.6c0,0-5.9-0.3-10.7,0c-4.7,0.3-8.4,3.1-8.4,3.1l8.4-8.2l14.8-0.6L384.9,556.6z"/>
<path class="st12" d="M429.7,539c0,0-1.8,6.4-4.6,8.4c-2.9,1.9-6.5,3.6-6.5,3.6l-4.7-5.6l15.5-11.7L429.7,539z"/>
</svg>
