<?xml version="1.0" encoding="utf-8"?>
<!-- Generator: Adobe Illustrator 21.1.0, SVG Export Plug-In . SVG Version: 6.00 Build 0)  -->
<svg version="1.1" id="Layer_1" xmlns="http://www.w3.org/2000/svg" xmlns:xlink="http://www.w3.org/1999/xlink" x="0px" y="0px"
	 viewBox="0 0 515.9 728.5" style="enable-background:new 0 0 515.9 728.5;" xml:space="preserve">
<style type="text/css">
	.st0{fill:#2C5A91;}
	.st1{fill:#BAE1EF;}
	.st2{fill:#FDF057;}
	.st3{fill:#A7A9AC;}
	.st4{fill:#FEBC11;}
	.st5{fill:#EBF1F4;}
	.st6{fill:#FEE44C;}
	.st7{fill:#FBAE61;}
	.st8{fill:#AF6F29;}
	.st9{fill:#8BA3B4;}
	.st10{fill:#5C97D1;}
	.st11{opacity:0.4;fill:#55285B;}
	.st12{opacity:0.4;}
	.st13{fill:#55285B;}
	.st14{opacity:0.3;fill:#FFFFFF;}
	.st15{fill:none;}
	.st16{fill:#010101;}
</style>
<path class="st0" d="M236,368.5c0,0-103.9-18.6-147.2-47.4c-75.9-50.5-87.1-95-50.2-131.1c18-17.6,57.5-11.8,80.3-3.2
	c43,16.3,102.2,76,102.2,76s-19.8,16.9-18,33.1c4.1,37,31.3,39.3,31.2,38.6l-2.6,8.4l12.2,4.3c0,0-7.9,11.5-5.8,13.9
	c2,2.4,7.7-2.2,7.7-2.2L236,368.5"/>
<path class="st0" d="M298.6,260.8c0,0,80.8-83.9,105.6-91.7c24.8-7.7,33.3-13.4,64.9-3.4c43.6,13.8,36,49.4,30.7,63.2
	c-5.4,13.8-19.9,47.1-68.1,74.6s-70.2,37-70.2,37s32.4-7.3,58.8-3.2c26.4,4.1,33.9,23.7,35.8,34.9c3.2,18.7-6.1,45-40.8,55.5
	c-32.1,9.7-88,9.5-113.6,3.9c-25.6-5.6-15.2-11.9-15.2-11.9l4.9-7l-7.2-11.7l5.2-2.4l-6.7-18l10,1.5l-8-16.8l6.2-4.3l-10.2-11
	c0,0,9-7.8,7.1-7c-2,0.7-1.3-5.6-1.3-5.6s20-7.8,25.1-17.4s12.9-22.6,6.1-37.8C311,266.8,298.6,260.8,298.6,260.8z"/>
<path class="st0" d="M235.5,369.5c0,0-10.4-1.1-24.4-4.2s-31.5-4.4-31.5-4.4s-63.9-6.1-82.1,5.6S67.4,395.7,68.7,411
	c1.8,19.7,5.6,37.4,34,46.7s68.4,3.8,79.4,0.6c25.1-7.5,53.4-25.1,53.4-25.1l8.2-10.7c0,0-8,2.5-10-0.3c-2-2.8,8.9-16.6,8.9-16.6
	s-11.1,2.6-12.9,0c-1.9-2.6,11.4-16.6,11.4-16.6s-11.6,2.9-12.9,0c-1.3-2.9,11.5-11,11.5-11s-5.2,0.3-7.5-1.5
	C229.8,374.7,235.5,369.5,235.5,369.5z"/>
<path class="st1" d="M319.3,297.1c0,24.2-25.2,43.9-57.8,43.9s-59.2-19.7-59.2-43.9s21.1-44.6,59.2-45.2
	C294.2,251.3,319.3,272.8,319.3,297.1z"/>
<path class="st2" d="M326.5,304.8c-0.7-7,14.7-18.6,15-20.4c1.6-10.8-15.7-26.5-13.4-29.5c2.3-3,5.1-10,9.8-8.1s13.9,17.1,17.1,17.5
	c3.2,0.4,23-14.6,30.3-10.6c7.3,4,15.4,13.9,17.2,24.4s-2.2,20.8-7.1,26c-4.9,5.2-35,31.8-40.9,31.9c-5.9,0.1-20.7-10.5-23.4-14.9
	S326.5,304.8,326.5,304.8z"/>
<path class="st2" d="M201.2,312.4c0.7-7-14.7-18.6-15-20.4c-1.6-10.8,15.7-26.5,13.4-29.5c-2.3-3-5.1-10-9.8-8.1
	s-13.9,17.1-17.1,17.5c-3.2,0.4-23-14.6-30.3-10.6c-7.3,4-15.4,13.9-17.2,24.4c-1.8,10.5,2.2,20.8,7.1,26c4.9,5.2,35,31.8,40.9,31.9
	s20.7-10.5,23.4-14.9C199.3,324.2,201.2,312.4,201.2,312.4z"/>
<path class="st2" d="M328,376.5c7.6-1.8,17.8-0.5,22.3-1.3c4.4-0.8,5.6-26.3,11.6-26.3c6,0,5.6,0.6,8.3,1.1s-2.3,18.4,1.3,22.2
	c3.6,3.8,21.7,5.6,24.2,15.6c3,11.8-7.9,30.5-17,32.8c-5.8,1.5-49.5-3.1-53.4-3.4c-4-0.3-8.8-17.8-6.1-24.4
	C322.1,386.2,328,376.5,328,376.5z"/>
<path class="st3" d="M234.4,334.4c0,0,17.4,7.2,27.1,6.6c9.7-0.6,25.1-3.8,25.1-3.8s4.4-0.1,1.3,5.6c-3.1,5.7-19.8,7.1-26.3,7
	c-6.4,0-28.3-3.5-30-7.1C230.1,339.2,234.4,334.4,234.4,334.4z"/>
<polygon class="st3" points="241.3,270.1 253,265.6 248.3,242.8 237.5,246.7 "/>
<polygon class="st3" points="271.8,265.6 276.2,242.8 286.6,245.8 282.6,272 "/>
<path class="st2" d="M193,388.9c0,0,12.6,7.6,14.2,13.7c1.6,6.2-2.8,24.7-2.8,24.7s-44.2,19-49.2,16.8c-5-2.3-20.7-11.5-20.7-16.8
	c0-5.2-2.5-15.2,0.2-19.4c2.7-4.2,15-11.7,15-11.7s-4.5-20.5-3.1-22.2c1.4-1.8,6.8-4.6,10.3-1.9c3.6,2.6,8.4,19.9,16.5,20.6
	S193,388.9,193,388.9z"/>
<path class="st2" d="M228.4,522.1c0,0-1,10.4,0,13.6c1,3.2,2,13.1,2,13.1s-11.9,9.8-12.6,11.9c-0.7,2.1-1.5,16.4,1.7,18.5
	c3.2,2.1,30.9,3.3,38.2-3.4c7.4-6.7,6.3-11.3,7-14.8s-2.1-11.2-2.1-11.2s5.8-20.4,3.5-23.8s-16.5-7.7-20.4-7.7
	C241.9,518.3,228.4,522.1,228.4,522.1z"/>
<path class="st2" d="M256.2,503.1c0,0,3.3-5.7,1.6-7.7c-1.7-2-1.4-5-1.4-5s31.7-15.8,31.6-13.9c-0.2,1.9,7.2,7.1,11.4,13.2
	c4.1,6.1,6,16.8,4.2,19.1c-1.8,2.3-17.6,4.9-17.6,4.9s1.8,16.2-5.1,20.1c-6.9,4-14.2,4.9-14.2,4.9l-1.9-4.9l-2.1-9.2l-3.4-2.9
	L256.2,503.1z"/>
<path class="st4" d="M154.5,329.7c0,0,13.2-1.6,22.9-9.8c9.7-8.3,11.6-23,11.6-23l5.7,5.4c0,0-0.3,10.6-11.7,21.7
	c-9.1,9-22.3,12.2-22.3,12.2L154.5,329.7z"/>
<path class="st4" d="M178.7,392.6l6.2-1.4c0,0,9.5,7.5,11.6,14.3c3.3,10.6-0.8,26-0.8,26l-6.7,3.3c0,0,3.6-10.8,1.6-21.8
	C187.7,397.5,178.7,392.6,178.7,392.6z"/>
<path class="st4" d="M337.8,375.4l5.7,1c0,0-8.2,8-7,20.6s7,22.4,7,22.4l-8.6-1.4c0,0-5.1-10.4-5.2-20.5S337.8,375.4,337.8,375.4z"
	/>
<path class="st4" d="M333.1,293.2l4.8-4.9c0,0,2.3,14.6,9.8,22c8.2,8.1,25.2,10.7,25.2,10.7l-5.4,6.1c0,0-10.8-0.9-21.7-10
	S333.1,293.2,333.1,293.2z"/>
<path class="st4" d="M228.4,535.7c0,0,8-2.5,11.2-2.6c3.2-0.1,14.2,1.3,14.2,1.3v-5.7c0,0-10.9-2.2-15.5-1.1
	c-4.6,1.1-9.9,2.2-9.9,2.2V535.7z"/>
<path class="st4" d="M275.3,481.3c0,0,8.3,6,10.7,11.7c2.5,5.8,7.5,18.4,7.5,18.4l5.7-2.3c0,0-4.1-12.2-7.9-18.5
	c-3.8-6.3-9.7-12.1-9.7-12.1L275.3,481.3z"/>
<ellipse class="st5" cx="262.1" cy="300.2" rx="35.5" ry="33.9"/>
<circle class="st6" cx="234.3" cy="305.3" r="15.7"/>
<circle class="st6" cx="292.1" cy="304.4" r="15.9"/>
<path class="st7" d="M243.9,347.1c0,0,9.1,3.3,17.8,2.8c8.6-0.5,19.2-2.6,19.2-2.6l10.2,13.6l-6.2,4.3l6.2,10.2l-1.5,8.7l-5.1,0.7
	l5.1,13.7l-5.2,2.4l7.2,11.7l-4.9,7l2,11.9l-1.4,3.9l-4.6,2.9c0,0,2.3,7.4,1.9,10.9s-1.5,7.6-3.7,6.5c-2.2-1.2-2.2-1.2-2.2-1.2
	s-3.7,13.1-6.9,17.1s-9.4-5.8-9.4-5.8s-5,6-6.1,4.9c-1.1-1.1-3.3-14.9-3.3-14.9s-8.6-0.2-8.6-2.8c0-2.6,2.1-10.5,2.1-10.5
	s-11.8,1.4-11.5-2.4s8.6-17.5,8.6-17.5s-9.4,5.1-10-0.3c-0.6-5.4,8.9-16.6,8.9-16.6s-13.8,3.5-12.9,0c0.9-3.5,11.4-16.6,11.4-16.6
	s-13.4,6.1-12.9,0c0.5-6.1,11.5-11,11.5-11s-9.9,1.2-6.5-5.8c3.5-7,9.4-12,9.4-12s-2.7,5.1-4.9-0.8c-2.2-5.9,3.8-10.8,3.8-10.8
	L243.9,347.1z"/>
<path class="st8" d="M243.7,337.2l2.2-5.8c0,0,6.8,2.6,13.4,2.5c6.6-0.1,18-3.1,18-3.1l1.5,6.4c0,0-8.7,2.3-17.2,2.5
	C253,339.8,243.7,337.2,243.7,337.2z"/>
<polygon class="st5" points="193,334.1 197.8,324.1 237.5,359.3 236,368.5 "/>
<polygon class="st5" points="291.1,360.9 286.6,353.9 331,321 337.8,327.6 "/>
<polygon class="st5" points="285.7,386.1 319.3,388.8 318.6,398.5 289.5,397.2 "/>
<polygon class="st5" points="238.3,388.4 230.3,399.2 209,408.4 207.2,400 "/>
<path class="st7" d="M278.3,243.1c-0.2,0.4-10.9-35.7-9.9-42.4c0.4-2.7,5.3,5.6,5.3,5.6s-2.8-16.3,1-24.6c3.8-8.3,6.4-19.9,9.3-18.2
	c1.5,0.9,2.4,11.2,1.9,11.9c0,0,11-15.3,15.9-17.2c4.9-1.9,40.2-8.8,40.2-8.8l-7.2,8.7c0,0,16.9,5.9,13.6,9
	c-3.3,3.1-32.3,8.6-32.3,8.6s9.3,3.1,9.6,5.9c0.3,2.8-26.6,10.6-26.6,10.6c12.6,1.7-9.6,20.8-9.6,20.8s2.8,4.7,1.5,6.9
	c-1.3,2.2-6.5,7.3-6.5,7.3v16.8L278.3,243.1z"/>
<path class="st7" d="M240.2,244.8l4.9-0.8c0,0,2.3-8.6,0.5-11.8c-1.8-3.2-5.3-5.4-5-8s1.1-13.1,0-15.7c-1.1-2.6-8.7,1.4-8.7,1.4
	s1.8-22.6-3.9-34s-8.9-16.6-9.4-15.6s-4.6,13.9-4.6,13.9s-16.2-23.5-26.1-25.6c-9.9-2.1-13.1,0.6-13.1,0.6s-18.7-2.6-18.7-0.6
	c0,5.2,22.4,15.4,22.4,15.4s-15.4,1.1-15.4,3.6s27.5,11.9,27.5,11.9s-10.6,1.1-10,4.5s14.3,4,16.2,5.7s14.1,8.9,14.1,8.9
	s-6.6-0.6-7.4,2.3s18.1,15.1,18.1,15.1s-2.3,5.4-1.6,6.4c0.7,1,8,3.6,11.3,7.3S240.2,244.8,240.2,244.8z"/>
<polygon class="st9" points="239.8,254.9 250.5,253.2 253,265.6 241.3,270.1 "/>
<polygon class="st9" points="271.8,265.6 274.2,253.6 285.1,255.7 282.6,272 "/>
<polygon class="st5" points="284.9,453.7 284.5,440.3 311.5,468.4 305.4,473.5 "/>
<polygon class="st5" points="248.1,456.9 253,455.6 253.8,466.7 256.4,470.6 253.8,487.3 245.8,485.1 "/>
<polygon class="st5" points="296.1,483 305.2,479.6 309.2,486.5 299.3,489.8 "/>
<polygon class="st5" points="244.8,505.6 252.6,505.6 250,518.3 242,517 "/>
<circle class="st7" cx="249.1" cy="495.5" r="9.3"/>
<circle class="st7" cx="315.3" cy="477.5" r="8.7"/>
<path class="st3" d="M219.6,571.1c0,0-3.7,3,1,6.3c7.4,5.2,29.3,3.7,37.2-1.6c7.9-5.3,4.2-9.5,4.2-9.5s-3.1,7.7-21.4,7.3
	C219.6,573.1,219.6,571.1,219.6,571.1z"/>
<path class="st3" d="M256.2,503.1l3.1-4.1c0,0,5.1,19.1,7.5,24.6c2.4,5.5,7.5,13.3,7.5,13.3h-6.6l-2.7-3l-2.1-9.2l-3.4-2.9
	L256.2,503.1z"/>
<rect x="144.7" y="141.2" transform="matrix(0.5435 -0.8394 0.8394 0.5435 -120.5111 223.6708)" class="st10" width="1.3" height="162.9"/>
<rect x="194.4" y="278.2" transform="matrix(0.5102 -0.8601 0.8601 0.5102 -151.0892 308.2651)" class="st10" width="1.3" height="17.2"/>
<rect x="94.9" y="159.4" transform="matrix(0.5101 -0.8601 0.8601 0.5101 -149.0692 193.7611)" class="st10" width="1.3" height="136.8"/>
<rect x="70.9" y="192.8" transform="matrix(0.5008 -0.8656 0.8656 0.5008 -185.5019 189.5467)" class="st10" width="1.3" height="125.5"/>
<rect x="130.7" y="227" transform="matrix(0.4277 -0.9039 0.9039 0.4277 -218.6981 304.8785)" class="st10" width="1.3" height="196.4"/>
<rect x="290" y="214.9" transform="matrix(0.7937 -0.6082 0.6082 0.7937 -53.195 274.2059)" class="st10" width="175.5" height="1.3"/>
<rect x="345" y="220" transform="matrix(0.8383 -0.5452 0.5452 0.8383 -52.0486 265.7413)" class="st10" width="154.1" height="1.3"/>
<rect x="392" y="241.9" transform="matrix(0.857 -0.5154 0.5154 0.857 -60.4864 267.2146)" class="st10" width="118.4" height="1.3"/>
<rect x="367.7" y="289.9" transform="matrix(0.8715 -0.4904 0.4904 0.8715 -87.3889 247.6931)" class="st10" width="122.4" height="1.3"/>
<rect x="219.7" y="314.7" transform="matrix(0.5145 -0.8575 0.8575 0.5145 -184.0931 353.7267)" class="st10" width="1.3" height="49.5"/>
<rect x="316.3" y="282.1" transform="matrix(0.8166 -0.5773 0.5773 0.8166 -102.8506 241.8594)" class="st10" width="25.7" height="1.3"/>
<path class="st10" d="M287,341.3l-0.7-1.1c6.7-4.1,40.3-24.5,41.3-24.8l0.4,1.3l-0.2-0.6l0.2,0.6C326.8,317.2,298,334.6,287,341.3z"
	/>
<rect x="301.4" y="341.6" transform="matrix(0.9058 -0.4236 0.4236 0.9058 -114.4412 169.6543)" class="st10" width="46" height="1.3"/>
<rect x="199.2" y="343.7" transform="matrix(3.424549e-03 -1 1 3.424549e-03 -182.164 579.9476)" class="st10" width="1.3" height="75.3"/>
<rect x="111.7" y="345.8" transform="matrix(3.412140e-03 -1 1 3.412140e-03 -269.0912 492.1263)" class="st10" width="1.3" height="70.6"/>
<rect x="66.4" y="409" transform="matrix(0.9954 -9.563802e-02 9.563802e-02 0.9954 -38.7191 11.549)" class="st10" width="69.4" height="1.3"/>
<polygon class="st10" points="207.5,418.6 207.3,417.3 238.9,410.4 236.9,412.2 "/>
<rect x="80.3" y="438.1" transform="matrix(0.9775 -0.2107 0.2107 0.9775 -89.9846 33.1387)" class="st10" width="60.4" height="1.3"/>
<rect x="122.8" y="448.1" transform="matrix(0.9625 -0.2714 0.2714 0.9625 -115.028 65.7544)" class="st10" width="114.8" height="1.3"/>
<rect x="370" y="350.7" transform="matrix(0.9694 -0.2453 0.2453 0.9694 -73.8953 109.4237)" class="st10" width="64.7" height="1.3"/>
<rect x="288.4" y="370.6" transform="matrix(0.9694 -0.2453 0.2453 0.9694 -81.1849 90.7144)" class="st10" width="70.3" height="1.3"/>
<rect x="387.7" y="373.4" transform="matrix(0.9855 -0.1698 0.1698 0.9855 -57.4011 76.8791)" class="st10" width="66.2" height="1.3"/>
<rect x="390.9" y="399.5" transform="matrix(0.9948 -0.1016 0.1016 0.9948 -38.4866 44.9904)" class="st10" width="62.7" height="1.3"/>
<rect x="287.5" y="411.6" transform="matrix(0.9948 -0.1016 0.1016 0.9948 -40.3174 33.1116)" class="st10" width="34.6" height="1.3"/>
<polygon class="st10" points="293.2,432.2 293.2,430.9 418.6,426.7 418.6,428 "/>
<path class="st11" d="M124.2,303.4c0,0,0.3,9.9,2.7,14.9s39.4,31.3,43.6,33c4.2,1.7,16.8-0.8,20.1-2.9c3.3-2.1,8.2-4.8,8.2-4.8
	l34.3,28.5l4.5-7.3l-40.7-34l-10.9,7.2l-11.9,6.2l-8.6-4.6L124.2,303.4z"/>
<path class="st11" d="M203.1,295.7c0,0-2.9,16.2,0,27.4c2.4,9.3,4.1,12.1,4.1,12.1l28.4,24l6.2-7.7l-9.4-8l3-6.4
	c0,0-18-10.3-21.7-14C205.3,314.7,203.1,295.7,203.1,295.7z"/>
<path class="st11" d="M280.9,348.7c0,0-4.1,3.8-14.7,7.3c-14.8,4.9-14.8,4.9-14.8,4.9s-10.5,4.4-7.7,8.8c2.8,4.5,9,0.4,9,0.4
	s-9,8.4-7.9,11.7c1.1,3.4,6.2,4.2,6.2,4.2s-12.8,9.2-9,10.9c3.8,1.7,8.1,2.5,8.1,2.5s-12,10.4-6.4,12.6c5.6,2.2,8,2.2,8,2.2
	s-12.6,16.2-8,17.9c4.5,1.7,14-0.4,14-0.4s-10.9,12.3-6.7,14c4.3,1.7,10.2-3.5,10.2-3.5s-6.6,10.9-1.5,13.2c5.1,2.4,7-4.7,7-4.7
	s-3.5,12.1,1.6,12s6.9-5.2,6.9-5.2s-0.1,16.2-3.4,15.8c-7.9-1-9.4-7.8-9.4-7.8s-3.5,8.8-6.1,4.9c-2.6-3.9-3.3-14.9-3.3-14.9
	s-9,0.2-8.6-2.8c0.4-3,3-10.5,3-10.5s-11.1,0.4-11.7-1s8.7-20.6,8.7-20.6s-13.2,3.8-13.1,0C231.5,417,242,404,242,404
	s-11.6,2.2-10.4-0.2c1.2-2.4,9.5-14.9,9.5-14.9s-13.1,4.9-12.9,0c0.2-4.9,12.2-13.6,12.2-13.6s-9.2,5.5-8.2,1.2
	c1-4.3,10.4-16.3,10.4-16.3s-7,3.4-6.8-0.8c0.2-4.2,8.3-10.9,8.3-10.9l17.8,1.5L280.9,348.7z"/>
<path class="st11" d="M286.6,337.2c0,0-9.8,5.8-23.8,5.8c-5,0-14.2-0.2-14.2-0.2l-2.6,6l-13.5-5.2l3-6.4c0,0,16.9,1.9,22,2.2
	C262.6,339.6,286.6,337.2,286.6,337.2z"/>
<polygon class="st11" points="237.5,246.7 241.6,246.4 246.4,264 253,265.6 241.3,270.1 "/>
<polygon class="st11" points="276.2,242.8 280.4,245.5 277.2,264.3 282.6,272 271.8,265.6 "/>
<path class="st11" d="M131.4,413c0,0,4.2,5.9,8.7,5.6c0,0-2.1,5.1,1.8,8.8c3.7,3.5,10.6,2.1,10.6,2.1s1.8,2.9,7,3.1
	c17.6,0.6,47.8-15.3,47.8-15.3l-2.8,10.1c0,0-39.8,16.5-46.8,17c-7,0.4-16.7-8.6-19.9-12.8C134.5,427.3,131.4,413,131.4,413z"/>
<path class="st11" d="M131.4,413c0,0-11.4,13.9,0.6,29.3c10.6,13.7,23.4,11.7,30.2,10.9c6.8-0.9,42.2-12.9,46.5-15.8
	c4.3-2.9,6.1-13.5,6.5-18.9c0.4-5.3,0-8.9,0-8.9l16.3-5.8l4.1-10.6L208.1,404c0,0,0.7-1.6,0.6,8.1c-0.1,9.7-4.3,15.2-4.3,15.2
	s-41.5,17-46.8,17c-5.3-0.1-16-6.6-19.9-12.8S131.4,413,131.4,413z"/>
<path class="st11" d="M240.9,318.4c0,0,4.1,6,8.6,8.5c9.7,5.3,27.8,4,27.8,4s-11.6,5.1-27.7,1.7c-5.8-1.2-15.8-8.6-15.8-8.6
	L240.9,318.4z"/>
<path class="st11" d="M226.6,289.6l8.5-1.3c0,0-0.1-4.4,1.8-8.4c1.8-3.7,6.9-9.8,6.9-9.8s-13.5,7.3-14.9,9.7
	C227.5,282.2,226.6,289.6,226.6,289.6z"/>
<path class="st11" d="M174.7,149.3c0,0-8-1.8-10.3,1.4c-1.4,1.9,7.6,6.9,15.1,10.7c5.1,2.6,9.6,4.6,9.6,4.6s-11.1-0.1-11.7,3
	c-0.6,3.1,22.1,10.7,22.1,10.7s-6.6,0.3-4.6,5.2c0.4,0.9,1.3,2.1,3,2.9c6.7,3.3,22.4,13.1,22.4,13.1s-11.8-0.1-8.7,1.9
	c3.1,2,15.2,12.6,15.2,12.6s4.2,7.7,9,12.2c4.8,4.5,6,18.7,6,18.7s-7.5-15.5-11.4-17.6c-3.9-2.1-10.3-6.3-10.3-6.3l1.9-6.4
	c0,0-19.5-12.8-18.3-15.1c1.5-2.9,7.4-2.3,7.4-2.3s-6.9-5.2-14.1-8.3c-7.9-3.3-16.1-4.6-16.2-6.3c-0.3-2.8,10-4.5,10-4.5l-27.1-10.9
	l3.2-3l10.1-2c0,0-22.1-11.1-20.8-15.1C156.8,146,174.7,149.3,174.7,149.3z"/>
<path class="st11" d="M256.4,470.6c0,0-0.6,1.6-4,2.9c-2.1,0.8-2.4,2.9-2.4,2.9l-1,8.3l-3.3,0.4l2.4-28.3l4.9-1.3l1.4,12.1
	L256.4,470.6z"/>
<path class="st11" d="M285.7,443c0,0,0.9,6.3,2.2,9.2c1.3,2.9,19.6,19.5,19.6,19.5l-0.9,3.3l0,0l-22.1-20.2L285.7,443z"/>
<path class="st11" d="M320.7,388.4c0,0-1.7,20.5,12.4,22.3c9.4,1.2,39.3,4.3,44.6,3c5.4-1.4,16.1-12.6,16.1-12.6
	s-7.9,17.6-12.5,18.6c-4.6,1-53.1-1-55.9-2.5c-2.8-1.5-7.9-12-7.9-12L320.7,388.4z"/>
<polygon class="st11" points="289.1,393.3 319,395.3 317.5,398.4 289.5,397.2 "/>
<path class="st11" d="M289.5,397.2l-4.4,5l27.1,1.9c0,0-1.6,12.3,3.1,16.7s55.1,7.2,62.4,4.6c7.3-2.6,10.1-11.7,10.1-11.7
	s-8.4,6.1-11.2,7.1c-2.8,1-47,0.4-51.3-3.6c-4.3-4.1-7.9-18.7-7.9-18.7L289.5,397.2z"/>
<path class="st11" d="M242.3,516.9c0,0-4.5,1.6-5.2,5.9c-0.3,1.9-0.7,21.3-0.7,21.3s1.7-0.6,8.3,0.7c4.3,0.9,6.7,6.3,6.7,6.3
	s-8.3-2.4-12.2-1.9s-8.2,8.8-8.9,13.6c-0.6,4.8,6.6,18,6.6,18s-13.2,0.3-16.4-3.4c-3.1-3.7-5.3-11.4-3.4-14.9
	c1.9-3.5,14.1-13,14.1-13l-2.5-27.6L242.3,516.9z"/>
<path class="st11" d="M296.1,485.1c0,0,0.9-0.7-4.6-0.7c-4.5,0-15.2,11.9-20.9,23.2c-4.1,8.1-2.4,31-2.4,31l-8.3-18l-3.5-16.3l2-8.8
	l-1.3-5.8l28.9-12.2l5.3,1L296.1,485.1z"/>
<path class="st11" d="M243.9,487.8c0,0-2.5,7,0.9,10.2c5.3,5,11.6,1,11.6,1s-4.3,7.4-8.2,6.6s-9.9-5.9-9.9-5.9L243.9,487.8z"/>
<g class="st12">
	<polygon class="st13" points="251.4,506.3 242.3,516.9 244.8,505.6 	"/>
</g>
<path class="st11" d="M307.6,471.7c0,0-0.2,4,3,6.8c3.1,2.8,12,3.9,12,3.9l-7.2,5.4l-10.5-5.6L307.6,471.7z"/>
<polygon class="st11" points="309.1,487.3 296.1,483 303.9,480.1 "/>
<polygon class="st11" points="288.7,357.1 328,329.6 331,323.2 337.8,327.6 288.7,364.5 "/>
<path class="st11" d="M324.1,303.6c0,0-2.6,10.1-2,15c0.5,4.9,2.3,8.5,2.3,8.5l6.6-3.9L324.1,303.6z"/>
<path class="st11" d="M288.7,364.5l49.1-37l7.1,4.3l12.1,2.5l36.7-30c0,0-29.1,31.6-33.1,33.4c-4,1.7-10,4.7-15.2,2.7
	c-5.1-2-11.1-2.2-11.1-2.2L288.7,364.5z"/>
<path class="st11" d="M392.2,303.1l1.6-1.4L391,302c-1.7-1.5-3.9-3.8-5.8-6.4c-3.6-5.1-1.6-10-1.6-10s-7.6-0.2-8.9-2.6
	s-1.8-9.7-1.8-9.7s-6-0.4-9.4-3.3c-3.4-2.9-2.4-8.6-2.4-8.6s-6.7,10-4,13.8c4.9,7,10.7,4.5,10.7,4.5s-1.6,4.4,1.3,7.3
	c2.9,3,8.7,4.5,8.7,4.5s-2.7,4.6,1.3,9.4c1.3,1.6,2.7,2.6,4.1,3.2c-5,5.2-24.9,23.1-28.1,23.3c-3.7,0.3-13.4-2-18.5-7.8
	c-6.6-7.5-9.4-18.8-9.4-18.8s-5.2,7.5,7.7,23c9.1,11,22.2,11.6,22.2,11.6l32.6-27.7c2.4-0.2,4.1-3.6,4.1-3.6
	S393.2,303.9,392.2,303.1z"/>
<path class="st11" d="M149.7,308.6l1.4-5.2c0,0,3-2.1,6-4.6c3.9-3.3,3.9-11.1,3.9-11.1s3.5,0.8,7.6-1.8c6.2-4.1,1.4-12.7,1.4-12.7
	s-1.4,9.6-3.1,11.2s-10.6-0.5-10.6-0.5s2.2,8.8-0.9,11.9c-3,3-9.9,2.1-9.9,2.1s1.5,2.9,1.1,6.1c-0.1,0.7-1.8,1.3-3.1-0.6
	c-3.4-5.4-0.9-6.1-0.8-7.7c0.1-0.9-1.2-1.9-1.6-2.9c-0.9-2.9-4.5-6.6-3.7-10.3c1.3-5.7,4.6-6.2,5.2-9.1c1-4.5,1.7-6.2,4.9-10.2
	c0,0-11.1,0.6-18,11.7c-3.9,6.2-5.8,24.9-2.8,28.6c3,3.6,43.2,39.7,47.2,40.8c4,1.1,11.9-6.2,11.9-6.2S162.9,322.8,149.7,308.6z"/>
<path class="st11" d="M159.3,403.2c0,0,0.2,0.2,0.1,4.9c0,2.3-1.9,6.6-1.9,6.6l-3.2-1L159.3,403.2z"/>
<polygon class="st11" points="163.1,422.1 163.1,426.4 159.5,426.7 "/>
<path class="st11" d="M365.1,381.4c0,0-0.2,3.9,0,5.7c0.3,2.8,5.1,4.2,5.1,4.2l2.7-1.1L365.1,381.4z"/>
<path class="st11" d="M365.1,396.6c0,0-1.6,2.8-0.4,5.2c1.2,2.3,3.3,3.7,3.3,3.7l0.9-1.5L365.1,396.6z"/>
<ellipse transform="matrix(0.5 -0.866 0.866 0.5 -88.9786 388.4738)" class="st14" cx="291.9" cy="271.3" rx="7.3" ry="14.8"/>
<path class="st14" d="M412.2,165.5l-12,155.3l23.5-13.8l34.7-144.3c0,0-18.3-4.1-29.5-1C423.6,163.1,412.2,165.5,412.2,165.5z"/>
<path class="st14" d="M433.7,301.8l39.4-136.1c0,0,10.2,4.5,19.8,14.2c0.9,0.9,6.9,15.5,7.3,12.5c0.4-3-53.2,99.4-53.2,99.4
	L433.7,301.8z"/>
<path class="st14" d="M400.9,336l-8.5,42.6l3.9,13c0.3,5.4-3.8,12-6.3,16.8l-5.7,11l-3.1,15.4h10.9l33.9-97L400.9,336z"/>
<polygon class="st14" points="435.6,342.1 399.7,431.9 407.8,431.3 453.8,360.2 443.7,348.8 "/>
<g id="ink_1_">
	<path class="st15" d="M243.5,243.5c0.5-3.7,1.1-9.4,0.8-10.9c-0.2-1.1-2.8-3.9-5-5.8l-0.5-0.5l0.1-0.7c0.6-5,1.1-13.7,0.1-16.2
		c-0.1-0.3-0.3-0.4-0.4-0.4c-1.3-0.3-4.3,1.4-6,2.6l-2.3,1.7l0.2-2.9c0-0.2,1.1-21.6-2-29.5c-3.6-9.2-8.1-17.3-9.9-18.8
		c-0.9,1.6-2.1,7.8-2.7,13.2l-0.4,3.8l-2-3.3c-0.1-0.2-13.3-21.3-23.1-25.5c-9.5-4-14.3-0.3-14.5-0.2l-0.5,0.4l-0.6-0.1
		c-7.4-1.6-16.3-2.3-17.6-0.7c0.7,2.2,12.4,8.5,23.1,13l5.4,2.3l-5.8,0.2c-7,0.3-13.8,1.5-15.1,2.6c2.1,2,16.2,6.7,28.6,10l6.2,1.7
		l-6.4,0.9c-5.4,0.8-10.7,2.5-11.1,3.6c0.5,1.1,6.6,2.5,9.5,3.1c3,0.7,5.6,1.3,7,2.1c3.3,1.8,14.3,8.2,14.4,8.3l4,2.3l-4.6,0.2
		c-3,0.1-6,0.5-7.3,0.9c2.2,2.3,10.2,8.6,17.7,14.2l1.1,0.8l-0.8,1.1c-1.4,2-2.3,4.4-1.8,4.9c0.7,0.7,2.7,1.8,4.5,2.9
		c2.7,1.5,5.5,3.1,7,4.7c4,4.1,8.6,14.1,8.8,14.6L243.5,243.5z"/>
	<path class="st15" d="M204.4,296c0,22.2,16.4,35,36.7,40l2.6-4.6c-4.6-2.3-8.7-5.4-11.9-9.2c-8.8-1.2-15.5-8.8-15.5-17.9
		c0-6.4,3.4-12.1,8.4-15.3c2.6-8.4,8.2-15.6,15.8-20.2l-3-12C216.8,262.7,204.4,276.8,204.4,296z"/>
	<path class="st15" d="M193.3,335.7c-5.4,5.9-13.8,9.3-19.9,9.3c-0.8,0-1.5-0.1-2.1-0.2c-6.7-1-42.2-32.8-46.4-39.3
		c-4.8-7.6-0.7-31.6,11.9-41.7c10.3-8.4,24.9,0.1,31.9,4.2c0.8,0.5,1.8,1,2.3,1.3c1.4-1,4.8-4.5,7.1-6.9c5.8-6.1,8.3-8.6,10.2-8.9
		c3.4-0.6,6.6,0.4,9,2.8c2.5,2.5,3.8,6.1,3.4,9.3c-0.2,1.6-2.3,4.8-6.4,10.7c-0.8,1.1-1.4,2.1-1.8,2.6c-2.5,3.9-5.1,11.4-4.5,13
		c1.1,1.4,3.1,3.5,5.2,5.6c6.4,6.5,10.5,11.1,10.6,14.6c0,4.3-1.3,9-4,14.1l0.5-0.6l35.7,29.5c0.9-2.2,2.5-4.6,3.9-6.4
		c-5.3-2-9.2-4.5-9.4-7.1c-0.1-2.1,0.6-4.2,1.3-5.7c-18.6-7.1-29.9-21.5-29.9-40c0-13.9,6-25.2,16.7-33.1
		c-6.6-6.9-69.3-71.1-122.9-81.4c-36.2-7-55.4,7.7-63.6,17.1c-11.5,13.1-15.7,31.2-10.7,46.3c10.9,32.9,45,64.9,93.3,87.7
		c33.6,15.9,105,32.1,117.1,34.8L193.3,335.7z"/>
	<path class="st15" d="M235.5,359.9L198.1,329c-0.7,1.2-1.5,2.4-2.4,3.6l39.7,32.6c0.7-1,1.4-2,2.1-3
		C236.7,361.8,235.9,361,235.5,359.9z"/>
	<path class="st15" d="M244,266.8c2.4-1.2,5-2.1,7.7-2.8l-2.6-9.7c-2.7,0.3-5.3,0.8-7.8,1.4L244,266.8z"/>
	<path class="st15" d="M260.9,262.9c3.1,0,6.2,0.4,9.1,1.1c0,0,0-0.1,0-0.1l1.8-9.6c-3.4-0.4-6.9-0.6-10.5-0.6
		c-2.8,0-5.6,0.1-8.2,0.3l2.5,9.4C257.3,263.1,259.1,262.9,260.9,262.9z"/>
	<path class="st15" d="M133.4,418.1c0.1,0.5,0.2,1.1,0.3,1.6c2.6-0.9,16.3-6.5,20.6-9.7c1.5-1.2,2.5-3.1,2.5-5c0-1.6-0.6-3.1-1.9-4
		c-2.4-1.9-6.5-1-9.8,0.4C139.5,404.9,132.2,410.7,133.4,418.1z"/>
	<path class="st15" d="M139.2,266.9c-0.5,0.4-1,0.9-1.5,1.4c1.6,1.4,15.5,12.5,21.3,15c2,0.9,4.5,0.8,6.5-0.3c1.7-0.9,2.7-2.4,3-4.2
		c0.6-3.7-3-7.4-6.3-9.9c-4.4-2.3-9.9-4.7-15-4.7C144.3,264.3,141.6,265,139.2,266.9z"/>
	<path class="st15" d="M232.9,391.7L232.9,391.7l-25.2,9.5c0.5,1,1,2,1.5,3.1c0.2,0.4,0.3,0.8,0.5,1.2l20.6-7.8l0.1,0.1
		c1.1-1.7,2.6-3.8,4.7-6.3C234.3,391.7,233.6,391.7,232.9,391.7z"/>
	<path class="st15" d="M238.3,425.1c-2.8,0.4-6,0.2-7.5-2c-1.6-2.3,0.7-7.5,6.9-15.4c-4.1,0.5-8.3,0.4-9.7-1.9
		c-0.2-0.4-0.7-1.2-0.2-3l-17.1,6.4c1.3,7-0.3,14.5-3.4,18.3c-3.7,4.7-43.8,18.3-50.7,18.7c-0.1,0-0.2,0-0.3,0
		c-8.2,0-24.5-13.6-26.9-27.5c-2-11.7,11.5-19.6,17.3-23c0.7-0.4,1.4-0.8,1.9-1.1c-0.2-1.6-1.4-5.6-2.2-8.3
		c-2.2-7.2-3-10.2-2.4-11.9c1.1-2.9,3.3-5,6.3-5.9c3.1-0.9,6.5-0.3,8.8,1.5c1.2,0.9,2.7,3.8,5.5,9.8c0.5,1.1,0.9,2,1.2,2.5
		c1.9,3.5,6.4,8.6,7.9,9c1.5-0.2,4-0.9,6.5-1.5c7.9-2.1,13.2-3.3,16-1.8c3.5,1.9,6.6,5.2,9.4,9.8l20.8-7.8c-0.1-0.2-0.3-0.4-0.4-0.6
		c-0.4-1-1.4-3.5,8.5-10.7c-1.9-0.4-3.4-1-4.2-1.9c-0.5-0.6-0.7-1.3-0.6-2.1c0.1-0.7,0.7-1.9,1.6-3.4c-3.9-0.9-16.1-3.6-31.7-7.5v0
		c-0.7-0.1-69.4-8-97.2,2.9c-21.7,8.5-34.6,29.6-31.5,51.3c2.7,18.4,18.3,39.3,54.4,42.5c64.1,5.7,106.4-27.8,110.7-31.3
		C236.8,427.7,237.5,426.4,238.3,425.1z"/>
	<path class="st15" d="M282.8,256.5c-2.3-0.6-4.6-1.2-7.1-1.6l-1.9,9.8c0,0.2-0.1,0.3-0.2,0.5c2.4,0.8,4.7,1.9,6.8,3.2L282.8,256.5z
		"/>
	<path class="st15" d="M144.2,294.2c0.2,0,0.4,0.1,0.6,0.3c0.1,0.1,0.2,0.1,0.3,0.2c0.9,0.5,1.7,0.9,2.1,1c2.9,0.8,6,0.9,8.8-4.3
		c1.7-3.1-4.6-8.7-7.3-11c-0.9-0.7-1.5-1.3-1.8-1.7c0,0,0-0.1-0.1-0.1c-4.6-3.2-9.2-6.7-10.8-8.5c0,0,0,0,0,0
		c-3.2,3.8-5.5,8.7-7,13.7C133.6,287.2,140.2,291.8,144.2,294.2z"/>
	<path class="st15" d="M191.7,331.4c5.3-7.2,8.1-13.8,8.1-19.3c0-1.3-2.2-4-4.6-6.7c-0.8,3.9-3.2,12.5-10.3,19.3
		c-7.9,7.5-15.6,10.4-20.5,11.5c3.6,2.7,6.4,4.5,7.5,4.7C176.6,341.6,186.5,338.4,191.7,331.4z"/>
	<path class="st15" d="M140.6,309.6c1.1-0.1,2.9-1.4,4.4-3.4c0.8-1.1,2-3.4,1.4-5.7c-0.2-0.9-1.8-2.5-2.9-3.6
		c-4.5-2.6-12-8-15.2-10.3c-1.8,7.3-1.8,14.1,0,16.9c0.3,0.5,0.8,1.1,1.4,1.9C132.3,307.2,136.8,310,140.6,309.6z"/>
	<path class="st15" d="M183.1,322.8c8.6-8.2,9.8-19.6,9.8-19.8l0.1,0c-0.9-1-1.8-1.9-2.6-2.7c0,0-0.1-0.1-0.1-0.1
		c-0.4,4.1-2.4,11.6-10.6,19.8c-8.4,8.4-17.2,10.4-22,10.9c1.4,1.1,2.7,2.2,4,3.2C165.6,333.4,174.3,331.1,183.1,322.8z"/>
	<path class="st15" d="M177.8,318.2c10.3-10.3,10-19.5,9.9-20.7c-1.1-1.2-2.1-2.3-2.8-3.2h0c-3-3.9,3.3-15.8,4.3-17.4
		c0.3-0.5,1-1.5,1.9-2.7c1.6-2.3,5.5-7.8,5.8-9.1c0.3-1.9-0.6-4.3-2.2-5.9c-1.1-1-2.9-2.2-5.6-1.8c-1.1,0.4-5.2,4.8-8,7.7
		c-6.4,6.7-8.2,8.5-10.1,8.3c-0.3,0-0.7-0.1-1.1-0.3c1.1,1.8,1.7,3.9,1.3,6.1c-0.4,2.6-2,4.8-4.3,6.1c-1.5,0.8-3.2,1.2-4.9,1.2
		c-1.4,0-2.7-0.3-4-0.8c-0.2-0.1-0.6-0.3-1-0.5c1.7,2.5,2.6,5.1,1.3,7.5c-2.6,4.8-5.8,6.1-8.5,6.1c-0.4,0-0.8,0-1.2-0.1
		c0.2,0.4,0.4,0.7,0.4,1.1c0.6,2.5,0,5.2-1.8,7.8c-1.7,2.5-4.2,4.3-6.2,4.6c-0.4,0.1-0.8,0.1-1.2,0.1c-1.4,0-2.8-0.3-4.1-0.7
		c5.2,5.1,12.3,11.4,18.9,16.8C156.7,328.4,167.6,328.3,177.8,318.2z"/>
	<path class="st15" d="M240.6,253.2c2.5-0.6,5-1,7.7-1.4l-1.4-5.1l-7.4,2L240.6,253.2z"/>
	<path class="st15" d="M365.7,260.4c-3.4,2.5-6.9,6.2-6.4,9.9c0.3,1.8,1.4,3.3,3,4.2c2,1.1,4.4,1.2,6.5,0.3
		c5.7-2.5,19.6-13.6,21.3-15c-0.5-0.5-1-1-1.5-1.4C382.1,253.1,372.5,256.8,365.7,260.4z"/>
	<path class="st15" d="M357,264.9c-1.8,0.1-3.7-1.6-10.1-8.3c-2.8-2.9-6.9-7.3-8.1-7.7c-0.4-0.1-0.7-0.1-1.1-0.1c-2,0-3.5,1-4.4,1.9
		c-1.6,1.6-2.5,4-2.2,5.9c0.3,1.2,4.1,6.7,5.8,9.1c0.8,1.2,1.5,2.2,1.8,2.7c1,1.7,7.3,13.5,4.3,17.4c-0.7,0.9-1.7,2-2.8,3.2
		c-0.1,1.2-0.5,10.4,9.9,20.7c10.2,10.2,21.1,10.3,23.3,10.2c6.6-5.5,13.6-11.8,18.9-16.8c-1.3,0.4-2.7,0.7-4.1,0.7
		c-0.4,0-0.8,0-1.2-0.1c-2-0.3-4.5-2.1-6.2-4.6c-1.8-2.6-2.4-5.3-1.8-7.8c0.1-0.3,0.3-0.7,0.4-1.1c-0.4,0.1-0.8,0.1-1.2,0.1
		c-2.8,0-5.9-1.3-8.5-6.1c-1.3-2.4-0.4-5,1.3-7.5c-0.4,0.2-0.7,0.4-1,0.5c-1.2,0.5-2.6,0.8-4,0.8c-1.7,0-3.4-0.4-4.9-1.2
		c-2.4-1.3-3.9-3.5-4.3-6.1c-0.3-2.2,0.2-4.2,1.3-6.1C357.7,264.8,357.3,264.9,357,264.9z"/>
	<path class="st15" d="M391.8,261.7L391.8,261.7L391.8,261.7c-1.7,1.8-6.2,5.3-10.8,8.5c0,0,0,0.1,0,0.1c-0.3,0.4-0.9,0.9-1.8,1.7
		c-2.7,2.4-9,7.9-7.3,11c2.8,5.2,5.9,5.1,8.8,4.3c0.4-0.1,1.2-0.5,2.1-1c0.1-0.1,0.2-0.2,0.3-0.2c0.2-0.1,0.4-0.2,0.6-0.3
		c4-2.4,10.6-7.1,15.2-10.4C397.3,270.4,395,265.5,391.8,261.7C391.8,261.6,391.8,261.6,391.8,261.7z"/>
	<path class="st15" d="M387.2,301c3.8,0.5,8.3-2.3,11-4.3c0.6-0.7,1.1-1.4,1.4-1.9c1.7-2.8,1.8-9.6,0-16.9
		c-3.2,2.3-10.6,7.6-15.2,10.3c-1.2,1-2.7,2.7-3,3.6c-0.6,2.3,0.6,4.6,1.4,5.7C384.3,299.7,386.1,300.9,387.2,301z"/>
	<path class="st15" d="M284,270.5c5,3.7,9.1,8.7,11.6,14.4c8.8,1.6,15.4,9.3,15.4,18.6c0,10.4-8.5,18.9-18.9,18.9
		c-0.7,0-1.4-0.1-2.1-0.1c-3,3.5-6.7,6.5-10.9,8.7l0.1,0l1.5,5.3c20.7-4.8,37.5-17.7,37.5-40.2c0-17.6-12.3-31.8-31.5-38.3
		l-2.3,12.1C284.3,270,284.1,270.3,284,270.5z"/>
	<path class="st15" d="M336.1,322.9c5.2,7,15.1,10.2,19.9,9.5c1.1-0.2,3.8-2,7.5-4.7c-4.9-1.1-12.6-4-20.5-11.5
		c-7.2-6.8-9.5-15.4-10.3-19.3c-2.5,2.7-4.6,5.4-4.6,6.7C328,309,330.8,315.7,336.1,322.9z"/>
	<path class="st15" d="M228,316.9c1.7,0.9,3.7,1.4,5.8,1.5c0.2,0,0.3,0,0.5,0c7.8,0,14.1-6.3,14.1-14.1c0-7.8-6.3-14.1-14.1-14.1
		c-2.2,0-4.4,0.5-6.2,1.5c-1.8,0.9-3.4,2.2-4.7,3.7c-2,2.4-3.2,5.5-3.2,8.9C220.2,309.8,223.4,314.6,228,316.9z M224.3,302.4
		c0.7-0.2,1.4,0.1,1.7,0.8c0.1,0.2,1.9,5.1,7.1,5.1c0,0,0,0,0,0c7.1,0,8.2-4.1,8.2-4.3c0.2-0.7,0.9-1.2,1.6-1c0.7,0.2,1.2,0.8,1,1.5
		c-0.1,0.3-1.4,6.4-10.8,6.4c0,0,0,0,0,0c-5.7,0-8.7-4.5-9.6-6.9C223.3,303.3,223.6,302.6,224.3,302.4z"/>
	<path class="st15" d="M276.7,336.9l-1.2-4.4c-4.5,1.8-9.4,2.8-14.6,2.8c-4.8,0-9.4-0.9-13.6-2.4l-2.2,3.9c5.3,1,10.7,1.5,16.2,1.5
		C266.5,338.3,271.7,337.8,276.7,336.9z"/>
	<path class="st15" d="M307.1,303.4c0-6.4-4.1-11.9-9.8-14c-1.4-0.5-2.9-0.8-4.5-0.9c-0.2,0-0.4,0-0.7,0c-8.2,0-14.9,6.7-14.9,14.9
		c0,6.9,4.8,12.8,11.2,14.4c1.2,0.3,2.5,0.5,3.8,0.5c0.3,0,0.5,0,0.8,0C300.8,317.9,307.1,311.4,307.1,303.4z M292.3,311.2
		C292.3,311.2,292.3,311.2,292.3,311.2c-5.7,0-8.8-4.5-9.6-6.9c-0.2-0.7,0.1-1.4,0.8-1.7c0.7-0.2,1.4,0.1,1.7,0.8
		c0.1,0.2,1.9,5.1,7.1,5.1c0,0,0,0,0,0c7.1,0,8.2-4.1,8.2-4.3c0.2-0.7,0.9-1.2,1.6-1c0.7,0.2,1.2,0.8,1,1.5
		C303,305.1,301.7,311.2,292.3,311.2z"/>
	<path class="st15" d="M283.1,242.8v-16.3l0.4-0.4c2.8-2.6,6-6,6.3-7.2c0.3-1.6-0.6-4.6-1-5.5l-0.3-0.8l0.5-0.6
		c6-6.7,12.4-14.4,13.5-16.3c-0.4-0.5-1.8-1.7-3.2-2.5l-2.5-1.5l2.8-0.9c10.7-3.4,22.3-7.6,24.9-9.4c-1.1-1-4.7-2.9-8.4-4.3
		l-4.2-1.6l4.4-0.9c13.8-2.9,28.9-6.9,31.5-8.7c-1.2-1.5-7.5-4.8-14.5-7.5l-2.5-1l2.3-1.4c2.9-1.7,6.2-3.9,7.7-5.4
		c-3,0.3-11.1,1.9-33.3,8.1c-11.3,3.1-20.3,16.2-20.4,16.3l-2.3,3.3l-0.1-4c-0.1-3.3-0.5-7.1-1-8.9c-1.1,1.8-2.8,5.9-4,8.8
		c-1.3,3.2-2.7,6.5-3.9,8.6c-2.3,4.2-1.6,16.8-1.2,21.3l0.6,6.5l-3.1-5.7c-1.2-2.1-2.8-4-3.7-4.3c-0.1,2,2.1,8.8,3.5,13
		c1.1,3.4,2.2,6.6,2.7,8.9c1.3,5.8,4.5,17.2,5.1,19.6L283.1,242.8z"/>
	<path class="st15" d="M290.9,358.6l43.9-31.2c-0.7-0.7-1.3-1.4-1.9-2.2c-0.3-0.4-0.6-0.8-0.9-1.3l-43.4,30.1
		C289.6,355.6,290.4,357.2,290.9,358.6z"/>
	<path class="st15" d="M285.6,321.1c-7.2-2.7-12.3-9.6-12.3-17.7c0-10,7.9-18.3,17.8-18.8c-5.6-10.5-17-17.7-30.2-17.7
		c-2.1,0-4.2,0.2-6.2,0.6c0,0-0.1,0-0.1,0c-0.1,0-0.3,0.1-0.4,0.1c-11.1,2.1-20.3,9.5-24.6,19.3c1.5-0.4,3-0.6,4.6-0.6
		c10,0,18.1,8.1,18.1,18.1c0,9-6.6,16.4-15.2,17.8c6.1,5.8,14.5,9.3,23.8,9.3C270.6,331.4,279.4,327.4,285.6,321.1z M251.2,321.7
		c0.3-0.6,1.1-0.9,1.8-0.6c0.1,0,6.4,3.3,12.1,3.3c0,0,0,0,0,0c8.9,0,13-3.1,13-3.2c0.6-0.4,1.4-0.4,1.9,0.2
		c0.5,0.6,0.4,1.4-0.2,1.8c-0.2,0.2-4.8,3.8-14.7,3.8c0,0,0,0,0,0c-6.4,0-13-3.5-13.3-3.6C251.1,323.2,250.8,322.4,251.2,321.7z"/>
	<path class="st15" d="M284.8,337.9c-7,2-14.9,3-23.5,3c-9.5,0-18.2-1.3-25.8-3.7c-0.6,1.2-1.2,2.7-1.2,4c1.2,2.1,13,7.1,25.3,7.2
		c13.7,0.1,24.4-3.1,26.4-4.9C286.6,343,286,340.4,284.8,337.9z"/>
	<path class="st15" d="M284.6,247.2l-7.1-1.4l-1.2,6.5c2.4,0.4,4.8,1,7.1,1.6L284.6,247.2z"/>
	<path class="st15" d="M334.8,294.5l0.1,0c0,0.1,1.2,11.5,9.8,19.8c8.8,8.3,17.5,10.6,21.5,11.3c1.3-1,2.6-2,4-3.2
		c-4.8-0.4-13.6-2.5-22-10.9c-8.2-8.2-10.2-15.7-10.6-19.8c0,0-0.1,0.1-0.1,0.1C336.7,292.6,335.8,293.5,334.8,294.5z"/>
	<path class="st15" d="M317,395.2c0.2-1.4,0.5-2.6,0.8-3.9l-28.6-2.4c0.8,1.9,1.6,3.9,1.9,5.7l25.7,1.6
		C316.9,395.9,317,395.6,317,395.2z"/>
	<path class="st15" d="M290.2,368.6c-0.5,0.2-0.9,0.3-1.3,0.4c3.3,5.1,5.9,10.7,3.7,13.3c-1.2,1.4-2.7,2.1-4.2,2.5l30.5,2.6
		c1.6-4.8,3.8-8.6,6.6-11.3c2.3-2.2,7.8-2.3,16-2.2c2.7,0,5.2,0.1,6.7-0.1c1.4-0.7,4.5-6.8,5.4-10.6c0.1-0.5,0.3-1.5,0.6-2.7
		c1.3-6.5,2.1-9.6,3-10.8c1.8-2.3,5-3.7,8.2-3.6c3.1,0.1,5.7,1.6,7.5,4.2c1,1.5,0.9,4.7,0.6,12.1c-0.1,2.9-0.3,7-0.2,8.6
		c0.5,0.2,1.4,0.4,2.1,0.6c6.4,1.9,21.4,6.2,22.3,18.1c1.1,14.3-11.8,31.7-19.7,33.3c-1,0.2-2.8,0.3-5.2,0.3
		c-13.4,0-44.4-3-48.5-6.1c-4-3.1-7.5-10.4-7.7-17.7l0,0.6l-25.6-1.6c-0.8,2-2.3,2.9-3.9,3.3c3.1,5.3,6.2,12.2,3.2,15
		c-1.4,1.4-2.7,2.2-3.7,2.7c1.1,2.3,2.2,5.1,3.1,7.7l0-0.1c0.2,0,15.5,4.4,41.8,6.8c26.7,2.4,88.6,0.3,109.7-22
		c11.3-11.9,16-28.6,12.3-43.5c-3.3-13.4-13-23.4-27.3-28.3c-18.7-6.4-66.6,3.8-73.2,5.2C329.4,355.2,307.2,363.1,290.2,368.6z"/>
	<path class="st15" d="M280.9,416.8l2.8-0.3h0c0,0,1.6-0.3,3.9-2.5c0.6-1.3-2.1-7.7-5.9-13.3l-3.4-5.2l5.8,2.3
		c0.3,0.1,2.7,1,3.3-0.6c0.5-1.4-1.9-7.6-5.2-13.2l-2.5-4.3l4.8,1.4c0,0,3.2,0.9,5-1.1c0.4-1.7-3.3-8.3-8-14.4l-3.6-4.6l5.6,1.5
		c0,0,3.1,0.7,3.9-1c0.3-1.3-2.8-6.6-6.6-11.4c-5.4,1.5-12.8,2.5-20.6,2.5c-0.2,0-0.4,0-0.6,0c-5,0-10.7-1-15.8-2.4
		c-2.7,3.4-4.9,7.1-4.7,8.2c0.2,0.9,1.1,0.7,1.5,0.7l5.2-1.2l-3.2,4.3c-3.4,4.6-7.3,10.2-8.5,12.5c1.3,0.4,3.8,0.7,6.2,0.8l6.2,0.2
		l-5.2,3.4c-5,3.3-9.6,7-11,8.8c1.7,0.2,5.8-0.2,9.4-1.1l6.1-1.5l-4.2,4.7c-4.6,5.1-9.5,11.7-10.1,14c1.5,0.5,6.2,0.1,10.6-0.9
		l5.9-1.4l-3.9,4.6c-5.4,6.3-9.8,12.9-10,14.9c0.9,0.6,4.4,0.3,7.8-0.9l5.6-1.9l-3.3,4.9c-5,7.4-8.6,15.6-7.4,17
		c1.5,1.9,7.3,0.7,10.8-0.6l5.6-2.2l-3.1,5.1c-2.5,4-4.4,9.4-3,10.7c2.2,2.2,6-0.2,6.1-0.2l3.6-2.3l-0.6,4.3
		c-0.9,6.2-0.5,12.7,0.8,13.4c0.1,0.1,0.2,0.1,0.5,0c1.5-0.5,3.5-3.5,4.4-5.4l3.8-7.8l0,8.7c0,1.9,0.7,7.5,3.5,7.8
		c1.8-0.3,5.2-9.8,7-19.5l1.4-7.8l2.4,7.5c0,0.1,0.2,0.5,0.6,0.6c0.3,0.1,0.9,0,1.6-0.4c1.1-1.2-0.2-9.3-2.8-17l-3-9l6.4,7.1
		c0,0,2.7,2.9,4.3,1.6c0.7-1.3-1.5-8.6-4.8-15.2L280.9,416.8z"/>
	<path class="st15" d="M298,483.6c0.8,1.2,1.5,2.5,2.2,3.8l6.4-1.9c-1-1.1-1.8-2.4-2.4-3.8L298,483.6z"/>
	<path class="st15" d="M369.6,352.5c-1.3-1.9-3.1-2.3-4.3-2.3c-1.9-0.1-4,0.8-5,2.1c-0.6,1-1.7,6.7-2.2,9.1
		c-0.3,1.3-0.5,2.3-0.6,2.9c0,0.1-3.8,13-8.7,13.6c-1,0.1-2.4,0.1-3.9,0.2c-1.1,1-6.8,6.4-7,18.7c-0.3,12.2,5.8,19.2,7.5,20.9
		c7.2,0.8,15.3,1.5,21.6,1.8c-1.2-0.7-2.2-1.6-3-2.7c-1.1-1.5-1.4-4.2-0.9-6.9c0.6-2.7,2-4.9,4-6c0.2-0.1,0.5-0.2,0.8-0.3
		c-2.7-2.4-3.4-5.6-2-9.9c0.7-2.2,2.7-3.3,5.1-3.7c-0.1,0-0.2-0.1-0.3-0.1c-2.5-1.1-4.5-3.4-5.2-6c-0.6-2.4-0.2-4.7,1.3-6.6
		c1.1-1.4,2.6-2.3,4.3-2.8c-0.2-0.1-0.3-0.2-0.5-0.3c-1.3-1.2-1.3-3.4-0.9-11.7C369.8,358.8,370,353.7,369.6,352.5z"/>
	<path class="st15" d="M286,452.5l19.6,19c0.9-1.3,2.1-2.4,3.5-3.3l-23.2-23C286.4,447.9,286.5,450.5,286,452.5z"/>
	<circle class="st15" cx="314.9" cy="477.9" r="7.3"/>
	<path class="st15" d="M387.9,409.2c-3.6-0.7-11.2-2.1-15.6-3.4c-1.5-0.1-3.4-0.1-4,0.3c-1.8,1-2.5,3.1-2.7,4.3
		c-0.5,2.1-0.1,4,0.4,4.8c1.9,2.6,6.1,3.8,9,4.3c1,0,1.8-0.1,2.4-0.2C380.2,418.7,384.4,414.7,387.9,409.2z"/>
	<path class="st15" d="M320.9,395.9c-1.3,7.5,2.6,15.7,6,18.3c0.8,0.6,3.4,1.2,7.1,1.8c-2.2-3.9-4.9-10.5-4.9-19.9
		c0-8.5,3.8-15.1,5.9-18.2c-3.1,0.1-5.9,0.4-6.6,1.1C324.8,382.3,322.3,388.1,320.9,395.9z"/>
	<path class="st15" d="M413.3,168c-40.3,12-106,86.1-112.5,93.5c12.5,8.1,20,20.2,20,34.5c0,19.2-12.2,33.9-32.1,40.8
		c1.3,2.8,2.7,7.3,0.1,9.8c-0.8,0.7-2.1,1.4-3.8,2.1c0.5,0.7,1.1,1.4,1.6,2.2l43.3-30.1c-3.9-6.2-5.8-12-5.8-17.1
		c0-3.5,4.2-8,10.6-14.6c2.1-2.2,4.1-4.2,5.2-5.6c0.6-1.6-2-9-4.5-13c-0.3-0.5-1-1.4-1.7-2.5c-4.2-6-6.2-9.1-6.5-10.8
		c-0.5-3.2,0.9-6.8,3.4-9.3c2.4-2.4,5.6-3.4,9-2.8c1.9,0.3,4.4,2.8,10.2,8.9c2.3,2.4,5.7,6,7.1,6.9c0.6-0.3,1.5-0.8,2.3-1.3
		c7-4.1,21.6-12.6,31.9-4.2c12.5,10.2,16.7,34.1,11.9,41.7c-4.1,6.5-39.7,38.3-46.4,39.3c-0.7,0.1-1.4,0.2-2.1,0.2
		c-5,0-11.5-2.3-16.7-6.3l-47,33.4c-0.2,0.4-0.5,0.7-0.7,0.9c16.8-5.5,38.3-13.1,61.3-22.7l0-0.1c0.1,0,0.3-0.1,0.5-0.1
		C393.6,324.1,440,300.2,471,271c28.5-26.8,38-68.2,20.3-88.5C474.2,162.9,447.3,157.9,413.3,168z"/>
	<path class="st15" d="M156.3,426.1c0.1-0.1,0.3-0.3,0.5-0.3c0.1,0,0.2-0.1,0.3-0.1c0.8-0.5,1.4-0.9,1.7-1.1
		c1.9-1.9,3.2-4.2,0.5-8.5c-1.6-2.6-8.5-0.2-11.5,0.9c-1,0.3-1.6,0.6-2.1,0.7c0,0-0.1,0-0.1,0c-4.3,2-8.8,4-11,4.6
		c1.5,4,4.2,7.8,7.3,11.1C146.4,431.1,152.8,428.1,156.3,426.1z"/>
	<path class="st15" d="M287.8,478.5c-0.5,0.1-1.7,0.4-3.3,1c2.3,2.3,5.6,6.2,8.3,11.6c3.2,6.5,6,14,7,16.6c0.9-0.2,1.5-0.4,1.8-0.6
		c1.2-0.8-1.6-9.2-2.9-13.1C295.6,484.8,289.5,479,287.8,478.5z"/>
	<path class="st15" d="M382,392.6c0,0-0.1,0-0.1,0c-0.5,0-1.2,0-2.2-0.1c-3.1-0.3-10.4-0.9-11.4,2c-1.6,4.9,0.3,6.8,2.6,8.1
		c0.3,0.2,1,0.4,1.9,0.7c0.1,0,0.2,0,0.3,0c0.2,0,0.4,0.1,0.6,0.2c3.9,1.1,10.8,2.5,15.7,3.4c2.2-3.9,3.9-8.3,4.4-12.5
		C391.5,394.3,386.7,393.5,382,392.6z"/>
	<path class="st15" d="M378.4,376.7c-3.5-0.5-7.7-0.5-9.6,2c-0.9,1.2-1.2,2.8-0.8,4.4c0.5,1.9,1.9,3.5,3.7,4.3
		c5,2.1,19.6,4.1,22.3,4.4c0-0.5,0-1.1,0-1.6C393.3,382.7,384.8,378.9,378.4,376.7z"/>
	<path class="st15" d="M338.2,377.9c-0.5,0.6-6.6,8.1-6.6,18.2c0,10.5,3.7,17.4,5.8,20.4c1.3,0.2,2.6,0.4,4,0.5
		c-2.7-3.5-6.5-10.3-6.2-20.5c0.2-10,3.6-15.8,6-18.7c-0.8,0-1.8,0-2.8,0C338.4,377.9,338.3,377.9,338.2,377.9z"/>
	<path class="st15" d="M279.3,456.2c-1.8,8.5-5.1,19.3-10.2,19.3c-0.2,0-0.3,0-0.5,0c-3.4-0.4-5.3-3.2-6.2-6.3
		c-1.1,1.2-2.4,2.4-3.8,2.8c-0.3,0.1-0.7,0.2-1,0.2l-1.4,14.3c0.3,0.2,0.5,0.5,0.8,0.7c13-6.1,28.6-13.2,31.4-12.7
		c1.9,0.3,4.6,2.4,7.2,5.6l8.1-2.5c0-0.8,0.1-1.7,0.3-2.5l-20.3-19.6C281.7,456.6,280.3,456.5,279.3,456.2z"/>
	<path class="st15" d="M254.4,505.6c-0.1,0-0.1,0.1-0.2,0.1l-1.7,11c1.9,0.4,3.5,0.9,5,1.6L254.4,505.6z"/>
	<path class="st15" d="M252.4,484.4l1.4-13.7c-2.3-2.7-2.3-8.6-2-13c-0.5,0.1-1,0.2-1.5,0.3l-2.1,25.9c0.2,0,0.4,0,0.6,0
		C250,483.8,251.2,484,252.4,484.4z"/>
	<circle class="st15" cx="248.7" cy="495.5" r="7.7"/>
	<path class="st15" d="M248.7,516.1l1.4-9.1c-0.4,0.1-0.9,0.1-1.3,0.1c-0.9,0-1.8-0.1-2.7-0.3l-1.3,9.1c0.4,0,0.8,0,1.2,0
		C246.9,516,247.8,516.1,248.7,516.1z"/>
	<path class="st15" d="M189.4,410.8c-3.3-12-10-15.8-11.4-16.5c-1.5,0.4-2.8,0.6-3.8,0.8c-4.9,0.7-11.7-10.9-11.8-11
		c-0.3-0.5-0.7-1.4-1.3-2.6c-1.1-2.3-3.6-7.5-4.4-8.4c-1.3-1-3.4-1.3-5.3-0.8c-1.2,0.3-2.8,1.2-3.6,3.3c-0.1,1.3,1.4,6.2,2.4,9.5
		c2.4,8,2.9,10.1,2,11.6c-0.1,0.2-0.2,0.3-0.4,0.4c1.7,0.1,3.4,0.5,4.8,1.6c1.9,1.5,2.9,3.7,2.8,6.1c0,2.7-1.4,5.4-3.6,7.1
		c-0.1,0.1-0.2,0.1-0.3,0.2c2.5-0.1,4.7,0.4,5.9,2.4c2.4,3.8,2.5,7.1,0.5,10.1c0.3,0,0.6,0.1,0.8,0.1c2.2,0.6,4.1,2.4,5.3,4.9
		c1.2,2.5,1.5,5.2,0.8,6.9c-0.5,1.2-1.3,2.3-2.3,3.3c6.1-1.8,13.7-4.4,20.5-7C188.4,430.9,192.6,422.6,189.4,410.8z"/>
	<path class="st15" d="M158.9,442c2.6-1.2,6.4-3.4,7.7-6.4c0.3-0.8,0.2-2.8-0.8-4.7c-0.5-1.1-1.7-2.9-3.7-3.5
		c-0.7-0.2-2.5,0.2-4,0.7c-3.9,2.3-11,5.6-14.3,7.1c4.7,4.4,9.8,7.3,12.7,7.1C157.1,442.3,157.9,442.2,158.9,442z"/>
	<path class="st15" d="M194.6,430c1.3-3.4,3.2-11,0.6-21.2c-2.5-9.9-10.2-15.6-10.8-16.1c-1.1,0.3-2.1,0.5-2.9,0.7
		c3,2.2,7.8,7,10.4,16.7c2.7,9.8,0.7,17.3-1.1,21.4C192.2,431,193.4,430.5,194.6,430z"/>
	<path class="st15" d="M204.3,425.2c2.6-3.3,4.4-12.3,1.3-19.2c-3.2-7.2-7.1-12.2-11.2-14.5c-0.9-0.5-3.7-0.1-6.7,0.6
		c2.8,2.5,8.1,8,10.1,16.2c2.3,9.1,1.3,16.2,0,20.5C201.3,427.1,203.7,425.9,204.3,425.2z"/>
	<path class="st15" d="M252.5,533l0.3-3.2c-2.4-0.4-7.9-1.1-11.1-1.1c-4.9,0-9.5,1.5-11.2,2.2c0.1,1,0.2,2,0.4,3.1
		c2.2-0.9,5.7-2,10.9-2C246.4,532,250.4,532.6,252.5,533z"/>
	<path class="st15" d="M238.5,575.5c-9.1,0-14.6-1.6-17.8-3.1c0.2,1.6,0.6,2.9,1.6,3.9c2.6,2.5,8.8,3.3,19,2.5
		c14.3-1.1,18.4-6.2,19.8-9.8C257.1,571.8,249.6,575.5,238.5,575.5z"/>
	<path class="st15" d="M238.5,572.9c13.5,0,21.4-6,23.5-7.8c0-1.5-0.2-4.8-0.4-7.4c-0.2-3-0.4-6.1-0.4-8.1c0-1.3,0.2-3.3,0.6-5.8
		c0.6-5.2,2-16-0.5-18.2c-0.7-0.7-1.5-1.3-2.3-1.9l0,0l0,0c-3-2.1-6.6-3.4-13.2-3.7c-8.3-0.4-15.4,2-15.8,3.4
		c-0.1,1.2,0,2.9,0.2,4.9c2.3-0.8,6.6-2.1,11.5-2.1c4.3,0,12.4,1.3,12.7,1.3l1.2,0.2l-0.7,8.7l-1.5-0.4c-0.1,0-5.2-1.3-11.7-1.3
		c-5.4,0-8.8,1.3-10.5,2.1c0.7,5.1,1.5,9.7,1.7,10.9c2-0.5,4.1-0.8,6.2-1c0.6,0,1-0.1,1.7-0.1c0.6,0,1.2,0.1,1.8,0.2
		c1.1,0.2,2.2,0.5,3.3,0.8c1.1,0.3,2.1,0.7,3.1,1.1c0.9,0.7,1.7,1.6,2.4,2.5c-1.2,0.1-2.4,0.1-3.4,0c-0.9-0.4-1.9-0.8-2.9-1.1
		c-1-0.3-2-0.6-2.9-0.7c-0.5-0.1-1-0.1-1.4-0.1c-0.4,0-1,0.1-1.5,0.1c-2.1,0.2-4.1,0.5-6.1,1c-0.9,0.2-1.7,0.5-2.5,0.8
		c-3.7,3.1-10,9.4-10,14.8c0,0.8,0,1.6-0.1,2.4c0,0.4,0,0.8,0,1.2C223,570.8,228.4,572.9,238.5,572.9z"/>
	<path class="st15" d="M260.2,507.5c-0.7-2.4-1.2-4.3-1.7-5.8c-0.2,0.4-0.5,0.7-0.7,1l4.6,18.7c0.5,0.4,1,0.8,1.5,1.3
		c2.3,2.1,2.8,6,2.7,11.1c0.8,0.8,2.1,2,3.1,2c0.6,0,1.3,0,2.1,0c-1.7-1.8-3.6-4.6-5.4-9.1C264.3,521.4,261.9,513.3,260.2,507.5z"/>
	<path class="st15" d="M276.1,483c-5,2.2-11,4.9-16.8,7.6c0.7,1.5,1.1,3.1,1.1,4.9c0,0.7-0.1,1.3-0.2,1.9c1.5,5.6,5.6,20.4,8.7,28.3
		c2.3,5.7,4.9,8.5,6.4,9.6c2.1-0.4,4.5-1.3,6.5-3c2.7-2.3,2.7-12.9,1.8-19.8l-0.2-1.9l1.9-0.3c2-0.3,4-0.6,6-0.9
		c-0.6-2-2.5-7.5-5.6-13.7C282.4,488.9,277.7,484.4,276.1,483z"/>
	<path class="st15" d="M281.8,480.6c-1,0.4-2,0.8-3.1,1.3c2.2,2.1,6.3,6.4,9.3,12.6c3.4,6.9,5.3,12.8,5.9,14.4
		c1.2-0.2,2.3-0.4,3.3-0.6c-1-2.8-3.7-9.8-6.7-16C287.6,486.6,283.9,482.6,281.8,480.6z"/>
	<path class="st16" d="M233,310.9C233.1,310.9,233.1,310.9,233,310.9c9.4,0,10.8-6.2,10.8-6.4c0.1-0.7-0.3-1.4-1-1.5
		c-0.7-0.2-1.4,0.3-1.6,1c0,0.2-1.1,4.3-8.2,4.3c0,0,0,0,0,0c-5.2,0-7-4.9-7.1-5.1c-0.2-0.7-1-1.1-1.7-0.8c-0.7,0.2-1.1,1-0.8,1.7
		C224.3,306.4,227.4,310.9,233,310.9z"/>
	<path class="st16" d="M302.1,303.3c-0.7-0.2-1.4,0.3-1.6,1c0,0.2-1.1,4.3-8.2,4.3c0,0,0,0,0,0c-5.2,0-7-4.9-7.1-5.1
		c-0.2-0.7-1-1.1-1.7-0.8c-0.7,0.2-1.1,1-0.8,1.7c0.8,2.4,3.9,6.9,9.6,6.9c0,0,0,0,0,0c9.4,0,10.7-6.2,10.8-6.4
		C303.2,304.1,302.8,303.4,302.1,303.3z"/>
	<path class="st16" d="M265,327.1c9.9,0,14.5-3.6,14.7-3.8c0.6-0.5,0.7-1.3,0.2-1.8c-0.5-0.6-1.3-0.7-1.9-0.2c0,0-4.1,3.2-13,3.2
		c0,0,0,0,0,0c-5.7,0-12-3.3-12.1-3.3c-0.6-0.3-1.4-0.1-1.8,0.6c-0.3,0.6-0.1,1.4,0.6,1.8C252,323.6,258.7,327.1,265,327.1
		C265,327.1,265,327.1,265,327.1z"/>
	<path class="st16" d="M494.3,179.9c-12.7-14.5-37.2-29.1-82.1-15.7c-43.1,12.8-111.2,91.1-114.8,95.3c-3.1-1.7-6.6-3.2-10.2-4.4
		l2.1-10.9l-3.5-0.7v-15.6c1.9-1.7,6.2-5.9,6.7-8.2c0.4-2-0.4-4.9-0.8-6.2c14-15.7,13.8-17,13.7-17.6c-0.1-1-1.2-2.1-2.3-3
		c25.1-8.1,24.7-10.1,24.4-11.3c-0.4-1.7-3.4-3.5-6.5-4.9c30-6.5,29.7-9.3,29.6-10.5c-0.3-2.9-8-6.6-13.9-9c8.7-5.5,7.9-7.2,7.5-7.9
		c-0.7-1.4-1.4-2.8-37.3,7.2c-8.8,2.5-16.1,10.2-19.6,14.4c-0.6-8.3-2.3-8.5-3.1-8.5c-1.8-0.2-3,2.1-6.8,11.1
		c-1.3,3.1-2.7,6.3-3.8,8.3c-2.1,3.9-2.1,12.7-1.8,18.2c-1.3-1.3-2.8-2.2-4.4-1.7c-2.6,0.9-1.5,5.2,2.1,16.3
		c1.1,3.4,2.1,6.5,2.6,8.6c1.2,5.1,3.7,14.5,4.8,18.4l-2.5-0.5l-2,10.6c-3.6-0.4-7.2-0.7-11-0.7c-3.1,0-6.1,0.1-9,0.4l-2.6-9.5
		l-3.5,0.9c0.4-2.9,1-8.7,0.7-10.6c-0.4-2.3-3.9-5.6-5.4-6.9c0.3-3,1.3-13.3-0.2-16.8c-0.4-1-1.2-1.7-2.2-1.9
		c-1.9-0.5-4.3,0.6-6,1.6c0.2-6.1,0.4-21.2-2.3-28c-1.5-3.7-8.9-22.1-13.2-20.5c-1.7,0.6-3,4.6-4,11.9c-4.2-6.2-14-20-22.4-23.5
		c-9.2-3.9-14.9-1.2-16.6-0.2c-4.8-1-17.7-3.3-20,0.8c-0.2,0.4-0.5,1.1-0.2,2c1.2,3.6,12.6,9.3,19.6,12.5c-6.5,0.6-12.4,2-12.4,4.9
		c0,1.2,0,3,15.8,8.1c3.4,1.1,6.8,2.1,9.5,2.9c-4.1,1-8,2.7-7.8,5.3c0.3,2.7,4.5,3.9,11.5,5.5c2.6,0.6,5.3,1.2,6.3,1.8
		c2,1.1,7.1,4,10.7,6.1c-5.8,0.7-5.9,2.2-6,2.9c-0.1,0.8-0.2,2.3,18.2,15.9c-1.1,1.8-2.7,5.3-0.8,7.2c0.9,0.9,2.9,2,5.1,3.3
		c2.4,1.4,5.2,3,6.5,4.3c3.3,3.3,7.2,11.5,8.1,13.4l-4.1,1.1l2,8.3c-5.6,1.6-10.6,3.8-15,6.5c-4.1-4.4-68.5-72.1-125.4-83
		c-38.2-7.4-58.6,8.3-67.3,18.3c-12.4,14.1-16.9,33.8-11.4,50.1c11.3,33.9,46,66.7,95.4,90.1c16.3,7.7,41.2,15.4,64.1,21.7
		c-23-1.5-57.6-2.1-76,5.2c-23.4,9.2-37.4,32.1-34,55.6c2.9,19.9,19.6,42.4,58,45.8c5.1,0.5,10.1,0.7,14.9,0.7
		c46.8,0,80.4-19.8,93.3-28.9c-0.7,2.6-0.7,4.9,0.5,6.4c2.3,3,7.1,2.8,10.8,2c-1.6,3.7-3,8.7-0.2,11.4c0.6,0.6,1.3,1.1,2.1,1.4
		l-2.2,27.4c-4.1,1.8-7,5.9-7,10.7c0,4,2.1,7.6,5.2,9.7l-1.5,10.9c-7,0.5-14.4,2.7-14.7,7.1c-0.3,5.8,2,20.1,2.8,24.4
		c-3.1,2.5-12.1,10.4-12.1,18.4c0,0.8,0,1.5-0.1,2.3c-0.1,4-0.3,8.1,2.9,11.1c2.7,2.6,7.5,3.9,15,3.9c2.1,0,4.5-0.1,7.1-0.3
		c14.3-1.1,22.3-6.3,24-15.5c0-0.2,0.1-0.3,0.1-0.4c0.3-1.1,0.2-3.6-0.2-9.4c-0.2-2.9-0.4-6-0.4-7.9c0-1.1,0.2-3,0.5-5.3
		c0.2-2,0.5-3.9,0.6-5.7c1,0.6,2.2,1.1,3.5,1.1c2.8,0,9.3,0,14.6-4.4c4.6-3.8,3.9-16.1,3.4-21.4c5.2-0.7,14.1-2.2,16.1-3.6
		c3.4-2.4,1.9-7.7-1.5-17.6c-0.2-0.5-0.4-1-0.6-1.6l9.1-2.7c1.2,0.5,2.5,0.7,3.9,0.7c6.2,0,11.2-5,11.2-11.2c0-6.2-5-11.2-11.2-11.2
		c-0.5,0-1,0-1.5,0.1l-28.1-27.9c1.4,0.2,2.9-0.1,4.2-1.3c1.4-1.2,1.6-3.4,1.2-6.1c5,1.3,19,4.4,40.4,6.4c5.3,0.5,11.9,0.8,19.4,0.8
		c31,0,75.8-5.2,93.5-24c12.2-12.9,17.3-30.9,13.2-47.1c-3.6-14.7-14.3-25.8-29.9-31.1c-13.4-4.6-39.6-1.4-57.5,1.7
		c37.4-16.8,76.5-38.4,103.8-64.2c13.9-13.1,24.3-30.6,28.5-48.1C506.7,207.3,503.9,191,494.3,179.9z M286.6,257.6
		c19.2,6.6,31.5,20.7,31.5,38.3c0,22.5-16.9,35.4-37.5,40.2l-1.5-5.3l-0.1,0c4.2-2.2,7.9-5.2,10.9-8.7c0.7,0.1,1.4,0.1,2.1,0.1
		c10.4,0,18.9-8.5,18.9-18.9c0-9.2-6.7-16.9-15.4-18.6c-2.6-5.7-6.6-10.6-11.6-14.4c0.2-0.2,0.3-0.5,0.3-0.8L286.6,257.6z
		 M381.4,291.9c0.2-0.9,1.8-2.5,3-3.6c4.5-2.6,12-8,15.2-10.3c1.8,7.3,1.8,14.1,0,16.9c-0.3,0.5-0.8,1.2-1.4,1.9
		c-2.6,2-7.1,4.7-11,4.3c-1.1-0.1-2.9-1.4-4.4-3.4C382.1,296.5,380.9,294.2,381.4,291.9z M383.6,285.7c-0.2,0-0.4,0.1-0.6,0.3
		c-0.1,0.1-0.2,0.1-0.3,0.2c-0.9,0.5-1.7,0.9-2.1,1c-2.9,0.8-6,0.9-8.8-4.3c-1.7-3.1,4.6-8.7,7.3-11c0.9-0.7,1.5-1.3,1.8-1.7
		c0,0,0-0.1,0-0.1c4.6-3.2,9.2-6.7,10.8-8.5l0,0l0,0c0,0,0,0,0,0c3.2,3.8,5.5,8.7,7,13.7C394.3,278.7,387.6,283.3,383.6,285.7z
		 M368.9,274.8c-2,0.9-4.5,0.8-6.5-0.3c-1.7-0.9-2.7-2.4-3-4.2c-0.6-3.7,3-7.4,6.4-9.9c6.8-3.6,16.4-7.3,22.9-2
		c0.5,0.4,1,0.9,1.5,1.4C388.5,261.2,374.6,272.3,368.9,274.8z M356.8,270.7c0.4,2.6,2,4.8,4.3,6.1c1.5,0.8,3.2,1.2,4.9,1.2
		c1.4,0,2.7-0.3,4-0.8c0.2-0.1,0.6-0.3,1-0.5c-1.7,2.5-2.6,5.1-1.3,7.5c2.6,4.8,5.8,6.1,8.5,6.1c0.4,0,0.8,0,1.2-0.1
		c-0.2,0.4-0.4,0.7-0.4,1.1c-0.6,2.5,0,5.2,1.8,7.8c1.7,2.5,4.2,4.3,6.2,4.6c0.4,0.1,0.8,0.1,1.2,0.1c1.4,0,2.8-0.3,4.1-0.7
		c-5.2,5.1-12.3,11.4-18.9,16.8c-2.2,0.1-13.1,0-23.3-10.2c-10.3-10.3-10-19.5-9.9-20.7c1.1-1.2,2.1-2.3,2.8-3.2
		c3-3.9-3.3-15.8-4.3-17.4c-0.3-0.5-1-1.5-1.8-2.7c-1.6-2.3-5.5-7.8-5.8-9.1c-0.3-1.9,0.6-4.3,2.2-5.9c0.9-0.9,2.4-1.9,4.4-1.9
		c0.3,0,0.7,0,1.1,0.1c1.2,0.5,5.4,4.8,8.1,7.7c6.4,6.7,8.3,8.4,10.1,8.3c0.3,0,0.7-0.1,1.1-0.3C357,266.5,356.4,268.5,356.8,270.7z
		 M337.6,291.7c0.4,4.1,2.4,11.6,10.6,19.8c8.4,8.4,17.2,10.4,22,10.9c-1.4,1.1-2.7,2.2-4,3.2c-4-0.6-12.7-2.9-21.5-11.3
		c-8.6-8.2-9.8-19.6-9.8-19.8l-0.1,0c0.9-1,1.8-1.9,2.6-2.7C337.5,291.8,337.6,291.7,337.6,291.7z M332.7,296.9
		c0.8,3.9,3.2,12.5,10.3,19.3c7.9,7.5,15.6,10.4,20.5,11.5c-3.6,2.7-6.4,4.5-7.5,4.7c-4.8,0.7-14.7-2.5-19.9-9.5
		c-5.3-7.2-8.1-13.8-8.1-19.3C328,302.3,330.2,299.6,332.7,296.9z M332.9,325.2c0.6,0.8,1.2,1.5,1.9,2.2l-43.9,31.2
		c-0.5-1.4-1.3-3-2.2-4.5l43.4-30.1C332.4,324.4,332.6,324.8,332.9,325.2z M259.7,348.5c-12.3-0.1-24.1-5.1-25.3-7.2
		c0-1.3,0.6-2.9,1.2-4c7.6,2.4,16.3,3.7,25.8,3.7c8.6,0,16.5-1.1,23.5-3c1.2,2.5,1.8,5.1,1.2,5.7
		C284.1,345.3,273.3,348.5,259.7,348.5z M228,291.6c1.9-0.9,4-1.5,6.2-1.5c7.8,0,14.1,6.3,14.1,14.1c0,7.8-6.3,14.1-14.1,14.1
		c-0.2,0-0.3,0-0.5,0c-2.1-0.1-4-0.6-5.8-1.5c-4.6-2.3-7.8-7.1-7.8-12.6c0-3.4,1.2-6.5,3.2-8.9C224.6,293.8,226.2,292.5,228,291.6z
		 M252.3,304.3c0-10-8.1-18.1-18.1-18.1c-1.6,0-3.1,0.2-4.6,0.6c4.3-9.8,13.4-17.1,24.6-19.3c0.1,0,0.3,0,0.4-0.1c0,0,0.1,0,0.1,0
		c2-0.4,4.1-0.6,6.2-0.6c13.2,0,24.6,7.2,30.2,17.7c-9.9,0.6-17.8,8.8-17.8,18.8c0,8.1,5.1,15,12.3,17.7c-6.2,6.3-15,10.3-24.7,10.3
		c-9.3,0-17.6-3.6-23.8-9.3C245.7,320.7,252.3,313.2,252.3,304.3z M292.2,318.4c-1.3,0-2.5-0.2-3.8-0.5c-6.4-1.7-11.2-7.5-11.2-14.4
		c0-8.2,6.7-14.9,14.9-14.9c0.2,0,0.4,0,0.7,0c1.6,0.1,3.1,0.4,4.5,0.9c5.7,2.1,9.8,7.6,9.8,14c0,8-6.3,14.5-14.2,14.9
		C292.7,318.3,292.4,318.4,292.2,318.4z M247.3,332.9c4.2,1.6,8.8,2.4,13.6,2.4c5.2,0,10.1-1,14.6-2.8l1.2,4.4
		c-5,0.9-10.2,1.3-15.4,1.3c-5.4,0-10.9-0.5-16.2-1.5L247.3,332.9z M274.6,222.6c-0.5-2.2-1.6-5.5-2.7-8.9c-1.4-4.2-3.6-11-3.5-13
		c0.9,0.3,2.5,2.2,3.7,4.3l3.1,5.7l-0.6-6.5c-0.4-4.5-1.1-17.2,1.2-21.3c1.2-2.1,2.5-5.4,3.9-8.6c1.2-2.9,3-7,4-8.8
		c0.5,1.8,0.9,5.6,1,8.9l0.1,4l2.3-3.3c0.1-0.1,9.1-13.2,20.4-16.3c22.2-6.2,30.3-7.8,33.3-8.1c-1.6,1.4-4.8,3.6-7.7,5.4l-2.3,1.4
		l2.5,1c7,2.7,13.3,6.1,14.5,7.5c-2.6,1.9-17.6,5.8-31.5,8.7l-4.4,0.9l4.2,1.6c3.7,1.4,7.3,3.3,8.4,4.3c-2.6,1.8-14.2,6-24.9,9.4
		l-2.8,0.9l2.5,1.5c1.4,0.9,2.8,2,3.2,2.5c-1.1,1.9-7.5,9.5-13.5,16.3l-0.5,0.6l0.3,0.8c0.4,0.9,1.3,4,1,5.5
		c-0.2,1.2-3.5,4.6-6.3,7.2l-0.4,0.4v16.3l-3.4-0.7C279,239.7,275.9,228.4,274.6,222.6z M277.5,245.8l7.1,1.4l-1.3,6.7
		c-2.3-0.6-4.6-1.2-7.1-1.6L277.5,245.8z M273.9,264.6l1.9-9.8c2.4,0.4,4.8,1,7.1,1.6l-2.3,11.8c-2.1-1.3-4.4-2.3-6.8-3.2
		C273.8,265,273.9,264.8,273.9,264.6z M261.3,253.6c3.6,0,7.2,0.2,10.5,0.6l-1.8,9.6c0,0,0,0.1,0,0.1c-2.9-0.7-6-1.1-9.1-1.1
		c-1.8,0-3.6,0.1-5.3,0.4L253,254C255.7,253.8,258.5,253.6,261.3,253.6z M251.7,264c-2.7,0.6-5.2,1.6-7.7,2.8l-2.7-11
		c2.5-0.6,5.1-1,7.8-1.4L251.7,264z M247,246.7l1.4,5.1c-2.7,0.3-5.2,0.8-7.7,1.4l-1.1-4.5L247,246.7z M232.7,229.5
		c-1.6-1.6-4.3-3.2-7-4.7c-1.9-1.1-3.8-2.2-4.5-2.9c-0.5-0.5,0.4-2.9,1.8-4.9l0.8-1.1l-1.1-0.8c-7.5-5.5-15.6-11.9-17.7-14.2
		c1.3-0.4,4.4-0.8,7.3-0.9l4.6-0.2l-4-2.3c-0.1-0.1-11.2-6.5-14.4-8.3c-1.4-0.8-4-1.4-7-2.1c-2.9-0.7-9-2.1-9.5-3.1
		c0.4-1.1,5.6-2.8,11.1-3.6l6.4-0.9l-6.2-1.7c-12.4-3.3-26.5-8-28.6-10c1.3-1.1,8.1-2.3,15.1-2.6l5.8-0.2l-5.4-2.3
		c-10.7-4.6-22.4-10.8-23.1-13c1.3-1.6,10.2-0.9,17.6,0.7l0.6,0.1l0.5-0.4c0.2-0.2,5.1-3.8,14.5,0.2c9.9,4.1,23,25.3,23.1,25.5
		l2,3.3l0.4-3.8c0.6-5.3,1.8-11.5,2.7-13.2c1.8,1.5,6.3,9.6,9.9,18.8c3.1,7.9,2,29.3,2,29.5l-0.2,2.9l2.3-1.7c1.6-1.3,4.7-2.9,6-2.6
		c0.2,0,0.3,0.1,0.4,0.4c1,2.4,0.5,11.2-0.1,16.2l-0.1,0.7l0.5,0.5c2.3,1.9,4.8,4.7,5,5.8c0.3,1.5-0.3,7.2-0.8,10.9l-2,0.5
		C241.3,243.6,236.7,233.6,232.7,229.5z M237.4,256.7l3,12c-7.5,4.7-13.2,11.8-15.8,20.2c-5.1,3.2-8.4,8.8-8.4,15.3
		c0,9.1,6.8,16.6,15.5,17.9c3.3,3.8,7.3,6.9,11.9,9.2l-2.6,4.6c-20.3-4.9-36.7-17.8-36.7-40C204.4,276.8,216.8,262.7,237.4,256.7z
		 M114.7,332.5c-48.4-22.8-82.4-54.8-93.3-87.7c-5-15-0.8-33.2,10.7-46.3c8.2-9.4,27.4-24,63.6-17.1
		c53.6,10.3,116.3,74.5,122.9,81.4c-10.7,7.8-16.7,19.2-16.7,33.1c0,18.5,11.3,32.8,29.9,40c-0.7,1.6-1.5,3.7-1.3,5.7
		c0.2,2.5,4.1,5.1,9.4,7.1c-1.4,1.8-3,4.2-3.9,6.4l-35.7-29.5l-0.5,0.6c2.7-5.1,4.1-9.8,4-14.1c0-3.5-4.2-8-10.6-14.6
		c-2.1-2.2-4.1-4.2-5.2-5.6c-0.6-1.6,2-9,4.5-13c0.3-0.5,1-1.4,1.8-2.6c4.2-6,6.2-9.1,6.4-10.7c0.5-3.2-0.9-6.8-3.4-9.3
		c-2.4-2.4-5.6-3.4-9-2.8c-1.9,0.3-4.4,2.8-10.2,8.9c-2.3,2.4-5.7,6-7.1,6.9c-0.6-0.3-1.5-0.8-2.3-1.3c-7-4.1-21.6-12.6-31.9-4.2
		c-12.5,10.2-16.7,34.1-11.9,41.7c4.1,6.5,39.7,38.3,46.4,39.3c0.7,0.1,1.4,0.2,2.1,0.2c6.1,0,14.5-3.4,19.9-9.3l38.5,31.7
		C219.7,364.7,148.3,348.4,114.7,332.5z M235.4,365.2l-39.7-32.6c0.9-1.2,1.7-2.4,2.4-3.6l37.4,30.9c0.5,1.1,1.2,1.9,2,2.4
		C236.8,363.2,236.1,364.2,235.4,365.2z M162.1,268.9c3.4,2.5,6.9,6.2,6.3,9.9c-0.3,1.8-1.4,3.3-3,4.2c-2,1.1-4.4,1.2-6.5,0.3
		c-5.8-2.5-19.6-13.6-21.3-15c0.5-0.5,1-1,1.5-1.4c2.3-1.9,5.1-2.6,7.9-2.6C152.3,264.3,157.8,266.6,162.1,268.9z M136,270.1
		C136,270.2,136,270.2,136,270.1c1.7,1.8,6.3,5.3,10.8,8.5c0,0,0,0.1,0.1,0.1c0.3,0.4,0.9,0.9,1.8,1.7c2.7,2.4,9,7.9,7.3,11
		c-2.8,5.2-5.9,5.1-8.8,4.3c-0.4-0.1-1.2-0.5-2.1-1c-0.1-0.1-0.2-0.2-0.3-0.2c-0.2-0.1-0.4-0.2-0.6-0.3c-4-2.4-10.6-7.1-15.2-10.4
		C130.5,278.9,132.8,274,136,270.1z M128.2,303.4c-1.7-2.8-1.8-9.6,0-16.9c3.2,2.3,10.6,7.6,15.2,10.3c1.2,1,2.7,2.7,2.9,3.6
		c0.6,2.3-0.6,4.6-1.4,5.7c-1.4,2.1-3.3,3.3-4.4,3.4c-3.8,0.5-8.3-2.3-11-4.3C129,304.6,128.6,303.9,128.2,303.4z M139.7,312.2
		c0.4,0,0.8,0,1.2-0.1c2-0.3,4.5-2.1,6.2-4.6c1.8-2.6,2.4-5.3,1.8-7.8c-0.1-0.3-0.3-0.7-0.4-1.1c0.4,0.1,0.8,0.1,1.2,0.1
		c2.8,0,5.9-1.3,8.5-6.1c1.3-2.4,0.4-5-1.3-7.5c0.4,0.2,0.7,0.4,1,0.5c1.2,0.5,2.6,0.8,4,0.8c1.7,0,3.4-0.4,4.9-1.2
		c2.4-1.3,3.9-3.5,4.3-6.1c0.3-2.2-0.2-4.2-1.3-6.1c0.4,0.2,0.7,0.3,1.1,0.3c1.8,0.2,3.7-1.6,10.1-8.3c2.8-2.9,6.9-7.3,8-7.7
		c2.7-0.4,4.5,0.7,5.6,1.8c1.6,1.6,2.5,4,2.2,5.9c-0.3,1.3-4.1,6.8-5.8,9.1c-0.8,1.2-1.5,2.2-1.9,2.7c-1,1.7-7.3,13.5-4.3,17.4h0
		c0.7,0.9,1.7,2,2.8,3.2c0.1,1.2,0.5,10.4-9.9,20.7c-10.2,10.1-21.1,10.3-23.3,10.2c-6.6-5.5-13.6-11.8-18.9-16.8
		C137,312,138.4,312.2,139.7,312.2z M179.6,320c8.2-8.2,10.2-15.7,10.6-19.8c0,0,0.1,0.1,0.1,0.1c0.8,0.8,1.7,1.7,2.6,2.7l-0.1,0
		c0,0.1-1.2,11.5-9.8,19.8c-8.8,8.3-17.5,10.6-21.5,11.3c-1.3-1-2.6-2-4-3.2C162.4,330.4,171.2,328.4,179.6,320z M184.9,324.7
		c7.2-6.8,9.5-15.4,10.3-19.3c2.5,2.7,4.6,5.4,4.6,6.7c0,5.4-2.8,12.1-8.1,19.3c-5.2,7-15.1,10.3-19.9,9.5c-1.1-0.2-3.8-2-7.5-4.7
		C169.3,335.1,177,332.2,184.9,324.7z M125.4,460.5c-36.1-3.2-51.8-24-54.4-42.5c-3.1-21.7,9.8-42.8,31.5-51.3
		c27.8-10.9,96.5-3,97.2-2.9v0c15.6,3.9,27.8,6.7,31.7,7.5c-0.9,1.5-1.5,2.7-1.6,3.4c-0.1,0.7,0.1,1.5,0.6,2.1
		c0.8,0.9,2.4,1.5,4.2,1.9c-9.9,7.2-8.9,9.7-8.5,10.7c0.1,0.2,0.2,0.4,0.4,0.6l-20.8,7.8c-2.8-4.5-6-7.8-9.4-9.8
		c-2.8-1.5-8.1-0.3-16,1.8c-2.6,0.7-5,1.3-6.5,1.5c-1.5-0.3-6-5.5-7.9-9c-0.2-0.5-0.7-1.4-1.2-2.5c-2.9-6-4.3-8.8-5.5-9.8
		c-2.3-1.8-5.8-2.4-8.8-1.5c-3,0.8-5.2,2.9-6.3,5.9c-0.6,1.7,0.2,4.7,2.4,11.9c0.8,2.7,2.1,6.7,2.2,8.3c-0.5,0.3-1.2,0.7-1.9,1.1
		c-5.8,3.4-19.3,11.2-17.3,23c2.3,14,18.7,27.5,26.9,27.5c0.1,0,0.2,0,0.3,0c6.8-0.3,47-13.9,50.7-18.7c3-3.8,4.7-11.3,3.4-18.3
		l17.1-6.4c-0.5,1.8-0.1,2.6,0.2,3c1.4,2.3,5.6,2.4,9.7,1.9c-6.2,7.9-8.5,13-6.9,15.4c1.5,2.2,4.7,2.4,7.5,2c-0.8,1.3-1.5,2.6-2.2,4
		C231.8,432.7,189.4,466.2,125.4,460.5z M230.3,397.9l-0.1-0.1l-20.6,7.8c-0.1-0.4-0.3-0.8-0.5-1.2c-0.5-1.1-1-2.1-1.5-3.1l25.2-9.4
		l0,0c0.7,0,1.3-0.1,2.1-0.2C232.9,394.1,231.4,396.2,230.3,397.9z M145.2,401.3c3.3-1.4,7.4-2.4,9.8-0.4c1.2,1,1.9,2.4,1.9,4
		c0,1.9-1,3.9-2.5,5c-4.3,3.3-18,8.8-20.6,9.7c-0.1-0.5-0.3-1.1-0.3-1.6C132.2,410.7,139.5,404.9,145.2,401.3z M145.6,417.5
		c0,0,0.1,0,0.1,0c0.5-0.1,1.1-0.3,2.1-0.7c3-1,9.9-3.4,11.5-0.9c2.7,4.3,1.4,6.6-0.5,8.5c-0.3,0.3-0.9,0.7-1.7,1.1
		c-0.1,0-0.2,0.1-0.3,0.1c-0.2,0.1-0.4,0.2-0.5,0.3c-3.5,2-9.9,5-14.5,7.1c-3.1-3.2-5.8-7.1-7.3-11.1
		C136.8,421.5,141.2,419.6,145.6,417.5z M158.1,428.1c1.5-0.5,3.3-0.9,4-0.7c2,0.6,3.2,2.4,3.7,3.5c0.9,1.9,1.1,3.9,0.8,4.7
		c-1.2,3-5,5.2-7.7,6.4c-1,0.2-1.8,0.3-2.4,0.3c-2.8,0.1-8-2.7-12.7-7.1C147.1,433.7,154.2,430.4,158.1,428.1z M169,436.6
		c0.7-1.7,0.4-4.4-0.8-6.9c-1.2-2.5-3.1-4.3-5.3-4.9c-0.2-0.1-0.5-0.1-0.8-0.1c2-3,1.9-6.3-0.5-10.1c-1.2-2-3.4-2.5-5.9-2.4
		c0.1-0.1,0.2-0.1,0.3-0.2c2.2-1.6,3.5-4.4,3.6-7.1c0-2.5-1-4.6-2.8-6.1c-1.4-1.1-3.1-1.6-4.8-1.6c0.1-0.1,0.3-0.3,0.4-0.4
		c1-1.4,0.4-3.6-2-11.6c-1-3.3-2.5-8.2-2.4-9.5c0.8-2.1,2.4-3,3.6-3.3c1.8-0.5,4-0.2,5.3,0.8c0.8,0.8,3.4,6.1,4.4,8.4
		c0.6,1.2,1,2.1,1.3,2.6c0.1,0.1,6.9,11.7,11.8,11c1-0.1,2.3-0.4,3.8-0.8c1.3,0.6,8.1,4.4,11.4,16.5c3.2,11.8-1,20.1-2.2,22.1
		c-6.8,2.6-14.4,5.2-20.5,7C167.7,438.9,168.5,437.8,169,436.6z M191.9,410.1c-2.6-9.6-7.4-14.4-10.4-16.7c0.9-0.2,1.9-0.5,2.9-0.7
		c0.6,0.5,8.3,6.2,10.8,16.1c2.6,10.2,0.6,17.8-0.6,21.2c-1.2,0.5-2.4,1-3.7,1.5C192.6,427.5,194.6,420,191.9,410.1z M197.8,408.2
		c-2.1-8.2-7.3-13.7-10.1-16.2c3-0.6,5.8-1.1,6.7-0.6c4.1,2.3,8,7.3,11.2,14.5c3.1,7,1.3,15.9-1.3,19.2c-0.6,0.7-3,2-6.4,3.5
		C199.1,424.3,200.1,417.2,197.8,408.2z M250.3,458c0.5-0.1,1-0.1,1.5-0.3c-0.4,4.4-0.3,10.3,2,13l-1.4,13.7
		c-1.2-0.4-2.4-0.6-3.7-0.6c-0.2,0-0.4,0-0.6,0L250.3,458z M283.6,455.6l20.3,19.6c-0.2,0.8-0.3,1.6-0.3,2.5l-8.1,2.5
		c-2.6-3.2-5.3-5.3-7.2-5.6c-2.8-0.5-18.4,6.6-31.4,12.7c-0.3-0.3-0.5-0.5-0.8-0.7l1.4-14.3c0.3,0,0.7-0.1,1-0.2
		c1.4-0.5,2.7-1.6,3.8-2.8c0.9,3,2.8,5.9,6.2,6.3c0.2,0,0.3,0,0.5,0c5.2,0,8.5-10.8,10.2-19.3C280.3,456.5,281.7,456.6,283.6,455.6z
		 M254.2,505.7c0.1,0,0.1-0.1,0.2-0.1l3.2,12.8c-1.5-0.7-3.2-1.2-5-1.6L254.2,505.7z M241,495.5c0-4.2,3.4-7.7,7.7-7.7
		c4.2,0,7.7,3.4,7.7,7.7c0,4.2-3.4,7.7-7.7,7.7C244.5,503.1,241,499.7,241,495.5z M246,506.8c0.9,0.2,1.8,0.3,2.7,0.3
		c0.5,0,0.9,0,1.3-0.1l-1.4,9.1c-0.8-0.1-1.7-0.2-2.7-0.2c-0.4,0-0.8,0-1.2,0L246,506.8z M230.4,530.9c1.8-0.7,6.3-2.2,11.2-2.2
		c3.1,0,8.7,0.8,11.1,1.1l-0.3,3.2c-2.1-0.4-6.1-1-10.8-1c-5.1,0-8.7,1.1-10.9,2C230.6,532.9,230.5,531.9,230.4,530.9z M220.7,565.9
		c0-5.4,6.3-11.7,10-14.8c0.8-0.3,1.7-0.6,2.5-0.8c2-0.5,4-0.8,6.1-1c0.5,0,1.1-0.1,1.5-0.1c0.4,0,0.9,0.1,1.4,0.1
		c1,0.2,1.9,0.4,2.9,0.7c1,0.3,2,0.6,2.9,1.1c1.1,0.1,2.2,0.1,3.4,0c-0.7-1-1.5-1.8-2.4-2.5c-1-0.3-2.1-0.8-3.1-1.1
		c-1.1-0.3-2.1-0.6-3.3-0.8c-0.6-0.1-1.2-0.2-1.8-0.2c-0.7,0-1.1,0.1-1.7,0.1c-2.1,0.2-4.1,0.5-6.2,1c-0.2-1.2-1-5.8-1.7-10.9
		c1.7-0.8,5.1-2.1,10.5-2.1c6.5,0,11.6,1.3,11.7,1.3l1.5,0.4l0.7-8.7l-1.2-0.2c-0.3-0.1-8.4-1.3-12.7-1.3c-4.8,0-9.2,1.3-11.5,2.1
		c-0.2-1.9-0.2-3.6-0.2-4.9c0.4-1.4,7.5-3.9,15.8-3.4c6.6,0.4,10.2,1.6,13.2,3.7l0,0l0,0c0.8,0.6,1.5,1.2,2.3,1.9
		c2.5,2.3,1.1,13.1,0.5,18.2c-0.3,2.5-0.6,4.5-0.6,5.8c0,2,0.2,5.1,0.4,8.1c0.2,2.5,0.4,5.9,0.4,7.4c-2.1,1.8-10.1,7.8-23.5,7.8
		c-10.1,0-15.4-2.1-17.9-3.4c0-0.4,0-0.8,0-1.2C220.7,567.5,220.7,566.7,220.7,565.9z M241.3,578.8c-10.2,0.8-16.5,0-19-2.5
		c-1-1-1.5-2.3-1.6-3.9c3.2,1.5,8.7,3.1,17.8,3.1c11.1,0,18.6-3.8,22.6-6.5C259.7,572.6,255.6,577.7,241.3,578.8z M269.8,535.7
		c-1,0-2.4-1.2-3.1-2c0.2-5.1-0.4-9-2.7-11.1c-0.5-0.5-1-0.9-1.5-1.3l-4.6-18.7c0.3-0.3,0.5-0.7,0.7-1c0.4,1.6,1,3.5,1.7,5.8
		c1.7,5.9,4.1,13.9,6.2,19.1c1.8,4.4,3.8,7.3,5.4,9.1C271.1,535.7,270.3,535.7,269.8,535.7z M285.3,510.2l-1.9,0.3l0.2,1.9
		c0.9,6.9,0.8,17.5-1.8,19.8c-2.1,1.7-4.4,2.6-6.5,3c-1.5-1.2-4.1-3.9-6.4-9.6c-3.2-7.8-7.3-22.6-8.7-28.3c0.1-0.6,0.2-1.3,0.2-1.9
		c0-1.7-0.4-3.4-1.1-4.9c5.8-2.7,11.8-5.4,16.8-7.6c1.7,1.5,6.3,5.9,9.7,12.7c3.1,6.3,5,11.8,5.6,13.7
		C289.3,509.7,287.3,510,285.3,510.2z M293.9,508.9c-0.5-1.7-2.4-7.5-5.9-14.4c-3.1-6.2-7.1-10.5-9.3-12.6c1.1-0.5,2.1-0.9,3.1-1.3
		c2.1,2,5.8,6,8.6,11.7c3.1,6.2,5.7,13.2,6.7,16C296.2,508.5,295.1,508.7,293.9,508.9z M301.6,507.1c-0.3,0.2-0.9,0.4-1.8,0.6
		c-0.9-2.6-3.7-10-7-16.6c-2.7-5.3-6-9.3-8.3-11.6c1.6-0.6,2.7-0.9,3.3-1c1.7,0.4,7.8,6.3,10.8,15.4
		C300,497.9,302.8,506.2,301.6,507.1z M300.2,487.4c-0.7-1.3-1.4-2.6-2.2-3.8l6.3-1.9c0.5,1.4,1.3,2.7,2.4,3.8L300.2,487.4z
		 M314.9,470.6c4,0,7.3,3.3,7.3,7.3c0,4-3.3,7.3-7.3,7.3c-4,0-7.3-3.3-7.3-7.3C307.6,473.8,310.9,470.6,314.9,470.6z M309.2,468.2
		c-1.4,0.8-2.6,1.9-3.5,3.3l-19.6-19c0.5-2,0.4-4.5,0-7.3L309.2,468.2z M286.9,434.6c-1.6,1.3-4.2-1.6-4.3-1.6l-6.4-7.1l3,9
		c2.6,7.7,3.9,15.8,2.8,17c-0.7,0.4-1.3,0.5-1.6,0.4c-0.3-0.1-0.5-0.6-0.6-0.6l-2.4-7.5l-1.4,7.8c-1.7,9.7-5.2,19.2-7,19.5
		c-2.9-0.4-3.5-5.9-3.5-7.8l0-8.7l-3.8,7.8c-0.9,1.9-3,4.9-4.4,5.4c-0.3,0.1-0.4,0-0.5,0c-1.3-0.7-1.6-7.2-0.8-13.4l0.6-4.3
		l-3.6,2.3c0,0-3.8,2.4-6.1,0.2c-1.3-1.3,0.5-6.7,3-10.7l3.1-5.1l-5.6,2.2c-3.5,1.4-9.4,2.5-10.8,0.6c-1.1-1.5,2.4-9.6,7.4-17
		l3.3-4.9l-5.6,1.9c-3.4,1.2-7,1.4-7.8,0.9c0.2-2,4.6-8.6,10-14.9l3.9-4.6l-5.9,1.4c-4.4,1-9.1,1.4-10.6,0.9
		c0.6-2.3,5.5-8.8,10.1-14l4.2-4.7l-6.1,1.5c-3.7,0.9-7.7,1.3-9.4,1.1c1.4-1.8,6-5.5,11-8.8l5.2-3.4l-6.2-0.2
		c-2.3-0.1-4.9-0.4-6.2-0.8c1.3-2.3,5.1-7.8,8.5-12.5l3.2-4.3l-5.2,1.2c-0.4,0.1-1.3,0.2-1.5-0.7c-0.1-1.1,2.1-4.8,4.7-8.2
		c5.1,1.4,10.8,2.4,15.8,2.4c0.2,0,0.4,0,0.6,0c7.8,0,15.2-1.1,20.6-2.5c3.8,4.8,6.9,10.2,6.6,11.4c-0.9,1.8-3.9,1-3.9,1l-5.6-1.5
		l3.6,4.6c4.7,6.1,8.4,12.7,8,14.4c-1.8,2-5,1.1-5,1.1l-4.8-1.4l2.5,4.3c3.3,5.7,5.7,11.8,5.2,13.2c-0.6,1.6-3.1,0.7-3.3,0.6
		l-5.8-2.3l3.4,5.2c3.7,5.7,6.5,12,5.9,13.3c-2.3,2.2-3.9,2.5-3.9,2.5h0l-2.8,0.3l1.3,2.5C285.4,426,287.7,433.3,286.9,434.6z
		 M289.3,388.9l28.6,2.4c-0.3,1.2-0.6,2.5-0.8,3.9c-0.1,0.4-0.1,0.7-0.1,1.1l-25.7-1.6C290.8,392.8,290.1,390.8,289.3,388.9z
		 M426.2,340.1c14.3,4.9,24,14.9,27.3,28.3c3.7,14.9-1,31.6-12.3,43.5c-21,22.3-83,24.4-109.7,22c-26.3-2.4-41.6-6.7-41.8-6.8l0,0.1
		c-0.8-2.6-2-5.4-3.1-7.7c1-0.5,2.3-1.4,3.7-2.7c3-2.8-0.1-9.7-3.2-15c1.6-0.3,3.1-1.3,3.9-3.3l25.6,1.6l0-0.6
		c0.2,7.3,3.7,14.6,7.7,17.7c4,3.1,35,6.1,48.5,6.1c2.4,0,4.2-0.1,5.2-0.3c7.9-1.6,20.8-19,19.7-33.3c-0.9-11.9-15.9-16.2-22.3-18.1
		c-0.8-0.2-1.6-0.5-2.1-0.6c-0.2-1.6,0-5.7,0.2-8.6c0.4-7.5,0.4-10.7-0.6-12.1c-1.8-2.6-4.4-4-7.5-4.2c-3.2-0.1-6.4,1.3-8.2,3.6
		c-0.9,1.2-1.7,4.3-3,10.8c-0.2,1.2-0.4,2.2-0.6,2.7c-1,3.8-4.1,9.9-5.4,10.6c-1.6,0.2-4.1,0.1-6.7,0.1c-8.1-0.1-13.7,0-16,2.2
		c-2.8,2.6-5,6.4-6.6,11.3l-30.5-2.6c1.4-0.3,2.9-1,4.2-2.5c2.3-2.6-0.4-8.3-3.7-13.3c0.4-0.1,0.8-0.3,1.3-0.4
		c17-5.6,39.1-13.4,62.7-23.2C359.5,343.9,407.4,333.8,426.2,340.1z M370.5,374c0.1,0.1,0.3,0.2,0.5,0.3c-1.7,0.5-3.2,1.3-4.3,2.8
		c-1.4,1.9-1.9,4.3-1.3,6.6c0.7,2.6,2.7,4.9,5.2,6c0.1,0,0.2,0.1,0.3,0.1c-2.4,0.5-4.4,1.5-5.1,3.7c-1.4,4.3-0.7,7.5,2,9.9
		c-0.3,0.1-0.5,0.2-0.8,0.3c-2,1.1-3.4,3.3-4,6c-0.6,2.7-0.2,5.4,0.9,6.9c0.8,1.1,1.8,1.9,3,2.7c-6.3-0.3-14.4-1-21.6-1.8
		c-1.6-1.7-7.8-8.7-7.5-20.9c0.3-12.4,5.9-17.8,7-18.7c1.5,0,2.8,0,3.9-0.2c4.9-0.5,8.7-13.4,8.7-13.6c0.1-0.5,0.3-1.6,0.6-2.9
		c0.5-2.4,1.7-8.2,2.2-9.1c1-1.3,3.1-2.2,5-2.1c1.2,0,3,0.5,4.3,2.3c0.4,1.2,0.1,6.4,0,9.8C369.2,370.6,369.2,372.8,370.5,374z
		 M377.4,419.2c-0.6,0.1-1.4,0.2-2.4,0.2c-2.8-0.5-7.1-1.7-9-4.3c-0.5-0.7-0.9-2.7-0.4-4.8c0.2-1.2,0.9-3.3,2.7-4.3
		c0.6-0.3,2.5-0.4,4-0.3c4.4,1.3,12,2.7,15.6,3.4C384.4,414.7,380.2,418.7,377.4,419.2z M389.4,406.8c-4.9-0.9-11.8-2.3-15.7-3.4
		c-0.2-0.1-0.4-0.2-0.6-0.2c-0.1,0-0.2,0-0.3,0c-0.9-0.3-1.6-0.5-1.9-0.7c-2.3-1.3-4.1-3.3-2.6-8.1c0.9-2.9,8.2-2.2,11.4-2
		c1,0.1,1.7,0.2,2.2,0.1c0,0,0.1,0,0.1,0c4.7,0.9,9.5,1.7,11.8,1.7C393.2,398.5,391.6,402.9,389.4,406.8z M371.6,387.3
		c-1.8-0.8-3.2-2.4-3.7-4.3c-0.4-1.6-0.1-3.1,0.8-4.4c1.9-2.5,6.1-2.5,9.6-2c6.4,2.1,14.9,5.9,15.5,13.4c0,0.5,0.1,1.1,0,1.6
		C391.2,391.5,376.6,389.4,371.6,387.3z M335.2,396.6c-0.2,10.2,3.5,17,6.2,20.5c-1.4-0.2-2.7-0.4-4-0.5c-2.1-3-5.8-9.9-5.8-20.4
		c0-10.1,6.1-17.6,6.6-18.2c0.1,0,0.1,0,0.2,0c1,0,2,0,2.8,0C338.9,380.8,335.4,386.7,335.2,396.6z M329,396.1
		c0,9.4,2.7,16,4.9,19.9c-3.7-0.6-6.3-1.3-7.1-1.8c-3.4-2.6-7.3-10.8-6-18.3c1.3-7.8,3.9-13.6,7.4-16.8c0.7-0.7,3.6-1,6.6-1.1
		C332.8,381,329,387.7,329,396.1z M471,271c-31,29.2-77.4,53.1-119.2,70.6c-0.2,0-0.4,0.1-0.5,0.1l0,0.1
		c-23,9.6-44.5,17.2-61.3,22.7c0.3-0.3,0.5-0.6,0.7-0.9l47-33.4c5.2,4.1,11.7,6.3,16.7,6.3c0.7,0,1.5-0.1,2.1-0.2
		c6.7-1,42.2-32.8,46.4-39.3c4.8-7.6,0.7-31.6-11.9-41.7c-10.3-8.4-24.9,0.1-31.9,4.2c-0.8,0.5-1.8,1-2.3,1.3
		c-1.4-1-4.8-4.5-7.1-6.9c-5.8-6.1-8.3-8.6-10.2-8.9c-3.4-0.6-6.6,0.5-9,2.8c-2.5,2.5-3.8,6.1-3.4,9.3c0.2,1.6,2.3,4.8,6.5,10.8
		c0.8,1.1,1.4,2,1.7,2.5c2.5,3.9,5.1,11.4,4.5,13c-1.1,1.4-3.1,3.5-5.2,5.6c-6.4,6.5-10.5,11.1-10.6,14.6c0,5.1,1.9,10.9,5.8,17.1
		l-43.3,30.1c-0.5-0.8-1.1-1.5-1.6-2.2c1.7-0.7,3-1.4,3.8-2.1c2.7-2.4,1.2-7-0.1-9.8c19.9-6.8,32.1-21.5,32.1-40.8
		c0-14.3-7.5-26.4-20-34.5c6.5-7.4,72.2-81.6,112.5-93.5c34-10.1,61-5.1,78,14.5C509,202.8,499.5,244.2,471,271z"/>
</g>
</svg>
