<?xml version="1.0" encoding="utf-8"?>
<!-- Generator: Adobe Illustrator 21.1.0, SVG Export Plug-In . SVG Version: 6.00 Build 0)  -->
<svg version="1.1" id="Layer_1" xmlns="http://www.w3.org/2000/svg" xmlns:xlink="http://www.w3.org/1999/xlink" x="0px" y="0px"
	 viewBox="0 0 515.9 728.5" style="enable-background:new 0 0 515.9 728.5;" xml:space="preserve">
<style type="text/css">
	.st0{fill:#A7A9AC;}
	.st1{fill:#8564AB;}
	.st2{fill:#F1BF66;}
	.st3{fill:#BAE1EF;}
	.st4{fill:#F15834;}
	.st5{fill:#C3A3CD;}
	.st6{fill:#EBF1F4;}
	.st7{fill:#3AC6F4;}
	.st8{fill:#433643;}
	.st9{fill:#2DB9EC;}
	.st10{opacity:0.4;fill:#55285B;}
	.st11{opacity:0.3;fill:#FFFFFF;}
	.st12{opacity:0.5;fill:#FFFFFF;}
	.st13{fill:#010101;}
</style>
<path class="st0" d="M73.5,550.5c-5.2,3.3-3.1-8.7-7.1-21.5c-6.7-21.4-44-20.1-51-36.6c-6.2-14.7-1.5-28.2,5.4-38.1
	c5.1-7.4,22.5-13.8,22.5-13.8s-10.9-40.2,3.4-59.5c14.3-19.3,34.8-30.7,49-34c25.1-5.9,70.8,4.7,81.7,20.2
	c19.3,27.5,8.6,56.9,16.9,63.2s18.3,11.1,16.4,15.6c-1.9,4.5-12.5,2.6-23.2-2.7c-14.7-7.3-9.5-30.7-20-38.3
	c-12.5-9.1-35.3-18-51.9-18.7c-5.8-0.2-10.8,0.5-14.3,2.6c-12.9,7.5-7.3,20.5-7.3,20.5s11.6-11.8,13-12.6c1.4-0.8,11.2-2.8,11.2-2.8
	s8.4,3.2,10.4,9.6c1.9,6.5,10.6,8.5,10.6,8.5c12-2.2,9.1,0.2,14.8,9.8c3.2,5.4,4.7,17,4.7,17c-4.8-2.9-1.7,3.8-1.7,3.8
	c3.8,2.5,13.7,4.5,20.4,9.4c10.8,7.9,15.6,17.4,15.6,17.4s-21,4.1-18.8,8.6s5.6,20.6,5.6,20.6s-20,1.8-18.9,14.4
	c1.2,12.6,24.4,20.2,45.2,16.7s32.7-18,32.7-18l-5.2-20.4c0,0,13.8,4.3,17.5,10.8s18.5,33.8-1.5,51.8c-20.1,18-65.5,28-91.4,23.4
	c-28-4.9-44.9-24.6-50.8-45.9c-8-28.7,9.4-54.9,9.4-54.9s-21.8,0.4-28.6-1.5s-17-6.1-17-6.1s-14.5,8.8-15,17.3
	c-0.3,5.6,24.1,16,24.4,29.4C80.5,529.1,84.1,543.8,73.5,550.5z"/>
<path class="st0" d="M309.5,487.9c0,0,0.8-25.9,7.5-42.7c4.7-12,16.4-21,16.4-21l-22-13.1l22-60.4c0,0,8.2-5.4,18.6-5.4
	c21.5,0,35.5,28.3,35.5,28.3s14,3.1,20.8,6.2c6.8,3.1,16,8.8,16,8.8s-6.4-25.1-15.4-35c-9-9.9-20.3-19.1-22.9-26.7
	c-2.6-7.6-4-13.8-4-13.8s17.2-6.7,18.5-9.8s-17.4-38.5-17.4-38.5s8.7-23.4,20.1-26.3c16.8-4.3,38.5,8.8,37.8,17
	c-1.4,17-16.4,17.5-18.7,14.5s9.8-5.8,6.1-9.8s-13.3-8.4-16.8-3.3c-7.5,10.8-5.2,41.3-1.4,47.8c3.8,6.5,33,29.1,48.4,53.4
	c20.6,32.5,10.9,77.7,10.9,77.7s5.9,5.7,8.6,17.2c4.8,21.2-13.9,37.1-5,46.7c0,0,4.5,9.6,13.6,14.9c3.3,1.9,16.1,10,13.6,12
	c-2.5,2.1-23.8,0.7-28.7-4.2c-4.9-4.9-18.3-8.7-22.5-25.7c-2.2-9.1,8-25.7,5.1-27.7c-2.9-2.1-3.3-5-3.3-5L434,480.2
	c0,0,0.4,18.6-5.4,35.4c-5.2,15.1-34,53.5-56.6,56.5c-33.2,4.4-41.3-9-48.4-11.6c-7.1-2.7-40.9-7.7-48.7-14.7
	c-7.8-7-6.5-17.4-2.7-21.3s6.4,6.3,13.7,7c7.2,0.7,34.8,0.2,43,2.3c8.2,2.1,14.4,7.6,24.3,7.9c10.5,0.4,27.1-9.1,31.8-25.2
	c4.7-16.1,4.2-27.1,4.2-27.1s-5.2,0.9-11,2.5c-5.8,1.5-9.2,0-9.2,0l-9.2-13l-17.7,8.3l0.9,9.1L309.5,487.9z"/>
<path class="st1" d="M230.2,482.3c0,0,12.5-5.6,29.4-6.1c16.9-0.4,49.9,11.6,49.9,11.6s-0.2-36,8.1-47.3
	c8.3-11.3,15.7-16.3,15.7-16.3l-22-13.1c0,0,25.6-66.7,26.9-71.9c1.4-5.2,0-14.5,0-14.5s-10.1-12.5-27.9-15
	c-17.8-2.5-78.1-2.3-78.1-2.3l-47.4,25.8l-7.5,34c0,0,8.8,10.6,11.4,18.3c2.6,7.7,1.9,42.3,5.5,44.9c3.6,2.6,18.5,9.5,16.4,15.6
	c-2.1,6.1-22.9-1.7-29.2-7.8s-7.3-29.8-14-33.3c-6.7-3.5-7.3-5.9-7.3-5.9L147,411.5l7.9,12.2l3.6,15.1L154,444c0,0,13.7-0.3,23.2,8
	c9.4,8.3,15.6,17.4,15.6,17.4s27.5-11.4,29.6-7.5C224.6,465.8,230.2,482.3,230.2,482.3z"/>
<path class="st2" d="M183.6,332.8l48.6-25.4l9.3,0L242,285l-13.1,0l-49.9-10.4c0,0,4.4,19.7,4.7,27.2S183.6,332.8,183.6,332.8z"/>
<path class="st3" d="M136,237.7c0,0,11-49.3,93.9-49.3c75.9,0,93.1,48.2,97.8,58.8c8.7,19.9,12.5,49.4,12.5,49.4s-16.6-8-32.7-11
	c-15.5-3-78.5-2-78.5-2l-51.3-7.6c0,0-4.2-15.8-14.2-27.5C149.2,231.9,136,237.7,136,237.7z"/>
<path class="st4" d="M241.5,307.4L242,285c0,0,55.6-2.4,65.5,0.7c9.8,3.1,32.7,11,32.7,11s1.6,14,0,16.4c-1.6,2.5-2,11.6-2,11.6
	s-17.4-14.1-32.6-15.9C290.4,307,241.5,307.4,241.5,307.4z"/>
<path class="st5" d="M157.3,242.5c0,0-1-7.8,4.8-9.5c5.8-1.6,14.2-3.7,14.2-3.7s1.7-9.1,7.8-13.6c10.3-7.5,25.2-2.8,25.2-2.8
	s0.9-5.5,7.5-5.1c11.3,0.6,18.2,10.8,18.2,10.8l4.7-0.5c0,0-3.2-3.7,3.2-8.9c8-6.5,16.7,4.3,16.7,4.3s6-4.1,13.2-2.9
	c7.1,1.2,12.3,13,12.3,13s6.6,0.4,12.2,3.4c10.3,5.6,8.4,21.5,8.4,21.5s8.7-2.4,13.1,4.2c4.7,7,4.7,25.7,4.7,25.7s1.6-2.4,4.7,1.4
	s0,11.8,0,11.8s-30.2-11-58.1-8.2c-7.6,0.7-41,0.2-41,0.2l-51.3-7.6c0,0-8.6-19.1-11.4-23.3C163.5,248.5,157.3,242.5,157.3,242.5z"
	/>
<ellipse class="st2" cx="228.4" cy="374.3" rx="22.5" ry="26.7"/>
<ellipse class="st2" cx="292.3" cy="372.9" rx="21.3" ry="26.7"/>
<path class="st6" d="M246,375.7c-1.1,13.2-7.8,19.5-17.5,19.5s-18-8.8-17.7-23c0.2-11.3,7.8-20.4,17.5-20.4
	C238,351.8,246.9,364.5,246,375.7z"/>
<path class="st6" d="M308.9,372.1c0,11.2-6.1,21.1-16.4,21.7c-8.3,0.4-15-10.5-15-21.7s6.7-20.3,15-20.3
	C300.8,351.9,308.9,360.9,308.9,372.1z"/>
<path class="st2" d="M119.8,253.3c0,0,10.7-13.9,16.2-15.6c18.1-5.5,37.1,20.2,43.6,47.8c7.9,33.4-2.3,81.7-2.3,81.7
	s-13-10.4-20.2-13.9c-5.4-2.6-37.7-11.8-50.9-9.2S95.7,347,95.7,347s-7.3-26.7-7.4-41.2c0-8.9,7.8-25.5,7.8-25.5l-21.1-87
	c0,0,8.4-6.2,13.8-7.9C94.1,183.8,119.8,253.3,119.8,253.3z"/>
<path class="st2" d="M115.5,386.3c0,0,21.4,1.1,27,3.1c5.6,1.9,17.7,9.7,17.7,9.7S155,411,147,411.5c-8,0.5-19.3-5.4-22.4-10.6
	S115.5,386.3,115.5,386.3z"/>
<circle class="st7" cx="224.8" cy="381.1" r="10.7"/>
<circle class="st7" cx="288.7" cy="379.3" r="10.1"/>
<path class="st8" d="M187.5,529l-13.6-50.9l6.8-4.7l38.2-12.8l5.9,2.3l16,49.6c0,0-6.3,8.4-21,13.7C206.6,531,187.5,529,187.5,529z"
	/>
<polygon class="st0" points="80.2,189.4 73,160.4 77.3,158.3 87.9,185.2 "/>
<circle class="st4" cx="72.7" cy="147.6" r="10.7"/>
<path class="st8" d="M340.9,301.8c2.1-0.2,8.7,24.2,12.7,25.1c4,0.9,46.7-23.6,46.7-23.6s2.6-5,0-6.6c-2.6-1.7-40.5-81.4-40.5-81.4
	l-8.5-4.2l-32.6,18.5c0,0,8.7,16.9,12.6,23.6C337.9,264.4,340.9,301.8,340.9,301.8z"/>
<path class="st9" d="M341.1,284.3l7.8,13.8c0.9,1.5,2.8,2.1,4.4,1.2l28-14.2c1.5-0.9,2-2.7,1.2-4.2l-28.1-55.2
	c-0.8-1.6-4.2-2.2-5.8-1.3l-22.2,11.8c-1.4,0.8-0.6,2.6,0.1,4.1c2.2,4.6,6.5,14.2,7.2,19.4c0.9,6.5,6.4,22,7.2,24.1
	C340.9,284,341,284.2,341.1,284.3z"/>
<path class="st0" d="M203.4,493.7l-8.9,2.6c-1.6,0.5-3.4-0.5-3.8-2.1l-2.6-8.9c-0.5-1.6,0.5-3.4,2.1-3.8l8.9-2.6
	c1.6-0.5,3.4,0.5,3.8,2.1l2.6,8.9C206,491.5,205,493.3,203.4,493.7z"/>
<path class="st4" d="M281.2,529.4c0,0-7-17.7-4.6-19.2c2.3-1.5,22.9-10.5,22.2-8.3c-0.7,2.2,8.2,10.4,10.3,10.3s26.7-7.7,30.9-13
	c4.2-5.4-3.6-9.5,2.1-12.2c5.7-2.7,17.8-8.1,21.5-3c5.5,7.7,19.2,36.7,19.2,36.7s-8.9,19.1-25.7,20.5c-10.4,0.9-18.2-4.7-28.1-7.5
	c-9.8-2.8-22.7-1.9-30.2-1.9C291.4,531.9,281.2,529.4,281.2,529.4z"/>
<path class="st4" d="M288.7,551.8l34.9,8.6l5.8,3.5c0,0-6.2,18.3-15.9,21.5c-9.7,3.2-11-4-14.8-6.8
	C295.1,575.8,288.7,551.8,288.7,551.8z"/>
<path class="st8" d="M276.6,510.2c0,0,1.9,6.9,5.6,6.2c3.7-0.7,15.4-4.4,16.8-7c1.4-2.6-0.3-7.5-0.3-7.5L276.6,510.2z"/>
<path class="st8" d="M340.7,487l19.1-8.3c0,0,6.3,1.5,3.7,5.3s-14.8,10.2-18.4,9.5C341.4,492.9,340.7,487,340.7,487z"/>
<path class="st2" d="M180.4,372.1l25.4-7.6c0,0-1.4,2.7-1.4,9.8c0,6.8,0.4,8.2,0.4,8.2l-19.4,0.5L180.4,372.1z"/>
<path class="st2" d="M250.9,367.2c0,0,6.9-3.6,10.8-2.7c3.9,0.8,11.2,1.3,11.2,1.3l-1.9,7.1c0,0-7.2-0.7-9.1-0.2s-11,1.6-11,1.6
	V367.2z"/>
<polygon class="st2" points="313.6,364.5 325.7,367.7 322,379.3 313.6,381.1 "/>
<path class="st2" d="M147,411.5l5-1.9c0,0,5.9,9.1,6.7,11.4s3.5,14.7,3.5,14.7l-3.8,3c0,0-0.8-10-3.6-15.1S147,411.5,147,411.5z"/>
<path class="st2" d="M154,444l4.5-5.2c0,0,15.4,2.5,21.9,8.5c6.1,5.7,16.3,20.6,16.3,20.6l-3.9,1.6c0,0-11.6-16.1-18.8-19.9
	C166.7,445.8,154,444,154,444z"/>
<path class="st2" d="M305.1,487.6l4.3,0.2c0,0,0.7-25.5,6.1-38.9c5.4-13.3,17.7-24.8,17.7-24.8l-6.3-3.7c0,0-13.7,17.5-16.7,24.2
	C301.9,463.4,305.1,487.6,305.1,487.6z"/>
<path class="st10" d="M121.8,386.3c0,0,10,20.2,19.4,20.4c8.9,0.1,14.9-10.1,14.9-10.1s-11.4-7.5-18.3-7.2
	C131,389.7,121.8,386.3,121.8,386.3z"/>
<g>
	<path class="st10" d="M150.1,274.6c3.7-8.2,5.7-18.5,6.6-23.5c-6.8-6.1-14.3-7.2-20.7-4.9c-8.5,3.2-12.8,13.2-12.8,13.2v9.6
		c0,0,11.3,5.3,18.8,18.2C144.3,284.8,147.3,280.8,150.1,274.6z"/>
	<path class="st10" d="M160.2,307.4c-5.8,0.6-9.5,2-11.4,2.9c0.1,1.7,0.1,3.5,0,5.3c-0.6,15.2-1.8,32.3-1.8,32.3s3,3.4,10.1,5.4
		c7.1,1.9,13.5,8.6,13.5,8.6c1.3,3.8,9.1-11.7,6.3-48.8C174.5,310.1,166.4,306.7,160.2,307.4z"/>
</g>
<path class="st10" d="M142.2,321.4c-0.1-6.4-0.8-15.1-2.8-23.3c-0.4,1.5-1.1,2.8-2.2,3.9c-4.7,4.7-14.1,2.8-21-4.2
	c-7-7-8.5-15.7-5.1-19.5c3.3-3.7,10.9-3.7,16.2-1.7c-6.4-8.6-26-1.9-26-1.9l14.3-5.6c0,0-22.6-75.3-29.5-77.7
	c-5.1-1.8-6.2,0.2-6.2,0.2l18.8,88.8c0,0-6.3,16.4-5.6,35.4c0.5,13.3,4.6,28.5,4.6,28.5l43.6,1.1
	C141.3,345.3,142.3,335.9,142.2,321.4z M118.2,314.7l4.3-1.1l1.8,2.1l1.2,7.3c0,0-1.6-2.2-4.7-5.6
	C119.1,315.4,118.5,314.8,118.2,314.7l-0.1,0C118.1,314.7,118,314.5,118.2,314.7z M102,317.8l-0.8,0.3
	C101.2,318.1,101.5,317.8,102,317.8l3.8-1.4h2.5l2,8.4c0,0-2.9-3.8-5.4-5.8C103.5,317.8,102.6,317.7,102,317.8z M129.2,336.5
	l-0.1-1.1c-0.3-1.1-1.4-2.8-4.8-3.6c-5.4-1.4-21.6-0.4-21.6-0.4l24.8-3.3c0.3-0.1,0.7,0.2,0.7,0.5l0.8,6.8
	C129.3,336,129.2,336.5,129.2,336.5z"/>
<path class="st10" d="M304.5,307.3c-25.9-4.5-75.2-1.5-75.2-1.5l-41.4,19.9c0,0,0.1-1.3,0.2-3.3l36.6-18.7l-36,6.4
	c0.1-2.8,0.1-5.6-0.1-7.6c-0.9-13.3-9.6-27.9-9.6-27.9s2.2,14.4,3.6,25.1c1.4,10.7,0,39.1,0,39.1l52.9-25.6c0,0,49.6-1.4,69,2.8
	c22.5,4.9,34.3,16.9,34.3,16.9l1.4-11.4C340,321.3,330.1,311.7,304.5,307.3z"/>
<path class="st10" d="M217.3,350.1c0,0-14.6,12.4-12.7,29.2c1.3,11.7,17.8,22.7,23.8,21.7c6.1-1,17-5,17.7-9.1
	c0.7-4.1-7.3,13.1-21.2,11.9s-23.1-11.9-25.2-22.6c-1.9-9.5,2.8-21.8,9.7-27.2C216.3,348.5,217.3,350.1,217.3,350.1z"/>
<path class="st10" d="M46.3,408.1c1.2-18.8,13-45.4,41.7-50.2c27.1-4.5,68.8,6.4,84.8,28.4c12.6,17.4,12,42.5,16.1,46.7
	c5.3,5.4,12.9,7.5,16.9,10c1.4,0.9,0.7,1.7-1,1.5c-5.9-0.7-19.8-6.6-22.1-12.2c-5-12.4-7.3-40.5-35.6-46
	c-29.3-5.7-52.1-5.2-59.7,13.2c-4.7,11.2,0.9,21.3,21.6,24.7c20.6,3.4,38.2-12.7,38.2-12.7l9.1,17.3l2.5,10l-39.5,33.1
	c0,0-31.6,1.6-44.2-6.2C56.8,454.3,44.2,440.5,46.3,408.1z"/>
<path class="st10" d="M95.3,410.9c0,0,7.8-8.5,14.3-10.8c5.6-2,11.3-2.5,11.3-2.5s2.9-0.5,6.2,6c3.3,6.5,7.5,6.7,7.5,6.7
	s-12.8,7.5-19.5,7.4C105.3,417.4,95.3,410.9,95.3,410.9z"/>
<path class="st10" d="M68.8,513.9c-4.8-7.4-30.3-18.9-31.3-38.1c-0.4-7.8,4.6-12.1,9.7-14.4c0.2,0.2,0.4,0.4,0.6,0.6
	c9,9.4,17.5,11.2,17.5,11.2l5.7-4.1c0,0-14.5-10.7-18.1-14.9c-3.6-4.2-8.1-15.3-8.1-15.3l-16,8.7c0,0,1.4,0.2,4.3,1.9
	c-9.1,5.4-20.1,20.4-15.4,36.6c3.7,12.7,34.5,22.7,44,28.5c9.5,5.8,10,26.2,10.2,28s0.3,1.4,2.2-1.6
	C75.9,538.1,73.6,521.2,68.8,513.9z"/>
<path class="st10" d="M403.3,538.4c-1.6-0.8-3-4.1-3.7-8c-0.6-3.1-0.4-6.3,0.7-9.3c5.1-14.5,7.5-29.4,5.6-49.1
	c-2.8-28.9-17.5-54.3-45.8-71c-21.2-12.5-41.2-10.8-41.2-10.8l-7.6,21c0,0,15.7,8,29.4,17.9c13.7,9.9,41.7,23.8,48.7,58.8
	c5,25.6-18.1,48.4-29.2,53.4s-25.7-5-34.4-8.3c-8.7-3.3-34.8-1.6-39.7-1.6s-8.5-9.5-10.5-7.4c-2.1,2.1-8.3,3.9-8.5,11.1
	c-0.2,7.2,10.9,13.9,15,14.5c4.1,0.6,26.1,5.8,37.6,9.7s20.3,12.7,32.8,13.3c1.2,0.1,2.4,0,3.7-0.2l0.9,2.7c0,0,21.4-8,35.3-13
	c14-5,28.9-32.6,28.9-32.6S409,541.3,403.3,538.4z"/>
<path class="st10" d="M311.3,411.1c0,0-2,28.9,10.7,49.4c11.3,18.2,22.2,25,22.2,25s12.5-5.7,16-3.6s8.3,13,8.3,13l18.4-2.1
	c0,0,2.3-16.1-2-23.4c-4.3-7.3-20.6-24.4-32.3-32.4C340.7,429,311.3,411.1,311.3,411.1z"/>
<path class="st10" d="M230.2,474.7c0,0,22.6-5.2,39.1-3.3c11.7,1.4,46.4,15,56.5,16.5c10.1,1.5,14.5,0.7,14.5,0.7l0.7,9
	c0,0-34.5-10.7-41.3-11.4c-6.8-0.7-28.9-11.3-37.7-10c-8.9,1.4-31.7,6.1-31.7,6.1V474.7z"/>
<path class="st10" d="M194.9,468.6c0,0-16.4,7.5-15.8,11.9s12.9,48.7,12.9,48.7l-5.5-2.4l-12.5-48.8c0,0,1.4-2,4.5-4
	C180.5,472.8,194.9,468.6,194.9,468.6z"/>
<path class="st10" d="M157.2,444.6c0,0-42.3,31.2-45.9,57.4c-3.5,26.2,7.6,49.6,22.6,61.4c17.2,13.6,76.6,15.2,108.1-9.5
	c13.6-10.7,14.9-25,11.3-33c-3.7-8-7.1-11-15.2-5.5c-1,0.7-6.8,9.4-21.4,17.4c-15.4,8.5-65.9,24.8-76.8-3.5
	c-9.5-24.7,36.4-34.3,36.4-34.3l-2.4-16.9l4.5-4l13.5-5.1c0,0-7.9-14.3-13-17.8C173.8,447.7,157.2,444.6,157.2,444.6z"/>
<path class="st10" d="M385.4,311.7c0,0,2.3,11.1,4.9,15.3c5.1,7.9,27.4,28.4,33.3,39.4c9.9,18.2,4.9,41.6-2.4,48.1
	c-4.6,4.1-7.1,4.9-7.1,4.9s10.1,14.4,11.5,25.2c1.4,10.8,8.9,30.4,8.9,30.4s27.7-29.4,30.2-47c3.8-26.6-8-53.8-22.5-70.5
	c-9.5-11-29.9-20.6-39.7-36.5c-4-6.4-6.6-14.3-6.6-14.3L385.4,311.7z"/>
<path class="st10" d="M379.6,386.6c0,0,6-1.8,14.4,0c13,2.8,24.8,15.7,24.8,15.7l-7.3,13.7c0,0-15.8-18.5-20.7-21.3
	C385.9,392,379.6,386.6,379.6,386.6z"/>
<path class="st10" d="M328.3,364.5c0,0,7.2-10.9,15.9-10.9c16,0,29.9,22.9,29.9,22.9l-5.3,4.7c0,0-20-0.2-28.1-1.9
	c-8-1.6-19.3,4.1-19.3,4.1L328.3,364.5z"/>
<path class="st10" d="M161,399.6c0,0,6.4,13.6,7.1,20.9c0.7,7.3-0.7,14.7,5.8,20.8c6.5,6,23.9,8.6,29.1,8.5c5.2-0.2,6.2-2.1,6.2-2.1
	s-21-0.2-26.6-7.1s-6.9-30.5-13.3-33.8C163,403.4,161,399.6,161,399.6z"/>
<path class="st10" d="M276.6,354.9c0,0-8.8,8.6-7.4,22c1.1,10.8,5.4,19.3,11.5,22.1c10.5,4.9,16.1,0,16.1,0s-10.9,1.4-15.2-3.8
	s-12.5-20.1-10.6-24.7C272.9,365.8,276.6,354.9,276.6,354.9z"/>
<polygon class="st10" points="340.8,283.8 349.5,301.4 353.3,299.3 385.4,311.7 360.1,324.8 351.5,324.8 340.9,301.8 "/>
<polygon class="st11" points="318.7,229.6 392.5,283.8 379.6,256.5 333.3,221.4 "/>
<polygon class="st11" points="328,243.6 397.1,293.6 399.6,299.7 331.1,250.9 "/>
<path class="st10" d="M392.5,283.8c0,0-2.8-24.3,16.5-34.5c6.4-3.3,15.9-5.1,12.3-6.8c-9.9-4.8-24.8,5.6-28.8,11.5
	c-5.2,7.7-5.5,17.6-5.5,17.6L392.5,283.8z"/>
<path class="st10" d="M464,449.4c0,0,3.7,5.2,4.3,11.8s-9.7,31.5-7.3,38c2.5,6.5,16.7,16.3,18.6,20.3c1.9,4-21.3-9.3-24.4-16.9
	c-3-7.5,0.5-20.7,3-27.6c2.1-5.9-1.9-14.3-1.9-14.3L464,449.4z"/>
<path class="st10" d="M193.1,213.9c0,0-9.2,2.2-8,10.1c1.2,7.9,12.4,26.9,17.1,25.4c4.8-1.5,4.8-1.5,4.8-1.5l-3.8,9.1
	c0,0-3.2,7.3,2.6,12.1c5.8,4.8,13-2.9,13-2.9s3.1,4.8,9.5,1.8c6.4-3,8-7.8,8-7.8s1,15.3,6.9,14.5s-8.3-56-8.3-56l6.5-8.1
	c0,0,5,31.9,10.6,34.6c7.6,3.6,11.4,3.9,11.4,3.9l-3.8-0.3c-2.2,4.2-4.7,3.8-4.8,8.5c-0.2,7.4,1.5,14.4,4.8,17.5
	c4.1,3.9,19.9,1.2,20.8,0c0,0-1.3,3.6,2.6,5.7c3.9,2.1,10.7,3.5,10.7,3.5s-25.9-0.7-36.2-0.3c-10.3,0.3-28.5,0.1-28.5,0.1l-49.9-9
	l-21.8-32c0,0,0.9-8,5.1-10.5c7.6-4.5,16.8-1.3,16.8-1.3s-3.3-10.8,3.6-13.8C187.2,215,193.1,213.9,193.1,213.9z"/>
<path class="st11" d="M311.1,287.8c0,0,8,4.4,10.3,6c2.2,1.6,0,13.5,0,13.5l11.9,5.8c0,0,2-8.6,2.3-12.6c0.2-4,0-7.3,0-7.3
	L311.1,287.8z"/>
<path class="st11" d="M160.2,256.9c-4.4,0.1,4.8,12.9,8.9,21.5c4.2,8.8,4.2,24.1,6.1,24.8s0-19.9-3.3-26.9
	C168.6,269.3,164.8,256.9,160.2,256.9z"/>
<ellipse transform="matrix(0.7681 -0.6403 0.6403 0.7681 -154.4239 149.2418)" class="st11" cx="128.9" cy="287.8" rx="5.3" ry="10.2"/>
<path class="st11" d="M327.5,385.8c0,0,42,0,68.6,34.7c26.9,35,17.8,87.1,22.7,96s15.9-41.5-3-83.3
	C393.5,384.2,342.8,377.6,327.5,385.8z"/>
<path class="st11" d="M107.8,349.9c-6.6,5,15.4,2,44.4,14.5c23.1,10,24.2,31.9,32.2,31.9c3.6,0-8.9-29.6-27.2-38
	C139,350,112.6,346.2,107.8,349.9z"/>
<ellipse class="st12" cx="232.4" cy="369" rx="9.6" ry="11.6"/>
<ellipse class="st12" cx="295.8" cy="368.3" rx="8.7" ry="11"/>
<path class="st10" d="M291.2,504.8c0,0,0.9,13.1,2.4,17.8s5.5,9.4,5.5,9.4l14.5-1.9c0,0-0.8-7.8,0-12.4c0.8-4.6,28-12.7,30.6-12.8
	c2.6,0,24.4,31,24.4,31s-12.2,10.3-17.9,7.9c-5.7-2.4-24.9-9.4-30.9-11.5s-23.2-0.2-28.4-0.4c-5.3-0.3-10-5.9-10-5.9l-4.7-15.6
	L291.2,504.8z"/>
<path class="st10" d="M291.9,553.8l27.7,5.4l7,5.4c0,0-0.9,19.6-14.5,20.8C294.4,587.1,291.9,553.8,291.9,553.8z"/>
<path class="st11" d="M352.4,484.3c0,0,10.5,12.6,16.1,24.9c5.6,12.4,8.6,20.2,8.6,20.2l5.6-7.2c0,0-3.7-16.1-8.7-23.2s-14-17-14-17
	L352.4,484.3z"/>
<g>
	<path class="st13" d="M498.5,521.8c-1.3-1.2-3.2-2.2-5.7-3.4c-6.3-3.2-15.7-8.1-19.5-19.4c-2.5-7.5,0-13,2.8-19.3
		c2.9-6.5,6.3-13.9,4.8-24.8c-1.4-10-7.9-17.7-10.4-20.4c1.4-4.6,2.4-9.3,2.7-14.3c3-58.1-27.7-84.7-46.1-100.6
		c-5.8-5-10.9-9.4-13.1-13.2c-8.5-14.6-8.9-42.2-0.7-47.7c5.3-3.5,10.4-1.3,12.3,1.3c0.3,0.4,0.9,1.4,0.3,1.8
		c-1.1,0.8-2.2,1.5-3.1,2c-2.5,1.6-5.3,3.3-3.7,7c0.8,1.8,3,3,6.1,3.2c4.4,0.4,11-1.4,14.8-7.6c3.3-5.4,3.3-12.2-0.1-18.3
		c-4.5-8.1-14-13-25.4-13c0,0,0,0,0,0c-20.8,0-28.4,16.3-31.1,25.4l-22-44.5c-2.1-4.3-7.2-6.2-11.6-4.5l-30.4,15.6
		c-5.6-7.7-12.3-14.6-20.2-20.1c-28.9-20.3-65.2-26.4-102-17.4c-28.1,6.9-60.1,24.9-64.4,48.3c-5.9,3.3-10.3,8.7-12.9,12.6
		c-8.8-23.1-23.1-60.1-25.7-63.9c-1.2-1.8-3-2.7-5.3-2.5l-9.3-25.6c3.4-2.2,5.7-6.1,5.7-10.5c0-6.9-5.6-12.5-12.5-12.5
		s-12.5,5.6-12.5,12.5c0,6.5,5,11.9,11.4,12.5l7.2,28.6c-2.1,1.9-3.8,4-4.5,5.6l-0.2,0.6l18.4,87.6l0.2,0c-4.5,8.1-6.4,19.1-5.8,33
		c0.6,13,3.5,24.7,4.8,29.4c-7.2,2-14.3,4.9-20.9,9.1c-23.1,14.4-30.3,34.6-32.4,49c-1.7,11.8-0.3,24,3.4,34.7
		c-9.1,3.7-32.2,15.8-31.4,43c0.5,17.8,14.6,23.6,28.2,29.2c6.6,2.7,13.5,5.6,18.4,9.7c10.4,8.9,10.4,14.2,10.4,19.3
		c0,1.9,0,3.9,0.6,5.9c0.8,2.9,2.1,6.3,4.8,6.9c0.2,0,0.5,0.1,0.7,0.1c2.2,0,3.9-2.1,4.5-2.9c2.6-3.3,9.3-31.1,0-43.4
		c-4-5.3-8.4-8.2-12-10.6c-4.4-2.9-7.3-4.8-7.9-9.3c-0.9-6.3,9.3-12,14.3-14.1c12.9,6,26.4,7.2,35.4,7.2c2.5,0,4.7-0.1,6.4-0.2
		c-7.5,11.2-12.4,23.4-11.3,35.8c2.4,25.5,10.3,43.2,24.1,53.9c10.7,8.3,24.8,12.5,42.6,12.5c7.2,0,14.9-0.7,23.4-2
		c57.1-9,69.1-31.7,69.1-49c0-34.9-27.2-40.2-27.4-40.3l0,0l-2-6.7c6.1-1.7,24.3-6.1,37.6-4c9.5,1.5,15.6,3.9,22.6,6.6
		c5.2,2,11.1,4.3,19.3,6.6c15.4,4.3,23.4,5.7,26,6.2c-2,0.8-5.3,2.2-11.4,4.9c-6,2.6-14.8,6.5-17.3,7.2c-1.2-1-4.1-4.3-5.7-6.2
		c-2.6-3-3.2-3.7-3.8-4c-2.6-1.4-20.1,6.1-23.3,8.7c-1.6,1.3-2.1,2.6-1.8,3.9c0.4,1.4,1.6,5.3,2.7,9.2c-1.1-0.8-2.6-1.1-4.9-0.2
		c-2.6,1-4.6,3.2-5.4,6.1c-1.5,5.1,0.3,12.1,4.5,17.7c2.6,3.5,8.3,6.2,15.6,8.4c1.5,6.1,8.6,31.6,19,33.5c0.9,0.2,1.9,0.3,2.8,0.3
		c10.2,0,18.3-10.7,20.3-16.7c0.4-1.3,0.7-2.5,0.9-3.5c5.4,3.8,12.1,7.6,26.8,7.6c1.7,0,3.6-0.1,5.5-0.2
		c31.1-1.7,68.5-35.6,72.1-78.5c0.4-5,0.5-9.8,0.4-14.6c2.5-1.9,8.9-7.1,15.9-14.8l0.8,1.6c0.7,1.5,0.1,3.6-1.2,7.2
		c-1.9,5.5-4.5,12.9-2.5,24.2c3.4,19.5,34.1,28.8,39.6,29.7c0.6,0.1,1.8,0.2,3.3,0.2c3.3,0,7.8-0.6,9.1-3.3
		C500.4,525.7,500.8,523.9,498.5,521.8z M453.9,456.7c-0.7-6-3.5-19.7-15-30.1c-8.3-7.5-19.5-11.2-23.3-12.3
		c3.4-3.6,9.8-11.7,10.1-22.2c2.2-0.7,11.6-3.4,20.6-2c11.9,1.8,19.7,8.8,22.6,11.9c0.4,5.6,0.5,11.6,0.2,18
		C468.3,433.9,461.5,446.7,453.9,456.7z M430.8,489.3c-2.8-2.4-7.8-5.6-15.2-6.7c-13-1.9-22.1,3.6-24.8,5.5c-0.4-5-1.3-9.8-2.9-14.2
		c-1.6-4.6-4.3-9.2-7.5-13.7c1.5-3.3,7-12.5,22.5-15.6c10.9-2.2,18.9,0.8,21.9,2.2C429,459.7,431.3,474,430.8,489.3z M383.2,515.2
		c-1.3-3.3-3.1-7.8-4.9-11.3c-1-2.1-2.8-5.3-4.8-8.6c1.1,0,2.4-0.1,3.9-0.3c3.5-0.4,7-1.4,9.4-2.1
		C386.9,500.4,385.6,508.2,383.2,515.2z M342.6,489c2.5-2,14.8-6.8,17.4-5.9c0.4,0.5,1,1.1,1.6,1.8c-0.2,0.7-0.6,1.3-1.4,1.8
		c-3.6,2.6-12.3,6-15.1,5.6l-2.5-3.1C342.6,489.1,342.6,489,342.6,489z M362.9,480c-1.1-1.1-3-1.4-5.8-1c-3.5,0.6-9.7,2.7-13.9,4.9
		c-0.3-3.4-1.1-13.9,1.5-22.6c3.3-11.1,7.5-17.6,9.9-20.7c7.7,6.1,15.4,13.2,21.3,20.7c-0.5,2.9-0.9,7.8-0.8,14.6
		c0.1,5.7,0.8,11.9,1.2,15c-2.4,0.3-4.2,0.2-5.3,0.2C367.9,486.3,364.8,481.8,362.9,480z M383.9,475.3c1.4,4,2.3,8.5,2.7,13.2
		c-1.9,0.6-5.5,1.6-9,2.1c-0.4-3.1-1-9.2-1.1-14.9c-0.1-5.6,0.2-10,0.6-12.9C380,466.9,382.4,471.1,383.9,475.3z M402.6,443.3
		c-15.3,3.1-21.2,11.6-23.2,15.6c-7.1-9.3-16.9-17.8-26.1-24.8c1.3-4.7,6.4-17.6,22.7-24.5c15.4-6.5,25-1.7,28.7,1
		c8,9.6,14.7,21.2,19.4,34.4C420.3,443.5,412.7,441.3,402.6,443.3z M310,450.1c6.5-17.2,15.7-25.3,18.4-27.4
		c0.7,0.4,1.5,0.9,2.4,1.4c-3.7,3.1-12.2,11.5-18.5,28c-4.4,11.6-4.4,27.4-4.2,34.4c-0.7-0.2-1.4-0.4-2.1-0.7
		C305.8,481.1,305.2,462.7,310,450.1z M253.3,372.4c-0.1-1.7-0.3-3.4-0.7-5c0.9-0.3,4.8-1.5,9.2-1.5c4.1,0,7.2,0.6,9,1
		c-0.3,1.7-0.5,3.4-0.6,5.1c-1.7-0.5-4.4-0.8-8.8-0.7C258.6,371.4,255.2,372,253.3,372.4z M228.3,345.5c-10.7,0-19.8,7.6-23.4,18.4
		l-24.2,5.9c-0.6-0.9-1.2-1.7-1.9-2.6c0.8-3.1,4.4-16.6,6.1-34c12.6-6.6,42.7-22,46.3-22.8c4.4-1,39.3-2.3,65.5,0
		c24.2,2.1,37,12,40.6,15.2c-2.4,12-7.1,26.5-11.9,40.2l-11-2.6c-3.3-10.3-11.6-17.7-21.3-17.7c-10,0-18.5,7.8-21.6,18.6
		c-1.9-0.5-5.2-1.1-9.4-1.1c-0.1,0-0.2,0-0.3,0c-4.6,0-8.6,1.2-9.9,1.6C248.5,353.5,239.2,345.5,228.3,345.5z M250.6,374.1
		c0,14.2-10,25.8-22.3,25.8S206,388.3,206,374.1c0-14.2,10-25.8,22.3-25.8S250.6,359.9,250.6,374.1z M203.9,380.8h-10.2l-1.4-10.9
		L204,367c-0.5,2.3-0.8,4.7-0.8,7.1C203.2,376.4,203.5,378.7,203.9,380.8z M189.3,442c-0.1-1.9,0-4.6,1.4-6.5
		c1.2-1.6,3.1-2.2,4.7-2.4c2.2,2.2,4.8,3.7,7.1,5.1c3.2,1.9,5.9,3.5,6.6,6c0.4,1.3,0.2,1.8,0.1,1.9c-0.3,0.3-1.9,0.6-5-0.3
		c-0.5-0.1-1.3-0.3-2.5-0.5C199.1,444.7,193.9,443.7,189.3,442z M189.6,434.7c-1.4,2-1.7,4.7-1.7,6.7c-2.9-1.3-5.5-2.9-6.7-5
		c-1.4-2.4-2.1-5.8-2.9-9.8c-0.1-0.7-0.3-1.4-0.4-2.1c1.1-1.5,3.4-4.5,6-5.2c3.3-0.9,5.7-0.1,6.8,0.4c0.2,4.2,0.6,7.3,1.8,9.6
		c0.5,0.9,1.1,1.8,1.8,2.5C192.6,432.2,190.8,433,189.6,434.7z M183.5,418c-2.5,0.7-4.7,3-6,4.7c-1.2-5.5-3.1-11.6-7.2-17.3
		c1.2-2.1,3.5-5.4,7.1-7.3c3.7-1.9,8.2-1.9,10.7-1.8c1.8,7.8,2.2,14.8,2.4,20.4c0,0.5,0,1,0.1,1.5
		C189.1,417.6,186.6,417.1,183.5,418z M176.7,396.8c-3.7,1.9-6.1,5.1-7.4,7.3c-1-1.3-2.2-2.6-3.5-3.8c-3.5-3.3-8.3-6.3-13.9-8.8
		c-0.1-2.5-0.1-11.8,6.2-19.3c4.4-5.2,10.6-6.1,14-6.2c1.2,1.2,2.3,2.4,3.2,3.6c6.7,8.7,10.3,17.3,12.3,25.2
		C185,394.7,180.5,394.9,176.7,396.8z M183.5,451.6c7.4,7,10.2,12.9,11.2,15.8l-2,0.6c-1.1-2.8-4.4-9.4-13.8-16.8
		c-9.3-7.3-16.9-8.8-22.1-8.6c0.7-0.5,1.4-1,2-1.5C161.8,440.6,171.3,440,183.5,451.6z M247.9,552.7c-6.6,6.5-16.6,11.9-29.6,16
		c-1.8-3.7-5.7-12.6-6.9-19c-1.2-6.3-0.1-14.9,0.5-18.7c0,0,0,0,0,0c9.4-1.8,16.2-5.1,21-8.3c1.2,0.4,8.3,3.4,11.3,10.5
		C247.8,541.7,247.9,550.4,247.9,552.7z M211.1,526.9c-7.8,1.5-15.8,1.5-23,0.5L178,488.6c-0.1-1-0.4-2.3-1-3.9l-0.9-3.5
		c-0.6-2.5,0.8-5,3.2-5.8l39.2-12.7c1.2-0.4,2.6-0.3,3.7,0.3c1.2,0.6,2,1.6,2.4,2.8l14,46C237.1,513.9,229.5,523.4,211.1,526.9z
		 M163.6,514.9c-0.7-2.1-0.5-4.1,0.5-5.9c3.2-5.9,13.6-8.7,13.7-8.7c0.1,0,0.2-0.1,0.3-0.1l6.9,26.8
		C173.9,524.7,165.3,520,163.6,514.9z M132.6,441.8c-1.8-13-6.5-22-7.6-24c1.1-0.3,2-0.6,2.7-0.9c3.8-1.5,6.4-3.2,8-4.6
		c2.2,1,4.6,1.6,6.9,1.6c1.1,0,2.3-0.1,3.5-0.4c0.2-0.1,0.4-0.1,0.7-0.2c1.4,2.1,4.4,6.6,5.8,9.7c2.3,5.1,3.5,11.7,3.9,14.5
		c-6.7,4.8-15.6,11.7-24.3,20.1C132.9,453.4,133.4,447.4,132.6,441.8z M56.1,454.7c-5.3-5.9-9.3-13.7-11.7-22.3
		c6.5-0.8,22.3-3,30.5-6.7c7.6-3.4,13.7-10.9,16.6-14.8c0.3,0.8,0.7,1.5,1.2,2c3,3.4,7,5.3,11.2,6.2c-0.5,5.1-2,19.5-6.1,28.3
		c-4.6,10.1-14,20.1-16.9,23.1C72.2,467.6,63.3,462.7,56.1,454.7z M131.6,347.7c-2.3,2.5-6.9,8.4-8.1,16.2c-1.4,9,0.7,17.1,2,20.9
		c-7.1-0.6-14,0-19.8,2.1c-1,0.4-1.9,0.8-2.8,1.2c-2.5-2.1-9-8.3-12.4-19.7c-2.8-9.6,0.7-16.6,2.2-18.9
		C105.6,345.8,119.1,345.6,131.6,347.7z M170.7,364.7c-3.7,0.3-9.4,1.7-13.6,6.7c-6.2,7.3-6.7,16.1-6.6,19.5
		c-7.2-3-15.4-5.2-23.5-6.1c-1.2-3.3-3.6-11.6-2.2-20.8c1.3-8.1,6.6-14.3,8.3-16.1C148.6,350.8,162.2,357.1,170.7,364.7z
		 M107.1,390.8c2.5-0.9,5.3-1.5,8.2-1.8c0.4,1,1,2.2,1.6,3.4c-2.8,0-6.7,0.7-11,2.9c-5.5,2.9-8.9,6.6-10.9,9.7
		c0.1-0.8,0.2-1.6,0.4-2.4C96.2,399.5,98.8,393.8,107.1,390.8z M96.7,410.9c0.9-2.2,3.5-7.4,10.3-11.3c1.8,1.1,5.7,3.9,8,8.7
		c0.9,1.8,2,5.3,2.5,7C110.3,416.3,101.8,415.8,96.7,410.9z M118.8,415c-0.5-1.6-1.6-5.4-2.6-7.3c-2.2-4.6-5.7-7.4-7.8-8.8
		c5.4-2.7,9.6-2.3,11.2-2.1c3.1,4.8,7.4,9.9,12.3,13.3c-1.4,0.9-3.2,2-5.6,2.9C124.4,413.8,121.7,414.5,118.8,415z M173.4,478.4
		c-2.4-3.1-5.9-6.7-11.1-10.5c-11.1-8.2-20.5-9-25.4-8.6c5.1-4.8,10.3-9.2,15-12.8c2.9-1.1,12.3-3.4,25.4,7
		c8.8,6.9,11.9,13,12.9,15.5l-11.6,3.8C175.8,473.6,173.9,475.8,173.4,478.4z M135.1,460.9c3.8-0.6,14-1,26.3,8.1
		c5.9,4.4,9.6,8.3,11.8,11.6c0,0.4,0.1,0.9,0.2,1.3l3.7,14.2c-0.1,0-0.2,0-0.4,0.1c-0.4,0.1-7.4,2-12.5,6.2
		c-2.5-4.6-9.3-13.7-24.3-18.8c-9.4-3.2-18.2-1.8-23.7-0.2C121.4,475.3,128.1,467.6,135.1,460.9z M159.1,435.7
		c-0.6-3.4-1.8-9.1-3.9-13.9c-1.4-3.1-4.1-7.3-5.7-9.6c0.5-0.3,1.1-0.6,1.6-0.9c1.6,2.3,3.9,5.6,5,8.1c2.7,5.7,4.1,13.2,4.5,15.3
		C160.1,435,159.6,435.4,159.1,435.7z M145.2,409.4c-10.3,2.5-21.5-12.5-25.4-20.7c12.9-0.1,27.8,4.3,37.5,10.4
		C154.9,402.6,150,408.3,145.2,409.4z M182.4,372.3l5.8-1.4l1.3,9.9h-2.4C185.8,378,184.2,375.2,182.4,372.3z M182.2,271.2
		c0.1,0.3,0.4,0.4,0.7,0.4c0.1,0,0.2,0,0.3,0c0.3-0.1,6.4-2.5,7.7-6c0.6-1.6-0.8-4.2-2.1-6c-2.7-3.8-8.1-8.9-11.3-8.9c0,0,0,0,0,0
		c-3.5,0-7.2,2.2-8.5,3.1c-2.9-4.5-6.1-8.5-9.6-11.6l0.7-0.1c-0.1-0.6-0.9-5.5,4.4-8c6.3-2.9,12.5-1.7,12.6-1.7l2.4,0.5
		c3,3.6,16.9,20.1,22.2,20.4c0,0,0.1,0,0.1,0c2.3,0,6.3-3.7,6.8-4.9c0.5-1.3-4.3-11.4-7.2-15.5c-1.5-2.2-2.7-3.2-3.7-3.2
		c-1.7,0-3.4,1-4.5,2.7c-1.2,2-1.3,4.6,0,7.1c2.5,5,5.4,6.2,5.5,6.2c0.4,0.1,0.8,0,0.9-0.4c0.1-0.4,0-0.8-0.4-0.9
		c0,0-2.5-1.1-4.8-5.6c-1-2-1-4.1,0-5.7c0.8-1.2,2-2.1,3.3-2.1c2.1,0,9.2,14.4,9.5,16.9c-0.5,0.9-3.9,4-5.4,4c0,0,0,0-0.1,0
		c-4-0.2-15.9-13.5-20.9-19.6l-1.5-2.9c-0.1-0.2-2.4-4.9,4.6-11c9.6-8.4,23.2-3.4,23.3-3.3l0.9,0.3c-1,4.9-2.4,15.7,2.2,19.5
		c3.6,3,8.5,4.9,12.7,4.9c2.3,0,4.4-0.6,5.9-2c4-3.7,0.5-11.7,0.4-12l-0.2-0.3l-10.9-1.9c-0.4-0.1-0.7,0.2-0.8,0.6
		c-0.1,0.4,0.2,0.7,0.6,0.8l10.2,1.8c0.6,1.5,2.7,7.4-0.2,10.1c-3.3,3.1-11.1,1.7-16.7-3c-4.6-3.8-2-16.7-1.3-19.8
		c0.3-0.6,2.7-4.3,9.2-4c8.5,0.5,13.5,8.3,13.5,8.3l0.7,1.1l0.2,0c1.9,3.5,5.9,11.3,8,19.8c0.5,2,1,4.7,1.6,7.7
		c-1.3-1.4-3.3-2.8-6.5-3.3c-6.6-1-11-0.6-13.4,1.3c-1.3,1.1-2,2.5-2.1,4.4c-0.1,0.9-0.4,2.5-0.9,4.2c-1.5,5.9-3.7,14.7,2.8,16.5
		c2.1,0.6,4.1,0.8,5.9,0.8c2.5,0,4.5-0.6,5.8-1.7c1.3-1.1,1.8-2.6,1.6-4.4c-0.1-1.3,0-3,0.2-4.7c0.3-3.1,0.6-6-0.8-7.5
		c-0.6-0.7-1.6-1-2.7-0.9c-5.2,0.3-5.8,1.8-5.8,2.4c0,0.4,0.3,0.8,0.7,0.8c0.4,0,0.7-0.2,0.7-0.6c0,0,0.5-0.9,4.5-1.1
		c0.7,0,1.3,0.1,1.6,0.5c1,1,0.7,3.7,0.4,6.4c-0.2,1.7-0.4,3.5-0.2,5c0.1,1.4-0.3,2.4-1.2,3.2c-1.9,1.6-5.7,1.8-10.4,0.5
		c-4.8-1.3-3.6-7.7-1.8-14.8c0.5-1.8,0.9-3.4,0.9-4.5c0.1-1.5,0.6-2.6,1.6-3.4c2.1-1.7,6.2-2,12.3-1.1c5,0.8,6.8,4,7.4,5.6
		c2.2,12,4.7,27.2,5.4,31.5c-9.9,0.1-17.3,0.3-18.7,0.4c-1.9-0.3-22.2-4-27.4-5c-7.5-1.5-17.1-2.6-23.9-2.8
		c-2.5-6.8-5.7-13.6-9.5-19.6c1.2-0.8,4.6-2.9,7.8-2.9c0,0,0,0,0,0c2.2,0,7,4,10.1,8.4c1.8,2.5,2.2,4.1,2,4.7
		c-0.9,2.4-5.2,4.6-6.8,5.2C182.3,270.5,182.1,270.9,182.2,271.2z M257.1,214l1,2.1c1,2.6,2.3,7,2.3,11.9c0,3.5-2.4,5.9-4.6,6.6
		c-1.5,0.5-2.7,0.2-3.4-0.7c-0.4-0.5-0.9-1.2-1.4-1.8c-1.6-1.9-3.7-4.4-3.3-6.2c0.1-0.8,0.7-1.4,1.7-2c2.8-1.5,3.9-1.9,4.3-2
		c0.1,0,0.1,0.1,0.2,0.1c0.4,0.1,0.8-0.1,0.9-0.5l0.1-0.5l-0.4-0.3c-0.4-0.3-0.9-0.7-5.7,2c-1.4,0.8-2.2,1.7-2.4,2.9
		c-0.5,2.5,1.8,5.2,3.6,7.3c0.5,0.6,1,1.2,1.4,1.7c0.7,1,1.8,1.5,3.1,1.5c0.6,0,1.2-0.1,1.8-0.3c2.7-0.9,5.5-3.7,5.5-7.9
		c0-5.2-1.3-9.7-2.4-12.4l1-1c0.2-0.2,4.1-3.8,10.6-2.3c10.6,2.5,12,11,12.1,11.3l0.2,1c-4.4,1-11.8,3.4-12.4,8.4
		c-0.2,1.5-0.4,2.7-0.6,3.8c-0.7,3.7-1.1,5.9,2.4,7.7c1.8,1,4.4,1.6,6.7,1.6c1.6,0,3-0.3,3.9-0.9c1-0.7,1.4-1.6,1.2-2.8
		c-0.4-3.7-0.4-8-0.4-8.1c0-0.4-0.3-0.7-0.7-0.7c-0.4,0-0.7,0.3-0.7,0.7c0,0,0,4.5,0.5,8.2c0.1,0.6-0.1,1.1-0.6,1.4
		c-1.7,1.2-6.3,0.8-9.2-0.7c-2.5-1.4-2.3-2.6-1.7-6.2c0.2-1.1,0.4-2.4,0.6-3.9c0.7-5.9,14.3-7.8,14.5-7.8c0.1,0,0.2-0.1,0.3-0.2
		c1.8,0,5.5,0.6,10.6,4c8.7,5.9,5.9,19.2,5.9,19.3l-0.4,1.9c-2.7,2.9-6.9,8.5-4.9,13.3c0.9,2.2,1.5,4.4,2.1,6.4
		c0.9,3.3,1.6,5.7,2.9,6.4c0.2,0.1,0.5,0.2,0.8,0.2c0.2,0,0.5-0.1,0.7-0.1c0.8-0.3,1.8-0.6,2.9-1c3.2-1,5.4-1.8,6.2-2.8
		c1.1-1.5-2.2-8.1-5.1-13.4c-0.2-0.3-0.6-0.5-1-0.3c-0.3,0.2-0.5,0.6-0.3,1c2.8,5,5.5,10.9,5.2,11.9c-0.6,0.8-3.4,1.7-5.5,2.4
		c-1.1,0.4-2.1,0.7-3,1c-0.2,0.1-0.3,0.1-0.4,0c-0.8-0.4-1.5-3-2.2-5.5c-0.6-2-1.2-4.4-2.1-6.6c-1.4-3.5,1.3-7.8,3.6-10.6l3.5-1.8
		c0,0,5-2.5,10.2,4.5c6.2,8.3,4,22.1,3.9,22.2l-0.4,2.4l2.5,0c0,0,3.8,0.1,4.1,2.6c0.3,2.5,0.2,5.2,0.1,7
		c-4.9-1.8-10.9-3.7-17.9-5.1c-11.6-2.3-35.9-2.7-54.5-2.6c-0.5-2.7-1.9-10.4-3.6-19c0.1-0.1,0.2-0.3,0.2-0.5c0-3.7,1-13.3,5.8-13.8
		c5.3-0.6,13.6,1,16.7,3.9c0.9,0.8,1.3,1.7,1.3,2.6c0,1.1,0,2.4,0,3.8c0.1,4.7,0.3,12.5-2.2,12.7c-2.8,0.2-7.5-1.1-9.7-3.2
		c-0.9-0.8-1.3-1.7-1.3-2.6c0-3.8,2-8.4,2-8.5c0.2-0.4,0-0.8-0.4-0.9c-0.4-0.2-0.8,0-0.9,0.4c-0.1,0.2-2.1,5-2.1,9
		c0,1.3,0.6,2.6,1.8,3.7c2.6,2.4,7.4,3.6,10.2,3.6c0.2,0,0.4,0,0.5,0c3.8-0.2,3.6-7.6,3.5-14.1c0-1.4-0.1-2.7,0-3.7
		c0-1.3-0.6-2.6-1.8-3.7c-3.8-3.5-13-4.8-17.8-4.3c-4.6,0.5-6.2,6.5-6.8,10.8c-1.1-5.5-2.2-11.1-3.1-15.9
		c-2.7-13.6-5.8-23.1-6.5-25.3l-0.2-0.8c0-0.2-1.1-4.5,4.3-6.4C253.2,206.8,256.8,213.2,257.1,214z M326,237.5l24.9-12.6
		c0.4-0.2,0.7-0.2,1.1-0.1c0.4,0.1,0.7,0.4,0.8,0.7l29.2,55.6c0.2,0.4,0.2,0.8,0.1,1.1c-0.1,0.4-0.4,0.7-0.8,0.8l-29.8,15.6
		c-0.4,0.2-0.8,0.2-1.1,0.1c-0.4-0.1-0.7-0.4-0.9-0.8l-8.3-16.4C338.8,265.8,333.9,251.4,326,237.5z M349.8,323.4l0.1,0.1
		c1.7,2.7,4.7,4.3,7.8,4.3c1.5,0,3-0.4,4.3-1.1l17.9-9.7c0.5,4.1,2.3,12.3,9.2,20.3c1.8,2.1,4.1,4.3,6.4,6.7
		c9.2,9.2,21.5,21.5,25.1,40.5c-5-3-14.4-7.8-25.5-10.2c-1.7-0.4-3.4-0.6-5-0.7c-2.2-4.7-11.2-21.8-26.7-28.8
		c-11.5-5.2-21.9-0.6-28,3.6c3.7-12,6.6-23.5,7.3-32.5c0.1-1.7,0.2-3.5,0.3-5.2L349.8,323.4z M468.7,399.8
		c-3.7-3.5-11.2-9.4-22.2-11.1c-8.9-1.4-17.9,1-20.8,1.9c0-0.7-0.1-1.4-0.1-2.1c-1.1-9.9-4.3-18.2-8.5-25.2c2-2.7,7.2-8.6,16.4-9.7
		c11.1-1.2,20.8,3.6,22.4,4.5C462.2,369.2,467,382.7,468.7,399.8z M373.7,381.5c3.6-2.2,10.6-5.2,20.6-3c4.7,1,9.2,2.6,13.1,4.2
		c-1.8,1.2-4.6,3.4-6.6,6.5c-1.7,2.7-2.3,6.1-2.5,8.7C390.5,390.7,382.2,385.1,373.7,381.5z M345.4,376.5c0.2-3.4,1-10.7,4.3-16.1
		c4.7-7.8,12.1-9.7,15.4-10.1c10.6,6.3,17.5,17.8,20.3,23.2c-8.7,0.5-14.3,4.3-16.5,6.1C361.2,377,352.9,376.3,345.4,376.5z
		 M333.2,355.6c2-2,14.4-13.4,28.6-7c0.5,0.2,0.9,0.4,1.4,0.7c-4,0.9-10.4,3.3-14.7,10.4c-3.5,5.8-4.3,13.3-4.5,16.8
		c-8.1,0.3-15.1,1.6-18.9,2.5C327.7,371.6,330.6,363.6,333.2,355.6z M338.6,315.6c-0.1,2.1-0.4,4.4-0.8,6.8
		c-5.1-4.2-18-12.8-40.9-14.8c-17.8-1.6-39.6-1.5-53.4-1V285c18.4-0.3,51.4-0.4,65.2,2.4c15.7,3.1,26.5,8.7,30.1,10.7
		C339,304.1,339,310,338.6,315.6z M232.2,307.4l-0.4-22.2c1.7,0,4.8-0.1,8.9-0.2v21.7C236.9,306.9,234,307.1,232.2,307.4z
		 M239.6,218.7c1.1,3.5,3.7,12.1,6.1,23.9c2.7,13.5,6.6,34.2,7.6,39.4c-0.9,0-1.9,0-2.7,0c-0.6-3.9-3-18.5-5.2-30.5
		c0-0.1,0.1-0.2,0-0.3c0,0-0.1-0.4-0.3-1c-0.9-4.5-1.7-8.6-2.4-11.4c-2-8.3-5.8-15.9-7.8-19.6L239.6,218.7z M202.4,280.2
		c4.8,1,21.9,4.1,26.5,4.9l0.4,23c-6.9,2.6-34.9,17-44.3,21.9c0.9-11.2,1-23.6-0.9-35.8c-0.8-5.1-2.2-10.8-4.2-16.6
		C186.7,277.7,195.4,278.7,202.4,280.2z M270.2,374.2c0,0.2,0,0.4,0,0.6C270.2,374.6,270.2,374.4,270.2,374.2z M273,374.2
		c0-0.4,0-0.7,0-1.1c0-13.6,9-24.7,20-24.7s20,11.1,20,24.7c0,13.6-9,24.7-20,24.7c-10.5,0-19.2-10.1-19.9-22.9l0.2-0.2L273,374.2z
		 M315.1,366.3l9.3,2.2c-1,2.9-2.1,5.8-3.1,8.6l-5.9,1.1c0.3-1.7,0.4-3.4,0.4-5.2C315.8,370.8,315.5,368.5,315.1,366.3z
		 M323.4,383.8c2.3-0.6,16.1-4,30.7-2.8c-4.9,1.2-10.8,3.3-15.3,7.3c-11.8,10.7-13.7,22.4-14,27.6c-4.2-2.1-8.5-4.7-9.5-5.8
		C315.1,407.1,319.1,395.6,323.4,383.8z M326.5,416.7c-0.1,0-0.2-0.1-0.3-0.1c0.1-4.6,1.5-16.4,13.5-27.3c5.6-5,13.8-7,19.1-7.8
		c3.4,0.5,6.7,1.3,9.9,2.5c11.6,4.3,23.2,12.4,33.2,23.4c-5.2-2.4-14.1-4.3-26.5,0.9c-16.2,6.9-21.7,19.6-23.3,24.9
		C339.1,423.7,327.6,417.3,326.5,416.7z M411.4,412.5c-3.7-4.9-7.7-9.4-11.9-13.4c0.1-2.5,0.6-6.4,2.3-9.2c2.1-3.3,5.4-5.6,7-6.6
		c6.2,2.7,10.7,5.5,12.5,6.7C422.1,401.2,413.7,410.3,411.4,412.5z M454.6,356c-3.8-1.7-11.9-4.7-21.3-3.7c-9.3,1-14.7,6.7-17,9.8
		c-5.2-8.3-11.5-14.8-17-20.3c0.8-3.6,3.3-11.5,10.5-15.5c6.3-3.5,14-1.7,18.7,0C437,333.8,446.7,343.1,454.6,356z M410.4,308.5
		c2.6,4.4,7.6,8.8,14,14.3c0.4,0.4,0.9,0.8,1.3,1.2c-4.8-1.3-11.1-1.9-16.6,1.2c-7.2,4-9.9,11.4-11,15.5c-2.2-2.2-4.2-4.2-5.8-6.1
		c-7.5-8.6-8.3-17.7-8.3-19.7l12.9-7c4.4-2.4,6.1-7.7,3.9-12.2l-6.6-13.2c3.7,0.2,7.4,2.2,9.5,3.6
		C404.6,294.4,406.9,302.6,410.4,308.5z M436.3,250.2c2.6,4.7,2.7,10,0.2,14.1c-2.9,4.7-7.4,5.5-9.2,5.6c-2.5,0.2-4-0.5-4.1-0.7
		c-0.1-0.2-0.1-0.2-0.1-0.3c0.2-0.3,1.3-1,2.2-1.6c0.9-0.6,2.1-1.3,3.3-2.2c2.4-1.7,2.6-4.8,0.7-7.7c-1.1-1.6-3-3.1-5.3-4
		c0.8-0.6,1.7-1.8,2.7-3.8c1.1-2.4,0.5-5.6-0.3-8.2C430.6,243.4,434.1,246.3,436.3,250.2z M414.5,239.3
		C414.5,239.3,414.5,239.3,414.5,239.3c3.6,0,6.9,0.5,9.8,1.5c1,2.5,1.9,5.9,0.8,8.2c-1.8,3.7-3.1,3.8-3.1,3.8l0,0.1
		c-3.2-0.8-7.1-0.4-11,2.2c-1.2,0.8-2.2,1.9-3.1,3.2c-1.2-2.5-3.3-6.1-6.5-8.1c-2.5-1.6-5.1-2-7.1-2
		C398.5,243.3,404.9,239.3,414.5,239.3z M393.1,249.7c1.9-0.2,4.8,0,7.6,1.7c3.3,2.1,5.4,6.2,6.4,8.4c-3.2,5.8-4.3,15.1-3.5,24.5
		c-2.4-1.5-6.1-3.3-9.9-3.3v0.2l-7.3-14.8C386.6,264.3,388.1,256.4,393.1,249.7z M351.4,215.5c2.4-0.9,5.1,0.2,6.2,2.5l39.4,79.6
		c1.2,2.4,0.3,5.3-2.1,6.6L360,323c-2.3,1.2-5.1,0.5-6.5-1.7L343,301.7c-0.1-3.5-0.3-8.4-0.7-11.9l2.9,4.9c1.3,2.1,3.2,6.4,4.3,6.8
		c0.5,0.2,1,0.3,1.5,0.3c0.6,0,1.3-0.1,1.8-0.4l29.8-15.6c1-0.5,1.8-1.4,2.2-2.5c0.4-1.1,0.3-2.3-0.2-3.3l-29.2-55.6
		c-0.5-1-1.4-1.8-2.5-2.1c-1.1-0.4-2.2-0.3-3.3,0.2L324.6,235c-0.9-1.5-1.8-3-2.8-4.4L351.4,215.5z M198.1,193.7
		c35.6-8.7,70.7-2.8,98.6,16.8c26.4,18.5,39.3,52.7,41.8,84.2c-1.7-0.9-4.2-2.1-7.3-3.5c0.1-1.6,0.3-5.5-0.1-9
		c-0.4-3.7-3.4-5.4-5.9-6c0.4-4.6,0.7-15.6-5-23.3c-4.1-5.5-8.7-6.8-12-6.6c0.4-5.1,0.1-15-8.1-20.5c-6.1-4.1-10.6-4.8-13.2-4.8
		c-1.1-3.5-4.6-10.5-14.8-12.9c-5.8-1.4-10.1,0.4-12.5,1.9c-2.7-3.4-8.2-7-16.4-4.2c-5.5,1.9-7.1,6-7.2,9l-0.7,0.1
		c-1.9-2.6-7.4-8.8-16.1-9.2c-6.8-0.4-10.5,2.8-12.2,4.8c-4.3-1.2-16.5-3.7-26,4.6c-5.8,5-6.7,9.7-6.5,12.8c-2.9-0.1-7.4,0.2-12,2.4
		c-4.7,2.2-6.4,6-6.8,9.2c-3.1-2.1-6.3-3.6-9.6-4.1c-3.1-0.5-5.9-0.2-8.6,0.6C143.4,215.7,172.4,200,198.1,193.7z M145.5,239.5
		c16.6,2.5,31.3,33.9,34.6,55.2c4.3,28.4-2.2,58.8-4.7,68.7c-6.3-6.4-15.7-12-26.8-15.8c1.8-4.8,4.6-17.2,0.5-42.9
		c-2.7-16.8-9.8-29.5-19.5-34.8c-1.1-0.6-2.1-1.1-3.2-1.5l0.2-0.1c-0.7-1.7-2.5-6.5-4.9-12.9C124.4,250.8,133.3,237.6,145.5,239.5z
		 M62.9,148c0-5.4,4.4-9.7,9.7-9.7c5.4,0,9.7,4.4,9.7,9.7c0,5.4-4.4,9.7-9.7,9.7C67.3,157.7,62.9,153.4,62.9,148z M74.4,160.4
		c0.9-0.1,1.8-0.3,2.6-0.7l9,24.9c-1.6,0.6-3.3,1.5-4.9,2.6L74.4,160.4z M78.5,195.8c1.5-2.7,6.9-7.2,10.4-7.5
		c1.1-0.1,1.6,0.3,1.8,0.7c2.1,3.1,15.4,37.3,26.4,66.2c0,0,0,0,0,0l0,0c1.6,4.2,3.2,8.3,4.6,12.2c-4.7-0.6-9.7,0.2-15,2.5
		c-4.4,1.9-8,4.7-11,8.3L78.5,195.8z M91,315.6c-1-22.7,4.7-36.4,17.4-42c7.1-3.1,13.6-3.1,19.2-0.1c8.6,4.7,14.9,16.3,17.4,31.8
		c4.1,25.6,1,37.2-0.4,40.9c-14.8-4.5-32.2-5.8-48.9-2.1C94.5,339.8,91.5,328.3,91,315.6z M72.9,357.9c5.6-3.5,11.7-6.1,17.8-8
		c-1.7,3.3-4.2,10-1.6,18.8c3.3,11.3,9.4,17.5,12.4,20.1c-5.2,2.9-7.9,6.9-9.3,10.1c-4.6,0-16.4-0.7-24.9-6.1
		c-8.8-5.5-12.6-13.3-13.9-16.9C58.1,369.5,64.3,363.2,72.9,357.9z M42.5,403.9c1.1-7.8,3.8-17.3,10-26.6c1.6,4,5.6,11.3,14.1,16.7
		c8.6,5.4,20,6.2,25.1,6.3c-0.2,0.5-0.3,0.9-0.4,1.3c-0.7,2.6-0.8,5.3-0.3,7.6c-2.4,3.4-8.8,11.8-16.7,15.3c-8,3.6-24,5.9-30.3,6.6
		C41.8,422.4,41.2,413,42.5,403.9z M74.6,546.5c-0.5,0.7-0.9,1-1.1,1.2c-0.3-0.4-0.8-1.3-1.5-3.7c-0.4-1.5-0.4-3-0.4-4.8
		c0-4.5-0.1-10-6.9-17.6l0.4,0c0-0.2,0.1-3.9,4.9-6.8c2.4-1.5,5.4-1.5,7.2-1.3C80.7,525.3,76.4,544.1,74.6,546.5z M63.6,498.6
		c3.5,2.3,7.4,4.9,11,9.6c0.9,1.1,1.5,2.5,2.1,3.9c-2.1-0.2-5,0-7.5,1.5c-4,2.4-5.1,5.5-5.4,7c-1.2-1.2-2.5-2.5-4.1-3.9
		c-5.4-4.6-12.6-7.6-19.5-10.4c-3.6-1.5-7.1-3-10.4-4.6c1.4-2.7,4.5-7.6,10.2-9.4c7.4-2.4,12.8-1.4,16-0.3
		C57.8,494.8,60.7,496.7,63.6,498.6z M53.8,486.4c0.2,1.4,0.6,2.7,1.1,3.8c-3.5-1-8.6-1.4-15.4,0.8c-6.2,2-9.6,7.2-11,10.1
		c-7.8-4.2-13.7-9.8-13.9-20.2c-0.2-5.7,0.8-10.7,2.5-15l0.1,0.1c0-0.1,4.2-5.6,15.7-4.2c15.8,1.9,23.3,11.4,25.1,14.2
		C55.2,478.8,53.3,482.3,53.8,486.4z M59.1,475c-2.2-3.3-10-12.7-26-14.6c-7.7-0.9-12.3,1-14.8,2.7c6.3-12.6,18.9-18.9,24.9-21.2
		c2.5,5.9,5.7,11.3,9.7,15.7c4.4,4.9,9.5,8.8,14.7,11.7C65.1,470.6,61.8,472.5,59.1,475z M82.4,471c3.4-3.5,12.2-13.2,16.7-23
		c4.1-9,5.7-23.3,6.2-28.6c6.6,1.1,13.6,0.1,18.3-1.2c0.5,0.9,5.7,10,7.6,23.8c0.9,6.3,0.1,13.1-0.6,17.3
		c-4.6,4.6-9.2,9.6-13.2,14.9C114.9,474.5,99.1,476.1,82.4,471z M115.1,485.2c5.1-1.7,14.3-3.7,24.4-0.3c14.7,5,21.3,14.2,23.6,18.5
		c-1.1,1.1-2.1,2.2-2.8,3.6c-0.9,1.6-1.3,3.3-1.4,5.1c-3.9-1.7-14.2-5.8-22.5-4.5c-16.5,2.7-24.1,13.6-27.3,20.6
		c-0.9-4.4-1.6-9.1-2.1-14.1C106.2,504.3,109.6,494.5,115.1,485.2z M109.7,530.6c2.5-6.5,9.5-18.8,27-21.6
		c8.4-1.3,19.3,3.3,22.3,4.7c0.1,0.9,0.3,1.7,0.6,2.6c0.8,2.5,2.6,4.8,5.1,6.8c-4.9,1.1-13.2,3.9-21.1,11.5
		c-9,8.6-11.1,27.7-11.5,32.4c-0.8-0.6-1.7-1.2-2.5-1.8C119.9,557.5,113.3,546.1,109.7,530.6z M133.4,567.7
		c0.2-2.5,2-23.5,11.1-32.2c8.3-7.9,17.2-10.5,21.7-11.3c3.2,2.2,7.3,4,11.9,5.4c-2.2,2.6-7.8,10.6-7.8,22.9c0,9.5,1.9,19.3,3.7,24
		C157.3,577.1,143.7,574.1,133.4,567.7z M192.4,574.7c-6,0.9-11.6,1.5-16.9,1.8c-1.4-3.7-3.8-13-3.8-24c0-12.6,6.4-20.8,7.9-22.5
		c5.7,1.5,12.1,2.4,18.7,2.4c4,0,8.1-0.3,12.1-1c-0.6,4.1-1.6,12.4-0.4,18.7c1.2,6.5,5.1,15.3,7,19.1
		C209.7,571.4,201.5,573.2,192.4,574.7z M249.3,551.3c-0.1-3.6-0.6-11-3.8-18.5c-2.9-6.6-8.8-9.8-11.2-10.9c5.7-4.1,8-8,8.2-8.3
		c0.6-1,0.3-2.3-0.7-2.9c-0.2-0.1-0.4-0.2-0.7-0.2l-1.3-4.3c1.4,0,5.2,0.2,8.5,2c2.3,1.2,5.8,4.7,7.5,6.6c1.3,4.1,2.1,9.1,2.1,15
		C257.9,537.9,255,545.1,249.3,551.3z M254.5,511.5c-1.8-1.8-3.9-3.7-5.6-4.6c-4.1-2.2-8.8-2.2-9.6-2.2l-3.2-10.5
		C240.3,495.6,249.5,499.9,254.5,511.5z M270.9,474.7c-14.3-2.3-33.1,2.3-39.5,4.1l-4.2-13.8c-0.6-2-2-3.6-3.8-4.5
		c-1.8-0.9-3.9-1.1-5.9-0.5l-20.2,6.5c-1.1-3.3-4.1-9.6-11.9-17c-9.3-8.8-17.2-11.1-22.4-11.4c3.7-2.6,6-4,6.2-4.1l-2.2-3.6
		c-0.4,0.2-1.8,1.1-3.9,2.5c-0.6-3.1-2-9.6-4.5-14.8c-1.3-2.7-3.6-6.2-5.3-8.6c3.3-2.7,6-6.1,7.4-8.1c0.8,0.6,1.5,1.2,2.2,1.8
		c7.8,7.3,9.6,16.2,11.2,24c0.9,4.4,1.7,8.1,3.4,11.1c4.2,7.3,17.2,9.7,23.5,10.8c0.9,0.2,1.8,0.3,2.1,0.4c3,0.9,6.9,1.5,9.2-0.7
		c1-0.9,1.9-2.8,1-6c-1.2-4-4.9-6.3-8.5-8.4c-3.3-1.9-6.7-4-8.5-7.3c-1.1-2-1.2-5.9-1.5-10.8c-0.4-8.5-0.9-20.1-6.4-32.9h16.3
		c3.4,11.1,12.7,19.1,23.6,19.1c13.5,0,24.5-12.2,25-27.5c1.7-0.4,5.3-1.1,8.1-1.1c6.3-0.1,8.3,0.6,8.8,0.9
		c0.8,14.3,10.7,25.6,22.7,25.6c10.2,0,18.9-8.2,21.8-19.4l5.4-1c-6.3,17.7-9.6,27.2-8.9,30.9c0.2,0.9,0.6,3.2,13.3,9.4
		c0,0,0.5,0.3,1.1,0.6c-3.7,3.1-12.2,11.5-18.4,28c-4.7,12.4-4.4,29.6-4.2,35.8c-3.3-1.1-6.1-2.3-8.8-3.3
		C287.1,478.7,280.8,476.3,270.9,474.7z M310.9,487.3c-0.2-6.3-0.3-22.7,4-34.3c6.4-17.1,15.6-25.2,18.4-27.4
		c5.4,3.4,12.7,8.2,20.2,14c-2.5,3.2-6.8,9.8-10.2,21.2c-2.9,9.6-1.8,21-1.5,23.7c-1.5,0.9-2.6,1.7-3,2.4c-0.6,1.2-0.5,3.1-0.2,7
		c-2.6-0.4-10.5-1.9-25.4-6C312.4,487.8,311.7,487.6,310.9,487.3z M308.3,514.5c1.4,0.4,3.4-0.2,20-7.5c4.7-2.1,10.5-4.6,12.2-5.2
		l0.6,0.2l0.9-0.7c1.3-1,1.2-2.4,0.8-6.9c-0.1-0.8-0.2-1.9-0.2-3l1.6,2l0.2,0.1c0.3,0.1,0.7,0.1,1.1,0.1c4.1,0,12.4-3.7,15.4-5.9
		c0.7-0.5,1.2-1,1.5-1.6c1.7,2.3,3.8,5.4,5.8,8.6l0,0.2c0,0,0.1,0,0.2,0c2.5,4,4.8,8.1,6.2,10.8c2.5,5.2,5.4,12.7,6.3,15.1
		c-0.1,0.1-0.1,0.2-0.2,0.4c-4.3,8.7-10.6,14.5-18.2,16.9c-10.7,3.4-15.8,0.7-22.3-2.7c-3.6-1.9-7.7-4-13.1-5.1
		c-4.1-0.8-9.1-0.6-14.8-0.3c-6.4,0.3-13.6,0.6-21.8-0.3c-3-0.3-5.1-0.9-6.7-1.6c-0.7-2.5-2.3-7.9-3.6-12c0.7,0.3,1.4,0.6,2.2,0.6
		c0.1,0,0.2,0,0.2,0c3.7,0,14.5-5.3,16.3-7c0.7-0.7,1-2.1,1-3.4c0.2,0.2,0.4,0.4,0.6,0.6C305.1,512.2,306.8,514,308.3,514.5z
		 M280.3,536.6c0.8-2.1,2.4-3.2,4-3.8c1.6,0.5,3.4,0.9,5.7,1.1c3.4,0.4,6.6,0.5,9.6,0.6c-1.5,2.4-3.6,6.3-4,10.4
		c-0.3,3.1,0.1,5.4,0.6,7c-6.2-1.4-12.3-3.2-16.5-5.4C279,544.5,278.6,541,280.3,536.6z M297.9,552.3c-0.6-1.5-1.3-3.8-0.9-7.3
		c0.5-4.3,2.8-8.4,4.3-10.6c4,0,7.7-0.1,11.2-0.3c4.6-0.2,8.7-0.4,12,0c-1.6,2.4-3.7,6.5-3.7,11.7c0,4.8,1.6,9.2,3.2,12.4
		c-1.9-0.9-4-1.7-6.6-2.2c-1.4-0.3-3-0.6-4.8-0.9C308.4,554.5,303.2,553.5,297.9,552.3z M298.1,504.1c0.1,0.1,0.2,0.3,0.4,0.4
		c0.1,1.7,0,3.5-0.6,4.1c-1.5,1.5-12.4,6.8-15.4,6.6c-1.1-0.1-2.1-0.6-2.9-1.2c-0.2-0.7-0.4-1.4-0.5-1.9
		C281.5,509.8,294.5,504.9,298.1,504.1z M275,543c-3.4-4.6-4.9-10.2-3.8-14c0.5-1.7,1.5-2.8,2.9-3.4c0.7-0.3,1-0.3,1-0.3
		c0.2,0.1,0.5,0.6,0.7,1c1,1.7,2.5,4.1,6.6,5.8c-1.4,0.8-2.7,2-3.4,3.9c-1.5,3.9-1.5,7.2-1,9.5C276.7,544.8,275.7,543.9,275,543z
		 M325.4,569.7c-1.6,4.7-9.1,15.4-18.3,13.7c-5.8-1.1-12-16.7-15.1-28.1c6.1,1.6,12.9,2.9,19.7,4.1c1.8,0.3,3.4,0.6,4.8,0.9
		c4.1,0.8,6.8,2.3,9.5,4.2C326.2,564.8,326.5,566.4,325.4,569.7z M328.7,561.2C328.6,561.2,328.6,561.1,328.7,561.2L328.7,561.2
		c-0.9-0.6-1.7-1.2-2.6-1.7c-1.7-3.1-4-8.1-4-13.6c0-5.2,2.4-9.4,3.9-11.5c0.1,0,0.2,0,0.3,0c4.8,0.9,8.5,2.8,12,4.7
		c3.5,1.8,6.8,3.5,10.9,4.3c-0.9,2.6-2.2,7.5-2.2,14.2c0,6.2,2.1,10.6,3.5,12.9c-10.4-1-15.1-4.5-19.7-7.9
		C330,562.2,329.4,561.7,328.7,561.2z M362.3,570.7c-3.9,0.2-7.2,0.2-10.1,0c-1.2-1.7-3.9-6.4-3.9-13.1c0-6.6,1.3-11.5,2.2-13.9
		c3.6,0.4,7.9,0.1,13.2-1.6c4.1-1.3,7.9-3.5,11.2-6.4c1.3,0.6,8.1,3.7,10.9,9.2c2.5,4.9,2.4,14,2.3,17.4
		C379.6,567.2,370.7,570.2,362.3,570.7z M389.6,561.4c0.1-4.1,0-12.4-2.5-17.2c-2.8-5.3-8.8-8.5-11-9.6c3.2-3.1,6-7,8.3-11.6
		c1.4-2.8,2.5-5.7,3.5-8.9c2.6-0.9,8.2-2.1,14.5,0.6c12.2,5.1,15.8,14.5,16.4,16.6C411.3,544,400.9,554.4,389.6,561.4z M419.8,529.8
		c-1.4-3.5-5.6-11.6-16.8-16.3c-6.1-2.6-11.5-1.8-14.6-0.9c2-7.3,2.9-15.2,2.5-22.8c0.9-0.7,10.5-7.9,24.5-5.8
		c7.9,1.2,12.9,4.9,15.4,7.2c-0.1,1.6-0.2,3.3-0.3,5C429.4,508.3,425.5,519.7,419.8,529.8z M434.8,476.6
		c-1.6-23.6-9.6-44.3-20.9-60.7c0.1-0.1,0.3-0.3,0.5-0.5c2.6,0.7,14.8,4.3,23.5,12.2c12.3,11.2,14.3,26.2,14.7,30.7
		C445.9,466.9,438.8,473.3,434.8,476.6z M469,439.1c2.6,3.2,6.8,9.1,7.8,16.4c0.6,4.6,0.3,8.5-0.6,12c-1.5-2.4-4.5-6-10.1-6.7
		c-5.5-0.7-9.3,2.2-11.4,4.4l-0.8-1.6C459.6,456.8,465.3,448.4,469,439.1z M454.5,477.1c1.3-3.9,2.5-7.3,1-10.4l-0.1-0.2
		c1.7-2,5.4-5.1,10.5-4.4c6.1,0.8,8.9,5.5,9.8,7.3c-0.9,3-2.1,5.8-3.4,8.5c-2.4,5.3-4.6,10.4-4.2,16.6c-1.9-2-4.7-3.4-9.8-2.3
		c-2.9,0.6-5.1,2.3-6.6,4C450.9,487.6,453,481.6,454.5,477.1z M452.2,499.3c-0.1-0.4-0.1-0.8-0.2-1.2c1.3-1.6,3.5-3.8,6.7-4.5
		c5.7-1.2,7.9,0.9,9.8,3.5c0.2,1,0.5,2.1,0.9,3.2c1.1,3.3,2.5,6,4.2,8.4c-0.8,0-1.6,0.2-2.5,0.5c-3.4,1.3-5,4.7-5.7,6.7
		C459,511.7,453.4,506.2,452.2,499.3z M488.3,525.5c-2.3-0.4-12.6-3.3-21.7-8.9c0.5-1.6,1.9-5,4.9-6.1c1.2-0.4,2.2-0.5,3.1-0.4
		c4.9,6.2,11.4,9.5,16.2,12c2.1,1.1,3.9,2,4.8,2.8c0,0,0.1,0,0.1,0.1C494.4,525.5,491.1,526,488.3,525.5z"/>
	<path class="st13" d="M272.5,457.5c-2.8,3.6-6,7.5-7.2,8.7c-2.2-1-9.8-6.3-16-10.5c-7.3-5-14.8-10.2-17.9-11.7l-1.2,2.5
		c2.9,1.4,10.4,6.6,17.6,11.5c13.8,9.5,16.5,11.2,17.8,11.2c0.1,0,0.3,0,0.4,0c1-0.2,2.2-1.5,8.8-9.8c4.5-5.7,12.1-15.3,14-15.9
		l-0.5-2.8C285.9,440.9,281.7,445.9,272.5,457.5z"/>
	<path class="st13" d="M228.5,350.7c-10.6,0-19.2,10.3-19.2,22.9c0,12.6,8.6,22.9,19.2,22.9s19.2-10.3,19.2-22.9
		C247.7,361,239.1,350.7,228.5,350.7z M215.1,381.1c0-5.4,4-9.8,8.9-9.8c4.9,0,8.9,4.4,8.9,9.8c0,5.4-4,9.8-8.9,9.8
		C219.1,390.9,215.1,386.5,215.1,381.1z M228.5,393.8c-0.9,0-1.7-0.1-2.5-0.3c5.5-1,9.7-6.2,9.7-12.4c0-7-5.2-12.6-11.7-12.6
		c-5.6,0-10.3,4.3-11.4,10.1c-0.3-1.6-0.5-3.2-0.5-4.9c0-11.1,7.4-20.1,16.4-20.1s16.4,9,16.4,20.1
		C244.9,384.7,237.6,393.8,228.5,393.8z"/>
	<path class="st13" d="M292.9,394.8c9.6,0,17.4-9.9,17.4-22s-7.8-22-17.4-22s-17.4,9.9-17.4,22S283.3,394.8,292.9,394.8z
		 M280.6,379.5c0-5.3,3.8-9.6,8.4-9.6c4.6,0,8.4,4.3,8.4,9.6c0,5.3-3.8,9.6-8.4,9.6C284.4,389.1,280.6,384.8,280.6,379.5z
		 M292.9,353.5c8.1,0,14.6,8.6,14.6,19.2c0,10.6-6.6,19.2-14.6,19.2c-0.7,0-1.5-0.1-2.2-0.2c5.4-0.9,9.6-6,9.6-12.3
		c0-6.8-5-12.4-11.2-12.4c-4.9,0-9.1,3.5-10.6,8.4c-0.1-0.9-0.2-1.8-0.2-2.7C278.2,362.1,284.8,353.5,292.9,353.5z"/>
	<path class="st13" d="M103.5,327.1l4.4-0.7c1.8-0.3,3-1.9,2.7-3.7l-0.7-4.4c-0.3-1.8-1.9-3-3.7-2.7l-4.4,0.7
		c-0.9,0.1-1.6,0.6-2.1,1.3c-0.5,0.7-0.7,1.6-0.6,2.4l0.7,4.4c0.2,1.6,1.6,2.8,3.2,2.8C103.2,327.2,103.3,327.2,103.5,327.1z
		 M101.2,324.2l-0.7-4.4c-0.1-0.5,0-1,0.3-1.4c0.3-0.4,0.7-0.7,1.2-0.7l4.4-0.7c0.1,0,0.2,0,0.3,0c0.9,0,1.7,0.7,1.8,1.6l0.7,4.4
		c0.2,1-0.5,2-1.5,2.1l-4.4,0.7c-0.5,0.1-1,0-1.4-0.3C101.5,325.1,101.2,324.7,101.2,324.2z"/>
	<path class="st13" d="M115.8,321.9c0.2,1.6,1.6,2.8,3.2,2.8c0.2,0,0.3,0,0.5,0l4.4-0.7c0.9-0.1,1.6-0.6,2.1-1.3
		c0.5-0.7,0.7-1.6,0.6-2.4l-0.7-4.4c-0.3-1.8-1.9-3-3.7-2.7l-4.4,0.7c-1.8,0.3-3,1.9-2.7,3.7L115.8,321.9z M116.8,316
		c0.3-0.4,0.7-0.7,1.2-0.7l4.4-0.7c0.1,0,0.2,0,0.3,0c0.4,0,0.8,0.1,1.1,0.4c0.4,0.3,0.7,0.7,0.7,1.2l0.7,4.4c0.1,0.5,0,1-0.3,1.4
		c-0.3,0.4-0.7,0.7-1.2,0.7l-4.4,0.7c-1,0.2-2-0.5-2.1-1.5l-0.7-4.4C116.4,316.9,116.5,316.4,116.8,316z"/>
	<path class="st13" d="M129.2,336.5c0.5-0.7,0.7-1.6,0.6-2.4l-0.7-4.4c-0.3-1.8-1.9-3-3.7-2.7l-21.5,3.3c-1.8,0.3-3,1.9-2.7,3.7
		l0.7,4.4c0.2,1.6,1.6,2.8,3.2,2.8c0.2,0,0.3,0,0.5,0l21.5-3.3C128,337.6,128.7,337.2,129.2,336.5z M105.4,339.7
		c-1,0.2-2-0.5-2.1-1.5l-0.7-4.4c-0.2-1,0.5-2,1.5-2.1l21.5-3.3c0.1,0,0.2,0,0.3,0c0.9,0,1.7,0.7,1.8,1.6l0.7,4.4
		c0.1,0.5,0,1-0.3,1.4c-0.3,0.4-0.7,0.7-1.2,0.7L105.4,339.7z"/>
	<path class="st13" d="M379,296.4c-1.3-0.4-2.6-0.3-3.7,0.3l-8.5,4.4c-1.2,0.6-2,1.6-2.4,2.9c-0.4,1.3-0.3,2.6,0.3,3.7
		s1.6,2,2.9,2.4c0.6,0.2,1.1,0.3,1.7,0.2c0.7,0,1.4-0.2,2-0.5l8.5-4.4c1.2-0.6,2-1.6,2.4-2.9c0.4-1.3,0.3-2.6-0.3-3.7
		C381.3,297.6,380.3,296.8,379,296.4z M379.1,304.2l-8.5,4.4c-0.8,0.4-1.8,0.5-2.7,0.2c-0.9-0.3-1.6-0.9-2.1-1.7
		c-0.4-0.8-0.5-1.8-0.2-2.7c0.3-0.9,0.9-1.6,1.7-2.1l8.5-4.4c0.5-0.2,1-0.4,1.5-0.4c0.4,0,0.8,0,1.2,0.2c0.9,0.3,1.6,0.9,2.1,1.7
		C381.5,301.1,380.8,303.3,379.1,304.2z"/>
	<path class="st13" d="M204.4,482.3c-0.3-1.5-1.3-2.7-2.6-3.6c-1.3-0.8-2.8-1.1-4.3-0.7l-5.5,1.3c-3.1,0.7-5,3.8-4.3,6.9l1.3,5.5
		c0.3,1.5,1.3,2.7,2.6,3.6c0.9,0.6,2,0.9,3,0.9c0.4,0,0.9-0.1,1.3-0.2l5.5-1.3c3.1-0.7,5-3.8,4.3-6.9L204.4,482.3z M201.1,493.4
		l-5.5,1.3c-1.1,0.3-2.3,0.1-3.3-0.5c-1-0.6-1.7-1.6-1.9-2.7l-1.3-5.5c-0.5-2.3,0.9-4.7,3.2-5.2l5.5-1.3c0.3-0.1,0.7-0.1,1-0.1
		c0.8,0,1.6,0.2,2.3,0.7c1,0.6,1.7,1.6,1.9,2.7l1.3,5.5C204.9,490.5,203.4,492.8,201.1,493.4z"/>
	<path class="st13" d="M196.7,482.3c-2.6,0-4.7,2.1-4.7,4.7s2.1,4.7,4.7,4.7c2.6,0,4.7-2.1,4.7-4.7S199.3,482.3,196.7,482.3z
		 M196.7,490.4c-1.8,0-3.3-1.5-3.3-3.3s1.5-3.3,3.3-3.3c1.8,0,3.3,1.5,3.3,3.3S198.5,490.4,196.7,490.4z"/>
</g>
<ellipse transform="matrix(0.5476 -0.8367 0.8367 0.5476 -58.885 330.9515)" class="st11" cx="276.6" cy="219.9" rx="15" ry="25.7"/>
</svg>
