<?xml version="1.0" encoding="utf-8"?>
<!-- Generator: Adobe Illustrator 21.1.0, SVG Export Plug-In . SVG Version: 6.00 Build 0)  -->
<svg version="1.1" id="Layer_1" xmlns="http://www.w3.org/2000/svg" xmlns:xlink="http://www.w3.org/1999/xlink" x="0px" y="0px"
	 viewBox="0 0 515.9 728.5" style="enable-background:new 0 0 515.9 728.5;" xml:space="preserve">
<style type="text/css">
	.st0{fill:#D42E2D;}
	.st1{fill:#A7A9AC;}
	.st2{fill:#FDEF3C;}
	.st3{fill:#FFC430;}
	.st4{fill:#F5822B;}
	.st5{fill:#EBF1F4;}
	.st6{fill:none;}
	.st7{fill:#F1BF66;}
	.st8{opacity:0.4;fill:#55285B;}
	.st9{opacity:0.4;}
	.st10{fill:#55285B;}
	.st11{opacity:0.31;fill:#3F5C7E;}
	.st12{opacity:0.3;fill:#FFFFFF;}
	.st13{fill:#010101;}
	.st14{fill:#41B9EA;}
	.st15{fill:#FFFFFF;}
</style>
<path class="st0" d="M225.7,463.3c-6.3-9-51.5-191.2-15.1-222.9s78.5-26.1,97.3-22.6c47.6,8.9,59.8,118.6,65.4,150.3
	c5.5,31.7,6.2,58.2,6.4,66.9c0,3.4-23.6,63.4-27.4,70.1s-72.8,11.8-78.5,9.1S225.7,463.3,225.7,463.3"/>
<path class="st0" d="M361.1,308.6c0,0,14.7-8,27.3-22.4c12.6-14.4,34.3-36.6,34.3-36.6s15.2,50.1-2.3,81.2
	c-23.9,42.6-48.5,48.3-48.5,48.3L361.1,308.6z"/>
<path class="st0" d="M109.4,364.1c0,0,29-1.9,50.8-10.3c21.8-8.3,36.9-15.7,36.9-15.7l13.4,74.6c0,0-43.1-4.2-58.7-12.9
	C117.8,381,109.4,364.1,109.4,364.1z"/>
<ellipse transform="matrix(0.1557 -0.9878 0.9878 0.1557 -79.0021 478.9788)" class="st1" cx="240.7" cy="285.7" rx="28.7" ry="28.7"/>
<path class="st1" d="M338.4,279c-0.6,15.9-13,28.3-27.7,27.8c-14.7-0.6-27.2-13.9-26.6-29.8c0.6-15.9,14-28.3,28.7-27.7
	C327.6,249.7,339,263.1,338.4,279z"/>
<path class="st2" d="M262.9,287.5c-0.4,11.8-11.4,21-23.2,20.5c-11.8-0.4-21-10.4-20.6-22.2c0.4-11.8,10.4-22.1,22.2-21.6
	C253.1,264.7,263.3,275.7,262.9,287.5z"/>
<ellipse transform="matrix(3.776462e-02 -0.9993 0.9993 3.776462e-02 21.1318 579.1078)" class="st2" cx="311.3" cy="278.6" rx="21.6" ry="20.3"/>
<ellipse transform="matrix(3.776462e-02 -0.9993 0.9993 3.776462e-02 -60.8824 517.1714)" class="st3" cx="238.1" cy="290.2" rx="16.7" ry="16.7"/>
<path class="st3" d="M326.2,284c-0.3,8.9-7.9,15.9-16.8,15.6c-8.9-0.3-17-7.9-16.6-16.8s8.9-16.9,17.9-16.6S326.5,275,326.2,284z"/>
<path class="st4" d="M197.5,325.5c0,0,32.2,7.7,43.4,8.6c11.2,0.9,42.1-1.2,42.1-1.2s2.4,4.3,4.8,5c2.4,0.7,4.1-5.3,4.1-5.3
	s29.5-6.3,41.3-11c13.3-5.3,28-16.2,28-16.2l7.5,37.6c0,0-15.3,17.6-18.6,22.4c-3.3,4.9-19.5,18.7-19.5,18.7l-69.4,5.5
	c0,0-24.3-7.5-32-11.2s-27.1-12.3-27.1-12.3L197.5,325.5z"/>
<path class="st1" d="M330.9,379.8c-0.7,19.7-19.7,35-38.4,34.3c-18.7-0.7-33.3-17.3-32.5-37c0.7-19.7,16.5-35.1,35.2-34.4
	C314,343.4,331.7,360,330.9,379.8z"/>
<path class="st5" d="M324.5,379.4c-0.6,14.7-14.1,26.2-30.3,25.6c-16.2-0.6-28.8-13.1-28.3-27.8c0.6-14.7,14.2-28.3,30.4-27.7
	C312.5,350.1,325.1,364.7,324.5,379.4z"/>
<path class="st1" d="M202.1,366.1c0,0,12.8,6.9,27.1,12.3c14.2,5.4,32,11.2,32,11.2s10,23.7,31.4,24.4s35.7-21.4,36.8-25.7
	c1.2-4.3,14.1-14.6,20.7-23c6.6-8.3,18.6-22.4,18.6-22.4l6.5,40.2c0,0-23.7,31.4-31.9,36.9c-8.2,5.5-31.3,25-31.3,25
	s-42.8-11-56.6-15.1c-22.6-6.6-46.2-23.1-46.2-23.1L202.1,366.1z"/>
<line class="st6" x1="197.1" y1="322.2" x2="197.7" y2="322.2"/>
<path class="st1" d="M197.7,320.5c0,0,26.6,7.1,41.7,7.7c15.1,0.6,41.4,0.1,41.4,0.1l2.3,4.5c0,0-30,2.9-45.5,0.8
	c-15.5-2.1-40-8.2-40-8.2L197.7,320.5z"/>
<path class="st1" d="M291.9,332.6l1.5-5.5c0,0,30.1-6.3,35.2-8.3c11.7-4.5,30.7-17.4,30.7-17.4l1.9,4c0,0-24.5,16.6-32.8,18.8
	C320.1,326.5,291.9,332.6,291.9,332.6z"/>
<path class="st7" d="M287.8,337.9c0,0-4.8-3.9-8.1-9.6c-3.3-5.6-4.3-9.8-4.3-9.8s0.8-7,1.7-11.5c0.7-3.6,3.2-9.8,3.2-9.8
	s6.8,7,8.6,10.6s4.6,10,4.6,10s0.4,3.5-0.1,9.1C292.7,335.2,287.8,337.9,287.8,337.9z"/>
<path class="st4" d="M211.6,409.8c0,0,29.5,16.2,43.7,20.1c14.3,4,56.6,15.1,56.6,15.1s31.1-23.3,37.9-31
	c6.8-7.7,25.3-30.9,25.3-30.9l2.7,38.9c0,0-20.3,25.4-28,31.6s-35.6,24.2-35.6,24.2s-36.2-7.3-49.9-11.7
	c-13.7-4.4-46.3-21.2-46.3-21.2L211.6,409.8z"/>
<path class="st1" d="M272.7,514.2l-14.2-16c0,0,26.2,5.9,50.1,1c23.9-4.9,49.6-10.5,49.6-10.5l-5,17.5c0,0-24.1,5.5-43.7,6.2
	C290,513.1,272.7,514.2,272.7,514.2z"/>
<path class="st1" d="M109.4,364.1c0,0-23.3,4.5-44.2,4.7s-40.4-0.3-40.4-0.3l16.5,20.1c14.8,2.3,30.2,4.8,44.9,5.1
	c15.7,0.4,38.6-1.8,38.6-1.8s-13.4,11.1-23.7,15.4c-10.3,4.4-44.7,2.2-44.7,2.2l32.9,19.7c0,0,26.2-0.7,36.1-8.1S148,406,148,406
	s-1.2,11.7-8.5,22.5c-6,8.8-22.8,17.3-22.8,17.3l28.4,5.5c0,0,13.2-7.1,19.4-18c6.3-10.9,9.4-16.6,9.4-16.6s4,13.7,1.2,21.1
	s-7.2,16-7.2,16l15.9-1c0,0,6.5-3.1,10.5-15.5c3.6-11.2,4.2-17,4.2-17s7.1,4.2,7.6,10.8c0.5,6.6-2.6,15.1-2.6,15.1l7.8-1.1l4.1-5.8
	l-5.2-26.5c0,0-38.9-1.7-66.7-18.4C115.7,377.5,109.4,364.1,109.4,364.1z"/>
<path class="st1" d="M375.7,377.5l1.9,23c0,0,1.2,0.1,2.9-3.3c1.7-3.4,1.3-5.9,1.3-5.9s3.1,3.3,9.6,5.3c7.6,2.4,21.6,0.2,21.6,0.2
	s-8.9-4.4-12.8-9.3c-4.5-5.6-2.9-13.6-2.9-13.6s0.2,3,13.6,6.7c13.4,3.7,25,3.3,25,3.3l14.7-14.5c0,0-9.6,2.9-18.1,0.4
	c-8.7-2.6-14.7-12.5-14.7-12.5s9.3,3.5,17.9,3.6c9.8,0.1,26.3-7.1,26.3-7.1l11.8-14.8c0,0-16.3-0.3-27.9-0.4
	c-11.6-0.2-18-7.6-18-7.6s9.2,0.9,26.9-2.9c17.5-3.7,25.6-12.8,25.6-12.8l8.1-29.8c0,0-15.3,15.8-28.7,17.7
	c-13.3,1.9-19.9,0.2-19.9,0.2s21.2-19.2,29.9-24.7c8.7-5.5,10.9-19.6,12.8-23.3c1.8-3.7-2.6-29.3-2.6-29.3s-11.3,18.6-20.5,28.7
	c-9.2,10.1-21.4,14.2-21.4,14.2s21.3-30.5,27.7-46.2c6.4-15.7,5.5-27.2,5.5-27.2l-10.7-26c0,0-4.4,18.8-11.4,32.5
	s-27.9,47.7-27.9,47.7s7.3,13,7,43.2c-0.4,37.8-21.8,59.2-27.1,66.1C396.4,365.7,375.7,377.5,375.7,377.5z"/>
<polygon class="st1" points="187.4,201.3 192.7,197.9 221.1,230.6 209.5,240.4 "/>
<polygon class="st1" points="309,217.9 324.2,181.2 329.8,183.8 321.7,224.4 "/>
<ellipse transform="matrix(3.776462e-02 -0.9993 0.9993 3.776462e-02 -12.278 369.5441)" class="st0" cx="185.7" cy="191.1" rx="9" ry="9"/>
<ellipse transform="matrix(3.776462e-02 -0.9993 0.9993 3.776462e-02 142.4851 496.393)" class="st0" cx="329" cy="174.2" rx="8.7" ry="8.7"/>
<path class="st8" d="M280.3,297.3c0,0-0.3,8.3,1.9,19.8c2,10.5,6.6,21.9,6.6,21.9s-7.8-2.2-12.5-6.5c-4.7-4.3-7-7.6-6.5-10.5
	C271.5,313.4,280.3,297.3,280.3,297.3z"/>
<path class="st8" d="M283.5,268.3c0,0-2.1,11.8-1.1,19.5c1,7.6,7.6,20.7,20.6,22.7c20,3.2,29.3-10.9,29.3-10.9s-17.6,11.4-29.1,5.6
	s-20.6-20.8-20.5-23.5C282.6,279.2,283.5,268.3,283.5,268.3z"/>
<path class="st8" d="M262.2,361.6c0,0-4.6,20.8-2.2,27.7c3,8.3,12,20,27.8,23.9c16,4,33.6-9.5,33.6-9.5s-25.3,33.3-54.4,9.5
	C242.7,393.1,262.2,361.6,262.2,361.6z"/>
<path class="st8" d="M193.1,197.4c0,0,1.8,2.5,0.2,4.6c-1.2,1.5-1.4,1.7-1.4,1.7l18.4,30.2l8.9-3.4l-11,10.9l-20.8-40.1l5.2-3.4
	L193.1,197.4z"/>
<path class="st8" d="M197.1,338.2c0,0-1,25.3,1,41.7c4,33.5,17.6,59.4,17.6,59.4s-9.1-41.8-9.9-51.8
	C205,377.5,197.1,338.2,197.1,338.2z"/>
<path class="st8" d="M107.7,365.3c0,0,16.2,27,47.7,39.4c33.1,13,51.5,8.8,51.5,8.8s-35.1-3.3-54.3-14.2
	C133.7,388.6,107.7,365.3,107.7,365.3z"/>
<path class="st8" d="M31.8,368.7c0,0,5.3,12.6,12.5,15.9c21.3,9.5,80.3,5.8,80.3,5.8L93,395l-50.7-5.3l-17.5-21.2L31.8,368.7z"/>
<path class="st8" d="M71,409.8c0,0-6.5,1.2-2.2,4c4.3,2.8,15.6,9.8,21.2,11.8c3.4,1.2,26.1-3.7,34.7-7.3c10.3-4.3,26-15.5,26-15.5
	l-23.2,18.6c0,0-16.8,5.9-24.1,6.7s-12.1,2.8-12.1,2.8l-34.9-21.3L71,409.8z"/>
<path class="st8" d="M118.7,444.9c0,0,1.4,1.5,10.7,3.3c9.3,1.8,15.8,3.1,15.8,3.1s18.9-12.8,21.7-17.5c2.8-4.8,7.9-21.5,7.9-21.5
	s-9.7,18.1-16.7,24.8c-7,6.7-9.5,8.9-14,10.2C139.6,448.6,118.7,444.9,118.7,444.9z"/>
<path class="st8" d="M170.9,447.8l-3,6.6l18.5-2.1l8.1-17.6c0,0-5.6,9-9.5,14c-2.6,3.3-10.5,2.6-10.5,2.6
	C172.1,451,170.9,447.8,170.9,447.8z"/>
<path class="st8" d="M206.4,438.9c0,0-0.1,4.1,2.4,4.1c2.6,0.1,6.7-5,6.7-5s0.6,3.4-1,4.7s-4.8,2.9-4.8,2.9l-6.1,1L206.4,438.9z"/>
<path class="st8" d="M324.9,181.2l5.6,2.7c0,0-2.5,1.8-4.9,1.5l-14.1,31.7c0,0,3.1,2.3,5.8,4c2.3,1.5,5.1,3.4,5.1,3.4l-14.3-6.6
	L324.9,181.2z"/>
<path class="st8" d="M327.6,166c0,0-6.7,2.6-2.8,9.9c2.9,5.6,9.5,4.3,9.5,4.3l-2.7,2.7c0,0-5.8,1.3-9-2.4c-3.3-3.8-2.5-9.2-0.5-11.1
	C324.1,167.4,327.6,166,327.6,166z"/>
<path class="st8" d="M179.9,184.3c0,0-3.8,5.5,2.9,9.8c6.7,4.3,11.9-1.8,11.9-1.8l-2.1,5.6l-6.6,2.9l-7.3-3.5l-2.7-7.5L179.9,184.3z
	"/>
<g class="st9">
	<path class="st10" d="M264.4,220.3C264.5,220.3,264.5,220.3,264.4,220.3C264.5,220.3,264.5,220.3,264.4,220.3z"/>
	<path class="st10" d="M340.8,508.7c0.1,0,0.2,0,0.2,0S340.9,508.6,340.8,508.7z"/>
	<path class="st10" d="M348.9,453.6c-5.7,5.6-34.2,25.8-36.5,24.6c-2.3-1.1-35.2-7.6-47.3-12.8c-3.8-1.6-9.4-4-15.4-6.5
		c-9.1-22.1-17.9-49.7-23.5-78.1c-4.9-24.5-6.9-60.8-6.9-60.8s16.4,3.5,25.1-0.4c9.1-4.1,17.8-12.9,17.8-12.9s-25.4,20.1-43.8-3.2
		c-7.3-9.3-5.1-26.4-3.2-30.3c1.9-4,12.6-12.4,12.6-12.4s3.3-12.7,12.4-25.8c8.7-12.7,23.2-14.6,24.3-14.8
		c-1.5,0.2-31.3,3.9-50,22.4c-19.1,19-11.8,92.4-9.1,119.1c2,19.9,12.7,61.7,20.6,87.4c-2.8-1.1-4.5-1.8-4.5-1.8s1.8,1.1,4.7,2.7
		c1,3.2,1.9,6.2,2.8,8.8c1,3,2.4,5.9,4.5,8.4l39.8,43.2l3.6,3.9c0,0,18-1.4,24.6-1.6c6.2-0.3,36.7-3.7,39.3-4
		c-3.5,0.4-52.7,5.8-63.7-2.4c-6.7-5.1-16.3-20.9-25.6-42.7c6.4,3.1,12.6,5.8,17.2,7.2c15.1,4.5,39.2,10.3,43.5,10.2
		c4.4-0.1,21.1-9.7,33.4-20.4c12.3-10.7,30.9-37,30.9-37S354.6,448,348.9,453.6z"/>
</g>
<path class="st8" d="M375.7,377.5c0,0,31.3-14.3,45.7-49.7c12.8-31.6,3.9-67.7,3.9-67.7s11.5,41.4-2.6,70.5
	C403.7,370.1,375.7,377.5,375.7,377.5z"/>
<path class="st8" d="M377.4,376.3c0,0,1.4,5,7.2,10.3c5.8,5.3,11.1,8.2,14.4,8.2c3.2,0,7.9-1.7,7.9-1.7l6.3,3.7c0,0-14.4,2-17.8,2.1
	s-13.9-8.6-13.9-8.6s2.1,3.7-0.8,7c-2.9,3.3-2.9,3.3-2.9,3.3l-4.1-24.2L377.4,376.3z"/>
<path class="st8" d="M395.6,371.3c0,0,11.2,5.8,20.3,7.7c9,1.9,14.8,1.2,18.3,1.6c3.6,0.3,11.1-9.4,11.1-9.4l3.4-2.6
	c0,0-8.5,12.7-11.3,14c-2.8,1.3-19.9,0.2-21.6,0C406.3,381.4,395.6,371.3,395.6,371.3z"/>
<path class="st8" d="M412.9,355.2c0,0,9.7,1.1,22.5,1.6c11,0.4,18.3-2.3,22.4-3.8c4.1-1.6,14.2-14.4,14.2-14.4l3.2-0.8
	c0,0-10.9,16.7-14.3,18.4s-20.6,4.8-24.9,4.6C432.2,360.7,413.4,355.4,412.9,355.2z"/>
<path class="st8" d="M422.8,330.6c0,0,39.1-6,43.8-9.3c4.7-3.3,7-3.9,9.4-6.8c2.5-2.9,10.1-24.6,10.1-24.6l2-2.3l-7.5,27.6l-4.8,5.2
	l-18.2,7L422.8,330.6z"/>
<path class="st8" d="M438.9,303.3c0,0,25.7-22.3,29.9-28c4.1-5.7,9.9-15.8,10.5-20.1c0.6-4.3-0.2-24-0.2-24l4.1,16.6l-2.6,14.3
	l-6.9,13.4L438.9,303.3z"/>
<path class="st11" d="M296.3,353.6c-11.4-0.4-21.3,7.1-24.3,17.7c4.1-2.7,9-4.2,14.2-4c13.3,0.5,23.8,11.7,23.3,25.1
	c-0.1,2.1-0.4,4.2-1,6.1c6.5-4.1,11-11.3,11.3-19.6C320.2,365.4,309.7,354.1,296.3,353.6z M307.7,362.7c-0.7,1.7-3.9,2-7.1,0.7
	c-3.2-1.4-5.2-3.9-4.5-5.6c0.7-1.7,3.9-2,7.1-0.7C306.5,358.5,308.5,361,307.7,362.7z"/>
<ellipse transform="matrix(0.3116 -0.9502 0.9502 0.3116 -7.4474 445.0794)" class="st12" cx="303.5" cy="227.7" rx="4.7" ry="14"/>
<ellipse transform="matrix(3.776462e-02 -0.9993 0.9993 3.776462e-02 -6.1989 367.4827)" class="st12" cx="187.7" cy="187" rx="2.3" ry="2.3"/>
<ellipse transform="matrix(3.776462e-02 -0.9993 0.9993 3.776462e-02 148.8701 494.9373)" class="st12" cx="331.4" cy="170.2" rx="2.2" ry="2.2"/>
<ellipse transform="matrix(0.9909 -0.1345 0.1345 0.9909 -44.8679 51.8328)" class="st12" cx="361.2" cy="358" rx="3.6" ry="66.2"/>
<g id="inks">
	<path class="st13" d="M310.4,300.8c-12-0.5-21.3-10.9-20.9-23.4c0.5-12.4,10.6-22.2,22.6-21.7c12,0.5,21.3,10.9,20.9,23.4
		S322.4,301.3,310.4,300.8z M312,257.9c-10.8-0.4-20,8.4-20.4,19.7c-0.4,11.3,8,20.8,18.9,21.2c10.8,0.4,20-8.4,20.4-19.7
		S322.8,258.3,312,257.9z"/>
	<path class="st13" d="M281.7,515.7c-4.3-0.2-7.7-0.6-9.5-1.5l0,0c-4.1-2.2-38.8-39.3-44.8-46.6c-14.8-17.9-30.7-115.5-31.5-140
		c0-1.5-0.1-3.4-0.2-5.5c-1-20.5-3.4-68.5,19-88.2c21-18.5,81.3-28,105.8-11.7c25.6,17.1,40.5,69.9,48.4,111.2
		c9,46.8,11.8,91.7,11.4,101.7c-0.5,11.8-23.3,65.8-27.4,71.2c-3.1,4-32.6,7.2-38.5,7.8C309.9,514.5,293,516.1,281.7,515.7z
		 M273.7,511.4c3.4,1.8,19.8,1.6,39.8-0.4c20.7-2.1,35.2-5.1,36.8-6.7c3.9-5.1,26.3-58.3,26.8-69.3c0.4-9.9-2.4-54.4-11.3-100.9
		c-7.8-40.7-22.3-92.7-47-109.2c-23.5-15.7-81.7-6.4-102,11.4c-21.2,18.7-18.9,65.7-17.9,85.7c0.1,2.2,0.2,4.1,0.3,5.6
		c0.9,27,17.3,121.8,30.8,138.1C237.1,474.3,270.4,509.7,273.7,511.4L273.7,511.4z"/>
	<path class="st13" d="M293.6,415.5c-20.6-0.8-36.7-18.2-35.9-38.7c0.8-20.6,18.2-36.7,38.7-35.9c20.6,0.8,36.7,18.2,35.9,38.7
		S314.1,416.3,293.6,415.5z M296.3,344c-18.9-0.7-34.8,14-35.5,32.9c-0.7,18.9,14,34.8,32.9,35.5c18.9,0.7,34.8-14,35.5-32.9
		C329.9,360.6,315.1,344.7,296.3,344z"/>
	<path class="st13" d="M294,407.3c-16.2-0.6-28.8-14.3-28.2-30.4c0.6-16.2,14.3-28.8,30.4-28.2c16.2,0.6,28.8,14.3,28.2,30.4
		C323.9,395.3,310.2,408,294,407.3z M296.2,350.8c-15-0.6-27.7,11.2-28.2,26.2s11.2,27.7,26.2,28.2c15,0.6,27.7-11.2,28.2-26.2
		C322.9,364.1,311.2,351.4,296.2,350.8z"/>
	<path class="st13" d="M240,316.7c-16.6-0.6-29.5-14.6-28.9-31.2s14.6-29.5,31.2-28.9c16.6,0.6,29.5,14.6,28.9,31.2
		C270.5,304.4,256.6,317.3,240,316.7z M242.2,259.8c-14.8-0.6-27.3,11-27.9,25.9c-0.6,14.8,11,27.3,25.9,27.9
		c14.8,0.6,27.3-11,27.9-25.9C268.6,272.9,257,260.3,242.2,259.8z"/>
	<path class="st13" d="M310.2,308.2c-16.4-0.6-29.2-14.4-28.5-30.8s14.4-29.2,30.8-28.5c16.4,0.6,29.2,14.4,28.5,30.8
		C340.4,296,326.5,308.8,310.2,308.2z M312.3,252c-14.6-0.6-27,10.9-27.5,25.5c-0.6,14.6,10.9,27,25.5,27.5
		c14.6,0.6,27-10.9,27.5-25.5C338.4,264.9,326.9,252.6,312.3,252z"/>
	<path class="st13" d="M376.9,402.2c-0.7,0-1.1-0.5-1.3-0.8c-0.8-1.4,0.5-2.3,2.4-3.7c2.6-1.9,2.3-6.7,2.3-6.7l-0.3-3.5l2.8,2.2
		c0,0,4.5,3.5,9.4,6c2.9,1.5,10.7,0.9,16,0.2c-3.2-2.2-7.6-5.3-9.2-7.3c-2.6-3.2-3.3-13.2-3.3-14.3l-0.2-3l2.6,1.5
		c0.1,0.1,12.8,7.7,18.6,8.4l1.6,0.2c5.8,0.7,14.7,1.8,17.9,0.5c2-0.8,6.3-5.5,9.8-9.7c-3.2,0.3-8,0.3-13.3-1.5
		c-9.6-3.2-17.4-12.6-17.7-13l-3-3.7l4.6,1.1c7.5,1.9,18.9,4.3,20.9,3.9c0.5-0.1,1.1-0.2,2-0.3c4.6-0.7,15.5-2.5,19.7-5.2
		c5-3.3,10.4-10,13.3-13.7c-6.6,0.5-20.9,1.4-28.4,0.6c-7.7-0.8-16.9-8-17.3-8.3l-3.1-2.5l4-0.3c0.2,0,23-2,30.7-3.9
		c12-2.9,19.3-8.3,21.2-11.3c1.3-2,4.5-14.5,6.8-24.4c-4,3.3-10.6,8.4-17.5,11.6c-10.9,5-28.1,3.3-28.9,3.3l-4-0.4l3.2-2.4
		c8.8-6.7,32.4-25.1,35-29.4c3.3-5.4,6.3-13.4,7.5-18.2c0.7-2.9-0.8-14.1-2.3-23.1c-3.2,5.8-9.6,16.7-17.4,24.8
		c-11.1,11.5-23.2,14.2-23.7,14.3l-4.1,0.9l2.5-3.3c0.2-0.3,19.5-26.3,26.5-39.6c7.5-14.1,7-28.4,6.7-32.4c-0.3-3.7-5.4-15.8-9-23.8
		c-2.2,13.9-12,51.7-54.3,98.7c-17.3,19.1-43.4,39.6-43.6,39.8l-1.9-2.5c0.3-0.2,26.2-20.5,43.2-39.5c51.9-57.5,54.2-102,54.2-102.4
		l0.2-6.5l2.7,5.9c0.5,1,11.1,23.8,11.6,30c0.3,4.3,0.8,19.3-7,34.2c-5.5,10.5-18.1,28.2-23.9,36c4.3-1.8,11.2-5.3,17.6-11.9
		c10.6-11,18.9-27.9,19-28.1l2.1-4.3l0.9,4.7c0.5,2.4,4.4,23.8,3.1,28.9c-1.2,5-4.4,13.4-7.9,19.1c-2.9,4.7-23.8,21.1-32.4,27.7
		c5.7,0.2,16,0,23.1-3.2c10.3-4.7,20.3-14.2,20.4-14.2l3.8-3.6l-1.1,5.1c-0.6,2.7-6,26.7-8.3,30.2c-2.7,4.2-10.9,9.7-23.1,12.6
		c-5.9,1.4-19.8,2.9-26.9,3.5c3.2,2.1,8.1,4.8,12.2,5.2c9.4,1,31-0.9,31.2-0.9l3.3-0.3l-1.9,2.7c-0.3,0.5-8.4,12.3-16.1,17.3
		c-4.7,3.1-15.7,4.9-20.9,5.7c-0.8,0.1-1.5,0.2-1.9,0.3c-2.4,0.4-11.1-1.4-17-2.7c3,2.9,7.6,6.6,12.7,8.3c8.7,2.9,15.7,0.7,15.7,0.6
		l4.9-1.6l-3.1,4.1c-1,1.3-9.6,12.3-13.7,14c-3.7,1.5-11,0.8-19.5-0.3l-1.6-0.2c-4.8-0.6-13-4.9-17.2-7.3c0.4,3.7,1.2,8.1,2.4,9.5
		c1.8,2.2,9.2,7.1,11.9,8.9l3.4,2.2l-3.9,0.7c-1.7,0.3-16.5,2.9-22,0.1c-3-1.5-5.7-3.3-7.5-4.6c-0.3,2.1-1.2,4.8-3.5,6.4
		c-1.3,0.9-1.6,1.2-1.6,1.2c0.3-0.3-0.5,0.5-0.9-0.1c-0.3-0.5,0,0-0.4,0l1.4,0.5C377.7,402.2,377.3,402.3,376.9,402.2z"/>
	<path class="st13" d="M165.2,455.8l1.4-2.3c0.1-0.1,5.9-9.8,7.4-16.1c1-3.8,0.1-11-0.7-16c-1.6,3.7-3.9,8.7-6.5,12.4
		c-4.7,6.9-13.6,15-18.6,18c-5.3,3.1-29.1-3.4-33.8-4.7l-6.1-1.7l6.2-1.3c0.1,0,13.7-3,22.2-13.8c3-3.8,6.8-14.2,8.9-20.4
		c-4.3,3.4-11.2,8.7-15.4,11.8c-6,4.4-31.1,9.9-38.9,9.2c-7.5-0.6-34.2-18.2-37.2-20.2l-4.5-3l5.4,0.1c16.5,0.4,42.4,0.3,46.2-1.4
		c6.9-3.1,14.5-8.9,18.9-12.5c-7.8,0.6-23,1.8-31,1.7c-10.2-0.1-40.1-3.4-46.8-5.9c-6.4-2.4-17.6-19-18.8-20.9l-1.8-2.6l3.2,0.2
		c0.7,0,70.7,4.4,124.6-11.5c26.3-7.7,47.7-19.4,47.9-19.5l0.4,3.8c-0.2,0.1-20.8,10.9-47.4,18.7c-47.8,14.1-108,12.4-122.5,11.7
		c4.1,5.8,11.6,15.5,15.5,17c5.8,2.2,34.9,5.6,45.7,5.7c10.6,0.1,35.3-2.1,35.6-2.1l4.6-0.4l-3.4,3.1c-0.5,0.5-12.4,11.3-23.4,16.2
		c-4.7,2.1-30.3,2-42.1,1.8c9.8,6.3,26.4,16.3,31.2,16.7c7.1,0.6,31.5-4.7,36.8-8.6c6.5-4.8,19.3-14.9,19.4-15l4-3.1l-1.5,4.8
		c-0.3,0.8-6.3,20.3-11,26.3c-5.8,7.4-13.6,11.3-18.7,13.2c10.6,2.7,23.5,5.2,26.1,3.6c4.7-2.8,13.3-10.7,17.6-17
		c4.3-6.2,8.1-16.7,8.2-16.8l1.9-5.2l1.1,5.4c0.1,0.6,3.3,15.9,1.6,22.8c-1.2,4.8-4.5,11.2-6.4,14.6c4.8,0,10.9-0.4,12.9-1.6
		c3.4-2.2,7.2-8.1,9.2-14.4c0.1-0.5,0.4-1,0.6-1.7c1.1-3,3-8.1,3.1-15.1l0-3.1l2.5,1.9c0.2,0.2,5.3,4,7.8,10.6
		c2,5.3,0,11.9-1.3,15.3c1.5-0.1,3.5-0.3,5.1-1c2.4-1.1,4.5-5,5.1-6.5l2.9,1.2c-0.3,0.6-2.8,6.3-6.7,8.1c-3.8,1.7-8.7,1.3-8.9,1.3
		l-2.3-0.2l1-2.1c0-0.1,4.4-9,2.1-15.1c-1.1-3-2.9-5.4-4.3-7c-0.5,5.9-2.2,10.2-3.1,12.8c-0.2,0.6-0.4,1.1-0.5,1.5
		c-2.2,7-6.5,13.4-10.5,16.1c-3.9,2.5-15.9,2.1-17.3,2.1L165.2,455.8z"/>
	<path class="st13" d="M211.4,292.4l-6.3-0.2c-1.2,0-2.1-1-2-2.2c0-1.2,1-2.1,2.2-2l6.3,0.2c1.2,0,2.1,1,2,2.2
		C213.5,291.5,212.5,292.4,211.4,292.4z"/>
	<path class="st13" d="M208.3,304.9c-0.8,0-1.5-0.5-1.8-1.3c-0.5-1.1,0-2.3,1.1-2.8l6.6-2.8c1.1-0.5,2.3,0,2.8,1.1
		c0.5,1.1,0,2.3-1.1,2.8l-6.6,2.8C208.9,304.8,208.6,304.9,208.3,304.9z"/>
	<path class="st13" d="M215.4,316.3c-0.5,0-1-0.2-1.3-0.6c-0.8-0.8-0.9-2.1-0.1-3l5.3-5.6c0.8-0.8,2.1-0.9,3-0.1
		c0.8,0.8,0.9,2.1,0.1,3l-5.3,5.6C216.5,316.1,215.9,316.3,215.4,316.3z"/>
	<path class="st13" d="M341.3,302.6c-0.5,0-1-0.2-1.4-0.6l-5.4-5.4c-0.8-0.8-0.8-2.1,0-3c0.8-0.8,2.1-0.8,3,0l5.4,5.4
		c0.8,0.8,0.8,2.1,0,3C342.5,302.4,341.9,302.6,341.3,302.6z"/>
	<path class="st13" d="M346.7,289.5c-0.1,0-0.1,0-0.2,0l-6.6-0.9c-1.1-0.2-1.9-1.2-1.8-2.4s1.2-1.9,2.4-1.8l6.6,0.9
		c1.1,0.2,1.9,1.2,1.8,2.4C348.7,288.8,347.8,289.5,346.7,289.5z"/>
	<path class="st13" d="M340.5,277.9c-1,0-1.8-0.8-2-1.8c-0.2-1.1,0.6-2.2,1.7-2.4l5.3-0.8c1.1-0.2,2.2,0.6,2.4,1.7
		c0.2,1.1-0.6,2.2-1.7,2.4l-5.3,0.8C340.8,277.9,340.7,277.9,340.5,277.9z"/>
	<path class="st13" d="M206.9,413.5c-8.5-0.3-32.5-2.1-51.2-11.5c-34.6-17.5-47.5-36-48-36.7l1.7-1.2c0.1,0.2,13.2,18.8,47.2,36.1
		c22.5,11.4,53,11.4,53.3,11.4l0,2.1C209.9,413.6,208.8,413.6,206.9,413.5z"/>
	<path class="st13" d="M374.1,378.3l-0.6-2c0.3-0.1,29.5-9,46-47.6c16.6-38.7,2.3-78.7,2.2-79.1l2-0.7c0.1,0.4,14.7,41.2-2.2,80.7
		C404.5,369.1,374.4,378.3,374.1,378.3z"/>
	<g>
		<path class="st6" d="M286.7,329c-1.7,0.2-3.5,0.4-5.2,0.6c0.5,0.8,1.1,1.6,1.6,2.3c1.4-0.1,2.8-0.3,4.2-0.5
			c1.3-0.2,2.5-0.3,3.8-0.5c0.2-0.8,0.3-1.7,0.5-2.5C290,328.6,288.3,328.8,286.7,329z"/>
		<path class="st6" d="M291.9,326.2c0.5-3.9,0.6-7.5,0.4-8.8c-0.6-3.3-9.7-17.5-12-18.9c-1.6,1.9-3.5,15.1-3.7,20.3
			c-0.1,1.7,1.6,5.3,3.7,8.8c2-0.2,4.1-0.4,6.2-0.7C288.3,326.7,290.1,326.4,291.9,326.2z"/>
		<path class="st6" d="M284.6,333.8c1.5,1.8,2.9,3.1,3.9,3.4c0,0,0.1,0,0.3-0.1c0.7-0.6,1.3-2.1,1.8-4c-1,0.1-2,0.3-3,0.4
			C286.6,333.6,285.6,333.7,284.6,333.8z"/>
		<path class="st13" d="M359.6,302c0.4-0.4,0.3-1.1-0.1-1.5c-0.4-0.4-1.1-0.3-1.5,0.1c-0.2,0.2-17,18-64,25.2
			c-0.1,0.7-0.2,1.4-0.3,2.2C342,320.8,359,302.8,359.6,302z"/>
		<path class="st13" d="M198.1,319.4c-0.5-0.2-1.1,0.1-1.4,0.6c-0.2,0.5,0.1,1.1,0.6,1.4c0.3,0.1,21.1,7.9,53.9,9.2
			c8.8,0.3,17.5,0.1,27.9-0.8c-0.4-0.7-0.8-1.3-1.2-2C230.1,331.7,198.5,319.5,198.1,319.4z"/>
		<path class="st13" d="M360.4,305c-0.4-0.4-1.1-0.3-1.5,0.1c-0.2,0.2-17.4,18.4-65.6,25.5c-0.1,0.8-0.3,1.5-0.5,2.2
			c49.7-7.1,67-25.5,67.7-26.3C360.9,306,360.9,305.3,360.4,305z"/>
		<path class="st13" d="M199,323.9c-0.5-0.2-1.1,0.1-1.4,0.6c-0.2,0.5,0.1,1.1,0.6,1.4c0.3,0.1,21.1,7.9,53.9,9.2
			c9.4,0.4,18.8,0.1,30-1c-0.5-0.6-1-1.3-1.5-2C231.8,336.5,199.3,324,199,323.9z"/>
		<path class="st13" d="M276.5,318.7c0.2-5.2,2.1-18.4,3.7-20.3c2.3,1.4,11.4,15.6,12,18.9c0.3,1.3,0.1,5-0.4,8.8
			c0.7-0.1,1.5-0.2,2.2-0.3c0.4-3.9,0.5-7.5,0.3-8.9c-0.6-3.3-9.8-18.5-13.2-20.4c-0.7-0.4-1.2-0.3-1.5-0.2l0,0
			c-3.2,1.3-5,18.9-5.1,22.3c-0.1,1.9,1.4,5.4,3.5,9.1c0.8-0.1,1.5-0.1,2.3-0.2C278.1,324,276.4,320.5,276.5,318.7z"/>
		<path class="st13" d="M281.5,329.5c-0.8,0.1-1.6,0.1-2.4,0.2c0.5,0.8,1,1.6,1.5,2.3c0.8-0.1,1.6-0.1,2.5-0.2
			C282.6,331.1,282,330.3,281.5,329.5z"/>
		<path class="st13" d="M291.1,330.9c0.7-0.1,1.5-0.2,2.2-0.3c0.2-0.8,0.3-1.7,0.4-2.5c-0.7,0.1-1.5,0.2-2.2,0.3
			C291.4,329.2,291.3,330,291.1,330.9z"/>
		<path class="st13" d="M288.8,337c-0.2,0.2-0.3,0.2-0.3,0.1c-1-0.3-2.4-1.6-3.9-3.4c-0.8,0.1-1.7,0.2-2.5,0.3
			c2.1,2.6,4.2,4.6,5.8,5.1c0.2,0.1,0.4,0.1,0.6,0.1c0.6,0,1.2-0.2,1.8-0.7c1.1-1,2-3.2,2.6-5.8c-0.7,0.1-1.5,0.2-2.2,0.3
			C290.1,334.9,289.5,336.4,288.8,337z"/>
		<path class="st13" d="M280.2,327.5c-0.8,0.1-1.6,0.1-2.3,0.2c0.4,0.7,0.8,1.3,1.2,2c0.8-0.1,1.6-0.1,2.4-0.2
			C281.1,328.9,280.6,328.2,280.2,327.5z"/>
		<path class="st13" d="M291.6,328.3c0.8-0.1,1.5-0.2,2.2-0.3c0.1-0.7,0.2-1.4,0.3-2.2c-0.7,0.1-1.4,0.2-2.2,0.3
			C291.8,326.9,291.7,327.6,291.6,328.3z"/>
		<path class="st13" d="M291.1,330.9c-0.2,0.8-0.3,1.5-0.5,2.2c0.7-0.1,1.5-0.2,2.2-0.3c0.2-0.7,0.3-1.4,0.5-2.2
			C292.6,330.7,291.8,330.8,291.1,330.9z"/>
		<path class="st13" d="M283.1,331.8c-0.8,0.1-1.6,0.2-2.5,0.2c0.5,0.7,1,1.3,1.5,2c0.8-0.1,1.7-0.2,2.5-0.3
			C284.1,333.2,283.6,332.5,283.1,331.8z"/>
	</g>
	<path class="st13" d="M261.2,391.7c-0.1,0-14.3-4.4-27.4-9.2c-14.9-5.4-32.9-15.4-33.1-15.5l1-1.8c0.2,0.1,18.1,10,32.8,15.3
		c13,4.7,27.1,9.1,27.3,9.1L261.2,391.7z"/>
	<path class="st13" d="M331.2,384.9l-1.4-1.6c0.1-0.1,14.8-12.5,23.3-22.1c7.5-8.5,14.7-18.6,14.8-18.7l1.7,1.2
		c-0.1,0.1-7.3,10.4-14.9,18.9C346.1,372.3,331.4,384.8,331.2,384.9z"/>
	<path class="st13" d="M310.8,445.4c-3-0.1-36.7-7.4-60.9-16.3c-24-8.9-41.6-20.8-41.7-20.9l1.2-1.7c0.2,0.1,17.6,11.9,41.3,20.7
		c23.4,8.7,57.4,16.1,60.2,16.2c2.8-0.4,26.7-19.1,37-29c9.6-9.2,25.7-31,25.9-31.2l1.7,1.2c-0.2,0.2-16.4,22.1-26.1,31.5
		C341.3,423.4,314.5,445.5,310.8,445.4z"/>
	<path class="st13" d="M240.2,309.2c-12.5-0.5-22.2-11-21.8-23.5c0.5-12.5,11-22.2,23.5-21.8c12.5,0.5,22.2,11,21.8,23.5
		S252.6,309.6,240.2,309.2z M241.8,266c-11.3-0.4-20.9,8.4-21.3,19.7c-0.4,11.3,8.4,20.9,19.7,21.3c11.3,0.4,20.9-8.4,21.3-19.7
		C262,276,253.1,266.5,241.8,266z"/>
	
		<rect x="197.3" y="198.1" transform="matrix(0.8812 -0.4728 0.4728 0.8812 -80.8399 120.0206)" class="st13" width="2.1" height="45.6"/>
	<polygon class="st13" points="219.2,230.5 192.1,198.2 193.8,196.9 221.8,230.2 	"/>
	
		<rect x="296.2" y="198.8" transform="matrix(0.3934 -0.9194 0.9194 0.3934 8.0505 411.9655)" class="st13" width="39.9" height="2.1"/>
	<polygon class="st13" points="322.5,225.6 320.5,225.1 328.7,183.8 330.8,183.2 	"/>
	<path class="st13" d="M185.5,201.6c-5.8-0.2-10.3-5.1-10.1-10.9c0.2-5.8,5.1-10.3,10.9-10.1c5.8,0.2,10.3,5.1,10.1,10.9
		C196.1,197.3,191.2,201.8,185.5,201.6z M186.2,182.8c-4.6-0.2-8.5,3.4-8.7,8.1c-0.2,4.6,3.4,8.5,8.1,8.7c4.6,0.2,8.5-3.4,8.7-8.1
		C194.4,186.8,190.8,182.9,186.2,182.8z"/>
	<path class="st13" d="M328.6,184.1c-5.4-0.2-9.7-4.8-9.5-10.2c0.2-5.4,4.8-9.7,10.2-9.5c5.4,0.2,9.7,4.8,9.5,10.2
		C338.6,180.1,334,184.3,328.6,184.1z M329.2,166.6c-4.3-0.2-7.9,3.2-8,7.4c-0.2,4.3,3.2,7.9,7.4,8c4.3,0.2,7.9-3.2,8-7.4
		C336.8,170.3,333.5,166.7,329.2,166.6z"/>
	<path class="st13" d="M237.3,308c-9.7-0.4-17.2-8.5-16.9-18.2c0.4-9.7,8.5-17.2,18.2-16.9c9.7,0.4,17.2,8.5,16.9,18.2
		C255.1,300.8,246.9,308.4,237.3,308z M238.5,275c-8.5-0.3-15.7,6.3-16,14.9s6.3,15.7,14.9,16c8.5,0.3,15.7-6.3,16-14.9
		C253.7,282.5,247,275.3,238.5,275z"/>
	<path class="st13" d="M308.6,300.4c-9.7-0.4-17.2-8.5-16.9-18.2c0.4-9.7,8.5-17.2,18.2-16.9c9.7,0.4,17.2,8.5,16.9,18.2
		C326.4,293.2,318.2,300.8,308.6,300.4z M309.8,267.4c-8.5-0.3-15.7,6.3-16,14.9c-0.3,8.5,6.3,15.7,14.9,16
		c8.5,0.3,15.7-6.3,16-14.9C325,274.9,318.3,267.7,309.8,267.4z"/>
	<path class="st13" d="M312.5,478.8c-6-0.2-31-6.5-45-10.7c-15.1-4.5-48.3-21.7-49.7-22.4l1-1.9c0.3,0.2,34.4,17.8,49.4,22.2
		c15.8,4.7,40.4,10.6,44.8,10.6c4.1-0.1,22.8-11.9,34.2-22.5c10.7-9.9,29.8-32.6,30-32.8l1.6,1.3c-0.2,0.2-19.4,23-30.2,33
		c-10.3,9.6-30.2,23-35.6,23.1C312.8,478.8,312.6,478.8,312.5,478.8z"/>
	<path class="st13" d="M273.3,500.9c-9.2-0.3-14.9-1.1-15-1.1l0.3-2.1c0.2,0,23.8,3.2,54.4-0.6c27.2-3.3,46.1-10.2,46.3-10.3l0.7,2
		c-0.2,0.1-19.4,7.1-46.8,10.4C297.3,501.2,283.2,501.3,273.3,500.9z"/>
	<path class="st13" d="M211.7,364.9c-1.6-0.1-2.8-1.4-2.8-3c0.1-1.6,1.4-2.8,3-2.8c1.6,0.1,2.8,1.4,2.8,3
		C214.6,363.8,213.3,365,211.7,364.9z M211.9,360.2c-1,0-1.9,0.8-1.9,1.8s0.8,1.9,1.8,1.9c1,0,1.9-0.8,1.9-1.8
		S212.9,360.3,211.9,360.2z"/>
	<path class="st13" d="M230.3,373c-1.6-0.1-2.8-1.4-2.8-3c0.1-1.6,1.4-2.8,3-2.8c1.6,0.1,2.8,1.4,2.8,3
		C233.2,371.8,231.9,373,230.3,373z M230.4,368.3c-1,0-1.9,0.8-1.9,1.8s0.8,1.9,1.8,1.9c1,0,1.9-0.8,1.9-1.8
		C232.3,369.1,231.5,368.3,230.4,368.3z"/>
	<path class="st13" d="M250,379c-1.6-0.1-2.8-1.4-2.8-3c0.1-1.6,1.4-2.8,3-2.8c1.6,0.1,2.8,1.4,2.8,3C252.9,377.8,251.6,379,250,379
		z M250.1,374.2c-1,0-1.9,0.8-1.9,1.8c0,1,0.8,1.9,1.8,1.9c1,0,1.9-0.8,1.9-1.8C251.9,375.1,251.2,374.3,250.1,374.2z"/>
	<path class="st13" d="M337.3,370.7c-1.6-0.1-2.8-1.4-2.8-3c0.1-1.6,1.4-2.8,3-2.8s2.8,1.4,2.8,3
		C340.2,369.6,338.9,370.8,337.3,370.7z M337.5,366c-1,0-1.9,0.8-1.9,1.8c0,1,0.8,1.9,1.8,1.9c1,0,1.9-0.8,1.9-1.8
		C339.3,366.9,338.5,366,337.5,366z"/>
	<path class="st13" d="M349.3,358.6c-1.6-0.1-2.8-1.4-2.8-3c0.1-1.6,1.4-2.8,3-2.8c1.6,0.1,2.8,1.4,2.8,3
		C352.2,357.4,350.9,358.7,349.3,358.6z M349.4,353.9c-1,0-1.9,0.8-1.9,1.8s0.8,1.9,1.8,1.9c1,0,1.9-0.8,1.9-1.8
		C351.3,354.8,350.5,353.9,349.4,353.9z"/>
	<path class="st13" d="M360.2,346.4c-1.6-0.1-2.8-1.4-2.8-3c0.1-1.6,1.4-2.8,3-2.8c1.6,0.1,2.8,1.4,2.8,3
		C363.1,345.3,361.8,346.5,360.2,346.4z M360.4,341.7c-1,0-1.9,0.8-1.9,1.8c0,1,0.8,1.9,1.8,1.9c1,0,1.9-0.8,1.9-1.8
		C362.2,342.6,361.4,341.8,360.4,341.7z"/>
	<polygon class="st14" points="203,182.4 215.5,182.7 215.4,182.7 225.7,172.4 225.9,172.2 226.1,172.4 235.2,186.5 234.7,186.5 
		239.6,180.4 240,179.9 240.2,180.5 245.4,192.1 244.6,192.3 245.7,162.4 245.7,160.1 246.6,162.2 252.9,177.4 252.1,177.2 
		257.4,173.9 257.8,173.6 258.1,174 266.8,184.4 266,184.5 273.5,172 274,171.3 274.4,172 283.6,188.3 282.7,188.4 284.4,180 
		284.5,179.2 285.1,179.8 290.5,185.4 289.8,185.6 292.5,164.1 292.6,163.2 293,164 299.5,177.2 299.3,177.1 315.1,176.5 
		299.4,177.4 299.3,177.4 299.2,177.3 292.5,164.3 293,164.2 290.6,185.7 290.5,186.5 289.9,185.9 284.5,180.3 285.2,180.1 
		283.6,188.6 283.4,189.8 282.8,188.7 273.5,172.5 274.4,172.5 266.9,185 266.5,185.6 266.1,185.1 257.3,174.6 258,174.7 252.7,178 
		252.2,178.3 251.9,177.8 245.7,162.6 246.6,162.4 245.5,192.3 245.4,194.2 244.6,192.5 239.6,180.8 240.2,180.8 235.2,186.9 
		234.9,187.3 234.7,186.9 225.7,172.7 226,172.7 215.6,182.9 215.6,182.9 215.5,182.9 	"/>
	<path class="st14" d="M298.3,540.9c-3.1-0.1-6-0.3-8.6-0.6c-10.5-1.2-11.8-3.2-11.9-4.7c-0.1-1.5,1-3.6,11.3-5.9
		c6.9-1.5,16.1-2.6,26-3.1c13-0.7,37.7-0.5,38,5.1l0,0c0.3,5.6-24.3,8.3-37.3,9C309.6,541.1,303.6,541.1,298.3,540.9z M332.5,528.5
		c-4.9-0.2-10.6-0.2-17.3,0.2c-22.8,1.2-35.1,5-35.3,6.8c0.4,1.7,13,4.3,35.8,3.1c22.8-1.2,35.1-5,35.3-6.8
		C350.8,530.6,344.3,529,332.5,528.5z"/>
	<path class="st14" d="M311.9,559.9c-5.6-0.2-11.9-1-12.1-3.7c-0.1-1.6,1.9-2.9,6.3-3.9c3.7-0.9,8.6-1.5,13.8-1.8
		c2.1-0.1,20.3-0.9,20.6,3.7l0,0c0.1,1.6-1.9,2.9-6.3,3.9c-3.7,0.9-8.6,1.5-13.8,1.8C319.5,559.8,315.9,560,311.9,559.9z M302,556
		c1,0.9,7.6,2.2,18.3,1.7c10.7-0.5,17.1-2.5,18-3.5c-1-0.9-7.6-2.2-18.3-1.7C309.4,553,303,555,302,556z"/>
	<path class="st13" d="M218.2,408.7c-1.6-0.1-2.8-1.4-2.8-3c0.1-1.6,1.4-2.8,3-2.8c1.6,0.1,2.8,1.4,2.8,3
		C221.1,407.5,219.8,408.7,218.2,408.7z M218.4,403.9c-1,0-1.9,0.8-1.9,1.8c0,1,0.8,1.9,1.8,1.9c1,0,1.9-0.8,1.9-1.8
		C220.2,404.8,219.4,404,218.4,403.9z"/>
	<path class="st13" d="M237.8,416.7c-1.6-0.1-2.8-1.4-2.8-3c0.1-1.6,1.4-2.8,3-2.8c1.6,0.1,2.8,1.4,2.8,3
		C240.7,415.6,239.4,416.8,237.8,416.7z M238,412c-1,0-1.9,0.8-1.9,1.8s0.8,1.9,1.8,1.9c1,0,1.9-0.8,1.9-1.8
		C239.8,412.9,239,412.1,238,412z"/>
	<path class="st13" d="M258.5,424.9c-1.6-0.1-2.8-1.4-2.8-3c0.1-1.6,1.4-2.8,3-2.8c1.6,0.1,2.8,1.4,2.8,3
		C261.4,423.7,260,424.9,258.5,424.9z M258.6,420.1c-1,0-1.9,0.8-1.9,1.8c0,1,0.8,1.9,1.8,1.9c1,0,1.9-0.8,1.9-1.8
		C260.4,421,259.7,420.2,258.6,420.1z"/>
	<path class="st13" d="M340.6,414.7c-1.6-0.1-2.8-1.4-2.8-3c0.1-1.6,1.4-2.8,3-2.8c1.6,0.1,2.8,1.4,2.8,3
		C343.5,413.5,342.2,414.8,340.6,414.7z M340.8,410c-1,0-1.9,0.8-1.9,1.8c0,1,0.8,1.9,1.8,1.9c1,0,1.9-0.8,1.9-1.8
		C342.6,410.9,341.8,410,340.8,410z"/>
	<path class="st13" d="M354.8,400.2c-1.6-0.1-2.8-1.4-2.8-3c0.1-1.6,1.4-2.8,3-2.8c1.6,0.1,2.8,1.4,2.8,3
		C357.7,399,356.4,400.3,354.8,400.2z M355,395.5c-1,0-1.9,0.8-1.9,1.8c0,1,0.8,1.9,1.8,1.9c1,0,1.9-0.8,1.9-1.8
		C356.8,396.4,356,395.5,355,395.5z"/>
	<path class="st13" d="M366.9,386c-1.6-0.1-2.8-1.4-2.8-3c0.1-1.6,1.4-2.8,3-2.8c1.6,0.1,2.8,1.4,2.8,3
		C369.8,384.8,368.4,386,366.9,386z M367,381.2c-1,0-1.9,0.8-1.9,1.8c0,1,0.8,1.9,1.8,1.9c1,0,1.9-0.8,1.9-1.8
		C368.8,382.1,368,381.3,367,381.2z"/>
	<path class="st13" d="M280.3,431.5c-1.6-0.1-2.8-1.4-2.8-3c0.1-1.6,1.4-2.8,3-2.8c1.6,0.1,2.8,1.4,2.8,3
		C283.2,430.3,281.9,431.5,280.3,431.5z M280.5,426.7c-1,0-1.9,0.8-1.9,1.8c0,1,0.8,1.9,1.8,1.9c1,0,1.9-0.8,1.9-1.8
		C282.3,427.6,281.5,426.8,280.5,426.7z"/>
	<path class="st13" d="M304.2,437.6c-1.6-0.1-2.8-1.4-2.8-3c0.1-1.6,1.4-2.8,3-2.8c1.6,0.1,2.8,1.4,2.8,3
		C307.1,436.4,305.8,437.7,304.2,437.6z M304.3,432.9c-1,0-1.9,0.8-1.9,1.8c0,1,0.8,1.9,1.8,1.9c1,0,1.9-0.8,1.9-1.8
		C306.2,433.8,305.4,432.9,304.3,432.9z"/>
	<path class="st13" d="M324.9,429.8c-1.6-0.1-2.8-1.4-2.8-3c0.1-1.6,1.4-2.8,3-2.8s2.8,1.4,2.8,3
		C327.8,428.6,326.5,429.8,324.9,429.8z M325.1,425c-1,0-1.9,0.8-1.9,1.8c0,1,0.8,1.9,1.8,1.9c1,0,1.9-0.8,1.9-1.8
		C326.9,425.9,326.1,425.1,325.1,425z"/>
	<path class="st13" d="M223.8,442.5c-1.6-0.1-2.8-1.4-2.8-3c0.1-1.6,1.4-2.8,3-2.8c1.6,0.1,2.8,1.4,2.8,3
		C226.7,441.3,225.4,442.5,223.8,442.5z M224,437.8c-1,0-1.9,0.8-1.9,1.8s0.8,1.9,1.8,1.9s1.9-0.8,1.9-1.8
		C225.8,438.6,225,437.8,224,437.8z"/>
	<path class="st13" d="M243.4,450.6c-1.6-0.1-2.8-1.4-2.8-3c0.1-1.6,1.4-2.8,3-2.8c1.6,0.1,2.8,1.4,2.8,3
		C246.3,449.4,245,450.6,243.4,450.6z M243.6,445.8c-1,0-1.9,0.8-1.9,1.8s0.8,1.9,1.8,1.9s1.9-0.8,1.9-1.8
		C245.4,446.7,244.6,445.9,243.6,445.8z"/>
	<path class="st13" d="M264.1,458.7c-1.6-0.1-2.8-1.4-2.8-3c0.1-1.6,1.4-2.8,3-2.8c1.6,0.1,2.8,1.4,2.8,3
		C267,457.5,265.7,458.7,264.1,458.7z M264.2,453.9c-1,0-1.9,0.8-1.9,1.8c0,1,0.8,1.9,1.8,1.9c1,0,1.9-0.8,1.9-1.8
		S265.3,454,264.2,453.9z"/>
	<path class="st13" d="M346.2,447.5c-1.6-0.1-2.8-1.4-2.8-3c0.1-1.6,1.4-2.8,3-2.8c1.6,0.1,2.8,1.4,2.8,3
		C349.2,446.3,347.8,447.5,346.2,447.5z M346.4,442.8c-1,0-1.9,0.8-1.9,1.8c0,1,0.8,1.9,1.8,1.9c1,0,1.9-0.8,1.9-1.8
		C348.2,443.6,347.4,442.8,346.4,442.8z"/>
	<path class="st13" d="M360.4,433c-1.6-0.1-2.8-1.4-2.8-3c0.1-1.6,1.4-2.8,3-2.8c1.6,0.1,2.8,1.4,2.8,3
		C363.4,431.8,362,433,360.4,433z M360.6,428.2c-1,0-1.9,0.8-1.9,1.8c0,1,0.8,1.9,1.8,1.9c1,0,1.9-0.8,1.9-1.8
		C362.4,429.1,361.6,428.3,360.6,428.2z"/>
	<path class="st13" d="M371.4,419.8c-1.6-0.1-2.8-1.4-2.8-3c0.1-1.6,1.4-2.8,3-2.8c1.6,0.1,2.8,1.4,2.8,3
		C374.3,418.6,373,419.8,371.4,419.8z M371.6,415c-1,0-1.9,0.8-1.9,1.8s0.8,1.9,1.8,1.9c1,0,1.9-0.8,1.9-1.8
		C373.4,415.9,372.6,415.1,371.6,415z"/>
	<path class="st13" d="M285.9,465.3c-1.6-0.1-2.8-1.4-2.8-3c0.1-1.6,1.4-2.8,3-2.8c1.6,0.1,2.8,1.4,2.8,3
		C288.8,464.1,287.5,465.4,285.9,465.3z M286.1,460.6c-1,0-1.9,0.8-1.9,1.8c0,1,0.8,1.9,1.8,1.9s1.9-0.8,1.9-1.8
		C287.9,461.5,287.1,460.6,286.1,460.6z"/>
	<path class="st13" d="M309.8,471.4c-1.6-0.1-2.8-1.4-2.8-3c0.1-1.6,1.4-2.8,3-2.8c1.6,0.1,2.8,1.4,2.8,3
		C312.7,470.3,311.4,471.5,309.8,471.4z M310,466.7c-1,0-1.9,0.8-1.9,1.8c0,1,0.8,1.9,1.8,1.9c1,0,1.9-0.8,1.9-1.8
		C311.8,467.6,311,466.7,310,466.7z"/>
	<path class="st13" d="M329.5,461.4c-1.6-0.1-2.8-1.4-2.8-3c0.1-1.6,1.4-2.8,3-2.8c1.6,0.1,2.8,1.4,2.8,3
		C332.5,460.2,331.1,461.5,329.5,461.4z M329.7,456.7c-1,0-1.9,0.8-1.9,1.8c0,1,0.8,1.9,1.8,1.9c1,0,1.9-0.8,1.9-1.8
		C331.5,457.6,330.7,456.7,329.7,456.7z"/>
	<path class="st13" d="M124.8,374.5c-1.3,0-2.3-1.1-2.3-2.4c0-1.3,1.1-2.3,2.4-2.3c1.3,0,2.3,1.1,2.3,2.4
		C127.2,373.5,126.1,374.5,124.8,374.5z M125,370.8c-0.7,0-1.3,0.5-1.3,1.2c0,0.7,0.5,1.3,1.2,1.3s1.3-0.5,1.3-1.2
		C126.2,371.5,125.7,370.9,125,370.8z"/>
	<path class="st13" d="M146.3,390c-1.3,0-2.3-1.1-2.3-2.4c0-1.3,1.1-2.3,2.4-2.3c1.3,0,2.3,1.1,2.3,2.4S147.6,390,146.3,390z
		 M146.4,386.3c-0.7,0-1.3,0.5-1.3,1.2s0.5,1.3,1.2,1.3c0.7,0,1.3-0.5,1.3-1.2C147.7,386.9,147.1,386.3,146.4,386.3z"/>
	<path class="st13" d="M165.8,400.1c-1.3,0-2.3-1.1-2.3-2.4c0-1.3,1.1-2.3,2.4-2.3c1.3,0,2.3,1.1,2.3,2.4
		C168.2,399.2,167.1,400.2,165.8,400.1z M165.9,396.5c-0.7,0-1.3,0.5-1.3,1.2c0,0.7,0.5,1.3,1.2,1.3c0.7,0,1.3-0.5,1.3-1.2
		C167.2,397.1,166.7,396.5,165.9,396.5z"/>
	<path class="st13" d="M186.5,407.2c-1.3,0-2.3-1.1-2.3-2.4c0-1.3,1.1-2.3,2.4-2.3c1.3,0,2.3,1.1,2.3,2.4
		C188.9,406.2,187.8,407.2,186.5,407.2z M186.6,403.6c-0.7,0-1.3,0.5-1.3,1.2c0,0.7,0.5,1.3,1.2,1.3s1.3-0.5,1.3-1.2
		C187.9,404.2,187.4,403.6,186.6,403.6z"/>
	<path class="st13" d="M382.9,368.5c-1.3,0-2.3-1.1-2.3-2.4s1.1-2.3,2.4-2.3c1.3,0,2.3,1.1,2.3,2.4
		C385.3,367.5,384.2,368.5,382.9,368.5z M383.1,364.9c-0.7,0-1.3,0.5-1.3,1.2c0,0.7,0.5,1.3,1.2,1.3c0.7,0,1.3-0.5,1.3-1.2
		C384.4,365.5,383.8,364.9,383.1,364.9z"/>
	<path class="st13" d="M398.1,355.4c-1.3,0-2.3-1.1-2.3-2.4s1.1-2.3,2.4-2.3c1.3,0,2.3,1.1,2.3,2.4
		C400.5,354.5,399.4,355.5,398.1,355.4z M398.3,351.8c-0.7,0-1.3,0.5-1.3,1.2c0,0.7,0.5,1.3,1.2,1.3s1.3-0.5,1.3-1.2
		S399,351.8,398.3,351.8z"/>
	<path class="st13" d="M202.7,409.9c-1.3,0-2.3-1.1-2.3-2.4c0-1.3,1.1-2.3,2.4-2.3c1.3,0,2.3,1.1,2.3,2.4
		C205.1,408.9,204,410,202.7,409.9z M202.9,406.3c-0.7,0-1.3,0.5-1.3,1.2c0,0.7,0.5,1.3,1.2,1.3c0.7,0,1.3-0.5,1.3-1.2
		C204.2,406.9,203.6,406.3,202.9,406.3z"/>
	<path class="st13" d="M410.3,339.1c-1.3,0-2.3-1.1-2.3-2.4s1.1-2.3,2.4-2.3c1.3,0,2.3,1.1,2.3,2.4
		C412.6,338.2,411.6,339.2,410.3,339.1z M410.4,335.5c-0.7,0-1.3,0.5-1.3,1.2c0,0.7,0.5,1.3,1.2,1.3c0.7,0,1.3-0.5,1.3-1.2
		C411.7,336.1,411.1,335.5,410.4,335.5z"/>
	<path class="st13" d="M418.4,318.5c-1.3,0-2.3-1.1-2.3-2.4c0-1.3,1.1-2.3,2.4-2.3s2.3,1.1,2.3,2.4S419.7,318.5,418.4,318.5z
		 M418.5,314.8c-0.7,0-1.3,0.5-1.3,1.2c0,0.7,0.5,1.3,1.2,1.3c0.7,0,1.3-0.5,1.3-1.2C419.8,315.5,419.2,314.9,418.5,314.8z"/>
	<path class="st13" d="M421.4,293.4c-1.3,0-2.3-1.1-2.3-2.4s1.1-2.3,2.4-2.3c1.3,0,2.3,1.1,2.3,2.4
		C423.8,292.5,422.7,293.5,421.4,293.4z M421.6,289.8c-0.7,0-1.3,0.5-1.3,1.2c0,0.7,0.5,1.3,1.2,1.3c0.7,0,1.3-0.5,1.3-1.2
		C422.8,290.4,422.3,289.8,421.6,289.8z"/>
	<path class="st13" d="M421.2,270.4c-1.3,0-2.3-1.1-2.3-2.4c0-1.3,1.1-2.3,2.4-2.3c1.3,0,2.3,1.1,2.3,2.4S422.5,270.4,421.2,270.4z
		 M421.4,266.7c-0.7,0-1.3,0.5-1.3,1.2c0,0.7,0.5,1.3,1.2,1.3s1.3-0.5,1.3-1.2C422.7,267.3,422.1,266.7,421.4,266.7z"/>
	<path class="st13" d="M242.6,471c-2.2-0.1-4.4-0.9-6.3-2.2c-4-2.8-4.7-15.1-4.7-16.5l2.1-0.1c0.2,4.9,1.4,13.3,3.8,14.9
		c2.9,2,7.1,2.7,9.4,0.2c2.3-2.6,1.3-7,1.3-7.1l2-0.5c0.1,0.2,1.3,5.5-1.8,8.9C247,470.4,244.8,471.1,242.6,471z"/>
	<path class="st13" d="M230.1,464.8c-1.7-0.1-4.6-1.3-4.9-1.4l0.8-1.9c1.1,0.5,3.2,1.2,4.2,1.3c0,0,0,0,0,0c0.2,0,0.9,0,1.5-1
		c0.8-1.3,0.8-3.3,0.6-3.7c0,0,0.1,0.2,0.3,0.2l0.6-2c1.6,0.5,1.3,3,1.2,3.8C233.9,462.9,232.3,464.8,230.1,464.8
		C230.1,464.8,230.1,464.8,230.1,464.8z"/>
	<path class="st13" d="M241.7,480.7l-0.6-2c0.1,0,1.5-0.5,1.7-1.8c0.2-1.3-0.6-4.7-1.2-6.5l2-0.6c0.2,0.5,1.7,5.3,1.2,7.5
		C244.4,479.9,241.8,480.6,241.7,480.7z"/>
	<path class="st13" d="M252.7,484.4c-1.6-0.1-3.3-0.6-4.9-1.6c-3.7-2.4-4.9-6.3-4.9-6.5l2-0.6c0,0,1.1,3.4,4.1,5.4
		c1.7,1.1,3.7,1.6,5.3,1.1c1.3-0.3,2.2-1.1,2.8-2.3c1.3-2.6,0.5-5.8,0.5-5.8l2-0.5c0,0.2,1,4.1-0.7,7.3c-0.9,1.7-2.3,2.9-4.2,3.4
		C254.2,484.3,253.5,484.4,252.7,484.4z"/>
	<path class="st13" d="M256.8,475.7c-1.5-0.1-3-0.4-4.2-1.3c-3.2-2.3-3.8-11.4-3.9-12.5l2.1-0.1c0.2,3.5,1.3,9.6,3,10.9
		c2.5,1.8,7.2,0.6,8.8-0.6c0.9-0.8,1.1-4.1,1-6.2l2.1-0.2c0.1,1,0.4,6.2-1.7,7.9C262.6,474.7,259.7,475.8,256.8,475.7z"/>
	<path class="st13" d="M254.3,494.2l-1.7-1.2c0,0,1.5-2.2,1.3-4.2c-0.2-2.3-1.1-5.2-1.1-5.2l2-0.6c0,0.1,0.9,3.1,1.1,5.6
		C256.3,491.4,254.4,494.1,254.3,494.2z"/>
	<path class="st13" d="M273.3,477.1c-1.3,0-2.7-0.4-4.1-0.9c-5.6-2.2-5.6-7.8-5.6-8l2.1,0c0,0.2,0.1,4.4,4.3,6
		c3.1,1.2,5.6,1,7.8-0.6c0.9-0.7,0.8-2.5,0.7-3.1l2.1-0.4c0,0.1,0.6,3.5-1.5,5.2C277.3,476.6,275.4,477.2,273.3,477.1z"/>
	<path class="st13" d="M266.4,487.2c-0.3,0-0.7,0-1-0.1c-2-0.3-3.6-1.3-4.6-2.8c-1.4-2-2.7-9.2-2.8-10l2.1-0.4
		c0.5,2.9,1.6,8,2.5,9.2c0.9,1.3,2.3,1.8,3.3,1.9c1.7,0.3,3.8-0.2,5.1-1.3c1.8-1.3,1-6,0.6-7.5l2-0.6c0.2,0.7,1.9,7.3-1.3,9.7
		C270.6,486.6,268.4,487.3,266.4,487.2z"/>
	<path class="st13" d="M261.9,496c-1.2,0-2.5-0.5-3.8-1.3c-3.3-2.1-4.1-5.6-4.1-5.8l2.1-0.4l-1,0.2l1-0.2c0,0,0.6,2.8,3.2,4.5
		c1.3,0.8,2.5,1.1,3.7,0.9c1.1-0.3,2.2-1.1,3-2.3c1.3-2.1,1.2-5.4,1.2-5.4l2.1-0.1c0,0.2,0.2,3.9-1.5,6.6c-1.1,1.7-2.6,2.9-4.3,3.3
		C262.9,496,262.4,496,261.9,496z"/>
	<path class="st13" d="M263.4,500.3C263.4,500.3,263.4,500.3,263.4,500.3l0.1-2.1c-0.2,0-0.4,0.1-0.6,0.2c-0.2,0.2-0.3,0.4-0.3,0.4
		c0-0.4-0.5-2.1-1.2-3.5l1.9-0.9c1.9,4.2,1.4,4.9,1.1,5.3C264.2,500.2,263.8,500.4,263.4,500.3z"/>
	<path class="st13" d="M289.3,483.3c-2.4-0.1-4.9-0.9-6.7-2.3c-2.3-1.8-3.4-8.2-3.6-9.5l2.1-0.3c0.4,2.8,1.6,7.2,2.8,8.1
		c1.8,1.4,4.7,2.1,7,1.8c1.2-0.2,2.1-0.7,2.7-1.5c0.9-1.2,0.5-4.3,0.3-5.3l2.1-0.4c0.1,0.5,0.9,4.7-0.7,6.9
		c-0.9,1.3-2.3,2.1-4.1,2.3C290.6,483.3,290,483.3,289.3,483.3z"/>
	<path class="st13" d="M278.2,491.7c-1.4-0.1-2.8-0.6-4.1-1.7c-1.6-1.3-3.3-4.7-3.5-5l1.9-0.9c0.4,0.9,1.8,3.5,2.9,4.3
		c1.2,1,2.5,1.4,3.7,1.2c1.7-0.3,3-1.6,3.7-2.7c0.8-1.3,0-4.9-0.5-6.4l2-0.7c0.2,0.6,1.9,5.7,0.3,8.2c-0.5,0.7-2.2,3.1-5.2,3.6
		C279,491.7,278.6,491.8,278.2,491.7z"/>
	<path class="st13" d="M273.8,498.7c-1.6-0.1-3.2-0.6-4.6-1.5c-2.8-1.8-2.5-6.8-2.4-7.3l2.1,0.2c-0.1,1.1,0,4.5,1.5,5.4
		c1.6,1,3.5,1.4,5.1,1c1-0.2,1.8-0.7,2.2-1.4c0.6-0.9,0.7-3.3,0.6-4.5l2.1-0.1c0,0.4,0.2,4-0.9,5.7c-0.7,1.1-2,1.9-3.5,2.3
		C275.3,498.6,274.6,498.7,273.8,498.7z"/>
	
		<rect x="273.1" y="497.7" transform="matrix(3.776462e-02 -0.9993 0.9993 3.776462e-02 -234.4072 754.0516)" class="st13" width="2.4" height="2.1"/>
	<path class="st13" d="M376,443.6c-0.1,0-3.1-0.1-5-1.4c-1.8-1.3-3.2-7.3-3.5-9.1l2.1-0.4c0.7,3.3,1.9,7.2,2.7,7.8
		c1.1,0.8,3.2,1,3.9,1L376,443.6z"/>
	<path class="st13" d="M364.3,454.2c-1.4-0.1-2.8-0.5-3.9-1.2c-2.2-1.4-3.5-6.3-3.8-7.3l2-0.5c0.5,2.1,1.8,5.3,2.9,6
		c1.6,1,3.6,1.2,5.6,0.4c1.7-0.7,3-1.9,3.3-3.3c0.8-3,0.3-6.8,0.3-6.8l2.1-0.3c0,0.2,0.6,4.2-0.3,7.6c-0.5,2-2.3,3.8-4.6,4.8
		C366.7,454.1,365.5,454.3,364.3,454.2z"/>
	<path class="st13" d="M371.2,458.5c-0.2,0-1.6-0.2-2.7-1.3c-1-1-1.6-3.8-1.7-4.6l2.1-0.4c0.3,1.5,0.8,3.2,1.1,3.5
		c0.6,0.6,1.5,0.7,1.5,0.7L371.2,458.5z"/>
	<path class="st13" d="M287,496.9c-1.6-0.1-3.2-0.6-4.8-1.9c-1.7-1.4-2.5-5.1-2.6-5.5l2.1-0.4c0.2,1.3,1,3.5,1.8,4.2
		c2.9,2.3,6.1,1.6,7.8-0.4c1.1-1.3,0-7-1-10.4l2-0.6c0.5,1.6,2.9,9.8,0.6,12.4C291.4,496,289.3,497,287,496.9z"/>
	<path class="st13" d="M286.1,500.8l-1.6-1.4l1.5-1.7c0-0.8,0.1-1.9,0.1-1.9l2.1,0.1c0,0-0.1,1.4-0.1,2.2l0,0.4L286.1,500.8z"/>
	<path class="st13" d="M353.3,461.2c-1.2,0-2.4-0.5-3.7-1.3c-2.5-1.6-2.9-4.7-2.9-4.8l2.1-0.2c0,0,0.3,2.2,1.9,3.3
		c1.5,1,2.8,1.2,4.3,0.7c0.2-0.1,0.4-0.1,0.6-0.2c1-0.3,1.8-0.5,2.3-2c0.9-2.6,0.2-6.8,0.2-6.8l2.1-0.3c0,0.2,0.7,4.7-0.3,7.8
		c-0.8,2.5-2.5,3-3.7,3.3c-0.2,0-0.3,0.1-0.5,0.1C354.9,461.1,354.1,461.2,353.3,461.2z"/>
	<path class="st13" d="M363.3,469.9c-1.2,0-2.5-0.5-3.7-1.5c-2.7-2.4-3.7-8.1-3.7-8.3l2.1-0.4c0.2,1.4,1.3,5.5,3,7.1
		c2.9,2.6,6.4-0.6,6.5-0.7l1.4,1.5C367.9,468.7,365.7,470,363.3,469.9z"/>
	<path class="st13" d="M342.1,471.2c-1,0-2-0.3-2.7-0.6c-2.2-1.2-4.8-5.5-5.1-6l1.8-1.1c0.7,1.2,2.8,4.4,4.3,5.2
		c1.5,0.8,6,0.3,7.5-2.2c1.1-1.7,1.2-6,1.2-7.5l2.1,0c0,0.6,0.1,6.1-1.5,8.7C348.2,470.2,344.8,471.3,342.1,471.2z"/>
	<path class="st13" d="M355.5,479c-3-0.1-5.5-1.4-6.8-3.4c-1.4-2.2-2.5-6.9-2.5-7.1l2-0.5c0.3,1.3,1.2,4.9,2.2,6.5
		c1,1.5,3.1,2.5,5.6,2.4c2,0,3.6-0.7,3.9-1.3c0.6-1,0.6-4.6,0.4-6.8l2.1-0.2c0.1,1,0.5,6.2-0.7,8.1c-1,1.7-3.6,2.3-5.7,2.3
		C355.9,479,355.7,479,355.5,479z"/>
	<path class="st13" d="M361.9,483.3c-0.2,0-1.7-0.1-2.8-1.5c-1-1.2-2.3-3.8-2.3-3.9l1.9-0.9c0.3,0.7,1.4,2.6,2.1,3.4
		c0.6,0.7,1.3,0.8,1.3,0.8L361.9,483.3z"/>
	<path class="st13" d="M333.3,480.2c-1.3-0.1-2.6-0.3-3.5-0.9c-2.2-1.3-4.6-6.9-5.1-8l1.9-0.8c1,2.5,3,6.3,4.1,7
		c1.3,0.7,3.7,0.8,5.5,0.2c1-0.3,1.7-0.8,2-1.4c0.8-1.7,0.7-5.3,0.5-6.5l2.1-0.2c0,0.2,0.5,5-0.7,7.6c-0.5,1.1-1.7,2-3.3,2.5
		C335.8,480.1,334.6,480.3,333.3,480.2z"/>
	<path class="st13" d="M344.3,486.2c-1.3,0-2.6-0.4-4-1.1c-3.1-1.5-3.2-6.3-3.2-6.8l2.1,0c0,1.1,0.4,4.2,2,5c2.9,1.4,5,1.2,7.4-0.7
		c1.5-1.2,0.6-5.3-0.1-7.1l2-0.7c0.3,0.7,2.5,7.1-0.6,9.5C348.1,485.6,346.3,486.3,344.3,486.2z"/>
	<path class="st13" d="M354.5,490.5c-0.4-0.1-3.6-0.9-4.7-1.5c-1.3-0.6-2.1-3.4-2.6-5.6l2.1-0.4c0.4,1.9,1.1,3.8,1.4,4.1
		c0.8,0.3,3.4,1.1,4.3,1.3L354.5,490.5z"/>
	<path class="st13" d="M303.1,488.2c-1.3,0-2.7-0.4-4-1.2c-4.4-2.7-4.9-8.9-4.9-9.2l2.1-0.2c0,0.1,0.4,5.4,3.9,7.5
		c3.3,2,7.1,0.2,7.9-1c0.5-0.7,0.4-4-0.1-6.6l2.1-0.3c0.2,1.5,0.9,6.4-0.3,8.1C308.9,486.7,306.2,488.3,303.1,488.2z"/>
	<path class="st13" d="M323.9,488c-1.3,0-2.6-0.5-4-1.2c-3.8-2.1-3.5-9.3-3.5-10.1l2.1,0.1c-0.1,1.8,0.1,6.9,2.4,8.2
		c2.8,1.6,4.8,1.3,7.2-1.1c2.2-2.2,1.8-5.5,1.8-5.5l2.1-0.3c0,0.2,0.5,4.3-2.4,7.2C327.7,487.2,325.9,488,323.9,488z"/>
	<path class="st13" d="M298.2,497.6c-0.7,0-1.4-0.2-2.1-0.3l-0.5-0.1c-4.2-0.7-4.5-3.2-4.5-3.4l2.1-0.2c0,0,0.2,1.1,2.8,1.6l0.6,0.1
		c2,0.4,3.2,0.6,5-1.1c1.6-1.5,1.3-5.6,1-6.9l2.1-0.4c0.1,0.6,1,6.3-1.7,8.8C301.1,497.3,299.6,497.7,298.2,497.6z"/>
	
		<rect x="297.9" y="496.9" transform="matrix(3.776462e-02 -0.9993 0.9993 3.776462e-02 -209.3685 778.4309)" class="st13" width="3.2" height="2.1"/>
	<path class="st13" d="M316.2,493c-1.4-0.1-2.9-0.4-4.1-0.8c-3-1.1-4-6.7-4.1-7.3l2.1-0.4c0.4,2.1,1.4,5.2,2.8,5.7
		c2.1,0.7,5.1,1.2,6.9-0.1c1.4-1,1-3.1,1-3.2l2-0.5c0,0.1,0.8,3.5-1.8,5.4C319.6,492.8,317.9,493.1,316.2,493z"/>
	<path class="st13" d="M306.3,499.9c-1.3-0.1-3.1-0.4-3.8-1.5c-0.8-1.3-1.4-3-1.4-3.1l2-0.6c0,0,0.5,1.6,1.1,2.6
		c0.3,0.4,1.9,0.7,3.4,0.5c0.8-0.1,3.1-0.8,3.7-2.3c0.7-1.8,0.1-4,0.1-4l2-0.5c0,0.1,0.7,2.9-0.2,5.3c-1.1,2.9-5.2,3.6-5.4,3.6
		C307.6,499.9,307,499.9,306.3,499.9z"/>
	<path class="st13" d="M334.3,492.2c-0.7,0-1.3-0.1-1.9-0.3c-2.8-0.7-4.3-6.1-4.6-7.1l2-0.5c0.5,2.1,1.8,5.3,3,5.6
		c2.2,0.5,5.1-0.1,5.8-1c0.9-1.1,0.9-1.9,1-4.7l1,0l1,0c-0.1,2.9-0.2,4.4-1.5,6C339.2,491.7,336.6,492.3,334.3,492.2z"/>
	
		<rect x="336.3" y="490.9" transform="matrix(0.9643 -0.2647 0.2647 0.9643 -118.2055 106.8163)" class="st13" width="2.1" height="2.4"/>
	<path class="st13" d="M324.1,497.3c-0.2-0.1-2.4-1-3.4-2.7c-0.3-0.5-1.2-2.7-1.4-3.1l1.9-0.8c0.4,0.9,1.1,2.5,1.3,2.9
		c0.5,0.9,1.9,1.6,2.4,1.8L324.1,497.3z"/>
	<path class="st13" d="M328.4,496.9l-0.8-2c1.5-0.6,3-1.4,3.2-1.7c0.3-0.5,0.6-1.9,0.8-2.5l2,0.4c0,0.2-0.5,2.1-1,3.1
		C332.1,495.4,329.7,496.4,328.4,496.9z"/>
	<path class="st13" d="M311.4,474.8c-5.9-0.2-30.9-6.5-44.9-10.6c-15.1-4.5-49.3-22.2-49.7-22.4l0.5-0.9
		c0.3,0.2,34.5,17.8,49.5,22.3c15.8,4.7,40.5,10.7,45,10.6c4.5-0.1,23.9-12.8,34.6-22.7c10.7-9.9,29.8-32.7,30-32.9l0.8,0.7
		c-0.2,0.2-19.4,23-30.1,33c-11,10.2-30.5,22.8-35.3,22.9C311.7,474.8,311.6,474.8,311.4,474.8z"/>
	<path class="st13" d="M274.8,508.4c-1.3,0-2.2-1.1-2.2-2.4c0-1.3,1.1-2.2,2.4-2.2c1.3,0,2.2,1.1,2.2,2.4
		C277.1,507.5,276.1,508.5,274.8,508.4z M274.9,504.9c-0.7,0-1.2,0.5-1.3,1.2c0,0.7,0.5,1.3,1.2,1.3c0.7,0,1.2-0.5,1.3-1.2
		C276.1,505.5,275.6,504.9,274.9,504.9z"/>
	<path class="st13" d="M290.2,509c-1.3,0-2.2-1.1-2.2-2.4c0-1.3,1.1-2.2,2.4-2.2c1.3,0,2.2,1.1,2.2,2.4
		C292.5,508.1,291.4,509,290.2,509z M290.3,505.5c-0.7,0-1.2,0.5-1.3,1.2c0,0.7,0.5,1.3,1.2,1.3s1.3-0.5,1.3-1.2
		C291.5,506.1,291,505.5,290.3,505.5z"/>
	<path class="st13" d="M305.5,507.9c-1.3,0-2.2-1.1-2.2-2.4c0-1.3,1.1-2.2,2.4-2.2c1.3,0,2.2,1.1,2.2,2.4
		C307.8,507,306.8,508,305.5,507.9z M305.6,504.4c-0.7,0-1.2,0.5-1.3,1.2c0,0.7,0.5,1.2,1.2,1.3c0.7,0,1.2-0.5,1.3-1.2
		C306.8,505,306.3,504.5,305.6,504.4z"/>
	<path class="st13" d="M335.1,504.2c-1.3,0-2.2-1.1-2.2-2.4c0-1.3,1.1-2.2,2.4-2.2c1.3,0,2.2,1.1,2.2,2.4S336.3,504.2,335.1,504.2z
		 M335.2,500.7c-0.7,0-1.3,0.5-1.3,1.2c0,0.7,0.5,1.2,1.2,1.3s1.2-0.5,1.3-1.2C336.4,501.3,335.9,500.7,335.2,500.7z"/>
	<path class="st13" d="M347.9,500.9c-1.3,0-2.2-1.1-2.2-2.4c0-1.3,1.1-2.2,2.4-2.2c1.3,0,2.2,1.1,2.2,2.4
		C350.3,500,349.2,501,347.9,500.9z M348.1,497.4c-0.7,0-1.2,0.5-1.3,1.2c0,0.7,0.5,1.2,1.2,1.3c0.7,0,1.3-0.5,1.3-1.2
		C349.3,498,348.8,497.4,348.1,497.4z"/>
	<path class="st13" d="M320.9,506.8c-1.3,0-2.2-1.1-2.2-2.4c0-1.3,1.1-2.2,2.4-2.2c1.3,0,2.2,1.1,2.2,2.4
		C323.2,505.8,322.1,506.8,320.9,506.8z M321,503.3c-0.7,0-1.2,0.5-1.3,1.2c0,0.7,0.5,1.3,1.2,1.3s1.3-0.5,1.3-1.2
		C322.2,503.9,321.7,503.3,321,503.3z"/>
</g>
<ellipse transform="matrix(3.776462e-02 -0.9993 0.9993 3.776462e-02 -52.5478 516.1048)" class="st15" cx="241.7" cy="285.3" rx="6.8" ry="6.8"/>
<ellipse transform="matrix(3.776462e-02 -0.9993 0.9993 3.776462e-02 24.1862 579.8181)" class="st15" cx="313.2" cy="277.4" rx="6.8" ry="6.8"/>
</svg>
