<?xml version="1.0" encoding="utf-8"?>
<!-- Generator: Adobe Illustrator 21.1.0, SVG Export Plug-In . SVG Version: 6.00 Build 0)  -->
<svg version="1.1" id="Layer_1" xmlns="http://www.w3.org/2000/svg" xmlns:xlink="http://www.w3.org/1999/xlink" x="0px" y="0px"
	 viewBox="0 0 515.9 115" style="enable-background:new 0 0 515.9 115;" xml:space="preserve">
<style type="text/css">
	.st0{fill:#322835;}
	.st1{fill:#0BB9A7;}
</style>
<g>
	<g>
		<path class="st0" d="M27.6,78.1h-7.1l15.6-48h7L27.6,78.1z"/>
		<path class="st0" d="M53,66.1c1.7,0,2.9-0.1,3.8-0.4s1.3-0.7,1.3-1.5c0-0.5-0.1-0.9-0.4-1.2c-0.3-0.3-0.7-0.6-1.2-0.9
			c-0.5-0.2-1.1-0.5-1.7-0.7c-0.6-0.2-1.3-0.4-2-0.7c-1-0.3-2-0.6-3.1-1c-1-0.4-2-0.9-2.8-1.5c-0.9-0.6-1.6-1.3-2.1-2.3
			c-0.6-0.9-0.8-2-0.8-3.4c0-1.1,0.2-2.2,0.6-3.1c0.4-1,1.1-1.9,2-2.6c0.9-0.8,2.1-1.4,3.5-1.8c1.4-0.4,3.1-0.6,5.1-0.6
			c1.7,0,3.3,0.1,4.8,0.4c1.5,0.3,2.7,0.6,3.8,1.1l-1.1,5.8c-0.6-0.2-1.6-0.5-2.9-0.9c-1.3-0.4-2.8-0.6-4.5-0.6
			c-1.7,0-2.9,0.2-3.5,0.6c-0.6,0.4-0.9,0.9-0.9,1.4c0,0.4,0.1,0.8,0.4,1.1c0.3,0.3,0.6,0.6,1.1,0.9c0.5,0.3,1,0.5,1.6,0.8
			c0.6,0.2,1.3,0.5,2,0.7c1,0.3,2,0.7,3.1,1.1c1.1,0.4,2,0.9,2.9,1.5c0.9,0.6,1.6,1.4,2.1,2.3s0.8,2.1,0.8,3.5
			c0,1.1-0.2,2.1-0.6,3.1c-0.4,1-1.1,1.8-2,2.5c-0.9,0.7-2.2,1.3-3.7,1.7c-1.5,0.4-3.4,0.6-5.6,0.6c-2.3,0-4.2-0.3-5.8-0.8
			c-1.6-0.5-2.9-1-3.8-1.4l1.1-5.7c1.3,0.5,2.7,1,4.1,1.4C50,65.8,51.5,66.1,53,66.1z"/>
		<path class="st0" d="M68.5,58.4c0-2.3,0.4-4.3,1.1-6.1c0.7-1.7,1.6-3.2,2.8-4.4c1.1-1.2,2.5-2,3.9-2.6c1.5-0.6,3-0.9,4.6-0.9
			c3.9,0,6.8,1.1,8.8,3.4c2,2.3,3,5.6,3,10c0,0.4,0,0.9,0,1.4c0,0.5,0,0.9-0.1,1.2H75.5c0,1.7,0.7,3,2.1,4c1.4,1,3.2,1.5,5.4,1.5
			c1.4,0,2.7-0.1,3.9-0.4c1.2-0.3,2.3-0.6,3.1-0.9l0.9,5.8c-1.2,0.4-2.4,0.8-3.8,1c-1.3,0.3-2.8,0.4-4.5,0.4c-2.2,0-4.2-0.3-6-0.9
			c-1.8-0.6-3.3-1.4-4.5-2.6c-1.2-1.1-2.2-2.5-2.9-4.2C68.8,62.6,68.5,60.6,68.5,58.4z M86,55.7c0-0.7-0.1-1.4-0.3-2
			c-0.2-0.6-0.5-1.2-0.9-1.7c-0.4-0.5-0.9-0.9-1.6-1.3c-0.6-0.3-1.4-0.5-2.3-0.5c-0.9,0-1.7,0.1-2.3,0.4c-0.6,0.3-1.2,0.7-1.6,1.2
			c-0.4,0.5-0.8,1.1-1,1.8c-0.2,0.7-0.4,1.4-0.5,2.1H86z"/>
		<path class="st0" d="M117.3,52.1c-0.4-0.1-1-0.2-1.6-0.3s-1.2-0.2-1.9-0.3c-0.6-0.1-1.2-0.2-1.8-0.2c-0.6,0-1.1-0.1-1.5-0.1
			c-1,0-1.9,0-2.8,0.1c-0.9,0.1-1.9,0.3-2.8,0.5v19.4h-6.9V46.8c1.8-0.7,3.7-1.2,5.6-1.6c1.9-0.4,4.1-0.6,6.7-0.6
			c0.4,0,0.9,0,1.6,0.1c0.7,0,1.4,0.1,2.2,0.2s1.6,0.2,2.4,0.3c0.8,0.1,1.5,0.3,2.1,0.5L117.3,52.1z"/>
		<path class="st0" d="M131.3,71.2c-1.7-3.3-3.4-7.2-5.1-11.6c-1.7-4.4-3.4-9.3-4.9-14.5h7.2c0.3,1.4,0.7,2.9,1.2,4.5
			c0.5,1.6,1,3.2,1.5,4.8c0.5,1.6,1,3.2,1.6,4.7c0.5,1.5,1,2.9,1.5,4.2c0.5-1.3,1-2.6,1.6-4.2c0.6-1.5,1.2-3.1,1.8-4.7
			c0.6-1.6,1.1-3.2,1.7-4.8c0.5-1.6,1-3.1,1.3-4.5h6.9c-1.6,5.3-3.3,10.1-5.2,14.5c-1.9,4.4-3.7,8.3-5.3,11.6H131.3z"/>
		<path class="st0" d="M148.5,58.4c0-2.3,0.4-4.3,1.1-6.1c0.7-1.7,1.6-3.2,2.8-4.4c1.1-1.2,2.5-2,3.9-2.6c1.5-0.6,3-0.9,4.6-0.9
			c3.9,0,6.8,1.1,8.8,3.4c2,2.3,3,5.6,3,10c0,0.4,0,0.9,0,1.4c0,0.5,0,0.9-0.1,1.2h-16.9c0,1.7,0.7,3,2.1,4c1.4,1,3.2,1.5,5.4,1.5
			c1.4,0,2.7-0.1,3.9-0.4c1.2-0.3,2.3-0.6,3.1-0.9l0.9,5.8c-1.2,0.4-2.4,0.8-3.8,1s-2.8,0.4-4.5,0.4c-2.2,0-4.2-0.3-6-0.9
			c-1.8-0.6-3.3-1.4-4.5-2.6c-1.2-1.1-2.2-2.5-2.9-4.2C148.9,62.6,148.5,60.6,148.5,58.4z M166,55.7c0-0.7-0.1-1.4-0.3-2
			c-0.2-0.6-0.5-1.2-0.9-1.7c-0.4-0.5-0.9-0.9-1.6-1.3c-0.6-0.3-1.4-0.5-2.3-0.5c-0.9,0-1.7,0.1-2.3,0.4c-0.6,0.3-1.2,0.7-1.6,1.2
			c-0.4,0.5-0.8,1.1-1,1.8c-0.2,0.7-0.4,1.4-0.5,2.1H166z"/>
		<path class="st0" d="M197.3,52.1c-0.4-0.1-1-0.2-1.6-0.3s-1.2-0.2-1.9-0.3c-0.6-0.1-1.2-0.2-1.8-0.2c-0.6,0-1.1-0.1-1.5-0.1
			c-1,0-1.9,0-2.8,0.1c-0.9,0.1-1.9,0.3-2.8,0.5v19.4H178V46.8c1.8-0.7,3.7-1.2,5.6-1.6c1.9-0.4,4.1-0.6,6.7-0.6
			c0.4,0,0.9,0,1.6,0.1c0.7,0,1.4,0.1,2.2,0.2c0.8,0.1,1.6,0.2,2.4,0.3c0.8,0.1,1.5,0.3,2.1,0.5L197.3,52.1z"/>
		<path class="st0" d="M222.2,70.1c-0.1,0.1-0.4,0.2-0.8,0.4c-0.4,0.2-0.9,0.4-1.5,0.6c-0.6,0.2-1.4,0.4-2.3,0.5
			c-0.9,0.1-1.9,0.2-3.1,0.2c-3.1,0-5.4-0.9-6.9-2.8c-1.4-1.9-2.2-4.6-2.2-8.2V38.7h-7.2V33h14.1v28.3c0,1.8,0.4,3,1.1,3.6
			c0.7,0.6,1.6,0.9,2.7,0.9c1.4,0,2.5-0.2,3.4-0.6c0.9-0.4,1.5-0.6,1.8-0.7L222.2,70.1z"/>
		<path class="st0" d="M224.3,58.4c0-2.3,0.4-4.3,1.1-6.1c0.7-1.7,1.6-3.2,2.8-4.4c1.1-1.2,2.5-2,3.9-2.6c1.5-0.6,3-0.9,4.6-0.9
			c3.9,0,6.8,1.1,8.8,3.4c2,2.3,3,5.6,3,10c0,0.4,0,0.9,0,1.4c0,0.5,0,0.9-0.1,1.2h-16.9c0,1.7,0.7,3,2.1,4c1.4,1,3.2,1.5,5.4,1.5
			c1.4,0,2.7-0.1,3.9-0.4c1.2-0.3,2.3-0.6,3.1-0.9l0.9,5.8c-1.2,0.4-2.4,0.8-3.8,1s-2.8,0.4-4.5,0.4c-2.2,0-4.2-0.3-6-0.9
			c-1.8-0.6-3.3-1.4-4.5-2.6c-1.2-1.1-2.2-2.5-2.9-4.2C224.6,62.6,224.3,60.6,224.3,58.4z M241.8,55.7c0-0.7-0.1-1.4-0.3-2
			c-0.2-0.6-0.5-1.2-0.9-1.7c-0.4-0.5-0.9-0.9-1.6-1.3c-0.6-0.3-1.4-0.5-2.3-0.5c-0.9,0-1.7,0.1-2.3,0.4c-0.6,0.3-1.2,0.7-1.6,1.2
			c-0.4,0.5-0.8,1.1-1,1.8c-0.2,0.7-0.4,1.4-0.5,2.1H241.8z"/>
		<path class="st0" d="M261.7,66.1c1.7,0,2.9-0.1,3.8-0.4s1.3-0.7,1.3-1.5c0-0.5-0.1-0.9-0.4-1.2c-0.3-0.3-0.7-0.6-1.2-0.9
			c-0.5-0.2-1.1-0.5-1.7-0.7c-0.6-0.2-1.3-0.4-2-0.7c-1-0.3-2-0.6-3.1-1c-1-0.4-2-0.9-2.8-1.5c-0.9-0.6-1.6-1.3-2.1-2.3
			c-0.6-0.9-0.8-2-0.8-3.4c0-1.1,0.2-2.2,0.6-3.1c0.4-1,1.1-1.9,2-2.6c0.9-0.8,2.1-1.4,3.5-1.8c1.4-0.4,3.1-0.6,5.1-0.6
			c1.7,0,3.3,0.1,4.8,0.4c1.5,0.3,2.7,0.6,3.8,1.1l-1.1,5.8c-0.6-0.2-1.6-0.5-2.9-0.9c-1.3-0.4-2.8-0.6-4.5-0.6
			c-1.7,0-2.9,0.2-3.5,0.6c-0.6,0.4-0.9,0.9-0.9,1.4c0,0.4,0.1,0.8,0.4,1.1c0.3,0.3,0.6,0.6,1.1,0.9c0.5,0.3,1,0.5,1.6,0.8
			c0.6,0.2,1.3,0.5,2,0.7c1,0.3,2,0.7,3.1,1.1c1.1,0.4,2,0.9,2.9,1.5c0.9,0.6,1.6,1.4,2.1,2.3s0.8,2.1,0.8,3.5
			c0,1.1-0.2,2.1-0.6,3.1c-0.4,1-1.1,1.8-2,2.5c-0.9,0.7-2.2,1.3-3.7,1.7c-1.5,0.4-3.4,0.6-5.6,0.6c-2.3,0-4.2-0.3-5.8-0.8
			c-1.6-0.5-2.9-1-3.8-1.4l1.1-5.7c1.3,0.5,2.7,1,4.1,1.4C258.7,65.8,260.2,66.1,261.7,66.1z"/>
		<path class="st0" d="M287.2,66.1c1.7,0,2.9-0.1,3.8-0.4s1.3-0.7,1.3-1.5c0-0.5-0.1-0.9-0.4-1.2c-0.3-0.3-0.7-0.6-1.2-0.9
			c-0.5-0.2-1.1-0.5-1.7-0.7c-0.6-0.2-1.3-0.4-2-0.7c-1-0.3-2-0.6-3.1-1c-1-0.4-2-0.9-2.8-1.5c-0.9-0.6-1.6-1.3-2.1-2.3
			c-0.6-0.9-0.8-2-0.8-3.4c0-1.1,0.2-2.2,0.6-3.1c0.4-1,1.1-1.9,2-2.6c0.9-0.8,2.1-1.4,3.5-1.8c1.4-0.4,3.1-0.6,5.1-0.6
			c1.7,0,3.3,0.1,4.8,0.4c1.5,0.3,2.7,0.6,3.8,1.1l-1.1,5.8c-0.6-0.2-1.6-0.5-2.9-0.9c-1.3-0.4-2.8-0.6-4.5-0.6
			c-1.7,0-2.9,0.2-3.5,0.6c-0.6,0.4-0.9,0.9-0.9,1.4c0,0.4,0.1,0.8,0.4,1.1c0.3,0.3,0.6,0.6,1.1,0.9c0.5,0.3,1,0.5,1.6,0.8
			c0.6,0.2,1.3,0.5,2,0.7c1,0.3,2,0.7,3.1,1.1c1.1,0.4,2,0.9,2.9,1.5c0.9,0.6,1.6,1.4,2.1,2.3s0.8,2.1,0.8,3.5
			c0,1.1-0.2,2.1-0.6,3.1c-0.4,1-1.1,1.8-2,2.5c-0.9,0.7-2.2,1.3-3.7,1.7c-1.5,0.4-3.4,0.6-5.6,0.6c-2.3,0-4.2-0.3-5.8-0.8
			c-1.6-0.5-2.9-1-3.8-1.4l1.1-5.7c1.3,0.5,2.7,1,4.1,1.4C284.2,65.8,285.7,66.1,287.2,66.1z"/>
		<path class="st0" d="M308.4,78.1h-7.1l15.6-48h7L308.4,78.1z"/>
	</g>
	<polygon class="st0" points="468.2,78.5 320.5,78.5 334.6,29.4 482.3,29.4 	"/>
	<g>
		<g>
			<path class="st1" d="M347.1,39.1h12c9.6,0,16.2,6.1,16.2,15.3c0,9.2-6.6,15.2-16.2,15.2h-12V39.1z M359.1,63.9
				c6,0,9.6-4.3,9.6-9.5c0-5.4-3.3-9.6-9.6-9.6h-5.5v19.1H359.1z"/>
			<path class="st1" d="M397.9,64.3h-13.6l-1.9,5.3h-7.1L387,39.1h8.1l11.8,30.5h-7.1L397.9,64.3z M386,58.7h10.1l-5-14L386,58.7z"
				/>
			<path class="st1" d="M414.6,57.1l-11.8-18h7.4l7.6,12.3l7.5-12.3h7.4l-11.7,18v12.5h-6.5V57.1z"/>
			<path class="st1" d="M435.8,60.4c2.1,2.2,5.5,4.1,9.7,4.1c3.6,0,5.3-1.7,5.3-3.4c0-2.3-2.7-3.1-6.2-3.9c-5-1.1-11.4-2.5-11.4-9.3
				c0-5.1,4.4-9.2,11.6-9.2c4.8,0,8.9,1.5,11.9,4.3l-3.6,4.8c-2.5-2.3-5.8-3.3-8.7-3.3c-2.9,0-4.5,1.3-4.5,3.1
				c0,2.1,2.6,2.7,6.1,3.5c5,1.1,11.4,2.7,11.4,9.4c0,5.6-4,9.8-12.2,9.8c-5.9,0-10.1-2-13-4.8L435.8,60.4z"/>
		</g>
	</g>
	<path class="st1" d="M291.7,80.1h-11.4c-0.9,0-1.6-0.7-1.6-1.6s0.7-1.6,1.6-1.6h11.4c0.9,0,1.6,0.7,1.6,1.6S292.7,80.1,291.7,80.1z
		 M270.5,80.1h-11.4c-0.9,0-1.6-0.7-1.6-1.6s0.7-1.6,1.6-1.6h11.4c0.9,0,1.6,0.7,1.6,1.6S271.4,80.1,270.5,80.1z M249.3,80.1h-11.4
		c-0.9,0-1.6-0.7-1.6-1.6s0.7-1.6,1.6-1.6h11.4c0.9,0,1.6,0.7,1.6,1.6S250.2,80.1,249.3,80.1z M228,80.1h-11.4
		c-0.9,0-1.6-0.7-1.6-1.6s0.7-1.6,1.6-1.6H228c0.9,0,1.6,0.7,1.6,1.6S228.9,80.1,228,80.1z M206.8,80.1h-11.4
		c-0.9,0-1.6-0.7-1.6-1.6s0.7-1.6,1.6-1.6h11.4c0.9,0,1.6,0.7,1.6,1.6S207.7,80.1,206.8,80.1z M185.5,80.1h-11.4
		c-0.9,0-1.6-0.7-1.6-1.6s0.7-1.6,1.6-1.6h11.4c0.9,0,1.6,0.7,1.6,1.6S186.4,80.1,185.5,80.1z M164.3,80.1h-11.4
		c-0.9,0-1.6-0.7-1.6-1.6s0.7-1.6,1.6-1.6h11.4c0.9,0,1.6,0.7,1.6,1.6S165.2,80.1,164.3,80.1z M143,80.1h-11.4
		c-0.9,0-1.6-0.7-1.6-1.6s0.7-1.6,1.6-1.6H143c0.9,0,1.6,0.7,1.6,1.6S143.9,80.1,143,80.1z M121.8,80.1h-11.4
		c-0.9,0-1.6-0.7-1.6-1.6s0.7-1.6,1.6-1.6h11.4c0.9,0,1.6,0.7,1.6,1.6S122.7,80.1,121.8,80.1z M100.6,80.1H89.1
		c-0.9,0-1.6-0.7-1.6-1.6s0.7-1.6,1.6-1.6h11.4c0.9,0,1.6,0.7,1.6,1.6S101.5,80.1,100.6,80.1z M79.3,80.1H67.9
		c-0.9,0-1.6-0.7-1.6-1.6s0.7-1.6,1.6-1.6h11.4c0.9,0,1.6,0.7,1.6,1.6S80.2,80.1,79.3,80.1z M58.1,80.1H46.6c-0.9,0-1.6-0.7-1.6-1.6
		s0.7-1.6,1.6-1.6h11.4c0.9,0,1.6,0.7,1.6,1.6S59,80.1,58.1,80.1z"/>
</g>
</svg>
