<?xml version="1.0" encoding="utf-8"?>
<!-- Generator: Adobe Illustrator 21.1.0, SVG Export Plug-In . SVG Version: 6.00 Build 0)  -->
<svg version="1.1" id="Layer_1" xmlns="http://www.w3.org/2000/svg" xmlns:xlink="http://www.w3.org/1999/xlink" x="0px" y="0px"
	 viewBox="0 0 515.9 110" style="enable-background:new 0 0 515.9 110;display:none;" xml:space="preserve">
<style type="text/css">
	.st0{fill:#FFFFFF;}
</style>
<g style="display:inline;">
	<g>
		<path d="M19.6,77h-7.7l16.8-51.7h7.5L19.6,77z"/>
		<path d="M46.9,64c1.8,0,3.2-0.1,4.1-0.4c1-0.3,1.4-0.8,1.4-1.6c0-0.5-0.1-1-0.4-1.3c-0.3-0.4-0.7-0.7-1.3-0.9
			c-0.5-0.3-1.2-0.5-1.9-0.7c-0.7-0.2-1.4-0.5-2.2-0.7c-1.1-0.3-2.2-0.7-3.3-1.1c-1.1-0.4-2.1-0.9-3.1-1.6c-0.9-0.6-1.7-1.4-2.3-2.4
			c-0.6-1-0.9-2.2-0.9-3.7c0-1.2,0.2-2.3,0.7-3.4c0.5-1.1,1.2-2,2.2-2.8c1-0.8,2.2-1.5,3.7-1.9c1.5-0.5,3.3-0.7,5.4-0.7
			c1.8,0,3.5,0.1,5.1,0.4c1.6,0.3,2.9,0.7,4.1,1.2l-1.1,6.2c-0.7-0.2-1.7-0.5-3.2-1c-1.4-0.5-3.1-0.7-4.9-0.7
			c-1.9,0-3.1,0.2-3.8,0.7c-0.7,0.5-1,0.9-1,1.5c0,0.4,0.1,0.8,0.4,1.2c0.3,0.3,0.7,0.6,1.2,0.9c0.5,0.3,1.1,0.5,1.7,0.8
			c0.7,0.3,1.4,0.5,2.1,0.7c1.1,0.4,2.2,0.8,3.4,1.2c1.2,0.4,2.2,1,3.1,1.6c0.9,0.7,1.7,1.5,2.3,2.5s0.9,2.3,0.9,3.7
			c0,1.2-0.2,2.3-0.7,3.3c-0.4,1-1.2,1.9-2.2,2.7c-1,0.8-2.3,1.4-4,1.8c-1.6,0.4-3.7,0.7-6,0.7c-2.4,0-4.5-0.3-6.2-0.8
			c-1.7-0.6-3.1-1.1-4.1-1.5l1.1-6.2c1.4,0.6,2.9,1.1,4.5,1.6C43.7,63.8,45.3,64,46.9,64z"/>
		<path d="M63.6,55.8c0-2.5,0.4-4.6,1.1-6.5c0.8-1.9,1.8-3.4,3-4.7c1.2-1.3,2.7-2.2,4.3-2.8c1.6-0.6,3.2-1,4.9-1
			c4.2,0,7.3,1.2,9.5,3.7c2.2,2.5,3.2,6,3.2,10.7c0,0.5,0,1,0,1.5c0,0.5-0.1,0.9-0.1,1.3H71.2c0,1.8,0.8,3.3,2.3,4.3
			c1.5,1.1,3.5,1.6,5.9,1.6c1.5,0,2.9-0.2,4.2-0.5c1.3-0.3,2.5-0.6,3.4-1l1,6.3c-1.3,0.4-2.6,0.8-4.1,1.1c-1.4,0.3-3.1,0.4-4.8,0.4
			c-2.4,0-4.5-0.3-6.4-0.9c-1.9-0.6-3.5-1.5-4.8-2.8c-1.3-1.2-2.4-2.7-3.1-4.5C63.9,60.3,63.6,58.2,63.6,55.8z M82.4,52.8
			c0-0.8-0.1-1.5-0.3-2.2c-0.2-0.7-0.5-1.3-1-1.9c-0.4-0.6-1-1-1.7-1.3c-0.7-0.3-1.5-0.5-2.5-0.5c-1,0-1.8,0.2-2.5,0.5
			c-0.7,0.3-1.3,0.8-1.7,1.3c-0.5,0.6-0.8,1.2-1.1,1.9c-0.3,0.7-0.4,1.5-0.5,2.2H82.4z"/>
		<path d="M116.2,49c-0.5-0.1-1-0.2-1.7-0.4c-0.7-0.1-1.3-0.2-2-0.3c-0.7-0.1-1.3-0.2-2-0.2c-0.6,0-1.2-0.1-1.6-0.1
			c-1,0-2.1,0.1-3.1,0.1c-1,0.1-2,0.3-3.1,0.6v20.9h-7.4V43.3c2-0.7,4-1.3,6-1.7c2.1-0.4,4.5-0.7,7.2-0.7c0.4,0,1,0,1.7,0.1
			c0.7,0,1.5,0.1,2.4,0.2s1.7,0.2,2.5,0.4c0.9,0.1,1.6,0.3,2.3,0.6L116.2,49z"/>
		<path d="M131.3,69.6c-1.8-3.6-3.6-7.7-5.5-12.5c-1.9-4.8-3.6-10-5.3-15.7h7.7c0.4,1.5,0.8,3.1,1.3,4.8c0.5,1.7,1,3.4,1.6,5.2
			c0.6,1.7,1.1,3.4,1.7,5.1c0.6,1.6,1.1,3.1,1.6,4.5c0.5-1.4,1.1-2.9,1.7-4.5c0.6-1.6,1.3-3.3,1.9-5.1c0.6-1.7,1.2-3.5,1.8-5.2
			c0.6-1.7,1-3.3,1.4-4.8h7.5c-1.7,5.7-3.5,10.9-5.6,15.7c-2,4.8-4,8.9-5.7,12.5H131.3z"/>
		<path d="M149.9,55.8c0-2.5,0.4-4.6,1.1-6.5c0.8-1.9,1.8-3.4,3-4.7c1.2-1.3,2.7-2.2,4.3-2.8c1.6-0.6,3.2-1,4.9-1
			c4.2,0,7.3,1.2,9.5,3.7c2.2,2.5,3.2,6,3.2,10.7c0,0.5,0,1,0,1.5c0,0.5-0.1,0.9-0.1,1.3h-18.3c0,1.8,0.8,3.3,2.3,4.3
			c1.5,1.1,3.5,1.6,5.9,1.6c1.5,0,2.9-0.2,4.2-0.5c1.3-0.3,2.5-0.6,3.4-1l1,6.3c-1.3,0.4-2.6,0.8-4.1,1.1c-1.4,0.3-3.1,0.4-4.8,0.4
			c-2.4,0-4.5-0.3-6.4-0.9c-1.9-0.6-3.5-1.5-4.8-2.8c-1.3-1.2-2.4-2.7-3.1-4.5C150.2,60.3,149.9,58.2,149.9,55.8z M168.7,52.8
			c0-0.8-0.1-1.5-0.3-2.2c-0.2-0.7-0.5-1.3-1-1.9c-0.4-0.6-1-1-1.7-1.3c-0.7-0.3-1.5-0.5-2.5-0.5c-1,0-1.8,0.2-2.5,0.5
			c-0.7,0.3-1.3,0.8-1.7,1.3c-0.5,0.6-0.8,1.2-1.1,1.9c-0.3,0.7-0.4,1.5-0.5,2.2H168.7z"/>
		<path d="M202.5,49c-0.5-0.1-1-0.2-1.7-0.4c-0.7-0.1-1.3-0.2-2-0.3c-0.7-0.1-1.3-0.2-2-0.2c-0.6,0-1.2-0.1-1.6-0.1
			c-1,0-2.1,0.1-3.1,0.1c-1,0.1-2,0.3-3.1,0.6v20.9h-7.4V43.3c2-0.7,4-1.3,6-1.7c2.1-0.4,4.5-0.7,7.2-0.7c0.4,0,1,0,1.7,0.1
			c0.7,0,1.5,0.1,2.4,0.2s1.7,0.2,2.5,0.4c0.9,0.1,1.6,0.3,2.3,0.6L202.5,49z"/>
		<path d="M229.2,68.4c-0.1,0.1-0.4,0.2-0.8,0.4c-0.4,0.2-1,0.4-1.6,0.6c-0.7,0.2-1.5,0.4-2.5,0.6c-1,0.2-2.1,0.2-3.3,0.2
			c-3.4,0-5.9-1-7.4-3c-1.6-2-2.3-5-2.3-8.8V34.5h-7.8v-6.1h15.1V59c0,1.9,0.4,3.2,1.1,3.9c0.8,0.7,1.7,1,2.9,1
			c1.5,0,2.7-0.2,3.7-0.6c1-0.4,1.7-0.7,2-0.8L229.2,68.4z"/>
		<path d="M231.5,55.8c0-2.5,0.4-4.6,1.1-6.5c0.8-1.9,1.8-3.4,3-4.7c1.2-1.3,2.7-2.2,4.3-2.8c1.6-0.6,3.2-1,4.9-1
			c4.2,0,7.3,1.2,9.5,3.7c2.2,2.5,3.2,6,3.2,10.7c0,0.5,0,1,0,1.5c0,0.5-0.1,0.9-0.1,1.3h-18.3c0,1.8,0.8,3.3,2.3,4.3
			c1.5,1.1,3.5,1.6,5.9,1.6c1.5,0,2.9-0.2,4.2-0.5c1.3-0.3,2.5-0.6,3.4-1l1,6.3c-1.3,0.4-2.6,0.8-4.1,1.1c-1.4,0.3-3.1,0.4-4.8,0.4
			c-2.4,0-4.5-0.3-6.4-0.9c-1.9-0.6-3.5-1.5-4.8-2.8c-1.3-1.2-2.4-2.7-3.1-4.5C231.9,60.3,231.5,58.2,231.5,55.8z M250.4,52.8
			c0-0.8-0.1-1.5-0.3-2.2c-0.2-0.7-0.5-1.3-1-1.9c-0.4-0.6-1-1-1.7-1.3c-0.7-0.3-1.5-0.5-2.5-0.5c-1,0-1.8,0.2-2.5,0.5
			c-0.7,0.3-1.3,0.8-1.7,1.3c-0.5,0.6-0.8,1.2-1.1,1.9c-0.3,0.7-0.4,1.5-0.5,2.2H250.4z"/>
		<path d="M271.8,64c1.8,0,3.2-0.1,4.1-0.4s1.4-0.8,1.4-1.6c0-0.5-0.1-1-0.4-1.3c-0.3-0.4-0.7-0.7-1.3-0.9c-0.5-0.3-1.2-0.5-1.9-0.7
			c-0.7-0.2-1.4-0.5-2.2-0.7c-1.1-0.3-2.2-0.7-3.3-1.1c-1.1-0.4-2.1-0.9-3.1-1.6c-0.9-0.6-1.7-1.4-2.3-2.4c-0.6-1-0.9-2.2-0.9-3.7
			c0-1.2,0.2-2.3,0.7-3.4c0.5-1.1,1.2-2,2.2-2.8c1-0.8,2.2-1.5,3.7-1.9c1.5-0.5,3.3-0.7,5.4-0.7c1.8,0,3.5,0.1,5.1,0.4
			c1.6,0.3,2.9,0.7,4.1,1.2l-1.1,6.2c-0.7-0.2-1.7-0.5-3.2-1c-1.4-0.5-3.1-0.7-4.8-0.7c-1.9,0-3.1,0.2-3.8,0.7c-0.7,0.5-1,0.9-1,1.5
			c0,0.4,0.1,0.8,0.4,1.2c0.3,0.3,0.7,0.6,1.2,0.9c0.5,0.3,1.1,0.5,1.7,0.8c0.7,0.3,1.4,0.5,2.1,0.7c1.1,0.4,2.2,0.8,3.4,1.2
			c1.2,0.4,2.2,1,3.1,1.6s1.7,1.5,2.3,2.5s0.9,2.3,0.9,3.7c0,1.2-0.2,2.3-0.7,3.3c-0.4,1-1.2,1.9-2.2,2.7c-1,0.8-2.3,1.4-4,1.8
			c-1.6,0.4-3.7,0.7-6,0.7c-2.4,0-4.5-0.3-6.2-0.8c-1.7-0.6-3.1-1.1-4.1-1.5l1.1-6.2c1.4,0.6,2.9,1.1,4.5,1.6
			C268.6,63.8,270.2,64,271.8,64z"/>
		<path d="M299.3,64c1.8,0,3.2-0.1,4.1-0.4s1.4-0.8,1.4-1.6c0-0.5-0.1-1-0.4-1.3c-0.3-0.4-0.7-0.7-1.3-0.9c-0.5-0.3-1.2-0.5-1.9-0.7
			c-0.7-0.2-1.4-0.5-2.2-0.7c-1.1-0.3-2.2-0.7-3.3-1.1c-1.1-0.4-2.1-0.9-3.1-1.6c-0.9-0.6-1.7-1.4-2.3-2.4c-0.6-1-0.9-2.2-0.9-3.7
			c0-1.2,0.2-2.3,0.7-3.4c0.5-1.1,1.2-2,2.2-2.8c1-0.8,2.2-1.5,3.7-1.9c1.5-0.5,3.3-0.7,5.4-0.7c1.8,0,3.5,0.1,5.1,0.4
			c1.6,0.3,2.9,0.7,4.1,1.2l-1.1,6.2c-0.7-0.2-1.7-0.5-3.2-1c-1.4-0.5-3.1-0.7-4.8-0.7c-1.9,0-3.1,0.2-3.8,0.7c-0.7,0.5-1,0.9-1,1.5
			c0,0.4,0.1,0.8,0.4,1.2c0.3,0.3,0.7,0.6,1.2,0.9c0.5,0.3,1.1,0.5,1.7,0.8c0.7,0.3,1.4,0.5,2.1,0.7c1.1,0.4,2.2,0.8,3.4,1.2
			c1.2,0.4,2.2,1,3.1,1.6c0.9,0.7,1.7,1.5,2.3,2.5s0.9,2.3,0.9,3.7c0,1.2-0.2,2.3-0.7,3.3c-0.4,1-1.2,1.9-2.2,2.7
			c-1,0.8-2.3,1.4-4,1.8c-1.6,0.4-3.7,0.7-6,0.7c-2.4,0-4.5-0.3-6.2-0.8c-1.7-0.6-3.1-1.1-4.1-1.5l1.1-6.2c1.4,0.6,2.9,1.1,4.5,1.6
			C296.1,63.8,297.7,64,299.3,64z"/>
		<path d="M322.1,77h-7.7l16.8-51.7h7.5L322.1,77z"/>
	</g>
	<g>
		<path d="M376.8,41.1h-6v20.6h6c6.5,0,10.3-4.7,10.3-10.3C387.1,45.6,383.5,41.1,376.8,41.1z"/>
		<polygon points="405.8,56.1 416.7,56.1 411.3,41 		"/>
		<path d="M350.4,24.6l-15.2,52.8h159.2l15.2-52.8H350.4z M376.8,67.9h-13V35h13c10.3,0,17.5,6.6,17.5,16.5
			C394.2,61.3,387.1,67.9,376.8,67.9z M420.7,67.9l-2.1-5.7h-14.7l-2.1,5.7h-7.7L406.9,35h8.8l12.7,32.9H420.7z M443.6,67.9h-7V54.4
			L424,35h8l8.2,13.2l8.1-13.2h8l-12.6,19.4V67.9z M469.5,68.4c-6.3,0-10.8-2.1-14-5.2l3.8-5.3c2.3,2.4,5.9,4.4,10.5,4.4
			c3.8,0,5.7-1.8,5.7-3.7c0-2.5-2.9-3.3-6.7-4.2c-5.4-1.2-12.3-2.7-12.3-10.1c0-5.5,4.7-9.9,12.5-9.9c5.2,0,9.6,1.6,12.8,4.6
			l-3.9,5.1c-2.7-2.5-6.2-3.6-9.4-3.6c-3.2,0-4.8,1.4-4.8,3.4c0,2.2,2.8,2.9,6.6,3.8c5.4,1.2,12.3,2.9,12.3,10.2
			C482.7,63.9,478.4,68.4,469.5,68.4z"/>
	</g>
	<path d="M304.2,79.2h-12.3c-1,0-1.8-0.8-1.8-1.8s0.8-1.8,1.8-1.8h12.3c1,0,1.8,0.8,1.8,1.8S305.2,79.2,304.2,79.2z M281.3,79.2H269
		c-1,0-1.8-0.8-1.8-1.8s0.8-1.8,1.8-1.8h12.3c1,0,1.8,0.8,1.8,1.8S282.3,79.2,281.3,79.2z M258.4,79.2h-12.3c-1,0-1.8-0.8-1.8-1.8
		s0.8-1.8,1.8-1.8h12.3c1,0,1.8,0.8,1.8,1.8S259.4,79.2,258.4,79.2z M235.5,79.2h-12.3c-1,0-1.8-0.8-1.8-1.8s0.8-1.8,1.8-1.8h12.3
		c1,0,1.8,0.8,1.8,1.8S236.5,79.2,235.5,79.2z M212.6,79.2h-12.3c-1,0-1.8-0.8-1.8-1.8s0.8-1.8,1.8-1.8h12.3c1,0,1.8,0.8,1.8,1.8
		S213.6,79.2,212.6,79.2z M189.7,79.2h-12.3c-1,0-1.8-0.8-1.8-1.8s0.8-1.8,1.8-1.8h12.3c1,0,1.8,0.8,1.8,1.8S190.7,79.2,189.7,79.2z
		 M166.8,79.2h-12.3c-1,0-1.8-0.8-1.8-1.8s0.8-1.8,1.8-1.8h12.3c1,0,1.8,0.8,1.8,1.8S167.8,79.2,166.8,79.2z M144,79.2h-12.3
		c-1,0-1.8-0.8-1.8-1.8s0.8-1.8,1.8-1.8H144c1,0,1.8,0.8,1.8,1.8S144.9,79.2,144,79.2z M121.1,79.2h-12.3c-1,0-1.8-0.8-1.8-1.8
		s0.8-1.8,1.8-1.8h12.3c1,0,1.8,0.8,1.8,1.8S122,79.2,121.1,79.2z M98.2,79.2H85.8c-1,0-1.8-0.8-1.8-1.8s0.8-1.8,1.8-1.8h12.3
		c1,0,1.8,0.8,1.8,1.8S99.1,79.2,98.2,79.2z M75.3,79.2H62.9c-1,0-1.8-0.8-1.8-1.8s0.8-1.8,1.8-1.8h12.3c1,0,1.8,0.8,1.8,1.8
		S76.2,79.2,75.3,79.2z M52.4,79.2H40.1c-1,0-1.8-0.8-1.8-1.8s0.8-1.8,1.8-1.8h12.3c1,0,1.8,0.8,1.8,1.8S53.4,79.2,52.4,79.2z"/>
</g>
<g style="display:inline;">
	<g>
		<path class="st0" d="M17.9,76.8h-7.7l16.9-52h7.6L17.9,76.8z"/>
		<path class="st0" d="M45.4,63.8c1.8,0,3.2-0.1,4.2-0.4s1.4-0.8,1.4-1.6c0-0.5-0.2-1-0.5-1.3c-0.3-0.4-0.7-0.7-1.3-0.9
			c-0.5-0.3-1.2-0.5-1.9-0.8c-0.7-0.2-1.4-0.5-2.2-0.7c-1.1-0.3-2.2-0.7-3.3-1.1c-1.1-0.4-2.1-1-3.1-1.6c-0.9-0.6-1.7-1.5-2.3-2.4
			c-0.6-1-0.9-2.2-0.9-3.7c0-1.2,0.2-2.3,0.7-3.4c0.5-1.1,1.2-2,2.2-2.8c1-0.8,2.2-1.5,3.8-1.9c1.5-0.5,3.4-0.7,5.5-0.7
			c1.8,0,3.6,0.1,5.1,0.4c1.6,0.3,3,0.7,4.1,1.2l-1.1,6.3c-0.7-0.2-1.7-0.5-3.2-1c-1.4-0.5-3.1-0.7-4.9-0.7c-1.9,0-3.2,0.2-3.8,0.7
			c-0.7,0.5-1,1-1,1.5c0,0.4,0.2,0.8,0.5,1.2c0.3,0.3,0.7,0.7,1.2,0.9c0.5,0.3,1.1,0.6,1.7,0.8c0.7,0.3,1.4,0.5,2.1,0.8
			c1.1,0.4,2.2,0.8,3.4,1.2c1.2,0.4,2.2,1,3.2,1.7c0.9,0.7,1.7,1.5,2.3,2.5c0.6,1,0.9,2.3,0.9,3.8c0,1.2-0.2,2.3-0.7,3.3
			c-0.4,1-1.2,1.9-2.2,2.7c-1,0.8-2.4,1.4-4,1.8c-1.6,0.4-3.7,0.7-6.1,0.7c-2.4,0-4.5-0.3-6.3-0.8c-1.7-0.6-3.1-1.1-4.2-1.5l1.1-6.2
			c1.4,0.6,2.9,1.1,4.5,1.6C42.2,63.6,43.8,63.8,45.4,63.8z"/>
		<path class="st0" d="M62.2,55.5c0-2.5,0.4-4.7,1.1-6.6c0.8-1.9,1.8-3.5,3-4.7c1.2-1.3,2.7-2.2,4.3-2.9c1.6-0.6,3.3-1,4.9-1
			c4.2,0,7.3,1.2,9.5,3.7c2.2,2.5,3.3,6.1,3.3,10.8c0,0.5,0,1,0,1.5c0,0.5-0.1,0.9-0.1,1.3H69.8c0,1.8,0.8,3.3,2.3,4.4
			c1.5,1.1,3.5,1.6,5.9,1.6c1.5,0,2.9-0.2,4.2-0.5c1.3-0.3,2.5-0.6,3.4-1l1,6.3c-1.3,0.4-2.6,0.8-4.1,1.1c-1.4,0.3-3.1,0.5-4.9,0.5
			c-2.4,0-4.6-0.3-6.5-0.9c-1.9-0.6-3.5-1.5-4.9-2.8c-1.3-1.2-2.4-2.7-3.1-4.5C62.5,60,62.2,57.9,62.2,55.5z M81.1,52.6
			c0-0.8-0.1-1.5-0.3-2.2c-0.2-0.7-0.5-1.3-1-1.9c-0.4-0.6-1-1-1.7-1.4c-0.7-0.3-1.5-0.5-2.5-0.5c-1,0-1.8,0.2-2.5,0.5
			c-0.7,0.3-1.3,0.8-1.7,1.3c-0.5,0.6-0.8,1.2-1.1,1.9c-0.3,0.7-0.4,1.5-0.5,2.2H81.1z"/>
		<path class="st0" d="M115.1,48.6c-0.5-0.1-1.1-0.2-1.7-0.4c-0.7-0.1-1.3-0.2-2-0.3c-0.7-0.1-1.3-0.2-2-0.2c-0.6,0-1.2-0.1-1.6-0.1
			c-1,0-2.1,0.1-3.1,0.2c-1,0.1-2,0.3-3.1,0.6v21h-7.5V43c2-0.7,4-1.3,6-1.7c2.1-0.4,4.5-0.7,7.3-0.7c0.4,0,1,0,1.7,0.1
			c0.7,0,1.5,0.1,2.4,0.2c0.8,0.1,1.7,0.2,2.6,0.4c0.9,0.1,1.6,0.3,2.3,0.6L115.1,48.6z"/>
		<path class="st0" d="M130.3,69.4c-1.8-3.6-3.6-7.8-5.5-12.6c-1.9-4.8-3.6-10-5.3-15.7h7.8c0.4,1.5,0.8,3.2,1.3,4.9
			c0.5,1.7,1,3.5,1.6,5.2c0.6,1.7,1.1,3.4,1.7,5.1c0.6,1.6,1.1,3.2,1.7,4.5c0.5-1.4,1.1-2.9,1.7-4.5c0.6-1.6,1.3-3.3,1.9-5.1
			c0.6-1.7,1.2-3.5,1.8-5.2c0.6-1.7,1.1-3.4,1.4-4.9h7.5c-1.7,5.7-3.6,10.9-5.6,15.7c-2,4.8-4,9-5.8,12.6H130.3z"/>
		<path class="st0" d="M148.9,55.5c0-2.5,0.4-4.7,1.1-6.6c0.8-1.9,1.8-3.5,3-4.7c1.2-1.3,2.7-2.2,4.3-2.9c1.6-0.6,3.3-1,4.9-1
			c4.2,0,7.3,1.2,9.5,3.7s3.3,6.1,3.3,10.8c0,0.5,0,1,0,1.5c0,0.5-0.1,0.9-0.1,1.3h-18.4c0,1.8,0.8,3.3,2.3,4.4
			c1.5,1.1,3.5,1.6,5.9,1.6c1.5,0,2.9-0.2,4.2-0.5c1.3-0.3,2.5-0.6,3.4-1l1,6.3c-1.3,0.4-2.6,0.8-4.1,1.1c-1.4,0.3-3.1,0.5-4.9,0.5
			c-2.4,0-4.6-0.3-6.5-0.9c-1.9-0.6-3.5-1.5-4.9-2.8c-1.3-1.2-2.4-2.7-3.1-4.5C149.3,60,148.9,57.9,148.9,55.5z M167.9,52.6
			c0-0.8-0.1-1.5-0.3-2.2c-0.2-0.7-0.5-1.3-1-1.9c-0.4-0.6-1-1-1.7-1.4c-0.7-0.3-1.5-0.5-2.5-0.5c-1,0-1.8,0.2-2.5,0.5
			c-0.7,0.3-1.3,0.8-1.7,1.3c-0.5,0.6-0.8,1.2-1.1,1.9c-0.3,0.7-0.4,1.5-0.5,2.2H167.9z"/>
		<path class="st0" d="M201.8,48.6c-0.5-0.1-1.1-0.2-1.7-0.4c-0.7-0.1-1.3-0.2-2-0.3c-0.7-0.1-1.3-0.2-2-0.2c-0.6,0-1.2-0.1-1.6-0.1
			c-1,0-2.1,0.1-3.1,0.2c-1,0.1-2,0.3-3.1,0.6v21h-7.5V43c2-0.7,4-1.3,6-1.7c2.1-0.4,4.5-0.7,7.3-0.7c0.4,0,1,0,1.7,0.1
			c0.7,0,1.5,0.1,2.4,0.2c0.8,0.1,1.7,0.2,2.6,0.4c0.9,0.1,1.6,0.3,2.3,0.6L201.8,48.6z"/>
		<path class="st0" d="M228.7,68.2c-0.1,0.1-0.4,0.2-0.8,0.4c-0.4,0.2-1,0.4-1.7,0.6c-0.7,0.2-1.5,0.4-2.5,0.6
			c-1,0.2-2.1,0.2-3.3,0.2c-3.4,0-5.9-1-7.5-3c-1.6-2-2.3-5-2.3-8.9v-24h-7.8V28H218v30.7c0,1.9,0.4,3.2,1.1,3.9
			c0.8,0.7,1.7,1,2.9,1c1.5,0,2.7-0.2,3.7-0.6c1-0.4,1.7-0.7,2-0.8L228.7,68.2z"/>
		<path class="st0" d="M231,55.5c0-2.5,0.4-4.7,1.1-6.6c0.8-1.9,1.8-3.5,3-4.7c1.2-1.3,2.7-2.2,4.3-2.9c1.6-0.6,3.3-1,4.9-1
			c4.2,0,7.3,1.2,9.5,3.7s3.3,6.1,3.3,10.8c0,0.5,0,1,0,1.5c0,0.5-0.1,0.9-0.1,1.3h-18.4c0,1.8,0.8,3.3,2.3,4.4
			c1.5,1.1,3.5,1.6,5.9,1.6c1.5,0,2.9-0.2,4.2-0.5c1.3-0.3,2.5-0.6,3.4-1l1,6.3c-1.3,0.4-2.6,0.8-4.1,1.1c-1.4,0.3-3.1,0.5-4.9,0.5
			c-2.4,0-4.6-0.3-6.5-0.9c-1.9-0.6-3.5-1.5-4.9-2.8c-1.3-1.2-2.4-2.7-3.1-4.5C231.4,60,231,57.9,231,55.5z M250,52.6
			c0-0.8-0.1-1.5-0.3-2.2c-0.2-0.7-0.5-1.3-1-1.9c-0.4-0.6-1-1-1.7-1.4c-0.7-0.3-1.5-0.5-2.5-0.5c-1,0-1.8,0.2-2.5,0.5
			c-0.7,0.3-1.3,0.8-1.7,1.3c-0.5,0.6-0.8,1.2-1.1,1.9c-0.3,0.7-0.4,1.5-0.5,2.2H250z"/>
		<path class="st0" d="M271.5,63.8c1.8,0,3.2-0.1,4.2-0.4s1.4-0.8,1.4-1.6c0-0.5-0.2-1-0.5-1.3c-0.3-0.4-0.7-0.7-1.3-0.9
			c-0.5-0.3-1.2-0.5-1.9-0.8c-0.7-0.2-1.4-0.5-2.2-0.7c-1.1-0.3-2.2-0.7-3.3-1.1c-1.1-0.4-2.1-1-3.1-1.6c-0.9-0.6-1.7-1.5-2.3-2.4
			c-0.6-1-0.9-2.2-0.9-3.7c0-1.2,0.2-2.3,0.7-3.4c0.5-1.1,1.2-2,2.2-2.8c1-0.8,2.2-1.5,3.8-1.9c1.5-0.5,3.4-0.7,5.5-0.7
			c1.8,0,3.6,0.1,5.1,0.4c1.6,0.3,3,0.7,4.1,1.2l-1.1,6.3c-0.7-0.2-1.7-0.5-3.2-1c-1.4-0.5-3.1-0.7-4.9-0.7c-1.9,0-3.2,0.2-3.8,0.7
			c-0.7,0.5-1,1-1,1.5c0,0.4,0.2,0.8,0.5,1.2c0.3,0.3,0.7,0.7,1.2,0.9c0.5,0.3,1.1,0.6,1.7,0.8c0.7,0.3,1.4,0.5,2.1,0.8
			c1.1,0.4,2.2,0.8,3.4,1.2c1.2,0.4,2.2,1,3.2,1.7c0.9,0.7,1.7,1.5,2.3,2.5c0.6,1,0.9,2.3,0.9,3.8c0,1.2-0.2,2.3-0.7,3.3
			c-0.4,1-1.2,1.9-2.2,2.7c-1,0.8-2.4,1.4-4,1.8c-1.6,0.4-3.7,0.7-6.1,0.7c-2.4,0-4.5-0.3-6.3-0.8c-1.7-0.6-3.1-1.1-4.2-1.5l1.1-6.2
			c1.4,0.6,2.9,1.1,4.5,1.6C268.3,63.6,269.9,63.8,271.5,63.8z"/>
		<path class="st0" d="M299.2,63.8c1.8,0,3.2-0.1,4.2-0.4s1.4-0.8,1.4-1.6c0-0.5-0.2-1-0.5-1.3c-0.3-0.4-0.7-0.7-1.3-0.9
			c-0.5-0.3-1.2-0.5-1.9-0.8c-0.7-0.2-1.4-0.5-2.2-0.7c-1.1-0.3-2.2-0.7-3.3-1.1c-1.1-0.4-2.1-1-3.1-1.6c-0.9-0.6-1.7-1.5-2.3-2.4
			c-0.6-1-0.9-2.2-0.9-3.7c0-1.2,0.2-2.3,0.7-3.4c0.5-1.1,1.2-2,2.2-2.8c1-0.8,2.2-1.5,3.8-1.9c1.5-0.5,3.4-0.7,5.5-0.7
			c1.8,0,3.6,0.1,5.1,0.4c1.6,0.3,3,0.7,4.1,1.2l-1.1,6.3c-0.7-0.2-1.7-0.5-3.2-1c-1.4-0.5-3.1-0.7-4.9-0.7c-1.9,0-3.2,0.2-3.8,0.7
			c-0.7,0.5-1,1-1,1.5c0,0.4,0.2,0.8,0.5,1.2c0.3,0.3,0.7,0.7,1.2,0.9c0.5,0.3,1.1,0.6,1.7,0.8c0.7,0.3,1.4,0.5,2.1,0.8
			c1.1,0.4,2.2,0.8,3.4,1.2c1.2,0.4,2.2,1,3.2,1.7c0.9,0.7,1.7,1.5,2.3,2.5c0.6,1,0.9,2.3,0.9,3.8c0,1.2-0.2,2.3-0.7,3.3
			c-0.4,1-1.2,1.9-2.2,2.7c-1,0.8-2.4,1.4-4,1.8c-1.6,0.4-3.7,0.7-6.1,0.7c-2.4,0-4.5-0.3-6.3-0.8c-1.7-0.6-3.1-1.1-4.2-1.5l1.1-6.2
			c1.4,0.6,2.9,1.1,4.5,1.6C295.9,63.6,297.5,63.8,299.2,63.8z"/>
		<path class="st0" d="M322.1,76.8h-7.7l16.9-52h7.6L322.1,76.8z"/>
	</g>
	<g>
		<path class="st0" d="M377.1,40.8h-6v20.7h6c6.5,0,10.4-4.7,10.4-10.3C387.4,45.3,383.9,40.8,377.1,40.8z"/>
		<polygon class="st0" points="406.3,55.8 417.2,55.8 411.8,40.7 		"/>
		<path class="st0" d="M350.6,24.1l-15.3,53.1h160l15.3-53.1H350.6z M377.1,67.6h-13V34.6h13c10.4,0,17.5,6.6,17.5,16.6
			C394.6,61.1,387.4,67.6,377.1,67.6z M421.2,67.6l-2.1-5.7h-14.8l-2.1,5.7h-7.7l12.8-33.1h8.8l12.7,33.1H421.2z M444.3,67.6h-7
			V54.1l-12.7-19.5h8l8.2,13.3l8.1-13.3h8l-12.6,19.5V67.6z M470.3,68.2c-6.3,0-10.9-2.1-14-5.3l3.9-5.4c2.3,2.4,5.9,4.5,10.5,4.5
			c3.9,0,5.8-1.8,5.8-3.7c0-2.5-2.9-3.3-6.7-4.2c-5.4-1.2-12.3-2.7-12.3-10.1c0-5.5,4.8-10,12.5-10c5.3,0,9.6,1.6,12.9,4.6l-3.9,5.2
			c-2.7-2.5-6.2-3.6-9.5-3.6c-3.2,0-4.9,1.4-4.9,3.4c0,2.2,2.8,2.9,6.6,3.8c5.5,1.2,12.4,2.9,12.4,10.2
			C483.6,63.7,479.3,68.2,470.3,68.2z"/>
	</g>
	<path class="st0" d="M304.1,79h-12.4c-1,0-1.8-0.8-1.8-1.8s0.8-1.8,1.8-1.8h12.4c1,0,1.8,0.8,1.8,1.8S305.1,79,304.1,79z M281.1,79
		h-12.4c-1,0-1.8-0.8-1.8-1.8s0.8-1.8,1.8-1.8h12.4c1,0,1.8,0.8,1.8,1.8S282.1,79,281.1,79z M258.1,79h-12.4c-1,0-1.8-0.8-1.8-1.8
		s0.8-1.8,1.8-1.8h12.4c1,0,1.8,0.8,1.8,1.8S259,79,258.1,79z M235.1,79h-12.4c-1,0-1.8-0.8-1.8-1.8s0.8-1.8,1.8-1.8h12.4
		c1,0,1.8,0.8,1.8,1.8S236,79,235.1,79z M212,79h-12.4c-1,0-1.8-0.8-1.8-1.8s0.8-1.8,1.8-1.8H212c1,0,1.8,0.8,1.8,1.8S213,79,212,79
		z M189,79h-12.4c-1,0-1.8-0.8-1.8-1.8s0.8-1.8,1.8-1.8H189c1,0,1.8,0.8,1.8,1.8S190,79,189,79z M166,79h-12.4c-1,0-1.8-0.8-1.8-1.8
		s0.8-1.8,1.8-1.8H166c1,0,1.8,0.8,1.8,1.8S167,79,166,79z M143,79h-12.4c-1,0-1.8-0.8-1.8-1.8s0.8-1.8,1.8-1.8H143
		c1,0,1.8,0.8,1.8,1.8S144,79,143,79z M120,79h-12.4c-1,0-1.8-0.8-1.8-1.8s0.8-1.8,1.8-1.8H120c1,0,1.8,0.8,1.8,1.8S120.9,79,120,79
		z M96.9,79H84.6c-1,0-1.8-0.8-1.8-1.8s0.8-1.8,1.8-1.8h12.4c1,0,1.8,0.8,1.8,1.8S97.9,79,96.9,79z M73.9,79H61.5
		c-1,0-1.8-0.8-1.8-1.8s0.8-1.8,1.8-1.8h12.4c1,0,1.8,0.8,1.8,1.8S74.9,79,73.9,79z M50.9,79H38.5c-1,0-1.8-0.8-1.8-1.8
		s0.8-1.8,1.8-1.8h12.4c1,0,1.8,0.8,1.8,1.8S51.9,79,50.9,79z"/>
</g>
</svg>
