<?xml version="1.0" encoding="utf-8"?>
<!-- Generator: Adobe Illustrator 21.1.0, SVG Export Plug-In . SVG Version: 6.00 Build 0)  -->
<svg version="1.1" id="Layer_1" xmlns="http://www.w3.org/2000/svg" xmlns:xlink="http://www.w3.org/1999/xlink" x="0px" y="0px"
	 viewBox="0 0 515.9 728.5" style="enable-background:new 0 0 515.9 728.5;" xml:space="preserve">
<style type="text/css">
	.st0{fill:#F4E5F0;}
	.st1{fill:#EBF1F4;}
	.st2{fill:#EE708E;}
	.st3{fill:#D668A8;}
	.st4{fill:#905EA1;}
	.st5{fill:#A7A9AC;}
	.st6{opacity:0.7;fill:#B1D235;}
	.st7{fill:#4098D3;}
	.st8{fill:#5E98D1;}
	.st9{fill:#6551A2;}
	.st10{fill:#433643;}
	.st11{fill:#FAEF60;}
	.st12{fill:#F05E7C;}
	.st13{fill:#F58862;}
	.st14{fill:#A1CF64;}
	.st15{fill:#6EB0E0;}
	.st16{fill:#9066AC;}
	.st17{fill:#FFFFFF;}
	.st18{opacity:0.4;fill:#55285B;}
	.st19{opacity:0.3;fill:#FFFFFF;}
	.st20{opacity:0.75;fill:#FFFFFF;}
	.st21{fill:#010101;}
</style>
<g>
	<path class="st0" d="M247.8,311.6c0,0,0.9-11.9,2.3-19.7c1.9-10.1-8.6-21.8-8.6-21.8l9.8,2.6l9.8,5.8c0,0-3-16.2-6.4-23.8
		c-4.8-10.7-15.3-19.4-15.3-19.4s-13.9,3.4-26-0.2c-5.9-1.8-17.5-11.9-12.5-15.2c5-3.3,27.8-7,33.4-6.4s19.1,3.1,19.1,3.1
		s9.9-4.6,19.3-6.9c13.4-3.2,57.1,5.6,57.1,5.6l4.1-18.1c0,0,16,8.6,27,8s22.3-2.3,29.4-1.1c10.7,1.8,23.8,16.4,20.6,24.4
		c-1.5,3.7-38.8,16.6-48.1,19.7c-1.2,0.4-2,1.7-1.8,2.9c0.8,4.8,10.6,14.1,15.5,15.8c10.2,3.4,27.8,0.6,28.9,2.3s0.8,10.8-1.9,12.2
		c-2.7,1.4-26.8,16.6-61.5,1.4c-2.4-1.1-14.8,11-14.8,11l5.9,11.3c0,0-11.6,10.9-22.8,14.3c-11.2,3.4-20.4,2.2-20.4,2.2
		s-7.4-7.9-14.9-11.6C264,304.5,247.8,311.6,247.8,311.6z"/>
	<path class="st0" d="M371.5,349.5c0,0-2.1-9.1-3.8-14.1c-1.8-5.3-4.8-10.1-4.8-10.1l7.9-10.1c0,0,36.3-11,43.6-14.7
		c7.3-3.6,26.3-15.4,26.3-15.4s3,29.3,5.5,32.1c3.9,4.5,19.6,1.9,19.6,1.9s3.7,0.3,1.3,4.7c-2.4,4.4-38.2,18.1-50,20.5
		C405.3,346.9,371.5,349.5,371.5,349.5z"/>
	<path class="st0" d="M232.1,348.5c0,0,15-4.2,25.8,0.9c10.8,5.2,25.7,19.7,25.7,19.7s-39.6,12.4-51.5,21.8
		c-11.9,9.4-36.4,40.7-41.9,41.2s-21.7,1.2-27.9-4.3c-6.2-5.5-12.6-13.9-10.9-18.7s24-31.8,34.9-39.6
		C197.3,361.8,232.1,348.5,232.1,348.5z"/>
	<path class="st0" d="M335.6,464.7c0,0-3.5-18.6,0-24c3.5-5.4,11.1-17.9,11.1-17.9s23.8-4.2,47,2.5c23.2,6.7,53.7,43.4,52.9,51.2
		s-8.3,11.7-17.1,15.1s-20.1,6.8-24.8,3.8c-4.8-3.1-22.8-25.5-31.5-28.2C364.5,464.5,335.6,464.7,335.6,464.7z"/>
	<path class="st0" d="M391.9,419.2c0,0-0.1-2.5,3.4-8.3s-0.1-11.9-0.1-11.9s27.5-3.4,51.5,9.3c26.1,13.8,40.7,32.4,42,38.8
		c1.3,6.4-16,12.1-19.2,16.6s-13.2,4.4-16.4,2.4c-3.2-2-22-15.6-22-15.6l-14.1,5.6l-21.7-30.8L391.9,419.2z"/>
	<path class="st0" d="M296.2,172.8l2.4-12.9c0,0,49.4-93.9,55.4-92.2c6,1.6-33.8,89-33.8,89s-7.1,3.3-12.3,7.2
		C296.2,172.8,296.2,172.8,296.2,172.8z"/>
	<path class="st1" d="M358.4,249.7c0,0,22.8,3.7,31.9-0.2s14.1-10.7,14.1-10.7v-3.5l-33.9,8L358.4,249.7z"/>
	<path class="st2" d="M358.4,249.7l16.4,1.6c0,0,9.2,5,12,7.9c2.8,2.9,5.1,9.5,5.1,9.5h-9.6l-14.9-6.3l-9.1-9.4V249.7z"/>
	<path class="st3" d="M209.4,326.2c0,0-34.9-3-42.1-8.9c-7.2-5.9-18.7-14.2-18.7-14.2s13-0.3,19.6,0c6.7,0.3,14.4-4.2,14.4-4.2
		s-18.1-7.3-24.3-13.6s-12-15-12-15s16.4-0.3,26-0.3c7.9,0,18.9-8.2,18.9-8.2l-11.4-8.8c0,0,13.9-1.3,20.8-5.9
		c6.6-4.3,12.9-12,12.9-12l26,0.2c0,0,9.6,7.5,15.3,19.4c6.7,13.9,6.4,23.8,6.4,23.8s-2.9-3.1-9.8-5.8c-9.4-3.7-16.1-5-16.1-5
		s11.9,6,14.1,15.1c2.2,9.1-1.5,28.8-1.5,28.8l-14.2,5.8L209.4,326.2z"/>
	<path class="st4" d="M151.1,412.1c0,0,10.6-18.7,13.5-20.4c2.8-1.7,11.6-9.1,11.6-9.1s0.2,10.8,10.1,18.7
		c10.8,8.6,26.9,7.9,26.9,7.9l-22.9,22.9c0,0-21.3-0.6-27.9-4.3C155.7,424.2,151.1,412.1,151.1,412.1z"/>
	<path class="st5" d="M232.1,348.5c0,0-7.4-16.1-1-25c6.4-8.9,17.5-15.8,30.8-15.5c17.8,0.4,28.1,13.6,28.1,13.6s23.2-1.1,30-5.6
		c6-4,13.2-10.9,13.2-10.9l-4-7.6c0,0,20.7-2.7,27.6-1.4c6.9,1.2,20.4,5,20.6,7.8c0.2,2.8-13.2,21.5-13.2,21.5s3.2,8.7,4.3,12.7
		c1.1,4.1,2.9,11.4,2.9,11.4s-8.8,10.9-13,12.1c-4.3,1.2-32.6,3.1-40.9,2.5c-8.4-0.7-10.7,0.1-10.7,0.1l-13.2,8.1l-3.6-1.6
		c0,0-25.1-20-35.6-21.3S232.1,348.5,232.1,348.5z"/>
	<path class="st5" d="M385.9,390.2c0,9.9-9.5,17.9-21.1,17.9c-11.7,0-24.8-8.7-21.1-17.9c4.1-10.1,9.5-16.5,21.1-16.5
		C376.4,373.7,385.9,380.3,385.9,390.2z"/>
	<path class="st3" d="M232,213.3c0,0,7.9-20,10.2-23.7c4.9-7.9,33.6-15.2,36-27.6c2.4-12.5-6.2-14.7-6.2-14.7s8.1-2.9,21.5,7.9
		c7.3,5.9,2.7,15.3,2.7,15.3s7.4-0.8,11.7-6.5c4.4-5.7,29.2-12.9,29.2-12.9s-1.4,5.8-2.7,11.9c-1.3,6.1-0.8,13.5-3.6,16.2
		c-2.8,2.7-12.1,7.3-12.1,7.3s14-2.1,13.2,10.8c-0.8,12.9-2.2,19.5-2.2,19.5s-33.7-6.4-46.1-7.7c-18.2-2-30.3,9.9-30.3,9.9
		L232,213.3z"/>
	<path class="st6" d="M267.8,229.8l31.5,28.7c0,0,60.3-54.7,65.1-57.5c6-3.5,9.3-5.8,9.3-5.8l-26.6-31c0,0-1-2.8-8.3,1.3
		C329.5,170.8,267.8,229.8,267.8,229.8z"/>
	<polygon class="st5" points="267.8,229.8 273.6,224.3 281.2,229.8 281.2,235.3 291.3,243.3 296.2,243.3 305.6,251.3 299.4,258.5 	
		"/>
	<path class="st1" d="M478.8,317.2l-31.2,3.1c-2.1,0.2-4-1.3-4.2-3.4l-5.8-57.9c-0.2-2.1,1.3-4,3.4-4.2l31.2-3.1
		c2.1-0.2,4,1.3,4.2,3.4l5.8,57.9C482.4,315.1,480.9,317,478.8,317.2z"/>
	<path class="st6" d="M473.2,305.2l-21.9,2.2c-1.6,0.2-3.1-1-3.2-2.6l-4.1-40.6c-0.2-1.6,1-3.1,2.6-3.2l21.9-2.2
		c1.6-0.2,3.1,1,3.2,2.6l4.1,40.6C476,303.5,474.8,305,473.2,305.2z"/>
	<path class="st7" d="M204.2,357.6c0,0-1.1-22.5,5.2-31.4c6.3-8.9,24.2-8.9,24.2-8.9s-8.6,11.8-8.2,16.7c0.5,4.9,6.7,14.5,6.7,14.5
		L204.2,357.6z"/>
	<path class="st3" d="M294,441.4c0,0,6.2-10.4,21.6-19.6c15.5-9.3,34.3-16.4,34.3-16.4s14.7,4.9,21.5,1.7c14.1-6.6,14.5-17,14.5-17
		h6c0,0,6.7,12.4,3.4,20.7s-6.8,13.1-6.8,13.1s-14-3.5-24.1-2.6c-10.1,0.9-15,1.4-15,1.4s-8.9,7.5-13.8,17.9
		c-5.4,11.4,1.3,25.3,1.3,25.3l-23.7,4.4c0,0,6.9-11.3-1.9-21C302.7,439.7,294,441.4,294,441.4z"/>
	<path class="st8" d="M220.8,402.1c0,0,22.6,57,51.6,76.7c30.1,20.5,74.9,9.6,90.6,2.5s14.5-8.7,14.5-8.7s-0.7-2-7.2-5.5
		c-11.4-6.1-55.6,3.3-55.6,3.3s5-12.8-3.2-21c-10.7-10.9-20.6-6.9-20.6-6.9s5-14.4-1.3-22.1c-6.3-7.7-20.7-7.7-20.7-7.7
		s4.3-14.7-1.4-22.3c-7.5-10-15.6-7.9-15.6-7.9L220.8,402.1z"/>
	<path class="st5" d="M394.2,485.1l-14.3-13.4c0,0,3.9-22.9,13.9-29.1c8.4-5.2,21.2-7.8,21.2-7.8l7.4,5.9c0,0,0-9.4,4.8-15.4
		c7.2-9,22.2-14,22.2-14l15.9,10.2c0,0-19.7,9.4-23.2,13.2c-3.5,3.8-8.8,15.7-8.8,15.7s-17.8-5.4-27.6,6.7
		C394.7,470.7,394.2,485.1,394.2,485.1z"/>
	<path class="st3" d="M365.8,356c0,0,6.3,3.8,10.7,8.4c4.4,4.6,7.6,9.4,7.6,9.4l-5.3,1.7c0,0-6.7-4.9-19-1
		c-12.3,3.9-13.3,9.1-13.3,9.1l-29.2,11.5c0,0,0.5-6.9-4.9-13.7c-5.4-6.9-11.3-10.9-11.3-10.9l7-7.5c0,0,35.6,3.7,43.6,0.5
		C359.8,360.5,365.8,356,365.8,356z"/>
	<path class="st4" d="M446.4,334.7c0,0-17.5-5.8-20.8-14.7s-2.2-24.3-2.2-24.3l17.4-10.5l3.5,25.5c0,0-1.1,8.2,4.6,9.5
		c5.7,1.3,19.1-1.9,19.1-1.9l-0.8,5.7L446.4,334.7z"/>
	<path class="st4" d="M394.2,485.1c0,0-0.5-17.8,11.5-28c15.5-13,27.6-6.7,27.6-6.7s4.3-13.9,13.3-19.8c8.9-5.8,18.7-9.1,18.7-9.1
		s24.7,22.6,23.3,25.6c-3.8,8.1-5.2,7.3-12.2,11.9c-7,4.7-17,11.2-23.4,7c-6.4-4.1-16.7-10-16.7-10s11.6,13.9,12.2,20.2
		c0.7,8.5-11,12.5-19,15.4c-8,2.8-16.1,7.8-24.8,3.8C396,491.3,394.2,485.1,394.2,485.1z"/>
	<path class="st9" d="M253.2,381.3c0,0,10.2,1.6,14.3,9.2c6.4,11.8,2.8,22.3,2.8,22.3s7.9,0.8,11.2,2.3c3.3,1.5,6.8,4.1,6.8,4.1
		s5-7.8,12.9-13.8c9.8-7.3,16.2-10.1,16.2-10.1s0.1-8.1-4.9-13.7s-11.3-10.9-11.3-10.9l-7.5,1.8l-9.9-4.5c0,0-15.9,5.6-18.9,7.2
		C261.8,376.6,253.2,381.3,253.2,381.3z"/>
	<path class="st5" d="M197.1,363.5c0,0-6.8-17.9-3.7-23.9s16-13.4,16-13.4s-5.6,9.4-5.3,14.3c0.3,4.9,1.4,17.1,1.4,17.1L197.1,363.5
		z"/>
	<path class="st5" d="M209.4,414.8l11.3-12.7c0,0,25.5,64.1,51.6,76.7c26,12.6,60.9,12.6,75.7,7.6c14.8-5,31.8-14.7,31.8-14.7
		s5.7,7.4,6,8.3s-23.3,14.9-37.6,19.2c-19.8,6-72.5,3.1-87.2-9.4C232,465,209.4,414.8,209.4,414.8z"/>
	<path class="st5" d="M201,532.4c-30.2-27.7-41.3-59.1-34.4-67.4c7.5-9,14.1-8.4,19.7-5.9c5.6,2.5,12.5-5.2,12.5-5.2
		s15.3,29.9,30.1,41.2c14.8,11.4,48.5,24,48.5,24l-13.4,11.4c0,0,9.6,8.9,2.6,16.1c-7,7.3-15.9,9.7-26,6.8
		C230.5,550.6,201,532.4,201,532.4z"/>
	<path class="st10" d="M290.9,442.6c0,0,2.8-7.8,1.8-13.4c-1.7-9.2-4.5-10.1-4.5-10.1s12.7-15.3,29.1-23.9
		c16.3-8.6,29.2-11.5,29.2-11.5s-4,8.8-2.1,12.3c5.6,10.2,5.6,9.4,5.6,9.4s-26.5,9.1-34.3,16.4C297.7,438.7,290.9,442.6,290.9,442.6
		z"/>
	<path class="st10" d="M385.9,390.2c0,0,3.5-0.9-1.8-7.8c-5.3-6.8-5.3-6.8-5.3-6.8l5.3-1.7c0,0,2.9,6.6,5.7,8.2
		c2.8,1.6,2.1,8.2,2.1,8.2H385.9z"/>
	<path class="st1" d="M320.8,504.3c0,0-30.6,17.5-43.3,14.9c-19.5-4.1-45.1-16-56.4-32.2c-14.1-20.2-21.8-28.1-21.8-39.1
		c0-21.6,10.2-33.2,10.2-33.2s18.8,49.8,48.5,69.2C287.7,503.4,320.8,504.3,320.8,504.3z"/>
	<path class="st11" d="M87.4,584.1c0,0-33,17-29.7,27c4.7,14,49.8,20.9,49.8,20.9s-12.2,12.7-2,16.1c10.2,3.4,24.8-11.3,24.8-11.3
		s-19.9,7.8,6.6,16.9c14.6,5,37.2-31.9,37.2-31.9l38.7-77.7c0,0,4.7,3.4-11.7-11.6s-19.8-21-19.8-21L87.4,584.1z"/>
	<path class="st12" d="M50.2,505.8c0,0,3.2,15.3,12.9,21.3s24,10.9,55-4c29.3-14.1,46.5-31.9,46.9-34.8l13.9,22.2
		c0,0-96.3,75.7-107.6,68.6c-11.3-7.1-43.2-26.1-43.2-50.9C28.2,503.2,50.2,505.8,50.2,505.8z"/>
	<path class="st13" d="M45,559.9c0,0,55,1.6,80.5-15.9c25.5-17.5,48.9-37.3,48.9-37.3l11.7,11.1c0,0-25.5,27.5-40,42.2
		c-33.8,34.1-65.8,60.2-75.4,58.5c-5.6-1-1.9,1.8-7.1-0.6c-4.5-2-5.9-2.2-5.9-6.8c-0.2-16.7,37.7-26.9,37.7-26.9s-16.3,3.2-24.5-2.7
		S45,559.9,45,559.9z"/>
	<path class="st13" d="M95.5,507.9c0,6.3-5.1,11.4-11.4,11.4s-11.4-5.1-11.4-11.4c0-6.3,5.1-12.7,11.4-12.7S95.5,501.6,95.5,507.9z"
		/>
	<ellipse class="st12" cx="75.3" cy="463.6" rx="10.9" ry="2.6"/>
	<path class="st14" d="M141.3,655c-17.5-2.2-18.4-13.7-18.4-13.7s-48.7,19.2,0.6-20.2c29.9-23.9,77.5-88.6,77.5-88.6l12.9,9.9
		c0,0-20,45.1-21.9,75.6c-1.4,23,10.1,40.5,10.1,40.5l-15.6-22c0,0,4,14.6-4.4,14.6c-12.5,0-8.9-35.7-8.9-35.7
		S153.5,656.5,141.3,655z"/>
	<path class="st15" d="M186.3,648.9c-11.7,5.1-11.6-37.8,5.8-71.7c13.3-25.9,21.9-34.9,21.9-34.9l14.7,6.4c0,0-16.3,32.7-19.1,61.1
		c-2.7,26.7,20.5,35.4,20.5,35.4s29,15.3,12.2,22.7c-16.8,7.4-38.4-7.1-45-16.8c-6.7-9.6-10.5-14.8-10.5-14.8L186.3,648.9z"/>
	<path class="st16" d="M240.7,553.5c0,0-19,28.1-17.5,41.9c1.5,13.9,5.9,35.8,28.6,41.5s18.9,1,17,5c-1.9,4-16.8,7-25.5,5.4
		c-8.7-1.7-27.5-3.4-33.9-16.6c-6.4-13.3-5.7-23,0-42.1c5.7-19.1,19.1-39.8,19.1-39.8L240.7,553.5z"/>
	<circle class="st16" cx="317.9" cy="606.1" r="7.7"/>
	<ellipse class="st15" cx="282.2" cy="618.4" rx="14.4" ry="7.9"/>
	<path class="st17" d="M266.2,592.8c0,0,9.3-8.9,13.1-7.1c0,0-5.4-13-0.5-18.5c0,0-7.9,9.4-16.1,5.2c-2-1,5.7,3.3,5,9.7
		C267,588.5,266.2,592.8,266.2,592.8z"/>
	<path class="st17" d="M309.6,555.9c0,0,4.7-1.2,5.5-3.7c0.4-1.2,0.9-2.9,0.9-2.9l3.5,6l2.5,2.5l-3.5,3.9l-0.8,2.6l-3.1-5.9
		L309.6,555.9z"/>
	<path class="st17" d="M103.4,477.1c0,0,4.5-4,4.5-7.3c0-1.4-0.8-8.3-0.8-8.3s5.2,4.9,8.1,5.8s8.7,1.5,8.7,1.5s-3.2,7.7-2.9,9.3
		s1.3,5.3,1.3,5.3s-5.9-6.5-9.6-6.6C108.9,476.6,103.4,477.1,103.4,477.1z"/>
	<path class="st18" d="M273.6,286c0,0,3.9,15.6,29.3,23.3c21.7,6.6,33.2-2.8,30.4-7.2l-6-8.4l9.4-11c0,0-21.9,14.1-31.1,15
		C288.5,299.5,273.6,286,273.6,286z"/>
	<path class="st18" d="M267.8,227.6l-2.1,3.5l34.5,31.6c0,0,28.9-27.5,45-41.2c10.1-8.6,17.2-15.8,17.2-15.8l-3.5-2.2L301,256.6
		L267.8,227.6z"/>
	<path class="st18" d="M311.1,319.4c0,0-2.9,5.4,3.6,21.6c8.5,21.1,41,21.2,41,21.2s-23.9,6.5-34.2,3.8c-10.3-2.7-12.7-2.9-12.7-2.9
		s-0.5-8.2-7-20.1c-6.5-11.8-11.1-21.4-11.1-21.4L311.1,319.4z"/>
	<path class="st18" d="M287.3,368.7c0,0-12.2-11-24-16.1c-11.8-5.1-34.9-5.7-34.9-5.7s16.5,2.8,24.7,9.1
		c-14.8,6.2-41.5,18.8-54,28.9c-19.2,15.6-38.1,40.3-38.1,40.3s3,4.2,8.5,5.5c8.5,2.1,13.9,0,13.9,0s21.7-20.1,34.7-32.2
		c13.1-12.2,34.3-20.7,49.6-28.5c1.4,1.7,3,3.3,3,3.3L287.3,368.7z"/>
	
		<ellipse transform="matrix(0.7855 -0.6189 0.6189 0.7855 -123.6282 282.1152)" class="st19" cx="345.1" cy="319.4" rx="5.5" ry="10.8"/>
	
		<ellipse transform="matrix(0.6178 -0.7864 0.7864 0.6178 -148.8965 340.6249)" class="st19" cx="275.9" cy="323.5" rx="6.1" ry="14.5"/>
	<path class="st18" d="M258,311.6c0,0-8.7,1.2-6.1,17.3c2.6,16.1,45.8,39.8,45.8,39.8l-4.1,3.6c0,0-24.4-19.4-35.6-21.6
		c-11.2-2.2-17.8-3.8-17.8-3.8s-9.2,1.1-8.1-12.9C233.6,314.1,258,311.6,258,311.6z"/>
	<path class="st18" d="M351.9,308.5c0,0,6.9,2.7,11,3.1c4.1,0.4,10.9-1.6,10.9-1.6l-10.4,16.3L351.9,308.5z"/>
	<path class="st18" d="M367.7,335.4c0,0,12.6,1.4,36.7-4.1c24.1-5.6,35.9-17.4,35.9-17.4l-3.9-26l4.3-2.6c0,0-2.5,27.6,5.5,32.1
		c7.9,4.5,21.7,1,21.7,1s-1.6-1.1-1.9,2.2s-29.2,15.1-50.6,20.7s-47.1,5.4-47.1,5.4s2.8,1.4,1.5-3.6
		C368.5,338.1,367.7,335.4,367.7,335.4z"/>
	<polygon class="st18" points="379.9,242.3 378.8,250 358.4,251.3 	"/>
	<path class="st18" d="M358.4,251.3l16.8,0.2c0,0,4.1,1.5,6.6,3.6c2.5,2.1-4.8,0.4-8,3.4c-3.2,3.1,2.8,8.5,2.8,8.5L358.4,251.3z"/>
	<path class="st18" d="M392.5,416.4c0,0,19,0.8,38.6,16.4c19.6,15.7,22.5,25,31.9,26.2c9.4,1.2,18.1-3,18.1-3s-10.7,12-21.4,11.2
		c-10.7-0.9-28.8-16.7-28.8-16.7s-16.5-17.5-29.5-22s-11.7-6.5-11.7-6.5L392.5,416.4z"/>
	<path class="st18" d="M417.8,485.1c-9.1-2-10.4-30.8-31.9-41c-21.5-10.2-33.5-1.5-57.1-3.3c-23.5-1.9-29.7-19.4-43.6-35.3
		c-8.8-10.1-13.6-20-16-26l10.6-5.6c0,0,13,3.5,19.3,1.8c6.3-1.8,8.3-6.9,8.3-6.9s32.7,1.3,42.5-0.9c9.8-2.2,15.9-11.8,15.9-11.8
		s-10,6.1-20.7,8.6c-10.7,2.4-36.3-1.5-36.3-1.5s-2.1,1.1-11.2,5.7c-9.1,4.5-14.5,0-14.5,0l-15.8,5.4c0-0.1-0.1-0.2-0.1-0.2
		l-1.1,0.6l-1.4,0.5l0,0.3l-12.9,7.3c0,0,9.2-1.5,15.6,7.9c6.4,9.4,1,24,1,24s13.6-6.5,21.5,5.5c4.3,6.6-0.4,21.8-0.4,21.8
		s14.8-1.7,23.9,10.3c6.4,8.4,1.2,18.3,1.2,18.3s44.9-5.1,60.1-0.5c15.2,4.6,26.6,26.4,36.3,26.9c9.8,0.6,24-8.6,24-8.6
		S426.9,487.1,417.8,485.1z"/>
	<path class="st18" d="M233.6,346.7l-38,17.6c0,0-6.1-16.4-2.2-24.6s35.1-22.3,35.1-22.3l8.5-1.4c0,0-12.1,7.4-10.1,15.6
		S233.6,346.7,233.6,346.7z"/>
	<path class="st18" d="M263.5,386.3c0,0-21.4,6-26.5,12.3c-5.2,6.2-9.7,9.7-5,16.2c4.7,6.5,20.4,2.1,20.4,2.1s-11.2,12.4-0.5,24.9
		c10.6,12.6,24.1,9.7,24.1,9.7s-9.5,15.1,5.1,21.4s33.6-2.5,33.6-2.5s39.6-8,49.8-4.3c10.3,3.7,21.4,13.7,21.4,13.7
		s-30.6,23-56.6,22.2s-68.8-6.7-82.7-26.6c-13.8-19.9-33.1-50.5-33.5-56.5c-0.4-6-3.4-8.7-3.4-8.7l45-29.7L263.5,386.3z"/>
	
		<ellipse transform="matrix(0.9406 -0.3394 0.3394 0.9406 -119.7206 112.5139)" class="st19" cx="261.8" cy="398.5" rx="3.9" ry="7"/>
	
		<ellipse transform="matrix(0.9406 -0.3394 0.3394 0.9406 -128.0483 120.7927)" class="st19" cx="281.3" cy="426.5" rx="3.9" ry="7"/>
	<ellipse transform="matrix(0.7396 -0.6731 0.6731 0.7396 -226.6787 322.1711)" class="st19" cx="303" cy="454" rx="3.9" ry="7"/>
	<path class="st18" d="M317.3,505c0,0-29.8,0.7-53.2-8.4c-13.5-5.2-23-11.9-26.1-14.3c-0.6-0.5-1.5-0.3-1.9,0.3l-2.9,4
		c-0.7,1-0.7,2.4,0.2,3.4c2.4,2.6,7.2,7.7,10.1,10.6c3.9,3.9,16.5,11.6,16.5,11.6c0.4,2.2-26.9-3.7-47.3-36.6
		c-14.4-23.3-2.2-61.1-0.9-60.4c0,0,24.1,48.3,32.3,57.9C264.1,496.6,317.3,505,317.3,505z"/>
	<path class="st18" d="M192.6,465l5.3-5.9l0.6-6.2c0,0,19,33.8,33.4,44.5c14.4,10.7,42.7,21.2,42.7,21.2s-19.2,3.2-50.4-19.8
		c-16.6-12.3-15.5-13.8-15.5-13.8l-3.9,3.3L192.6,465z"/>
	<path class="st18" d="M186.2,465.7l13,22.6c0,0-5.8-1.5-10.6,3.9s-6.5,8.3-6.5,8.3s14.9,22.7,34.5,36.2
		c15.2,10.5,43.4,15.2,43.4,15.2s-37.6,1.6-55.8-14.4c-35-30.7-39.6-63.2-39.6-63.2l3.2,5.7c0,0-1.1-8.5,5.1-13.7
		C181.2,459.2,186.2,465.7,186.2,465.7z"/>
	<path class="st19" d="M203.4,493.1c0,0,13.2,23,33.9,31.6c11.1,4.6,23.3,7.9,26.6,10.8c2.6,2.2,1.8,3.8-3.6,3.7
		c-4.3-0.1-23.4-8.5-31.2-13.4C215.7,517.4,203.4,493.1,203.4,493.1z"/>
	<path class="st19" d="M434.5,462.3c4.3,5.5,9,11.1,7.1,12.6s-6.2-4.4-10.5-9.9c-4.3-5.5-9.7-8.5-7.8-9.9
		C425.2,453.6,430.2,456.8,434.5,462.3z"/>
	<path class="st19" d="M474.8,436.8c4.3,5.5,9.5,11,7.7,12.5s-6.7-4.3-11-9.8c-4.3-5.5-9.7-8.5-7.8-9.9
		C465.5,428.1,470.5,431.4,474.8,436.8z"/>
	<path class="st19" d="M371.5,304c-0.3,1.1-6.9,0.9-11.5-0.3s-8.1-3.1-7.8-4.2c0.3-1.1,4.2-0.9,8.8,0.3
		C365.7,301.1,371.8,302.9,371.5,304z"/>
	<path class="st19" d="M365.3,383.7c7.3,0,13.6,3.9,16.7,9.6c0.2-0.9,0.3-1.7,0.3-2.6c0-7.6-7.7-13.8-17.1-13.8
		c-9.5,0-17.1,6.2-17.1,13.8c0,1,0.1,1.9,0.4,2.8C351.5,387.7,357.9,383.7,365.3,383.7z"/>
	<polygon class="st20" points="444.2,310 465.4,252.4 473,252.4 476.4,259.1 452.8,320 446.2,317.4 	"/>
	<path class="st18" d="M241.2,236.1l15.2-2.3l-2.8,7.4c0,0,2,0.5,6.2,11.3c4.1,10.8,0.7,28.3,0.7,28.3s-0.6-23.6-6.8-30.5
		C246.4,242.3,241.2,236.1,241.2,236.1z"/>
	<path class="st18" d="M258,220.6c0,0,3.8-3.9,9.9-5.7c6.3-1.9,18.9-4,18.9-4s-9.8-4.1-19.6,0c-9.7,4.1-14.5,7.7-14.5,7.7L258,220.6
		z"/>
	<path class="st18" d="M261.8,282c0-0.5-5-3.6-7.6-4.8c-2.8-1.3-3.1-1.1-3.1-1.1s2.7,5.7,3.7,13.7c1.5,12,0.2,19.8-0.6,18.4
		l-6.8,0.9c0,0,6.1-24,0-29.9c-6.1-6-7.1-10-7.1-10s12.8,3.6,16.4,6.3C260.3,278.1,261.8,282,261.8,282z"/>
	<path class="st18" d="M248.8,304.7c0,0-15.1,5.6-24.6,3.8c-18.5-3.6-25.8-25.7-25.8-25.7s-4,12.6,1.3,21.9c5.3,9.3,10,12.6,10,12.6
		s-6.1,2.7-20.5,1.3c-19.7-1.9-39.8-16.9-39.8-16.9s15.6,17.7,26.7,20.1c11.1,2.4,33.5,5.1,33.5,5.1l37.7-17.9L248.8,304.7z"/>
	<path class="st18" d="M245.6,241.4c0,0-8.6-0.2-17.1-0.8c-8.5-0.6-18.1-6.8-18.1-6.8l0,0c0,0,11.3,3.3,17.3,2.9s9.3,0,9.3,0
		L245.6,241.4z"/>
	<path class="st18" d="M301.1,161.1c0,0,1.4,1.4,7,0.9c5.6-0.6,4-0.9,4-0.9s-7.5,6.2-9.2,7s-8.3,2.8-8.3,2.8l3.3-7.6L301.1,161.1z"
		/>
	<g>
		<path class="st21" d="M420.4,395.8c-9.9-1.8-20-0.8-24.2-0.3c-0.7-3.6-1.9-7.5-3.5-11.9c-5.3-14-18.4-24.7-23.6-28.5
			c0.8-1,1.4-2,1.9-3.1l1.3-0.3c1.1-0.1,3-0.2,4.9-0.3c7.2-0.3,19.4-0.8,35.7-4.2c22.2-4.7,36.4-11.3,44.8-15.3
			c1.8-0.8,3.3-1.6,4.5-2.1c5.9-2.5,7.6-7.2,8.1-9.7l5-0.6c5.1-0.6,8.7-5.2,8.1-10.2l-5.9-52c-0.6-5.1-5.2-8.7-10.2-8.1l-22.9,2.6
			c-5.1,0.6-8.7,5.2-8.1,10.2l2.4,21.1c-2.1,1.8-12.8,10.9-28.8,17.4c-14.3,5.9-30.4,10.5-36.3,12.1c0.8-1.1,1.5-2,2.3-2.9
			c1.9-2.3,3.4-4.2,2.9-6.4c-0.4-1.6-1.8-3-4.8-4.5c-13.3-6.5-36.9-4.4-44-3.5l-1-1.9c1-0.9,2-1.8,3-2.7c1-0.8,1.9-1.7,2.9-2.5
			c0.5-0.4,1-0.8,1.5-1.1c0.2-0.2,0.5-0.3,0.7-0.4c0.3-0.2,0.3-0.1,0.4-0.3c2.2-0.4,4.7-0.3,7.2,0.2c5.1,0.9,10.3,2.7,15.7,4
			c1.4,0.3,2.8,0.7,4.2,0.9c1.5,0.2,2.9,0.2,4.3,0.4c2.8,0,5.7,0,8.4-0.3c5.6-0.6,10.9-1.8,16-3.4c2.6-0.8,5-1.7,7.5-2.9
			c0.6-0.3,1.2-0.6,1.8-0.9l0.9-0.5l0.9-0.6c0.1-0.1,0.3-0.2,0.5-0.4c0.2-0.2,0.4-0.4,0.5-0.5c0.3-0.3,0.5-0.7,0.7-1
			c0.4-0.7,0.7-1.3,0.9-2c0.9-2.6,1.3-5.3,0.6-8.2c-0.4-1.4-1.1-3-2.6-3.9c-0.4-0.2-0.9-0.5-1.3-0.6c-0.4-0.1-0.8-0.2-1.1-0.2
			c-0.7-0.1-1.4-0.1-2,0c-2.5,0.1-4.5,0.6-6.6,0.9c-0.4,0.1-0.8,0.1-1.2,0.2c-0.1-1.3-0.9-3.4-3.2-6.6c-2.6-3.5-7.6-6.8-11.1-8.9
			c2-0.3,4-0.6,6.1-1c15.1-2.9,22.1-10.6,22.4-11l0.6-0.7l-1.8-3.6c1.6-0.7,3.2-1.4,4.9-2.5c0.6-0.4,1.2-0.8,1.8-1.4
			c0.6-0.6,1.3-1.3,1.6-2.6c0.3-2-0.1-3.4-0.4-4.8c-0.8-2.8-2-5.3-3.4-7.8c-1.4-2.4-3-4.8-5.1-7c-0.5-0.5-1.2-1.1-1.7-1.5l-1.6-1.3
			c-1.1-0.9-2.1-1.8-3.3-2.6c-1.1-0.9-2.3-1.7-3.7-2.4c-1.4-0.7-2.9-1.2-4.5-1.4c-1.7-0.2-3.1,0-4.5,0.1c-1.4,0.2-2.8,0.3-4.1,0.6
			c-5.4,0.8-10.6,1.7-15.6,2.1c-0.8,0.1-1.5,0.1-2.2,0.2c2.9-2.1,5.1-3.5,7.4-4.7c1.3-0.7,2.2-1.9,2.5-3.4c0.3-1.5-0.1-3-1.1-4.1
			l-23.8-27.6c-0.9-1-2.3-1.6-3.6-1.5c-3,0.2-6.8,2.3-10.3,4.7c1.6-7.3,4-15.8,4-15.9l0.6-2.3l-2.3,0.6c-0.6,0.2-8,2.2-15.6,5.3
			c10.8-23.9,37.2-83.6,34.7-89.1c-0.2-0.5-0.6-0.9-1.1-1c-1.8-0.5-4.2-1.3-31.8,49.1c-10.7,19.4-21,39.1-24.9,46.6
			c-0.7-2.8-2.4-5.6-5.7-7.5c-9.7-5.8-20.7-7.4-21.2-7.5l-4.4-0.6l3.3,2.9c0.1,0.1,8.3,7.5,6.2,14.7c-1.6,5.7-11.5,11.1-20.2,15.7
			c-2.7,1.4-5.2,2.8-7.6,4.2c-9.3,5.5-16.5,24.4-18.5,29.9c-22.8,2.7-31.1,4.7-32.6,8c-0.8,1.8-0.3,4.3,1.4,7
			c2.1,3.4,5.7,6.9,10.4,9.1c-1.7,1.9-6.3,7-10.9,10.5c-5.6,4.3-19,6.6-19.2,6.6l-3.3,0.5l11.7,8.1c-1.2,1.6-4.5,4.9-12.2,6
			c-10.9,1.5-29.5,0-29.7,0l-2.4-0.2l1.1,2.2c0.1,0.3,3.7,6.8,13.3,15.7c7,6.4,15.7,11.8,20.1,14.4l-7.4,2c-2,0.5-4,0.7-6,0.6
			l-17.4-1.2l1,2.1c0.2,0.5,6,11.9,24.8,17.8c11.5,3.6,24.3,4.8,31.2,5.2c-6.1,3.6-11.1,8-12.8,13.2c-2.5,7.6,0.8,20.9,1.9,24.8
			c-2.6,1.7-5.1,3.6-7.4,5.4c-17.8,14.5-36.6,36.3-36.6,42.5c0,5.7,7.8,14.2,13.2,17.6c4.5,2.8,14.8,4.3,21.7,4.3
			c2.3,0,4.2-0.2,5.5-0.5c2-0.6,5.5-3.6,11.3-9.3c-1.6,6.9-3.8,17.8-3.8,23.1c0,0.6,0,1.2,0.1,1.8l-8.5,9.5
			c-2.7-2.6-5.7-4.3-9.7-4.4c-9.1-0.3-17.6,10.1-17.9,18.5c-0.1,2.7,0.7,8.3,3.4,15.6c-6.2,5-32.2,25.6-59.2,36.1
			c-16.8,6.5-30.1,7-39.4,1.4c-11.2-6.7-12.9-20.2-12.9-20.3l-0.2-2l-2,0.3c-0.8,0.1-19.2,2.7-24.9,15.6c-3.6,8.2-1,18.5,7.6,30.6
			c18.1,25.4,35.6,33.9,45.4,36.8c-7.9,3.1-19.7,9.4-23.2,19.8c-0.8,2.3-0.5,4.7,0.8,6.9c6.4,10.8,37.2,17.7,47.9,19.8
			c-2.2,3.1-5.1,7.9-4.5,11.6c0.2,1.6,1,2.8,2.3,3.6c4.3,2.7,13.8-1.3,20.2-4.6c-0.2,1.4-0.2,3,0.4,4.6c1.5,3.9,5.8,6.5,12.8,7.7
			c14.5,2.5,27.5-15.7,33.7-26.5c0.3,8.2,1.9,19.8,8.2,22.6c3.2,1.4,5.5,0.7,6.9-0.2c2.3-1.4,3.5-4.2,4.2-6.8
			c6.6,8.7,23.2,27.8,41.9,27.8c2.6,0,5.3-0.4,7.9-1.2c7.2-2.2,11.1-5.5,11.5-9.7c0.5-5-4.4-9.9-9-13.4c9,0.8,22,0.8,27.5-4.5
			c0.6-0.6,2.3-2.2,1.6-4.1c-0.7-2.2-3.3-2.6-8-3.2c-9.1-1.3-24.3-3.5-32.5-19.3c-11.3-21.8,5.7-54.3,10.7-63
			c2.7,0.5,5.2,0.8,7.5,0.8c1.2,0,2.2-0.1,3.2-0.2c7.9-1.1,15.2-5.7,18.2-11.4c1.7-3.3,1.9-6.7,0.4-9.7c-0.8-1.7-1.9-3-3.2-4.1
			l10.7-9.6c3,0.5,5.1,0.6,6.3,0.7c0.2,0,0.3,0,0.5,0c6.2,0,18.2-5.3,28.8-10c6.1-2.7,13.7-6.1,15.5-6.1c0,0,0,0,0,0
			c0.6,0,1.1-0.2,1.5-0.6c14.7-1.3,28.8-5.2,41.2-11.9c8.8-4.7,12.9-9.1,14.9-11.9c2.6,2.6,5.1,5.3,7.4,7.7c4.9,5.3,8.7,9.4,12,10.4
			c1.3,0.4,2.6,0.6,4.1,0.6c5.7,0,12.4-2.8,18.4-5.4c1.2-0.5,2.3-1,3.4-1.4c7-2.8,18.8-9.4,19.2-16.1c0.1-2.3-3.3-8.5-8.7-15.9
			c5.3,4.2,10,7.8,11.5,8.4c0.8,0.4,1.9,0.5,3.1,0.5c5.6,0,14.7-3.5,21.9-8.6l1.1-0.8c7.9-5.7,11.5-8.3,11.5-13.4
			C491.2,440.6,453.9,401.8,420.4,395.8z M453.2,419.5c-0.5,0.4-1.3,0.4-1.7-0.2c-0.2-0.3-0.3-0.6-0.3-0.9s0.2-0.6,0.4-0.8
			c0.5-0.4,1.3-0.4,1.7,0.2C453.8,418.3,453.7,419.1,453.2,419.5z M453.2,414.7c-1.1-0.2-2.4,0-3.3,0.8l0,0
			c-0.8,0.7-1.3,1.6-1.4,2.7c-0.1,1,0.2,2.1,0.9,2.9c0.8,0.9,1.9,1.4,3,1.4c0.9,0,1.8-0.3,2.5-0.9c1.5-1.3,1.8-3.5,0.8-5.1
			c2.5,1.8,5,3.7,7.3,5.6c-3.9,0.6-9.5,2.3-15.6,6.7c-6.3,4.5-13.4,11.4-14.2,19.8c-2.1-1.7-4.1-3.4-5.8-4.9
			c-0.9-0.9-1.7-1.7-2.6-2.6c0-0.1,0-0.2,0-0.2c-0.5-4.4,0.4-13.1,11.5-21.4c6.8-5.1,11.8-6.2,14.4-6.4
			C451.5,413.6,452.4,414.2,453.2,414.7z M396.8,399.5c4.1-0.5,13.7-1.4,22.9,0.3c9.4,1.7,18.9,5.9,27.5,11.1
			c-3.1,0.8-7.4,2.5-12.5,6.4c-10.3,7.7-12.5,15.8-12.7,21.2c-5.6-5.1-11.4-9.5-16.9-12.3c-3.5-1.7-7.4-3.1-11.7-4.2
			C395.4,418.6,398.4,411.4,396.8,399.5z M379.1,469.7c-2.3-1.5-4.6-2.8-7-3.7c-7.9-3-21.8-2.6-33.7-1.6c-1.3-2.9-4.6-11.2-3.2-18.4
			c3.2-16.4,14.4-22.2,17.3-23.5c15.7-0.4,37.3,0.5,50.7,7.2c2.6,1.3,5.2,2.9,7.8,4.8c-4.6,0.1-11.6,1.3-18,7
			C380.5,452.8,379,464,379.1,469.7z M277.1,448.2c-2.6,1.3-5,2.9-7.3,4.8c-1.1,1-2.2,2-3.1,3.2c-0.9,1.2-1.8,2.4-2.5,3.7
			c-1.3,2.3-2.2,4.9-2.4,7.5c-9.3-9-17.3-21.8-23.6-33.8c0.9-1.7,2-3.2,3.1-4.7c1.8-2.4,4-4.5,6.3-6.4c2.4-1.8,5-3.3,7.8-4.5
			c2.8-1.2,5.8-2.1,8.9-2.7c-3.2-0.4-6.4,0-9.5,0.9c-0.8,0.2-1.5,0.5-2.3,0.7c-0.7,0.3-1.5,0.6-2.2,1c-1.5,0.7-2.9,1.6-4.2,2.5
			c-2.6,1.9-4.9,4.4-6.6,7.2c-0.8,1.4-1.5,2.9-2,4.5c-7-13.7-11.7-26.1-13.1-30c2.6-2.3,5-4.3,7.1-5.8c4.8-3.4,14-8.4,23.5-13.2
			c3,0.4,8.1,2,11.5,8.2c5.2,9.6,2.7,21.3,2.6,21.4l-0.4,1.7l1.7-0.1c0.1,0,14.1-0.4,18.7,7.4c4.6,7.9,0.6,19.9,0.6,20l-1,3l2.9-1.4
			c0.3-0.1,7.5-3.4,17.6,5.1c2,2.5,6.7,9.7,5.8,14.2c-1.2,6.3-1.5,7.7-1.5,7.7l-0.6,2.6l2.4-1c0.5-0.2,1.2-0.5,2-0.8
			c0.2,0.1,0.5,0.1,0.8,0c0.4-0.1,38.4-6.8,52.8-1.4c1.5,0.5,2.9,1.3,4.4,2.1c-9.9,7.4-56.7,30.9-103.9,3c-3.2-1.9-6.3-4.3-9.2-7.2
			c1.1-2.4,2.4-4.6,3.9-6.6c1.7-2.2,3.5-4.2,5.6-6c1-0.9,2.1-1.8,3.3-2.6c1.1-0.9,2.3-1.7,3.4-2.5c2.3-1.6,4.6-3.2,7.2-4.5
			C282.4,445.7,279.6,446.9,277.1,448.2z M228.6,345.7c-3.8,1.6-11.8,5.2-20.6,9.9c-0.6-4.6-1.5-12.9-0.6-17.4
			c1.2-6.2,8.7-13,8.8-13.1l-0.1-0.1c4.4-1.8,9.4-3.6,15.1-5.4c-0.6,0.8-1.2,1.6-1.7,2.4C222.5,332.6,226.1,341.6,228.6,345.7z
			 M232.8,324.1c4.2-6.5,12.6-11.7,21.7-13.6c9.3-1.9,18.4-0.3,25.6,4.4c16.7,11.1,26.1,41.2,25.2,46.6c-0.6,3.5-8.3,7.1-12.4,8.5
			c-1.5-0.5-4.6-2.5-7.9-4.7c-0.1-0.1-0.2-0.2-0.3-0.2c-0.7-0.5-1.4-0.9-2-1.4c-6.5-4.4-14.6-10-22.7-13.6
			c-10.9-4.9-20.8-5.7-25.6-5.7c-0.8,0-1.4,0-1.9,0C230.9,342.1,226.3,334.1,232.8,324.1z M293.9,322.8c5,0.2,13.3-0.2,21.9-3.6
			c7.7-3,12.8-7.6,16.5-11c2-1.8,4.2-3.8,5.1-3.7c3.4,0.2,12.8,6.4,19,14.6c6.4,8.5,11.9,22.9,11.9,27.5c0,4.6-5.6,11.3-15,14.5
			c-9,3.1-38,0.6-43.9,0C309.5,354.4,304,336.3,293.9,322.8z M342.8,396.5c0.8,3.2,2.7,5.9,5.3,8c-4.1,1.8-14.6,6.5-27.9,13.4
			c-17.3,9-25.8,21.5-26.1,22c0,0,0,0.1-0.1,0.2c-0.4,0-0.9,0.1-1.2,0.2c1-4.2,2.5-13.1-1.5-19.9c-0.4-0.6-0.8-1.2-1.3-1.8
			c2-2.4,11.3-13,26.1-20.7c12.2-6.4,22.7-10.1,27.7-11.8C342.3,389.5,341.9,393,342.8,396.5z M360.7,375.9c2.2-0.6,4.3-0.8,6.4-0.8
			c8.1,0,15,4.1,16.8,10.6c1,3.9,0,8.1-2.8,11.9c-2.9,3.8-7.4,6.7-12.6,8.1c-10.6,2.8-21-1.6-23.2-9.8
			C343.2,387.6,350.1,378.7,360.7,375.9z M314.8,395.6c-15.1,7.9-24.4,18.3-26.8,21.2c-3.6-2.9-8.5-4.2-12.2-4.7
			c0.9-3.3,4.4-13.2,16.1-21.6c8.7-6.2,17.9-9.5,18-9.5c5.1,7.8,5.9,12.7,6,14.1C315.6,395.2,315.2,395.4,314.8,395.6z M290.4,388.3
			c-13,9.3-16.5,20.1-17.3,23.5c-0.5,0-0.9-0.1-1.3-0.1c0.6-3.7,1.3-12.9-3-21.2c0-0.1,0.1-0.1,0.1-0.2c0-0.1,1.3-5.7,8.4-11.2
			c5.5-4.3,9.8-6.1,11.4-6.7c1.7,1,3,1.6,4.1,1.8l0.5,0.1l0.5-0.1c0.6-0.2,3.2-1,6.1-2.4c1.9,1,5.8,3.4,8.6,7
			C306,379.6,298.1,382.8,290.4,388.3z M283.7,369.2c0.8,0.5,1.5,1,2.2,1.4c-2.3,1-5.9,2.9-10.2,6.3c-5.2,4.1-7.6,8.2-8.6,10.7
			c-2.6-3.6-5.7-5.4-8.5-6.3C269.7,375.7,280.4,370.7,283.7,369.2z M389.2,421c-21.7-4.4-43.4-2.5-50-1.8l-3.5,0.4
			c-0.7,0.1-1.4,0.3-2.1,0.5c-0.9,0.4-2.2,0.9-2.9,1.5c-1,0.8-3.1,3.5-3.1,3.5s1.1-0.5,2.7-0.8c2.3-0.4,4.5-0.7,4.6-0.7
			c2.2-0.2,6.4-0.6,11.9-0.8c-4.9,3.4-11.7,10.3-14.2,22.8c-1.5,7.4,1.4,15.5,3,19.2c-9.9,1-17.7,2.4-18.5,2.5
			c-0.2,0-0.4,0.1-0.5,0.2c0.2-1.1,0.5-2.4,0.8-4.2c1.3-6.7-6.1-16.1-6.4-16.5l-0.2-0.2c-5.3-4.5-10-6.1-13.6-6.4
			c2.6-3.4,10.7-12.8,24.2-19.8c15.8-8.3,27.6-13.3,29.3-14c3.3,1.8,7.2,2.8,11.4,2.8c2.3,0,4.7-0.3,7.1-0.9
			c5.8-1.5,10.8-4.7,14-9.1c1.8-2.4,3-5,3.5-7.7l0,0c0,0,1.5-1.1,3.9-1.4C396.5,409.5,390.7,419,389.2,421z M388.9,385
			c0.3,0.8,0.6,1.6,0.9,2.4c-1.1,0.2-2,0.5-2.8,0.8c0-1.1-0.2-2.2-0.5-3.3c-1-3.7-3.4-6.8-6.6-9c1.1-0.3,2.4-0.6,3.7-0.7
			C385.7,378.3,387.6,381.5,388.9,385z M381.8,372.8c-2.3,0.4-4.3,1.1-5.2,1.4c-4.7-2-10.6-2.5-16.5-0.9c-6.2,1.6-11.2,5.1-14.3,9.5
			c-2,0.6-13.2,4-27.3,11c-0.4-2.6-1.9-8.1-7.4-15.9c-2.5-3.6-6.1-6.2-8.5-7.7c2.3-1.4,4.5-3.1,5.8-5.2c2.3,0.2,16.4,1.6,29,1.6
			c7,0,13.6-0.4,17.3-1.7c4.9-1.7,8.8-4.1,11.6-6.8C369.3,360.3,376.1,365.6,381.8,372.8z M444.8,255.7l22.9-2.6c0.2,0,0.4,0,0.6,0
			c2.6,0,4.9,2,5.2,4.6l5.9,52c0.3,2.9-1.7,5.4-4.6,5.8l-22.9,2.6c-2.9,0.3-5.4-1.7-5.8-4.6l-5.9-52
			C439.9,258.6,442,256,444.8,255.7z M426.2,296.8c6-3.5,10.4-6.9,13-9l3,26.1c0.5,4.7,4.5,8.2,9.2,8.2c0.3,0,0.7,0,1.1-0.1
			l13.6-1.6c-0.6,1.8-2,4.1-5.3,5.5c-1.3,0.5-2.9,1.3-4.7,2.2c-2.8,1.3-6.1,2.9-10.2,4.6c-2.2-0.3-13.5-2.4-18.3-14.5
			C422.6,305.9,424.4,299.7,426.2,296.8z M411.4,304.2c4-1.6,7.6-3.4,10.9-5.2c-1.2,4.1-1.1,10.5,2.7,20.2
			c3.9,9.9,11.5,13.8,16.4,15.3c-7.6,3-17.3,6.1-29.4,8.7c-16,3.4-27.9,3.8-35,4.1c-1.9,0.1-3.5,0.1-4.7,0.3c0-0.4,0.1-0.7,0.1-1.1
			c0-4.1-3-12.8-7.1-20.8c0.5-1,1.7-3.3,5.2-8.4c0.8-0.1,1.5-0.3,1.7-0.3C372.4,317.1,393.4,311.6,411.4,304.2z M372.8,301.3
			c2.6,1.3,3.2,2.1,3.3,2.6c0.2,0.9-1,2.4-2.4,4.1c-1.4,1.7-3.1,3.8-4.5,6.5l-0.1,0.2c-2.7,3.9-4.3,6.5-5.3,8.3
			c-1.3-2.3-2.7-4.4-4.1-6.3c-6.7-8.9-17.1-15.8-22-16.2c-1.5-0.1-2.9,0.6-4.4,1.7l-2.1-4.3C339.1,297.1,360.8,295.4,372.8,301.3z
			 M387.6,262.4c2.4,3.2,2.7,4.7,2.7,5.3c-0.6,0.1-1.3,0.1-1.9,0.1c-1.8,0.1-3.5,0-5.1-0.3c-0.8-0.1-1.5-0.4-2.2-0.5
			c-0.7-0.3-1.4-0.5-2.1-0.8c-2.7-1.1-4.9-2.4-6.7-3.5c-1.8-1.1-3.1-2.1-4-2.8c-0.9-0.7-1.3-1.1-1.3-1.1s-0.5-0.4-1.3-1.1
			c-0.8-0.7-2.1-1.9-3.4-3.4c-0.4-0.4-0.7-0.8-1-1.2c-0.2-0.2-0.3-0.4-0.4-0.7c-0.1-0.1-0.1-0.2-0.2-0.3c3.2,0.3,6.1,0.4,8.7,0.4
			c1.6,0,3.1-0.1,4.5-0.1C376.1,253.5,384.2,257.9,387.6,262.4z M384.2,248.3c-3.3,0.6-6.4,1.1-9.8,1.4c-0.4,0.1-0.9,0.1-1.2,0.1
			c-3,0.2-6.1,0.1-9.8-0.1c2.1-1.2,4.6-2.4,7.4-3.5c3.5-1.4,7.4-2.7,11.6-3.7c2.1-0.5,4.4-0.9,6.7-1.5c2.3-0.5,4.7-1.2,7.1-1.9
			c2.4-0.7,4.8-1.5,7.3-2.4c0,0,0,0,0,0l1.1,2.1C402.5,240.7,395.9,246.1,384.2,248.3z M345.5,164.7c0.5,0,1,0.2,1.4,0.6l23.8,27.6
			c0.4,0.5,0.6,1.2,0.5,1.8c-0.1,0.7-0.5,1.2-1.1,1.5c-3.2,1.7-6.1,3.6-10.7,7.2c-0.2,0-0.4,0-0.5,0c-1.2-0.1-2.3-0.2-3.5-0.4
			c-0.6-0.1-1.2-0.2-1.7-0.3l-0.9-0.2c-0.3-0.1-0.6-0.1-0.6-0.1c-3.5-0.8-6.4-1.8-7.8-2.3c-4.3-1.5-7.2-2.2-10.7-2.9
			c-0.2-3.3-0.8-6.2-2.1-7.5c-2.1-2.3-4.7-3.5-6.8-4.1c3.5-2.2,8.5-6.1,9-11.1c0.1-1.1,0.3-2.4,0.6-3.9
			C339,167,343.1,164.9,345.5,164.7z M290.7,245.7l5.2-0.9l7.9,7c-1.7,1.6-3.3,3.1-4.8,4.5l-29.7-26.6c1.3-1.3,2.9-2.8,4.7-4.5
			l5.8,5.3v4.7L290.7,245.7z M296.7,241.9l-5.1,0.9l-9-8.8v-4.7l-6.6-5.9c3.9-3.7,8.4-8.1,13.4-12.7c18,1.6,40.5,7.6,40.8,7.7
			l1.4,0.4l0.3-1.4c0.4-2.5,1.9-11.4,1.8-18.6c2.7,2,5.3,3.5,9.5,5c1.5,0.5,4.4,1.5,8.1,2.4c0,0,0.3,0.1,0.6,0.1l0.9,0.2
			c0.6,0.1,1.2,0.3,1.9,0.3c0.1,0,0.2,0,0.3,0c-10.4,8.3-33.6,28.8-49.2,43.2L296.7,241.9z M320.6,187.6c0.1,0,5.4,0.2,8.9,3.9
			c2.4,2.6,1.3,15.4-0.1,23.8c-5.1-1.3-22.3-5.6-37.4-7.2c13.7-12.9,29.5-27.4,39.1-35.2c-0.1,0.4-0.1,0.9-0.1,1.3
			c-0.6,6-10.8,10.7-10.9,10.7l-5.4,2.4L320.6,187.6z M299.1,164.1l0.3,0.2c17.9-34.5,47.3-88.7,54.6-96.5
			c-1.4,9.7-21.9,57.5-35.9,88.2c-5.1,2.3-9.8,5-11.8,7.8c-2,2.8-5.7,4.6-8.2,5.5C298.7,167.8,299,166,299.1,164.1z M250.5,184.2
			c2.3-1.4,4.8-2.7,7.5-4.1c9.6-5.2,19.6-10.6,21.6-17.4c1.6-5.6-1.6-11-4.2-14.3c4,0.9,10.4,2.9,16.2,6.3c8.4,5,3.3,15.7,3.1,16.2
			l-1.3,2.6l2.8-0.7c0.3-0.1,8.6-2.2,12.4-7.4c1.7-2.4,6.1-4.9,11.1-7.1l0.3,0.2c0.1-0.1,0.1-0.3,0.2-0.4c5.4-2.4,11.5-4.4,15.6-5.6
			c-1,3.7-2.9,10.9-4,16.7c-0.2,0.2-0.4,0.3-0.6,0.5c-9.8,7.7-27.8,24.2-42.8,38.3c-4-0.3-7.8-0.4-11.1-0.1
			c-14.3,1.2-21.6,6.5-24.3,8.9c-4.9-2.1-12.8-5-19.5-5.1C235.9,205.3,242.6,188.8,250.5,184.2z M203.2,225.3
			c-1.4-2.1-1.6-3.5-1.5-3.7c1.4-1.7,11.5-3.7,29.9-5.8c9.2-1.1,24,6.6,24.2,6.7c0.1,0.1,0.2,0.1,0.3,0.1c0,0,0,0,0,0
			c0.5,0.2,1.4,0.7,1.8,1c0.4,0.3,2.3,1.3,3.4,1.9c0.3,0.1,0.6-0.1,0.5-0.4c-0.3-0.9-0.8-2.3-1.2-3.1c-0.6-1.2-2.4-2.8-2.9-2.9
			c0,0-0.1-0.1-0.1-0.1c-0.1-0.1-0.8-0.4-1.9-0.9c3-2.4,9.8-6.4,21.8-7.5c2.4-0.2,5.2-0.2,8.2,0c-8.2,7.7-15.2,14.5-19.3,18.5l-1,1
			l33.6,30.1l0.9-0.9c14.7-14,45.9-41.8,57.6-50.9c0.5-0.4,0.9-0.7,1.4-1.1c2.5,0.1,5,0,7.6-0.2c5.3-0.4,10.6-1.4,15.9-2.2
			c1.3-0.2,2.6-0.4,3.9-0.5c1.3-0.1,2.6-0.2,3.6-0.1c2.3,0.3,4.4,1.5,6.5,3.1c1,0.8,2.1,1.7,3.2,2.5l1.6,1.3
			c0.6,0.5,0.9,0.7,1.4,1.2c1.7,1.7,3.2,4,4.5,6.2c1.3,2.3,2.4,4.6,3.1,7c0.3,1.1,0.5,2.4,0.4,3.1c0,0-0.2,0.4-0.5,0.7
			c-0.3,0.3-0.8,0.7-1.3,1c-2,1.3-4.3,2.2-6.7,3.1c-2.3,0.9-4.7,1.6-7,2.3c-2.3,0.7-4.6,1.3-6.9,1.8c-2.2,0.6-4.5,0.9-6.7,1.5
			c-4.4,1.1-8.4,2.4-12.1,3.9c-3.6,1.5-6.9,2.9-9.7,4.9c-0.7,0.5-1.4,1-2,1.8c-0.3,0.3-0.7,1.1-0.9,1.7c-0.2,0.7,0,1.3,0.2,2
			c0.1,0.2,0.2,0.5,0.3,0.7c0.1,0.2,0.2,0.4,0.3,0.5c0.2,0.3,0.4,0.6,0.6,0.9c0.4,0.5,0.8,1,1.2,1.5c1.5,1.7,2.8,3,3.7,3.8
			c0.9,0.8,1.4,1.2,1.4,1.2s0.5,0.4,1.4,1.2c1,0.7,2.4,1.8,4.3,3c1.9,1.2,4.3,2.6,7.3,3.9c0.8,0.3,1.6,0.6,2.4,0.9
			c0.9,0.2,1.8,0.5,2.7,0.6c1.9,0.4,3.8,0.4,5.8,0.3c2-0.1,4.1-0.3,6.2-0.6c2.1-0.3,4.2-0.7,6.2-0.8c1-0.1,2,0.1,2.2,0.2
			c0.5,0.3,0.8,0.9,1.1,1.8c0.4,1.7,0.2,4-0.5,6c-0.3,1-0.9,2.1-1.3,2.3l-0.6,0.4l-0.7,0.4c-0.5,0.3-1,0.5-1.6,0.8
			c-2.2,1-4.6,1.9-7,2.7c-4.9,1.5-10,2.7-15.3,3.2c-5.3,0.5-10.6,0.6-15.7-0.8c-5.2-1.3-10.4-3.1-16-4.1c-2.8-0.4-5.7-0.8-8.7-0.1
			c-0.2,0.1-0.5,0.2-0.7,0.3l-0.4,0.2l-0.3,0.2c-0.3,0.2-0.7,0.4-1,0.6c-0.6,0.4-1.2,0.9-1.7,1.3c-1.1,0.9-2,1.7-3,2.6
			c-3.9,3.4-7.6,6.7-11.4,9.3c-1.9,1.3-3.9,2.5-5.8,3.3c-0.5,0.2-1,0.4-1.4,0.5c-0.5,0.2-1,0.3-1.4,0.4c-0.5,0.1-1,0.2-1.5,0.3
			c-0.4,0-0.8,0.1-1.2,0.1c-0.8,0.1-1.5,0-2.1,0.1c-0.7,0-1.3-0.1-1.8-0.1c-0.5-0.1-1-0.1-1.3-0.2c-5.2-0.8-8.3-1.7-13.2-2.2
			c3.9,2.6,6.7,4.8,12.6,5.8c0.4,0.1,0.9,0.1,1.5,0.2c0.6,0,1.3,0.1,2,0.1c0.8,0,1.6,0,2.5-0.1c0.5,0,0.9-0.1,1.4-0.1
			c0.6,0,1.2-0.2,1.8-0.3c0.6-0.1,1.2-0.3,1.8-0.5c0.6-0.2,1.2-0.4,1.7-0.7c2.3-1,4.4-2.2,6.4-3.6c2.3-1.6,4.5-3.3,6.7-5.1l1.4,2.8
			l0,0.3c0,0,0,0,0.1,0l2.8,5.7c-0.5,0.4-1,0.9-1.5,1.4c-3.5,3.2-8.3,7.5-15.3,10.2c-10.8,4.2-21.5,3.3-24,3c-2.4-2.7-5.1-5-7.9-6.9
			c-8.1-5.4-18.3-7.2-28.7-5c-1.7,0.4-3.4,0.8-5.1,1.4c0.8-3.8,2.5-12.9,2.5-21.3c0-6.5-3.8-11.7-7.2-14.9c1.8,0.5,3.8,1,5.4,1.6
			c4.3,1.4,11,7.3,11.1,7.4l2.4,2.1l-0.1-3.2c0-0.8-0.9-18.9-7.9-29.5c-3.7-5.6-7.9-9.5-11-12c3.5-0.1,5.8-0.2,6.1-0.2
			c0.3,0,0.5-0.1,0.8-0.2c0.8-0.2,2.2-0.6,3-1.1c1.5-0.9,2.8-2.7,2.8-2.9c0-0.5-1.8,0-2.4,0c-1.2,0-4.3,0.2-4.3,0.2
			c-0.2,0-20.4,0.8-31.8,0C211,233.5,205.7,229,203.2,225.3z M174.2,318.4c-12.8-4.1-19.2-10.9-21.8-14.3l12.4,0.9
			c2.3,0.2,4.6-0.1,6.9-0.7l13.9-3.7l-3-1.6c-0.1-0.1-13.1-7-22.5-15.6c-6.1-5.6-9.7-10.3-11.4-12.8c5.6,0.4,18.8,1,27.6-0.2
			c11.7-1.6,14.7-8.2,14.9-8.5l0.4-1l-8.3-5.7c4.5-1,12.8-3.1,17.2-6.6c5.7-4.4,11.1-10.7,11.9-11.6c1.7,0.5,3.4,0.9,5.2,1
			c4,0.3,8.9,0.3,13.7,0.3c2.8,0,5.6,0,8-0.1c2.8,1.9,8.4,6.3,13.1,13.4c4.9,7.4,6.7,19.4,7.2,25c-2.5-2-6.4-4.9-9.5-5.9
			c-4.6-1.5-11.4-3-11.7-3.1l-8-1.8l7,4.2c0.1,0.1,10.9,6.7,10.9,16.5c0,9.9-2.5,21.2-2.8,22.4c-2.6,1.1-5,2.4-7.2,3.9
			c-7,2.1-19.9,4.1-28.3-6.1c-6.3-7.7-8.2-16.3-8.8-20.9c3.7,3.1,10.6,8.5,14.8,9.8c6.7,2,11.4,1.7,13.3,1.3
			c0.3-0.1,1.7-0.8,1.9-0.9l2.3-1.8c-0.1,0-9.9,1-16.7-1.1c-5.2-1.6-16.2-11.3-16.3-11.4l-2.2-2l0,3c0,0.6,0.1,14.1,9.7,25.7
			c4.9,6,11.1,8.2,17,8.7c-4.6,1.5-10.3,3.6-15.8,6.3C206.7,323.6,189.2,323.2,174.2,318.4z M195.7,340.6c1.2-3.9,5.1-7.6,11.5-11.3
			c-1.7,2.4-3.2,5.3-3.8,8.1c-1.1,5.7,0.2,15.9,0.8,20.3c-2.3,1.3-4.7,2.7-7,4.2C195.9,356.3,193.9,346,195.7,340.6z M177.4,382.9
			c3.6-3.4,7.4-6.9,11.5-10.2c15.3-12.5,40.4-23,43.2-24.1c1.8-0.1,13.5-0.6,26.3,5.2c7.4,3.4,15,8.5,21.3,12.8
			c-10.1,4.7-40.2,18.9-50.8,26.5c-4.4,3.1-10,8.3-15.7,13.9c-3.4,1.1-13.7,3.1-26.9-7.6c-10.9-8.8-8.9-16-8.8-16.3L177.4,382.9z
			 M189.1,429.6c-4.1,1.1-19.1-0.3-24-3.4c-5.4-3.3-11.3-10.8-11.3-14.2c0-2.4,8.3-14,20.9-26.5c0.2,3.5,2,9.4,9.9,15.8
			c9.1,7.3,17,9.1,22.6,9.1c0.9,0,1.8-0.1,2.6-0.1c-1.6,1.6-3.1,3.1-4.6,4.6C198.8,421.2,191,429,189.1,429.6z M226.4,619.7
			c9.1,17.7,26.3,20.1,35.5,21.4c1.3,0.2,2.9,0.4,3.9,0.6c-5.9,5.3-25.7,3.3-32.8,2.1l-12.7-2.2l11.4,6c5.9,3.1,15,9.7,14.6,14.4
			c-0.3,3-4.9,5-8.7,6.2c-23.9,7.4-48-28.7-48.2-29.1l-3.5-5.3l-0.2,6.3c-0.1,2.2-0.9,7.3-3.1,8.6c-0.3,0.2-1.2,0.7-3.1-0.1
			c-5.3-2.3-6.3-17.8-5.7-27l0.7-10.6l-4.5,9.6c-0.2,0.3-16.4,34.5-33.3,31.6c-5.4-1-8.8-2.7-9.7-5.1c-1.1-3,1.6-6.5,1.6-6.6
			l6.8-8.6l-9.4,5.6c-8.3,4.9-18.7,9.1-21.3,7.5c-0.3-0.2-0.5-0.4-0.5-0.8c-0.4-2.5,3.1-8,5.7-11.1l2.2-2.7l-3.4-0.6
			c-11.6-2.1-43-9.4-48.4-18.5c-0.7-1.2-0.9-2.4-0.5-3.6c4.7-13.7,27.8-19.7,28-19.7l15.3-3.8l-15.8-0.1c-0.2,0-24.6-0.6-50.2-36.5
			c-7.7-10.8-10.1-19.8-7.2-26.6c3.7-8.6,15.2-11.9,19.8-12.8c1,4.5,4.3,15,14.5,21.1c10.5,6.3,25,6,43-1.1
			c26.2-10.2,51.5-29.7,59.3-36c4.3,10.1,12.1,22.6,25.5,35.2c15.1,14.2,31.6,22.9,44.4,26.5C230.6,564.4,214.5,596.6,226.4,619.7z
			 M266,542.1c-2.4,4.6-8.5,8.4-15.2,9.3c-11.6,1.7-35.6-8-55.9-27c-24.6-23.1-29.5-45.5-29.2-51.6c0.3-6.4,6.9-14.7,13.5-14.7
			c0.1,0,0.2,0,0.3,0c6.9,0.2,10.4,6.8,15.7,16.7c5.4,10.1,12.1,22.6,25.5,34c14.9,12.6,26,16.8,34.2,19.8c6.1,2.3,9.7,3.6,11.6,7.3
			C267.5,538.4,266.8,540.6,266,542.1z M263.3,527.9c-2-1-4.4-1.9-7.1-2.9c-7.9-2.9-18.7-6.9-33-19.1
			c-12.8-10.9-19.4-23.1-24.6-32.9c-2.3-4.3-4.4-8.2-6.7-11.4l6.9-7.7c4.2,14,19.4,31.9,28,40.5c16.3,16.2,34.2,22.6,45.7,25.1
			L263.3,527.9z M311.4,507.5c-10,4.4-22.5,9.9-27.5,9.7c-5-0.2-31.3-2.6-54.3-25.6c-13.9-13.8-27.9-33.5-27.9-44.3
			c0-7.6,5.1-28,5.2-28.5c0.3-0.3,0.7-0.7,1-1c0.5-0.5,1-1,1.6-1.6c4.1,11.8,22.5,59.4,57,76.5c15.8,7.8,33.3,11.9,50.7,12.3
			C315.5,505.7,313.6,506.6,311.4,507.5z M369.4,489.1c-29.4,15.8-69.1,15.8-101.1,0c-35-17.3-53.5-69.7-55.6-76
			c2.8-2.8,5.6-5.5,8.3-8c4.5,12.2,22.7,58.1,48.2,73.2c17.1,10.2,34.7,13.8,50.6,13.8c27.9,0,51-11.1,58.8-17.9
			c1.6,1.2,3.1,2.4,4.6,3.8C381.9,480.1,378.3,484.3,369.4,489.1z M393.4,482.4c-3.5-3.7-7.3-7.5-11.4-10.7
			c-0.5-3.6-1-15.7,12.9-28.1c8.1-7.3,17.6-6.5,20-6.1c3.2,2.6,6.4,5.6,9.4,8.7l-0.1,0.1c0.2,0.2,0.5,0.4,0.8,0.6
			c0.1,0.1,0.2,0.2,0.3,0.3c-4.6,0.1-11.6,1.3-18,7C394.8,465.5,393.2,476.7,393.4,482.4z M446.7,476.5c-0.2,3.2-7.8,9-16.7,12.6
			c-1.1,0.5-2.3,0.9-3.5,1.4c-6.9,2.9-14.7,6.2-19.8,4.6c-2.2-0.7-6.1-4.9-10.2-9.3c0,0-0.1-0.1-0.1-0.1c0-0.1,0-0.1,0-0.2
			c-0.2-0.6-3.5-14.7,12.7-29.2c7.1-6.4,15.3-6.5,18.8-6.2C438.7,461.7,446.6,473.9,446.7,476.5z M477.3,457.1l-1.1,0.8
			c-8.3,6-18.5,8.7-21.1,7.6c-1.7-0.7-10.7-7.9-19.2-14.9c-0.4-8.2,6.8-15.3,13.1-19.8c7.1-5.1,13.7-6.2,16.9-6.5
			c12.2,10.3,20.6,20.4,21.2,22.6C487.1,449.9,484.8,451.7,477.3,457.1z"/>
		<ellipse transform="matrix(0.866 -0.5 0.5 0.866 -73.3648 185.7707)" class="st21" cx="310" cy="229.8" rx="4.9" ry="7.5"/>
		<ellipse class="st21" cx="385.4" cy="215.2" rx="3.1" ry="1.6"/>
		<path class="st21" d="M282.2,606.5c-10.1,0-18.1,5-18.1,11.4c0,6.4,7.9,11.4,18.1,11.4c10.1,0,18.1-5,18.1-11.4
			C300.2,611.5,292.3,606.5,282.2,606.5z M282.2,625.2c-8.3,0-14.1-3.9-14.1-7.3c0-3.5,5.8-7.3,14.1-7.3c8.3,0,14.1,3.9,14.1,7.3
			C296.2,621.3,290.4,625.2,282.2,625.2z"/>
		<path class="st21" d="M318.4,594.3c-5.8,0-10.4,4.7-10.4,10.4s4.7,10.4,10.4,10.4c5.8,0,10.4-4.7,10.4-10.4
			S324.2,594.3,318.4,594.3z M318.4,611.2c-3.5,0-6.4-2.9-6.4-6.4c0-3.5,2.9-6.4,6.4-6.4c3.5,0,6.4,2.9,6.4,6.4
			C324.8,608.3,321.9,611.2,318.4,611.2z"/>
		<path class="st21" d="M72.8,506.7c0,8.3,5.1,15.1,11.4,15.1c6.3,0,11.4-6.8,11.4-15.1c0-8.3-5.1-15.1-11.4-15.1
			C77.9,491.6,72.8,498.4,72.8,506.7z M91.5,506.7c0,6-3.4,11.1-7.3,11.1s-7.3-5.1-7.3-11.1c0-6,3.4-11.1,7.3-11.1
			S91.5,500.7,91.5,506.7z"/>
		<path class="st21" d="M75.3,469.8c6.3,0,10.9-2.6,10.9-6.1c0-3.6-4.6-6.1-10.9-6.1c-6.3,0-10.9,2.6-10.9,6.1
			C64.4,467.2,68.9,469.8,75.3,469.8z M75.3,461.5c4.5,0,6.7,1.6,6.9,2.1c-0.1,0.5-2.4,2.1-6.9,2.1c-4.5,0-6.8-1.6-6.9-2.1
			C68.5,463.1,70.8,461.5,75.3,461.5z"/>
		<path class="st21" d="M181.2,476.3c-2.8,0-5,2.3-5,5s2.3,5,5,5s5-2.3,5-5S184,476.3,181.2,476.3z M181.2,483.7
			c-1.3,0-2.3-1.1-2.3-2.3c0-1.3,1.1-2.3,2.3-2.3c1.3,0,2.3,1.1,2.3,2.3C183.6,482.6,182.5,483.7,181.2,483.7z"/>
		<path class="st21" d="M195.8,500.6c-1.3,0.3-2.4,1.2-3.1,2.3c-0.7,1.2-0.9,2.5-0.5,3.8c0.3,1.3,1.2,2.4,2.3,3.1
			c0.8,0.5,1.6,0.7,2.5,0.7c0.4,0,0.9-0.1,1.3-0.2c2.7-0.7,4.3-3.5,3.6-6.2C201.2,501.5,198.5,499.9,195.8,500.6z M197.7,507.8
			c-0.6,0.2-1.2,0.1-1.8-0.2c-0.5-0.3-0.9-0.8-1.1-1.4c-0.2-0.6-0.1-1.2,0.2-1.8c0.3-0.5,0.8-0.9,1.4-1.1c0.2-0.1,0.4-0.1,0.6-0.1
			c1,0,2,0.7,2.3,1.7C199.7,506.2,198.9,507.4,197.7,507.8z"/>
		<path class="st21" d="M216.9,520.7c-2.7,0.7-4.3,3.5-3.6,6.2c0.6,2.3,2.6,3.7,4.9,3.7c0.4,0,0.9-0.1,1.3-0.2
			c2.7-0.7,4.3-3.5,3.6-6.2C222.3,521.6,219.6,520,216.9,520.7z M218.8,527.8c-1.2,0.3-2.5-0.4-2.9-1.7c-0.2-0.6-0.1-1.2,0.2-1.8
			c0.3-0.5,0.8-0.9,1.4-1.1c1.2-0.3,2.5,0.4,2.9,1.7C220.8,526.2,220,527.5,218.8,527.8z"/>
		<path class="st21" d="M245.5,534.1c-2.7,0.7-4.3,3.5-3.6,6.2c0.6,2.3,2.6,3.7,4.9,3.7c0.4,0,0.9-0.1,1.3-0.2
			c1.3-0.3,2.4-1.2,3.1-2.3c0.7-1.2,0.9-2.5,0.5-3.8C250.9,535,248.2,533.4,245.5,534.1z M248.8,540.2c-0.3,0.5-0.8,0.9-1.4,1.1
			c-1.3,0.3-2.5-0.4-2.9-1.7c-0.3-1.3,0.4-2.5,1.7-2.9c1.3-0.3,2.5,0.4,2.9,1.7C249.2,539,249.1,539.6,248.8,540.2z"/>
		<path class="st21" d="M447.5,302.8c0.2,1.7,1,3.2,2.4,4.3c1.2,0.9,2.5,1.4,4,1.4c0.2,0,0.5,0,0.7,0l16.1-1.8
			c1.7-0.2,3.2-1,4.3-2.4c1.1-1.3,1.6-3,1.4-4.7l-4.2-36.6c-0.2-1.7-1-3.2-2.4-4.3c-1.3-1.1-3-1.6-4.7-1.4L449,259
			c-1.7,0.2-3.2,1-4.3,2.4c-1.1,1.3-1.6,3-1.4,4.7L447.5,302.8z M446.8,263.1c0.6-0.8,1.5-1.3,2.5-1.4l16.1-1.8c0.1,0,0.3,0,0.4,0
			c0.8,0,1.7,0.3,2.3,0.8c0.8,0.6,1.3,1.5,1.4,2.5l4.2,36.6c0.1,1-0.2,2-0.8,2.8c-0.6,0.8-1.5,1.3-2.5,1.4l-16.1,1.8
			c-1,0.1-2-0.2-2.8-0.8c-0.8-0.6-1.3-1.5-1.4-2.5l-4.2-36.6C445.9,264.9,446.1,263.9,446.8,263.1z"/>
		<path class="st21" d="M106.3,464.7c0.2,0.7,0.4,1.5,0.5,2.3l0.2,1.1c0.1,0.4,0.1,0.7,0.1,1.1c0.1,1.4-0.3,2.9-1,4.3
			c-0.7,1.3-1.7,2.6-2.8,3.6c1.3-0.9,2.5-2,3.4-3.3c0.9-1.3,1.6-2.9,1.6-4.6c0-0.4,0-0.8,0-1.3l-0.1-1.2c-0.1-0.8-0.2-1.6-0.3-2.4
			c0-0.2-0.1-0.4-0.1-0.5c0.3,0.3,0.5,0.6,0.8,0.9c1.3,1.2,2.8,2.3,4.4,3.2c1.7,0.9,3.5,1.4,5.3,1.7c1.1,0.2,2.2,0.3,3.2,0.3
			c-0.3,0.7-0.6,1.4-0.8,2.1c-0.5,1.4-0.9,2.9-0.9,4.6c0.1,1.4,0.4,2.6,0.8,3.8c-0.2-0.2-0.4-0.3-0.6-0.5c-1.6-1.2-3.3-2.2-5.1-3
			c-0.9-0.4-1.8-0.7-2.9-1c-1-0.2-2-0.2-3-0.1c-2,0.2-3.9,0.6-5.7,1.1c1.9-0.2,3.9-0.3,5.7-0.2c0.9,0,1.9,0.1,2.7,0.4
			c0.8,0.3,1.7,0.7,2.5,1.1c1.7,0.8,3.2,1.9,4.6,3.1c1.4,1.2,2.8,2.6,3.8,4l5,6.6l-3.2-7.7c-0.5-1.2-1-2.6-1.4-3.9
			c-0.4-1.3-0.7-2.6-0.7-3.8c0-1.1,0.4-2.4,0.8-3.7c0.5-1.3,1.1-2.5,1.7-3.7l1.2-2.2l-2.5,0.2c-1.5,0.1-3.3,0-4.8-0.2
			c-1.6-0.3-3.2-0.7-4.6-1.4c-1.4-0.7-2.8-1.6-4-2.7c-1.2-1.1-2.4-2.3-3.4-3.6l-4.4-5.6l2.6,6.6
			C105.5,461.7,105.9,463.3,106.3,464.7z"/>
		<path class="st21" d="M313.7,558.8c0.3,0.4,0.6,0.9,0.9,1.3c0.6,0.9,1,2,1.3,3c0.3,1,0.6,2.2,0.7,3.2l0.8,7.9l1.4-8
			c0.1-0.8,0.3-1.6,0.5-2.4c0.2-0.8,0.5-1.5,0.8-2.1c0.3-0.5,0.9-1,1.5-1.5c0.6-0.5,1.3-1,2-1.3l2.2-1.3l-2.3-1.1
			c-0.8-0.4-1.6-0.9-2.3-1.5c-0.7-0.6-1.4-1.3-1.9-2c-0.5-0.8-0.9-1.6-1.2-2.5c-0.3-0.9-0.6-1.9-0.7-2.8l-1.1-7.3l-0.9,7.2
			c-0.1,0.8-0.3,1.7-0.6,2.6l-0.4,1.3l-0.2,0.7c-0.1,0.2-0.1,0.4-0.2,0.6c-0.7,1.5-2.4,2.6-4.3,3c1,0,1.9-0.2,2.8-0.6
			c0.9-0.4,1.8-1,2.4-1.9c0.2-0.2,0.3-0.5,0.4-0.7l0.3-0.6l0.3-0.6c0.3,1,0.7,1.9,1.2,2.9c0.6,1,1.4,1.9,2.3,2.7
			c0.3,0.3,0.7,0.6,1,0.8c-0.2,0.1-0.4,0.3-0.5,0.4c-0.7,0.6-1.4,1.3-2,2.3c-0.2,0.4-0.4,0.8-0.5,1.2c-0.4-0.9-0.9-1.7-1.5-2.5
			c-0.4-0.5-0.7-0.9-1.3-1.4c-0.5-0.4-1.1-0.7-1.6-1c-1.1-0.5-2.2-0.8-3.4-1.1c1,0.6,2,1.2,3,1.8C313,558.1,313.4,558.4,313.7,558.8
			z"/>
		<path class="st21" d="M265.1,593.4l-3.2,7.7l5.1-6.7c0.8-1.1,1.7-2.2,2.6-3.2c0.9-1,1.9-1.9,3-2.5c1-0.6,2.3-0.9,3.6-1.1
			c1.3-0.2,2.7-0.3,4-0.4l2.5-0.1l-1.4-2.1c-0.9-1.3-1.6-2.8-2.2-4.3c-0.6-1.5-0.9-3.1-1.1-4.7c-0.1-1.6,0-3.2,0.3-4.9
			c0.3-1.6,0.8-3.3,1.4-4.7l2.7-6.6l-4.4,5.6c-0.9,1.1-2,2.2-3.1,3.3c-0.6,0.5-1.1,1.1-1.7,1.6l-0.9,0.8c-0.3,0.2-0.6,0.5-0.9,0.7
			c-1.2,0.8-2.7,1.2-4.2,1.2c-1.5,0.1-3.1-0.2-4.6-0.6c1.4,0.7,2.9,1.2,4.6,1.3c1.6,0.1,3.3-0.1,4.8-0.9c0.4-0.2,0.7-0.4,1.1-0.7
			l1-0.7c0.6-0.5,1.3-0.9,1.9-1.4c0.1-0.1,0.3-0.2,0.4-0.3c-0.1,0.4-0.2,0.7-0.3,1.1c-0.4,1.8-0.6,3.6-0.6,5.5
			c0.1,1.9,0.5,3.7,1.1,5.5c0.4,1,0.8,2,1.3,3c-0.7,0.1-1.5,0.2-2.2,0.3c-1.5,0.3-3,0.6-4.5,1.5c-1.2,0.8-2.1,1.7-2.9,2.6
			c0-0.3,0.1-0.5,0.1-0.8c0.2-2,0.3-4,0.1-6c-0.1-1-0.3-1.9-0.6-3c-0.4-1-0.9-1.8-1.4-2.7c-1.1-1.6-2.4-3.1-3.8-4.4
			c1.1,1.6,2.2,3.2,3,4.9c0.4,0.8,0.8,1.7,1,2.6c0.2,0.8,0.3,1.8,0.3,2.7c0.1,1.9-0.1,3.7-0.4,5.6
			C266.3,589.9,265.8,591.8,265.1,593.4z"/>
		<path class="st21" d="M389.8,461c-2.2,0-3.9,1.8-3.9,3.9s1.8,3.9,3.9,3.9s3.9-1.8,3.9-3.9S392,461,389.8,461z M389.8,466.2
			c-0.7,0-1.2-0.6-1.2-1.2s0.6-1.2,1.2-1.2c0.7,0,1.2,0.6,1.2,1.2S390.5,466.2,389.8,466.2z"/>
		<path class="st21" d="M398,448.2c-1-0.1-2.1,0.2-2.9,0.9c-0.8,0.7-1.3,1.6-1.4,2.7c-0.1,1,0.2,2.1,0.9,2.9
			c0.7,0.8,1.6,1.3,2.7,1.4c0.1,0,0.2,0,0.4,0c0.9,0,1.8-0.3,2.5-0.9c0.8-0.7,1.3-1.6,1.4-2.7c0.1-1-0.2-2.1-0.9-2.9
			C400,448.8,399,448.3,398,448.2z M398.4,453.1c-0.3,0.2-0.6,0.3-0.9,0.3c-0.3,0-0.6-0.2-0.8-0.4c-0.2-0.3-0.3-0.6-0.3-0.9
			c0-0.3,0.2-0.6,0.4-0.8c0.2-0.2,0.5-0.3,0.8-0.3c0,0,0.1,0,0.1,0c0.3,0,0.6,0.2,0.8,0.4c0.2,0.3,0.3,0.6,0.3,0.9
			C398.8,452.6,398.7,452.9,398.4,453.1z"/>
		<path class="st21" d="M410.7,448c0.1,0,0.2,0,0.4,0c0.9,0,1.8-0.3,2.5-0.9c0.8-0.7,1.3-1.6,1.4-2.7c0.1-1-0.2-2.1-0.9-2.9
			c-0.7-0.8-1.6-1.3-2.7-1.4c-1-0.1-2.1,0.2-2.9,0.9c-0.8,0.7-1.3,1.6-1.4,2.7c-0.1,1,0.2,2.1,0.9,2.9
			C408.7,447.4,409.7,447.9,410.7,448z M410.3,443.1c0.2-0.2,0.5-0.3,0.8-0.3c0,0,0.1,0,0.1,0c0.3,0,0.6,0.2,0.8,0.4
			c0.2,0.3,0.3,0.6,0.3,0.9c0,0.3-0.2,0.6-0.4,0.8c-0.3,0.2-0.6,0.3-0.9,0.3c-0.3,0-0.6-0.2-0.8-0.4c-0.2-0.3-0.3-0.6-0.3-0.9
			S410,443.3,410.3,443.1z"/>
		<path class="st21" d="M431.2,432.9c-2.2,0-3.9,1.8-3.9,3.9s1.8,3.9,3.9,3.9s3.9-1.8,3.9-3.9S433.3,432.9,431.2,432.9z M431.2,438
			c-0.7,0-1.2-0.6-1.2-1.2c0-0.7,0.6-1.2,1.2-1.2c0.7,0,1.2,0.6,1.2,1.2C432.4,437.5,431.9,438,431.2,438z"/>
		<path class="st21" d="M440.3,429.2c0.9,0,1.8-0.3,2.5-0.9c1.7-1.4,1.9-3.9,0.5-5.5c-1.4-1.7-3.9-1.9-5.5-0.5l0,0
			c-0.8,0.7-1.3,1.6-1.4,2.7c-0.1,1,0.2,2.1,0.9,2.9C438.1,428.7,439.2,429.2,440.3,429.2z M439.5,424.3c0.5-0.4,1.3-0.4,1.7,0.2
			c0.4,0.5,0.4,1.3-0.2,1.7c-0.5,0.4-1.3,0.4-1.7-0.2c-0.2-0.3-0.3-0.6-0.3-0.9S439.3,424.5,439.5,424.3z"/>
	</g>
</g>
</svg>
